o Cube.012
v -2.289696 -5.181290 1.038913
v -2.289696 -5.181290 1.438913
v -1.989696 -5.181290 1.038913
v -1.989696 -5.181290 1.438913
v -2.289696 -5.481290 1.038913
v -2.289696 -5.481290 1.438913
v -1.989696 -5.481290 1.038913
v -1.989696 -5.481290 1.438913
v -2.256520 -5.181290 1.038913
v -2.289696 -5.272708 1.038913
v -2.289696 -5.181290 1.085649
v -2.013995 -5.448473 1.438913
v -2.011632 -5.203140 1.438913
v -2.275418 -5.199334 1.438913
v -2.277930 -5.451914 1.438913
v -2.018819 -5.181290 1.038913
v -1.989696 -5.230555 1.038913
v -1.989696 -5.181290 1.078209
vn -0.0000 -1.0000 -0.0000
vn -1.0000 -0.0000 -0.0000
vn -0.0000 -0.0000 -1.0000
vn -0.0000 -0.0000 1.0000
vn -0.0000 1.0000 -0.0000
vn 1.0000 -0.0000 -0.0000
vt 0.125000 0.750000
vt 0.625000 1.000000
vt 0.625000 0.000000
vt 0.875000 0.750000
vt 0.375000 0.250000
vt 0.875000 0.500000
vt 0.625000 0.250000
vt 0.375000 0.750000
vt 0.625000 0.750000
vt 0.375000 0.500000
vt 0.625000 0.500000
vt 0.375000 0.027647
vt 0.375000 0.923818
vt 0.404211 0.000000
vt 0.404211 1.000000
vt 0.652348 0.520249
vt 0.856791 0.518280
vt 0.859964 0.738102
vt 0.649480 0.740196
vt 0.375000 0.225731
vt 0.375000 0.291054
vt 0.399560 0.250000
s 0
usemtl Trash2.001
f 8/11/1 5/8/1 7/10/1
f 6/9/2 11/15/2 10/13/2
f 17/21/3 10/13/3 9/12/3
f 8/11/4 4/6/4 12/16/4
f 11/14/5 4/7/5 16/20/5
f 1/1/5 11/15/5 9/12/5
f 15/19/4 2/4/4 6/9/4
f 18/22/6 8/11/6 7/10/6
f 3/5/6 18/22/6 17/21/6
f 8/11/1 6/9/1 5/8/1
f 10/13/2 5/8/2 6/9/2
f 6/9/2 2/2/2 11/15/2
f 16/20/3 3/5/3 17/21/3
f 17/21/3 7/10/3 5/8/3
f 10/13/3 1/1/3 9/12/3
f 17/21/3 5/8/3 10/13/3
f 9/12/3 16/20/3 17/21/3
f 4/6/4 2/4/4 14/18/4
f 4/6/4 14/18/4 13/17/4
f 15/19/4 6/9/4 8/11/4
f 4/6/4 13/17/4 12/16/4
f 12/16/4 15/19/4 8/11/4
f 16/20/5 9/12/5 11/14/5
f 11/14/5 2/3/5 4/7/5
f 4/7/5 18/22/5 16/20/5
f 1/1/2 10/13/2 11/15/2
f 15/19/4 14/18/4 2/4/4
f 7/10/6 17/21/6 18/22/6
f 18/22/6 4/7/6 8/11/6
f 3/5/5 16/20/5 18/22/5
