o SM_Prop_Computer_Keyboard_01
v -3.563585 -0.175240 1.352179
v -4.018635 -0.175240 1.352179
v -3.563585 -0.186475 1.369413
v -4.018635 -0.186475 1.369413
v -3.563585 -0.342478 1.287233
v -4.018635 -0.342478 1.287233
v -3.563585 -0.322314 1.256302
v -4.018635 -0.322314 1.256302
v -3.571440 -0.354643 1.279303
v -3.571440 -0.174310 1.377344
v -3.571440 -0.163074 1.360109
v -3.571440 -0.334479 1.248372
v -4.010778 -0.163074 1.360109
v -4.010778 -0.174310 1.377344
v -4.010778 -0.354643 1.279303
v -4.010778 -0.334479 1.248372
vn -0.0324 0.8371 0.5460
vn 0.0168 0.8269 0.5621
vn -0.0324 0.8373 0.5458
vn -0.0000 -0.4776 0.8786
vn -0.0324 -0.8370 -0.5462
vn 0.0173 -0.8270 -0.5619
vn -0.0324 -0.8373 -0.5458
vn -0.0000 0.5461 -0.8377
vn -1.0000 -0.0000 -0.0000
vn 1.0000 -0.0000 -0.0000
vn -0.1689 -0.4594 0.8720
vn -0.1692 -0.4648 0.8691
vn 0.1116 0.5783 0.8082
vn 0.8795 0.3986 0.2598
vn 0.0648 -0.6842 -0.7264
vn 0.8795 -0.3986 -0.2598
vn -0.0591 0.9337 0.3530
vn -0.8795 0.3986 0.2598
vn 0.1692 -0.4648 0.8691
vn 0.1689 -0.4594 0.8720
vn -0.0786 -0.9542 -0.2886
vn -0.8795 -0.3986 -0.2598
vn -0.0325 -0.8373 -0.5458
vn -0.0168 0.8480 0.5298
vn 0.0324 0.8373 0.5458
vn 0.0324 0.8374 0.5456
vn -0.0173 -0.8478 -0.5300
vn 0.0324 -0.8373 -0.5458
vn 0.0324 -0.8375 -0.5454
vn 0.1457 -0.4725 0.8692
vn 0.1457 -0.4777 0.8664
vn 0.1486 -0.4774 0.8660
vn 0.0591 0.9337 0.3530
vn 0.0786 -0.9542 -0.2886
vn 0.0325 -0.8373 -0.5458
vn -0.1116 0.5783 0.8082
vn -0.1486 -0.4774 0.8660
vn -0.1457 -0.4777 0.8664
vn -0.1457 -0.4725 0.8692
vn -0.0648 -0.6842 -0.7264
vt 0.973185 0.231311
vt 0.973185 0.231311
vt 0.973185 0.231311
vt 0.973185 0.231311
vt 0.973185 0.231311
vt 0.973185 0.231311
vt 0.973185 0.231311
vt 0.973185 0.231311
vt 0.753500 0.240407
vt 0.973185 0.231311
vt 0.753500 0.158412
vt 0.973185 0.231311
vt 0.973185 0.231311
vt 0.973185 0.231311
vt 0.973185 0.231311
vt 0.996382 0.158412
vt 0.973185 0.231311
vt 0.996382 0.240407
vt 0.973185 0.231311
vt 0.973185 0.231311
s 0
usemtl Leather
f 14/17/1 11/13/2 13/15/3
f 15/18/4 10/11/4 14/16/4
f 16/20/5 9/10/6 15/19/7
f 13/15/8 12/14/8 16/20/8
f 8/8/9 4/4/9 2/2/9
f 7/7/10 3/3/10 5/5/10
f 3/3/11 9/10/12 5/5/11
f 11/13/13 3/3/14 1/1/14
f 12/14/8 1/1/8 7/7/8
f 9/10/15 7/7/16 5/5/16
f 13/15/17 4/4/18 14/17/3
f 15/19/19 4/4/20 6/6/20
f 15/19/21 8/8/22 16/20/23
f 16/20/8 2/2/8 13/15/8
f 14/17/24 10/12/25 11/13/26
f 15/18/4 9/9/4 10/11/4
f 16/20/27 12/14/28 9/10/29
f 13/15/8 11/13/8 12/14/8
f 8/8/9 6/6/9 4/4/9
f 7/7/10 1/1/10 3/3/10
f 3/3/30 10/12/31 9/10/32
f 11/13/33 10/12/25 3/3/14
f 12/14/8 11/13/8 1/1/8
f 9/10/34 12/14/35 7/7/16
f 13/15/36 2/2/18 4/4/18
f 15/19/37 14/17/38 4/4/39
f 15/19/40 6/6/22 8/8/22
f 16/20/8 8/8/8 2/2/8
