o SM_Prop_Television_Flat_Wall_01_-_Copy.001
v -4.212574 -0.093374 1.529703
v -4.211266 -0.141444 1.529703
v -4.212574 -0.093374 2.102668
v -4.211266 -0.141444 2.102668
v -3.372465 -0.070515 2.102668
v -3.371157 -0.118585 2.102668
v -3.372465 -0.070515 1.529703
v -3.371157 -0.118585 1.529703
v -4.204257 -0.093148 2.113272
v -4.202949 -0.141217 2.113272
v -3.379474 -0.118811 2.113272
v -3.380782 -0.070742 2.113272
v -3.380782 -0.070742 1.519098
v -3.379474 -0.118811 1.519098
v -4.202949 -0.141217 1.519098
v -4.204257 -0.093148 1.519098
v -3.383437 -0.118919 1.540782
v -4.198987 -0.141110 1.540782
v -3.383437 -0.118919 2.091588
v -4.198987 -0.141110 2.091588
v -3.391510 -0.119139 2.101783
v -4.190913 -0.140890 2.101783
v -4.190913 -0.140890 1.530587
v -3.391510 -0.119139 1.530587
v -3.390583 -0.107492 1.549638
v -4.192472 -0.129311 1.549638
v -3.390583 -0.107492 2.082732
v -4.192472 -0.129311 2.082732
v -3.398522 -0.107708 2.092599
v -4.184534 -0.129095 2.092599
v -4.184534 -0.129095 1.539772
v -3.398522 -0.107708 1.539772
v -3.632197 -0.077582 1.823317
v -3.952842 -0.086307 1.823317
v -3.952842 -0.086307 2.006632
v -3.632197 -0.077582 2.006632
v -3.913789 -0.085244 2.050956
v -3.671249 -0.078645 2.050956
v -3.671249 -0.078645 1.778993
v -3.913789 -0.085244 1.778993
v -3.644864 0.016584 1.829090
v -3.945315 0.008409 1.829090
v -3.945315 0.008409 2.000859
v -3.644864 0.016584 2.000859
v -3.908722 0.009405 2.042392
v -3.681456 0.015589 2.042392
v -3.681456 0.015589 1.787557
v -3.908722 0.009405 1.787557
v -3.715603 0.014660 1.855111
v -3.874576 0.010334 1.855111
v -3.874576 0.010334 1.974838
v -3.715603 0.014660 1.974838
vn -0.9996 -0.0272 -0.0000
vn -0.0000 -0.0000 1.0000
vn 0.9996 0.0272 -0.0000
vn -0.0000 -0.0000 -1.0000
vn 0.0272 -0.9996 -0.0000
vn -0.0272 0.9996 -0.0000
vn -0.7865 -0.0214 0.6173
vn 0.7865 0.0214 0.6173
vn 0.7865 0.0214 -0.6173
vn -0.7865 -0.0214 -0.6173
vn -0.8478 -0.5303 -0.0000
vn 0.8754 -0.4834 -0.0000
vn -0.5499 -0.6987 -0.4577
vn 0.0169 -0.6200 -0.7845
vn 0.5887 -0.6702 -0.4518
vn 0.5871 -0.6677 0.4577
vn 0.0169 -0.6200 0.7844
vn -0.5514 -0.7013 0.4518
vn -0.9969 0.0792 -0.0000
vn 0.9911 0.1333 -0.0000
vn -0.7478 0.0994 0.6565
vn -0.0025 0.0902 0.9959
vn 0.7413 0.1399 0.6565
vn 0.7413 0.1399 -0.6565
vn -0.0025 0.0902 -0.9959
vn -0.7478 0.0994 -0.6565
vn -0.5514 -0.7013 -0.4518
vn 0.5871 -0.6677 -0.4577
vn 0.5887 -0.6703 0.4518
vn 0.0169 -0.6200 0.7845
vn -0.5499 -0.6987 0.4577
vt 0.080676 0.228912
vt 0.080676 0.228912
vt 0.080676 0.228912
vt 0.080676 0.228912
vt 0.080676 0.228912
vt 0.080676 0.228912
vt 0.080676 0.228912
vt 0.080676 0.228912
vt 0.080676 0.228912
vt 0.080676 0.228912
vt 0.080676 0.228912
vt 0.080676 0.228912
vt 0.080676 0.228912
vt 0.080676 0.228912
vt 0.080676 0.228912
vt 0.080676 0.228912
vt 0.080676 0.228912
vt 0.080676 0.228912
vt 0.080676 0.228912
vt 0.080676 0.228912
vt 0.080676 0.228912
vt 0.080676 0.228912
vt 0.080676 0.228912
vt 0.080676 0.228912
vt 1.000000 0.017847
vt 0.080676 0.228912
vt 0.000000 0.017847
vt 0.080676 0.228912
vt 1.000000 0.982153
vt 0.080676 0.228912
vt 0.000000 0.982153
vt 0.080676 0.228912
vt 0.990100 1.000000
vt 0.080676 0.228912
vt 0.009899 1.000000
vt 0.080676 0.228912
vt 0.009899 0.000000
vt 0.080676 0.228912
vt 0.990100 0.000000
vt 0.080676 0.228912
vt 0.080676 0.228912
vt 0.080676 0.228912
vt 0.080676 0.228912
vt 0.080676 0.228912
vt 0.080676 0.228912
vt 0.080676 0.228912
vt 0.080676 0.228912
vt 0.080676 0.228912
vt 0.080676 0.228912
vt 0.080676 0.228912
vt 0.080676 0.228912
vt 0.080676 0.228912
vt 0.080676 0.228912
vt 0.080676 0.228912
vt 0.080676 0.228912
vt 0.080676 0.228912
vt 0.101440 0.230583
vt 0.080676 0.228912
vt 0.101440 0.230583
vt 0.080676 0.228912
vt 0.101440 0.230583
vt 0.080676 0.228912
vt 0.101440 0.230583
vt 0.080676 0.228912
s 0
usemtl Leather
f 2/2/1 3/3/1 1/1/1
f 10/10/2 12/12/2 9/9/2
f 6/6/3 7/7/3 5/5/3
f 14/14/4 16/16/4 13/13/4
f 25/25/5 28/31/5 26/27/5
f 50/59/6 52/63/6 49/57/6
f 4/4/7 9/9/7 3/3/7
f 28/31/5 29/33/5 30/35/5
f 5/5/8 11/11/8 6/6/8
f 44/52/6 45/53/6 46/54/6
f 8/8/9 13/13/9 7/7/9
f 26/27/5 32/39/5 25/25/5
f 1/1/10 15/15/10 2/2/10
f 41/49/6 48/56/6 42/50/6
f 6/6/5 17/17/5 8/8/5
f 4/4/5 18/18/5 20/20/5
f 11/11/5 19/19/5 6/6/5
f 10/10/5 21/21/5 11/11/5
f 10/10/5 20/20/5 22/22/5
f 15/15/5 18/18/5 2/2/5
f 15/15/5 24/24/5 23/23/5
f 14/14/5 17/17/5 24/24/5
f 19/19/11 25/26/11 17/17/11
f 20/20/12 26/28/12 28/32/12
f 19/19/13 29/34/13 27/30/13
f 22/22/14 29/34/14 21/21/14
f 20/20/15 30/36/15 22/22/15
f 18/18/16 31/38/16 26/28/16
f 23/23/17 32/40/17 31/38/17
f 17/17/18 32/40/18 24/24/18
f 3/3/6 34/42/6 1/1/6
f 5/5/6 33/41/6 36/44/6
f 9/9/6 35/43/6 3/3/6
f 12/12/6 37/45/6 9/9/6
f 12/12/6 36/44/6 38/46/6
f 13/13/6 33/41/6 7/7/6
f 13/13/6 40/48/6 39/47/6
f 16/16/6 34/42/6 40/48/6
f 34/42/19 43/51/19 42/50/19
f 33/41/20 44/52/20 36/44/20
f 37/45/21 43/51/21 35/43/21
f 37/45/22 46/54/22 45/53/22
f 38/46/23 44/52/23 46/54/23
f 39/47/24 41/49/24 33/41/24
f 40/48/25 47/55/25 39/47/25
f 40/48/26 42/50/26 48/56/26
f 42/50/6 49/58/6 41/49/6
f 42/50/6 51/62/6 50/60/6
f 43/51/6 52/64/6 51/62/6
f 41/49/6 52/64/6 44/52/6
f 2/2/1 4/4/1 3/3/1
f 10/10/2 11/11/2 12/12/2
f 6/6/3 8/8/3 7/7/3
f 14/14/4 15/15/4 16/16/4
f 25/25/5 27/29/5 28/31/5
f 50/59/6 51/61/6 52/63/6
f 4/4/7 10/10/7 9/9/7
f 28/31/5 27/29/5 29/33/5
f 5/5/8 12/12/8 11/11/8
f 44/52/6 43/51/6 45/53/6
f 8/8/9 14/14/9 13/13/9
f 26/27/5 31/37/5 32/39/5
f 1/1/10 16/16/10 15/15/10
f 41/49/6 47/55/6 48/56/6
f 6/6/5 19/19/5 17/17/5
f 4/4/5 2/2/5 18/18/5
f 11/11/5 21/21/5 19/19/5
f 10/10/5 22/22/5 21/21/5
f 10/10/5 4/4/5 20/20/5
f 15/15/5 23/23/5 18/18/5
f 15/15/5 14/14/5 24/24/5
f 14/14/5 8/8/5 17/17/5
f 19/19/11 27/30/11 25/26/11
f 20/20/12 18/18/12 26/28/12
f 19/19/27 21/21/27 29/34/27
f 22/22/14 30/36/14 29/34/14
f 20/20/28 28/32/28 30/36/28
f 18/18/29 23/23/29 31/38/29
f 23/23/30 24/24/30 32/40/30
f 17/17/31 25/26/31 32/40/31
f 3/3/6 35/43/6 34/42/6
f 5/5/6 7/7/6 33/41/6
f 9/9/6 37/45/6 35/43/6
f 12/12/6 38/46/6 37/45/6
f 12/12/6 5/5/6 36/44/6
f 13/13/6 39/47/6 33/41/6
f 13/13/6 16/16/6 40/48/6
f 16/16/6 1/1/6 34/42/6
f 34/42/19 35/43/19 43/51/19
f 33/41/20 41/49/20 44/52/20
f 37/45/21 45/53/21 43/51/21
f 37/45/22 38/46/22 46/54/22
f 38/46/23 36/44/23 44/52/23
f 39/47/24 47/55/24 41/49/24
f 40/48/25 48/56/25 47/55/25
f 40/48/26 34/42/26 42/50/26
f 42/50/6 50/60/6 49/58/6
f 42/50/6 43/51/6 51/62/6
f 43/51/6 44/52/6 52/64/6
f 41/49/6 49/58/6 52/64/6
