o SM_Prop_Television_Flat_Wall_01_-_Copy.002
v -2.927868 -0.230603 1.246682
v -2.926560 -0.278673 1.246682
v -2.927868 -0.230603 1.626786
v -2.926560 -0.278673 1.626786
v -2.387649 -0.215904 1.626786
v -2.386341 -0.263974 1.626786
v -2.387649 -0.215904 1.246682
v -2.386341 -0.263974 1.246682
v -2.922520 -0.230457 1.633821
v -2.921212 -0.278527 1.633821
v -2.391689 -0.264119 1.633821
v -2.392997 -0.216049 1.633821
v -2.392997 -0.216049 1.239647
v -2.391689 -0.264119 1.239647
v -2.921212 -0.278527 1.239647
v -2.922520 -0.230457 1.239647
v -2.394237 -0.264189 1.254031
v -2.918665 -0.278458 1.254031
v -2.394237 -0.264189 1.619436
v -2.918665 -0.278458 1.619436
v -2.399429 -0.264330 1.626199
v -2.913473 -0.278317 1.626199
v -2.913473 -0.278317 1.247269
v -2.399429 -0.264330 1.247269
v -2.398945 -0.252695 1.259907
v -2.914588 -0.266726 1.259907
v -2.398945 -0.252695 1.613561
v -2.914588 -0.266726 1.613561
v -2.404050 -0.252834 1.620106
v -2.909483 -0.266587 1.620106
v -2.909483 -0.266587 1.253361
v -2.404050 -0.252834 1.253361
v -2.554666 -0.220448 1.441465
v -2.760851 -0.226059 1.441465
v -2.760851 -0.226058 1.563076
v -2.554666 -0.220448 1.563076
v -2.735739 -0.225375 1.592480
v -2.579777 -0.221132 1.592480
v -2.579777 -0.221132 1.412060
v -2.735739 -0.225375 1.412060
v -2.563728 -0.126183 1.445294
v -2.756929 -0.131440 1.445294
v -2.756929 -0.131440 1.559246
v -2.563728 -0.126183 1.559246
v -2.733398 -0.130800 1.586799
v -2.587258 -0.126824 1.586799
v -2.587258 -0.126824 1.417742
v -2.733398 -0.130800 1.417742
v -2.609216 -0.127421 1.462557
v -2.711441 -0.130203 1.462557
v -2.711441 -0.130203 1.541983
v -2.609216 -0.127421 1.541983
vn -0.9996 -0.0272 -0.0000
vn -0.0000 -0.0000 1.0000
vn 0.9996 0.0272 -0.0000
vn -0.0000 -0.0000 -1.0000
vn 0.0272 -0.9996 -0.0000
vn -0.0272 0.9996 -0.0000
vn -0.7957 -0.0216 0.6053
vn 0.7957 0.0216 0.6053
vn 0.7957 0.0216 -0.6053
vn -0.7957 -0.0216 -0.6053
vn -0.9254 -0.3791 -0.0000
vn 0.9446 -0.3282 -0.0000
vn -0.6589 -0.5385 -0.5253
vn 0.0126 -0.4643 -0.8856
vn 0.6900 -0.5043 -0.5192
vn 0.6872 -0.5018 0.5253
vn 0.0126 -0.4643 0.8856
vn -0.6615 -0.5411 0.5192
vn -0.9991 0.0414 -0.0000
vn 0.9954 0.0957 -0.0000
vn -0.7598 0.0577 0.6476
vn -0.0016 0.0600 0.9982
vn 0.7556 0.0989 0.6476
vn 0.7556 0.0989 -0.6476
vn -0.0016 0.0600 -0.9982
vn -0.7598 0.0577 -0.6476
vn -0.6616 -0.5411 -0.5192
vn 0.6872 -0.5018 -0.5253
vn 0.6900 -0.5043 0.5192
vn -0.6589 -0.5385 0.5253
vt 0.080676 0.228912
vt 0.080676 0.228912
vt 0.080676 0.228912
vt 0.080676 0.228912
vt 0.080676 0.228912
vt 0.080676 0.228912
vt 0.080676 0.228912
vt 0.080676 0.228912
vt 0.080676 0.228912
vt 0.080676 0.228912
vt 0.080676 0.228912
vt 0.080676 0.228912
vt 0.080676 0.228912
vt 0.080676 0.228912
vt 0.080676 0.228912
vt 0.080676 0.228912
vt 0.080676 0.228912
vt 0.080676 0.228912
vt 0.080676 0.228912
vt 0.080676 0.228912
vt 0.080676 0.228912
vt 0.080676 0.228912
vt 0.080676 0.228912
vt 0.080676 0.228912
vt 1.000000 0.017847
vt 0.080676 0.228912
vt 0.000000 0.017847
vt 0.080676 0.228912
vt 1.000000 0.982153
vt 0.080676 0.228912
vt 0.000000 0.982153
vt 0.080676 0.228912
vt 0.990100 1.000000
vt 0.080676 0.228912
vt 0.009899 1.000000
vt 0.080676 0.228912
vt 0.009899 0.000000
vt 0.080676 0.228912
vt 0.990100 0.000000
vt 0.080676 0.228912
vt 0.080676 0.228912
vt 0.080676 0.228912
vt 0.080676 0.228912
vt 0.080676 0.228912
vt 0.080676 0.228912
vt 0.080676 0.228912
vt 0.080676 0.228912
vt 0.080676 0.228912
vt 0.080676 0.228912
vt 0.080676 0.228912
vt 0.080676 0.228912
vt 0.080676 0.228912
vt 0.080676 0.228912
vt 0.080676 0.228912
vt 0.080676 0.228912
vt 0.080676 0.228912
vt 0.101440 0.230583
vt 0.080676 0.228912
vt 0.101440 0.230583
vt 0.080676 0.228912
vt 0.101440 0.230583
vt 0.080676 0.228912
vt 0.101440 0.230583
vt 0.080676 0.228912
s 0
usemtl Leather
f 2/2/1 3/3/1 1/1/1
f 10/10/2 12/12/2 9/9/2
f 6/6/3 7/7/3 5/5/3
f 14/14/4 16/16/4 13/13/4
f 25/25/5 28/31/5 26/27/5
f 50/59/6 52/63/6 49/57/6
f 4/4/7 9/9/7 3/3/7
f 28/31/5 29/33/5 30/35/5
f 5/5/8 11/11/8 6/6/8
f 44/52/6 45/53/6 46/54/6
f 8/8/9 13/13/9 7/7/9
f 26/27/5 32/39/5 25/25/5
f 1/1/10 15/15/10 2/2/10
f 41/49/6 48/56/6 42/50/6
f 6/6/5 17/17/5 8/8/5
f 4/4/5 18/18/5 20/20/5
f 11/11/5 19/19/5 6/6/5
f 10/10/5 21/21/5 11/11/5
f 10/10/5 20/20/5 22/22/5
f 15/15/5 18/18/5 2/2/5
f 15/15/5 24/24/5 23/23/5
f 14/14/5 17/17/5 24/24/5
f 19/19/11 25/26/11 17/17/11
f 20/20/12 26/28/12 28/32/12
f 19/19/13 29/34/13 27/30/13
f 22/22/14 29/34/14 21/21/14
f 20/20/15 30/36/15 22/22/15
f 18/18/16 31/38/16 26/28/16
f 23/23/17 32/40/17 31/38/17
f 17/17/18 32/40/18 24/24/18
f 3/3/6 34/42/6 1/1/6
f 5/5/6 33/41/6 36/44/6
f 9/9/6 35/43/6 3/3/6
f 12/12/6 37/45/6 9/9/6
f 12/12/6 36/44/6 38/46/6
f 13/13/6 33/41/6 7/7/6
f 13/13/6 40/48/6 39/47/6
f 16/16/6 34/42/6 40/48/6
f 34/42/19 43/51/19 42/50/19
f 33/41/20 44/52/20 36/44/20
f 37/45/21 43/51/21 35/43/21
f 37/45/22 46/54/22 45/53/22
f 38/46/23 44/52/23 46/54/23
f 39/47/24 41/49/24 33/41/24
f 40/48/25 47/55/25 39/47/25
f 40/48/26 42/50/26 48/56/26
f 42/50/6 49/58/6 41/49/6
f 42/50/6 51/62/6 50/60/6
f 43/51/6 52/64/6 51/62/6
f 41/49/6 52/64/6 44/52/6
f 2/2/1 4/4/1 3/3/1
f 10/10/2 11/11/2 12/12/2
f 6/6/3 8/8/3 7/7/3
f 14/14/4 15/15/4 16/16/4
f 25/25/5 27/29/5 28/31/5
f 50/59/6 51/61/6 52/63/6
f 4/4/7 10/10/7 9/9/7
f 28/31/5 27/29/5 29/33/5
f 5/5/8 12/12/8 11/11/8
f 44/52/6 43/51/6 45/53/6
f 8/8/9 14/14/9 13/13/9
f 26/27/5 31/37/5 32/39/5
f 1/1/10 16/16/10 15/15/10
f 41/49/6 47/55/6 48/56/6
f 6/6/5 19/19/5 17/17/5
f 4/4/5 2/2/5 18/18/5
f 11/11/5 21/21/5 19/19/5
f 10/10/5 22/22/5 21/21/5
f 10/10/5 4/4/5 20/20/5
f 15/15/5 23/23/5 18/18/5
f 15/15/5 14/14/5 24/24/5
f 14/14/5 8/8/5 17/17/5
f 19/19/11 27/30/11 25/26/11
f 20/20/12 18/18/12 26/28/12
f 19/19/27 21/21/27 29/34/27
f 22/22/14 30/36/14 29/34/14
f 20/20/28 28/32/28 30/36/28
f 18/18/29 23/23/29 31/38/29
f 23/23/17 24/24/17 32/40/17
f 17/17/30 25/26/30 32/40/30
f 3/3/6 35/43/6 34/42/6
f 5/5/6 7/7/6 33/41/6
f 9/9/6 37/45/6 35/43/6
f 12/12/6 38/46/6 37/45/6
f 12/12/6 5/5/6 36/44/6
f 13/13/6 39/47/6 33/41/6
f 13/13/6 16/16/6 40/48/6
f 16/16/6 1/1/6 34/42/6
f 34/42/19 35/43/19 43/51/19
f 33/41/20 41/49/20 44/52/20
f 37/45/21 45/53/21 43/51/21
f 37/45/22 38/46/22 46/54/22
f 38/46/23 36/44/23 44/52/23
f 39/47/24 47/55/24 41/49/24
f 40/48/25 48/56/25 47/55/25
f 40/48/26 34/42/26 42/50/26
f 42/50/6 50/60/6 49/58/6
f 42/50/6 43/51/6 51/62/6
f 43/51/6 44/52/6 52/64/6
f 41/49/6 49/58/6 52/64/6
