o SM_Prop_Television_Flat_Wall_01_-_Copy.004
v -5.239018 -1.999284 1.279060
v -5.220910 -2.014354 1.277490
v -5.225698 -2.011022 1.545374
v -5.207590 -2.026093 1.543804
v -5.090913 -1.849107 1.545770
v -5.072804 -1.864178 1.544200
v -5.104232 -1.837369 1.279455
v -5.086124 -1.852439 1.277885
v -5.224118 -2.009636 1.550307
v -5.206009 -2.024707 1.548737
v -5.073892 -1.865998 1.549125
v -5.092000 -1.850927 1.550695
v -5.105813 -1.838754 1.274522
v -5.087705 -1.853825 1.272953
v -5.219822 -2.012534 1.272565
v -5.237930 -1.997463 1.274135
v -5.087836 -1.855033 1.283029
v -5.218682 -2.012215 1.282645
v -5.075032 -1.866317 1.539044
v -5.205878 -2.023499 1.538660
v -5.076090 -1.868082 1.543779
v -5.204345 -2.022152 1.543402
v -5.217624 -2.010450 1.277911
v -5.089369 -1.856380 1.278287
v -5.093101 -1.852890 1.287522
v -5.221755 -2.007439 1.287144
v -5.080709 -1.863812 1.535304
v -5.209362 -2.018361 1.534926
v -5.081753 -1.865544 1.539886
v -5.207859 -2.017033 1.539516
v -5.220711 -2.005707 1.282562
v -5.094604 -1.854218 1.282932
v -5.139078 -1.893443 1.415805
v -5.190521 -1.955241 1.415654
v -5.186260 -1.958996 1.500859
v -5.134816 -1.897198 1.501010
v -5.178964 -1.952378 1.521479
v -5.140051 -1.905633 1.521593
v -5.146374 -1.900061 1.395185
v -5.185287 -1.946806 1.395071
v -5.176140 -1.865898 1.421568
v -5.224344 -1.923805 1.421426
v -5.220351 -1.927324 1.501265
v -5.172147 -1.869417 1.501407
v -5.213515 -1.921122 1.520587
v -5.177053 -1.877321 1.520694
v -5.182977 -1.872100 1.402246
v -5.219439 -1.915901 1.402139
v -5.186885 -1.880065 1.433629
v -5.212390 -1.910704 1.433555
v -5.209607 -1.913157 1.489203
v -5.184102 -1.882518 1.489278
vn -0.6398 -0.7686 -0.0019
vn 0.0499 -0.0440 0.9978
vn 0.6398 0.7686 0.0019
vn -0.0499 0.0440 -0.9978
vn 0.7669 -0.6383 -0.0665
vn -0.7669 0.6383 0.0665
vn -0.5700 -0.7251 0.3864
vn 0.6088 0.6909 0.3898
vn 0.5700 0.7251 -0.3864
vn -0.6088 -0.6909 -0.3898
vn -0.3922 -0.9197 -0.0209
vn 0.8333 0.5525 -0.0173
vn -0.1526 -0.9124 -0.3797
vn 0.4203 -0.3478 -0.8381
vn 0.8726 0.3166 -0.3719
vn 0.9051 0.2862 0.3144
vn 0.5001 -0.4182 0.7583
vn -0.1181 -0.9445 0.3065
vn -0.6806 -0.7326 0.0017
vn 0.5970 0.8022 0.0055
vn -0.6119 -0.6641 0.4296
vn -0.0160 0.0109 0.9998
vn 0.5411 0.7209 0.4330
vn 0.4984 0.7585 -0.4198
vn -0.1154 0.0985 -0.9884
vn -0.6545 -0.6265 -0.4232
vn -0.1522 -0.9145 -0.3749
vn 0.8706 0.3166 -0.3767
vn 0.9067 0.2866 0.3095
vn -0.1180 -0.9429 0.3115
vt 0.080676 0.228912
vt 0.080676 0.228912
vt 0.080676 0.228912
vt 0.080676 0.228912
vt 0.080676 0.228912
vt 0.080676 0.228912
vt 0.080676 0.228912
vt 0.080676 0.228912
vt 0.080676 0.228912
vt 0.080676 0.228912
vt 0.080676 0.228912
vt 0.080676 0.228912
vt 0.080676 0.228912
vt 0.080676 0.228912
vt 0.080676 0.228912
vt 0.080676 0.228912
vt 0.080676 0.228912
vt 0.080676 0.228912
vt 0.080676 0.228912
vt 0.080676 0.228912
vt 0.080676 0.228912
vt 0.080676 0.228912
vt 0.080676 0.228912
vt 0.080676 0.228912
vt 1.000000 0.017847
vt 0.080676 0.228912
vt 0.000000 0.017847
vt 0.080676 0.228912
vt 1.000000 0.982153
vt 0.080676 0.228912
vt 0.000000 0.982153
vt 0.080676 0.228912
vt 0.990100 1.000000
vt 0.080676 0.228912
vt 0.009899 1.000000
vt 0.080676 0.228912
vt 0.009899 0.000000
vt 0.080676 0.228912
vt 0.990100 0.000000
vt 0.080676 0.228912
vt 0.080676 0.228912
vt 0.080676 0.228912
vt 0.080676 0.228912
vt 0.080676 0.228912
vt 0.080676 0.228912
vt 0.080676 0.228912
vt 0.080676 0.228912
vt 0.080676 0.228912
vt 0.080676 0.228912
vt 0.080676 0.228912
vt 0.080676 0.228912
vt 0.080676 0.228912
vt 0.080676 0.228912
vt 0.080676 0.228912
vt 0.080676 0.228912
vt 0.080676 0.228912
vt 0.101440 0.230583
vt 0.080676 0.228912
vt 0.101440 0.230583
vt 0.080676 0.228912
vt 0.101440 0.230583
vt 0.080676 0.228912
vt 0.101440 0.230583
vt 0.080676 0.228912
s 0
usemtl Leather.010
f 2/2/1 3/3/1 1/1/1
f 10/10/2 12/12/2 9/9/2
f 6/6/3 7/7/3 5/5/3
f 14/14/4 16/16/4 13/13/4
f 25/25/5 28/31/5 26/27/5
f 50/59/6 52/63/6 49/57/6
f 4/4/7 9/9/7 3/3/7
f 28/31/5 29/33/5 30/35/5
f 5/5/8 11/11/8 6/6/8
f 44/52/6 45/53/6 46/54/6
f 8/8/9 13/13/9 7/7/9
f 26/27/5 32/39/5 25/25/5
f 1/1/10 15/15/10 2/2/10
f 41/49/6 48/56/6 42/50/6
f 6/6/5 17/17/5 8/8/5
f 4/4/5 18/18/5 20/20/5
f 11/11/5 19/19/5 6/6/5
f 10/10/5 21/21/5 11/11/5
f 10/10/5 20/20/5 22/22/5
f 15/15/5 18/18/5 2/2/5
f 15/15/5 24/24/5 23/23/5
f 14/14/5 17/17/5 24/24/5
f 19/19/11 25/26/11 17/17/11
f 20/20/12 26/28/12 28/32/12
f 19/19/13 29/34/13 27/30/13
f 22/22/14 29/34/14 21/21/14
f 20/20/15 30/36/15 22/22/15
f 18/18/16 31/38/16 26/28/16
f 23/23/17 32/40/17 31/38/17
f 17/17/18 32/40/18 24/24/18
f 3/3/6 34/42/6 1/1/6
f 5/5/6 33/41/6 36/44/6
f 9/9/6 35/43/6 3/3/6
f 12/12/6 37/45/6 9/9/6
f 12/12/6 36/44/6 38/46/6
f 13/13/6 33/41/6 7/7/6
f 13/13/6 40/48/6 39/47/6
f 16/16/6 34/42/6 40/48/6
f 34/42/19 43/51/19 42/50/19
f 33/41/20 44/52/20 36/44/20
f 37/45/21 43/51/21 35/43/21
f 37/45/22 46/54/22 45/53/22
f 38/46/23 44/52/23 46/54/23
f 39/47/24 41/49/24 33/41/24
f 40/48/25 47/55/25 39/47/25
f 40/48/26 42/50/26 48/56/26
f 42/50/6 49/58/6 41/49/6
f 42/50/6 51/62/6 50/60/6
f 43/51/6 52/64/6 51/62/6
f 41/49/6 52/64/6 44/52/6
f 2/2/1 4/4/1 3/3/1
f 10/10/2 11/11/2 12/12/2
f 6/6/3 8/8/3 7/7/3
f 14/14/4 15/15/4 16/16/4
f 25/25/5 27/29/5 28/31/5
f 50/59/6 51/61/6 52/63/6
f 4/4/7 10/10/7 9/9/7
f 28/31/5 27/29/5 29/33/5
f 5/5/8 12/12/8 11/11/8
f 44/52/6 43/51/6 45/53/6
f 8/8/9 14/14/9 13/13/9
f 26/27/5 31/37/5 32/39/5
f 1/1/10 16/16/10 15/15/10
f 41/49/6 47/55/6 48/56/6
f 6/6/5 19/19/5 17/17/5
f 4/4/5 2/2/5 18/18/5
f 11/11/5 21/21/5 19/19/5
f 10/10/5 22/22/5 21/21/5
f 10/10/5 4/4/5 20/20/5
f 15/15/5 23/23/5 18/18/5
f 15/15/5 14/14/5 24/24/5
f 14/14/5 8/8/5 17/17/5
f 19/19/11 27/30/11 25/26/11
f 20/20/12 18/18/12 26/28/12
f 19/19/27 21/21/27 29/34/27
f 22/22/14 30/36/14 29/34/14
f 20/20/28 28/32/28 30/36/28
f 18/18/29 23/23/29 31/38/29
f 23/23/17 24/24/17 32/40/17
f 17/17/30 25/26/30 32/40/30
f 3/3/6 35/43/6 34/42/6
f 5/5/6 7/7/6 33/41/6
f 9/9/6 37/45/6 35/43/6
f 12/12/6 38/46/6 37/45/6
f 12/12/6 5/5/6 36/44/6
f 13/13/6 39/47/6 33/41/6
f 13/13/6 16/16/6 40/48/6
f 16/16/6 1/1/6 34/42/6
f 34/42/19 35/43/19 43/51/19
f 33/41/20 41/49/20 44/52/20
f 37/45/21 45/53/21 43/51/21
f 37/45/22 38/46/22 46/54/22
f 38/46/23 36/44/23 44/52/23
f 39/47/24 47/55/24 41/49/24
f 40/48/25 48/56/25 47/55/25
f 40/48/26 34/42/26 42/50/26
f 42/50/6 50/60/6 49/58/6
f 42/50/6 43/51/6 51/62/6
f 43/51/6 44/52/6 52/64/6
f 41/49/6 49/58/6 52/64/6
