o SM_Prop_Computer_Keyboard_01.001
v -0.099023 -3.481827 0.804361
v -0.554073 -3.481827 0.804361
v -0.099023 -3.481827 0.824934
v -0.554073 -3.481827 0.824934
v -0.099023 -3.657393 0.841284
v -0.554073 -3.657393 0.841284
v -0.099023 -3.657393 0.804361
v -0.554073 -3.657393 0.804361
v -0.106879 -3.671914 0.841284
v -0.106879 -3.467305 0.824934
v -0.106879 -3.467305 0.804361
v -0.106879 -3.671914 0.804361
v -0.546217 -3.467305 0.804361
v -0.546217 -3.467305 0.824934
v -0.546217 -3.671914 0.841284
v -0.546217 -3.671914 0.804361
vn -0.0324 0.9995 0.0002
vn 0.0168 0.9997 0.0193
vn -0.0324 0.9995 -0.0000
vn -0.0000 0.0797 0.9968
vn -0.0324 -0.9995 -0.0004
vn 0.0173 -0.9997 -0.0191
vn -0.0324 -0.9995 -0.0000
vn -0.0000 -0.0000 -1.0000
vn -1.0000 -0.0000 -0.0000
vn 1.0000 -0.0000 -0.0000
vn -0.1689 0.0914 0.9814
vn -0.1692 0.0853 0.9819
vn 0.1116 0.9258 0.3612
vn 0.8795 0.4758 -0.0000
vn 0.0648 -0.9699 -0.2349
vn 0.8795 -0.4758 -0.0000
vn -0.0591 0.9750 -0.2142
vn -0.8795 0.4758 -0.0000
vn 0.1692 0.0853 0.9819
vn 0.1689 0.0914 0.9814
vn -0.0786 -0.9570 0.2793
vn -0.8795 -0.4758 -0.0000
vn -0.0325 -0.9995 -0.0000
vn -0.0168 0.9997 -0.0193
vn 0.0324 0.9995 -0.0000
vn 0.0324 0.9995 -0.0002
vn -0.0173 -0.9997 0.0191
vn 0.0324 -0.9995 -0.0000
vn 0.0324 -0.9995 0.0004
vn 0.1457 0.0788 0.9862
vn 0.1457 0.0730 0.9866
vn 0.1486 0.0730 0.9862
vn 0.0591 0.9750 -0.2142
vn 0.0786 -0.9570 0.2793
vn 0.0325 -0.9995 -0.0000
vn -0.1116 0.9258 0.3612
vn -0.1486 0.0730 0.9862
vn -0.1457 0.0730 0.9866
vn -0.1457 0.0788 0.9862
vn -0.0648 -0.9699 -0.2349
vt 0.973185 0.231311
vt 0.973185 0.231311
vt 0.973185 0.231311
vt 0.973185 0.231311
vt 0.973185 0.231311
vt 0.973185 0.231311
vt 0.973185 0.231311
vt 0.973185 0.231311
vt 0.753500 0.240407
vt 0.973185 0.231311
vt 0.753500 0.158412
vt 0.973185 0.231311
vt 0.973185 0.231311
vt 0.973185 0.231311
vt 0.973185 0.231311
vt 0.996382 0.158412
vt 0.973185 0.231311
vt 0.996382 0.240407
vt 0.973185 0.231311
vt 0.973185 0.231311
s 0
usemtl Leather
f 14/17/1 11/13/2 13/15/3
f 15/18/4 10/11/4 14/16/4
f 16/20/5 9/10/6 15/19/7
f 13/15/8 12/14/8 16/20/8
f 8/8/9 4/4/9 2/2/9
f 7/7/10 3/3/10 5/5/10
f 3/3/11 9/10/12 5/5/11
f 11/13/13 3/3/14 1/1/14
f 12/14/8 1/1/8 7/7/8
f 9/10/15 7/7/16 5/5/16
f 13/15/17 4/4/18 14/17/3
f 15/19/19 4/4/20 6/6/20
f 15/19/21 8/8/22 16/20/23
f 16/20/8 2/2/8 13/15/8
f 14/17/24 10/12/25 11/13/26
f 15/18/4 9/9/4 10/11/4
f 16/20/27 12/14/28 9/10/29
f 13/15/8 11/13/8 12/14/8
f 8/8/9 6/6/9 4/4/9
f 7/7/10 1/1/10 3/3/10
f 3/3/30 10/12/31 9/10/32
f 11/13/33 10/12/25 3/3/14
f 12/14/8 11/13/8 1/1/8
f 9/10/34 12/14/35 7/7/16
f 13/15/36 2/2/18 4/4/18
f 15/19/37 14/17/38 4/4/39
f 15/19/40 6/6/22 8/8/22
f 16/20/8 8/8/8 2/2/8
