o Cube.001
v -5.165227 -0.375136 0.005697
v -5.165227 -0.375136 1.705698
v -5.165227 -1.476163 0.005697
v -5.765585 -0.375136 0.005697
v -5.765585 -0.375136 1.705698
v -5.765585 -1.476163 0.005697
v -5.163073 -1.479942 1.150540
v -5.740778 -1.467378 1.141332
v -5.163423 -1.056563 1.700544
v -5.733407 -1.057456 1.695559
v -5.749132 -1.046766 1.154565
v -5.175117 -1.048950 1.155372
vn 0.9993 -0.0311 0.0202
vn -0.0000 -1.0000 0.0077
vn -0.9997 -0.0245 -0.0000
vn -0.0000 1.0000 -0.0000
vn -0.0000 -0.0000 -1.0000
vn -0.0000 -0.0149 0.9999
vn -0.0014 -0.0113 0.9999
vn 1.0000 -0.0000 -0.0000
vn 0.9998 0.0028 -0.0214
vn 0.9996 0.0280 -0.0018
vn -0.0217 -0.9998 -0.0033
vn -0.9998 -0.0000 0.0218
vn -0.9985 -0.0475 0.0281
vn -0.9998 -0.0199 0.0027
vn -0.0087 -0.0076 0.9999
vn 0.0017 -0.9998 -0.0198
vn -0.0166 -0.0318 0.9994
vn -0.0038 -0.9999 -0.0139
vt 0.375000 1.000000
vt 0.125000 0.750000
vt 0.625000 1.000000
vt 0.875000 0.750000
vt 0.125000 0.500000
vt 0.375000 0.250000
vt 0.375000 0.750000
vt 0.625000 0.750000
vt 0.375000 0.500000
vt 0.543933 0.250000
vt 0.539114 0.500000
vt 0.875000 0.600423
vt 0.625000 0.604914
vt 0.536544 0.593971
vt 0.528073 0.146793
s 0
usemtl MetalTable
f 2/3/1 12/15/1 3/6/1
f 3/6/2 8/11/2 6/9/2
f 11/14/3 5/8/3 4/7/3
f 5/8/4 1/1/4 4/7/4
f 6/9/5 1/2/5 3/5/5
f 10/13/6 2/4/6 5/8/6
f 11/14/7 7/10/7 12/15/7
f 3/6/8 1/1/8 2/3/8
f 2/3/9 9/12/9 12/15/9
f 12/15/10 7/10/10 3/6/10
f 3/6/11 7/10/11 8/11/11
f 4/7/12 6/9/12 8/11/12
f 11/14/13 10/13/13 5/8/13
f 4/7/14 8/11/14 11/14/14
f 5/8/4 2/3/4 1/1/4
f 6/9/5 4/7/5 1/2/5
f 10/13/15 9/12/15 2/4/15
f 9/12/16 10/13/16 11/14/16
f 11/14/17 8/11/17 7/10/17
f 12/15/18 9/12/18 11/14/18
