o Door
v -2.117002 -0.029712 0.004000
v -2.117622 0.004283 0.004000
v -1.281761 0.019513 0.004000
v -1.281141 -0.014481 0.004000
v -2.117002 -0.029712 2.014000
v -2.117622 0.004283 2.014000
v -1.281761 0.019513 2.014000
v -1.281141 -0.014481 2.014000
vn -0.9998 -0.0182 -0.0000
vn -0.0182 0.9998 -0.0000
vn 0.9998 0.0182 -0.0000
vn 0.0182 -0.9998 -0.0000
vn -0.0000 -0.0000 -1.0000
vn -0.0000 -0.0000 1.0000
s 0
usemtl Door_material
f 6//1 1//1 5//1
f 7//2 2//2 6//2
f 8//3 3//3 7//3
f 5//4 4//4 8//4
f 2//5 4//5 1//5
f 7//6 5//6 8//6
f 6//1 2//1 1//1
f 7//2 3//2 2//2
f 8//3 4//3 3//3
f 5//4 1//4 4//4
f 2//5 3//5 4//5
f 7//6 6//6 5//6
