o Door.002
v -0.022100 -4.502000 0.004000
v 0.011900 -4.502000 0.004000
v 0.011900 -5.338000 0.004000
v -0.022100 -5.338000 0.004000
v -0.022100 -4.502000 2.014000
v 0.011900 -4.502000 2.014000
v 0.011900 -5.338000 2.014000
v -0.022100 -5.338000 2.014000
vn -0.0000 1.0000 -0.0000
vn 1.0000 -0.0000 -0.0000
vn -0.0000 -1.0000 -0.0000
vn -1.0000 -0.0000 -0.0000
vn -0.0000 -0.0000 -1.0000
vn -0.0000 -0.0000 1.0000
s 0
usemtl Door_material
f 6//1 1//1 5//1
f 7//2 2//2 6//2
f 8//3 3//3 7//3
f 5//4 4//4 8//4
f 2//5 4//5 1//5
f 7//6 5//6 8//6
f 6//1 2//1 1//1
f 7//2 3//2 2//2
f 8//3 4//3 3//3
f 5//4 1//4 4//4
f 2//5 3//5 4//5
f 7//6 6//6 5//6
