o SM_Prop_DeskChair_01.003
v -0.335089 -1.456569 0.117303
v -0.263113 -1.426503 0.117303
v -0.365155 -1.384592 0.117303
v -0.293179 -1.354527 0.117303
v -0.335089 -1.456569 0.325753
v -0.263113 -1.426503 0.325753
v -0.293179 -1.354527 0.325753
v -0.365155 -1.384592 0.325753
v -0.328107 -1.439567 0.337812
v -0.280114 -1.419520 0.337812
v -0.103024 -1.662828 0.770490
v -0.103024 -1.662828 0.807201
v -0.318013 -1.713228 0.743501
v -0.521234 -1.226727 0.743501
v -0.364954 -1.426776 0.117303
v -0.263313 -1.384319 0.117303
v -0.263313 -1.384319 0.325753
v -0.280247 -1.391393 0.337812
v -0.348020 -1.419703 0.337812
v -0.364954 -1.426776 0.325753
v -0.335362 -1.354727 0.117303
v -0.314134 -1.405548 0.117303
v -0.292905 -1.456368 0.117303
v -0.292905 -1.456368 0.325753
v -0.299979 -1.439434 0.337812
v -0.335362 -1.354727 0.325753
v -0.089206 -1.668732 0.063171
v -0.060021 -1.641039 0.063171
v -0.087951 -1.670053 0.078147
v -0.058767 -1.642360 0.078147
v -0.305426 -1.451357 0.171838
v -0.265765 -1.413724 0.171838
v -0.314743 -1.441539 0.121322
v -0.275082 -1.403905 0.121322
v -0.164402 -1.520546 0.150011
v -0.173719 -1.510727 0.099495
v -0.213379 -1.548361 0.099495
v -0.204063 -1.558179 0.150011
v -0.104269 -1.677574 -0.008591
v -0.053480 -1.629381 -0.008591
v -0.098131 -1.684043 0.062811
v -0.047342 -1.635849 0.062811
v -0.153417 -1.625779 0.062811
v -0.102628 -1.577586 0.062811
v -0.147279 -1.632247 -0.008591
v -0.096490 -1.584054 -0.008591
v -0.125774 -1.654911 0.075154
v -0.074985 -1.606718 0.075154
v -0.074985 -1.606718 -0.018194
v -0.125774 -1.654911 -0.018194
v -0.161913 -1.616826 0.022651
v -0.111124 -1.568632 0.022651
v -0.038847 -1.644802 0.022651
v -0.089635 -1.692996 0.022651
v -0.103100 -1.577088 0.022651
v -0.074985 -1.606718 0.022651
v -0.046870 -1.636347 0.022651
v -0.074985 -1.606718 0.063496
v -0.096491 -1.584054 0.053894
v -0.053480 -1.629381 0.053894
v -0.125774 -1.654911 0.022651
v -0.153889 -1.625282 0.022651
v -0.097659 -1.684540 0.022651
v -0.125774 -1.654911 0.063496
v -0.147279 -1.632247 0.053894
v -0.104269 -1.677574 0.053894
v -0.050949 -1.180619 0.063171
v -0.078642 -1.151435 0.063171
v -0.049628 -1.179365 0.078147
v -0.077321 -1.150181 0.078147
v -0.268324 -1.396840 0.171838
v -0.305958 -1.357179 0.171838
v -0.278142 -1.406156 0.121322
v -0.315776 -1.366496 0.121322
v -0.199135 -1.255816 0.150011
v -0.208954 -1.265133 0.099495
v -0.171320 -1.304793 0.099495
v -0.161501 -1.295477 0.150011
v -0.042106 -1.195682 -0.008591
v -0.090300 -1.144893 -0.008591
v -0.035639 -1.189545 0.062811
v -0.083832 -1.138756 0.062811
v -0.093902 -1.244830 0.062811
v -0.142095 -1.194042 0.062811
v -0.087434 -1.238693 -0.008591
v -0.135627 -1.187904 -0.008591
v -0.064771 -1.217188 0.075154
v -0.112964 -1.166399 0.075154
v -0.112964 -1.166399 -0.018194
v -0.064771 -1.217188 -0.018194
v -0.102855 -1.253326 0.022651
v -0.151049 -1.202537 0.022651
v -0.074879 -1.130260 0.022651
v -0.026685 -1.181049 0.022651
v -0.142592 -1.194514 0.022651
v -0.112964 -1.166399 0.022651
v -0.083335 -1.138284 0.022651
v -0.112964 -1.166399 0.063496
v -0.135627 -1.187904 0.053894
v -0.090300 -1.144893 0.053894
v -0.064771 -1.217188 0.022651
v -0.094399 -1.245303 0.022651
v -0.035141 -1.189073 0.022651
v -0.064771 -1.217188 0.063496
v -0.087434 -1.238693 0.053894
v -0.042107 -1.195682 0.053894
v -0.539062 -1.142363 0.063171
v -0.568246 -1.170056 0.063171
v -0.540316 -1.141041 0.078147
v -0.569500 -1.168734 0.078147
v -0.322841 -1.359738 0.171838
v -0.362502 -1.397372 0.171838
v -0.313524 -1.369556 0.121322
v -0.353185 -1.407190 0.121322
v -0.463865 -1.290549 0.150011
v -0.454549 -1.300367 0.099495
v -0.414888 -1.262733 0.099495
v -0.424205 -1.252915 0.150011
v -0.523999 -1.133520 -0.008592
v -0.574788 -1.181714 -0.008592
v -0.530136 -1.127053 0.062811
v -0.580925 -1.175246 0.062811
v -0.474850 -1.185316 0.062811
v -0.525639 -1.233509 0.062811
v -0.480988 -1.178848 -0.008592
v -0.531776 -1.227041 -0.008592
v -0.502493 -1.156184 0.075154
v -0.553282 -1.204377 0.075154
v -0.553282 -1.204377 -0.018194
v -0.502493 -1.156184 -0.018194
v -0.466355 -1.194269 0.022651
v -0.517143 -1.242462 0.022651
v -0.589421 -1.166293 0.022651
v -0.538632 -1.118099 0.022651
v -0.525167 -1.234006 0.022651
v -0.553282 -1.204377 0.022651
v -0.581397 -1.174748 0.022651
v -0.553282 -1.204377 0.063496
v -0.531776 -1.227041 0.053894
v -0.574788 -1.181714 0.053894
v -0.502493 -1.156184 0.022651
v -0.474379 -1.185813 0.022651
v -0.530608 -1.126555 0.022651
v -0.502493 -1.156184 0.063496
v -0.480988 -1.178848 0.053894
v -0.523999 -1.133520 0.053894
v -0.577318 -1.630476 0.063171
v -0.549625 -1.659660 0.063171
v -0.578639 -1.631730 0.078147
v -0.550947 -1.660914 0.078147
v -0.359943 -1.414255 0.171838
v -0.322310 -1.453916 0.171838
v -0.350125 -1.404938 0.121322
v -0.312491 -1.444599 0.121322
v -0.429132 -1.555279 0.150011
v -0.419314 -1.545962 0.099495
v -0.456947 -1.506302 0.099495
v -0.466766 -1.515619 0.150011
v -0.586161 -1.615413 -0.008592
v -0.537967 -1.666202 -0.008592
v -0.592629 -1.621550 0.062811
v -0.544435 -1.672339 0.062811
v -0.534365 -1.566264 0.062811
v -0.486172 -1.617053 0.062811
v -0.540833 -1.572402 -0.008592
v -0.492640 -1.623191 -0.008592
v -0.563497 -1.593907 0.075153
v -0.515304 -1.644696 0.075153
v -0.515303 -1.644696 -0.018194
v -0.563497 -1.593907 -0.018194
v -0.525412 -1.557769 0.022651
v -0.477219 -1.608557 0.022651
v -0.553389 -1.680835 0.022651
v -0.601582 -1.630046 0.022651
v -0.485675 -1.616581 0.022651
v -0.515304 -1.644696 0.022651
v -0.544933 -1.672811 0.022651
v -0.515304 -1.644696 0.063496
v -0.492640 -1.623191 0.053894
v -0.537967 -1.666202 0.053894
v -0.563497 -1.593907 0.022651
v -0.533868 -1.565793 0.022651
v -0.593126 -1.622022 0.022651
v -0.563497 -1.593907 0.063496
v -0.540833 -1.572402 0.053894
v -0.586161 -1.615413 0.053894
vn -0.0000 -0.0000 -1.0000
vn 0.0048 -1.0000 -0.0000
vn 1.0000 0.0048 -0.0000
vn -0.7080 0.7062 -0.0000
vn -0.7062 -0.7080 -0.0000
vn 0.0028 -0.5793 0.8151
vn 0.5793 0.0028 0.8151
vn -0.4091 -0.4101 0.8151
vn 0.7062 0.7080 -0.0000
vn -1.0000 -0.0048 -0.0000
vn 0.7080 -0.7062 -0.0000
vn 0.4101 -0.4091 0.8151
vn -0.0048 1.0000 -0.0000
vn 0.6833 -0.7201 -0.1208
vn 0.2352 -0.1045 0.9663
vn 0.1009 -0.1064 0.9892
vn -0.6649 0.7007 0.2588
vn -0.1009 0.1064 -0.9892
vn -0.1213 0.1279 -0.9843
vn 0.7362 0.6768 -0.0057
vn 0.7254 0.6883 -0.0000
vn 0.7370 0.6758 -0.0040
vn -0.7162 -0.6979 0.0103
vn -0.7254 -0.6883 -0.0000
vn 0.7465 0.6651 0.0177
vn 0.7528 0.6582 -0.0049
vn -0.1266 0.1239 -0.9842
vn -0.1416 0.1492 -0.9786
vn -0.7143 -0.6998 -0.0058
vn -0.6972 -0.7168 -0.0107
vn -0.7136 -0.7005 -0.0053
vn 0.2804 -0.2956 0.9132
vn 0.2000 -0.1963 0.9599
vn 0.1925 -0.2029 0.9601
vn 0.6580 -0.6934 -0.2938
vn 0.0605 0.0800 0.9950
vn -0.2022 0.2131 0.9559
vn -0.0000 -0.0000 1.0000
vn -0.6580 0.6934 -0.2938
vn -0.2022 0.2131 -0.9559
vn 0.0531 0.0666 -0.9964
vn 0.2022 -0.2131 0.9559
vn 0.0876 0.0582 0.9945
vn 0.0693 0.0495 -0.9964
vn 0.2022 -0.2131 -0.9559
vn -0.6580 0.6934 0.2938
vn 0.6580 -0.6934 0.2938
vn 0.7201 0.6833 -0.1207
vn 0.1913 0.2034 0.9602
vn 0.1064 0.1009 0.9892
vn 0.2029 0.1925 0.9601
vn -0.7007 -0.6649 0.2588
vn -0.1064 -0.1009 -0.9892
vn -0.1194 -0.1276 -0.9846
vn -0.1279 -0.1213 -0.9843
vn -0.6768 0.7362 -0.0057
vn -0.6883 0.7254 -0.0000
vn -0.6758 0.7370 -0.0040
vn 0.6979 -0.7162 0.0103
vn 0.6883 -0.7254 -0.0000
vn -0.6651 0.7465 0.0177
vn -0.6582 0.7528 -0.0049
vn -0.1239 -0.1266 -0.9842
vn -0.1492 -0.1416 -0.9786
vn 0.6999 -0.7143 -0.0058
vn 0.7168 -0.6972 -0.0107
vn 0.7005 -0.7136 -0.0053
vn 0.2956 0.2804 0.9132
vn 0.1963 0.2000 0.9599
vn 0.6934 0.6580 -0.2938
vn -0.0844 0.0627 0.9945
vn -0.2131 -0.2022 0.9559
vn -0.6934 -0.6580 -0.2938
vn -0.2131 -0.2022 -0.9559
vn -0.0666 0.0531 -0.9964
vn 0.2131 0.2022 0.9559
vn -0.0582 0.0876 0.9945
vn -0.0495 0.0693 -0.9964
vn 0.2131 0.2022 -0.9559
vn -0.6934 -0.6580 0.2938
vn 0.6934 0.6580 0.2938
vn -0.6833 0.7201 -0.1208
vn -0.2034 0.1913 0.9602
vn -0.1009 0.1064 0.9892
vn -0.1925 0.2029 0.9601
vn 0.6649 -0.7007 0.2588
vn 0.1009 -0.1064 -0.9892
vn 0.1276 -0.1194 -0.9846
vn 0.1213 -0.1279 -0.9843
vn -0.7362 -0.6768 -0.0057
vn -0.7370 -0.6758 -0.0040
vn 0.7162 0.6979 0.0103
vn -0.7465 -0.6651 0.0177
vn -0.7528 -0.6582 -0.0049
vn 0.1266 -0.1239 -0.9842
vn 0.1416 -0.1492 -0.9786
vn 0.7143 0.6998 -0.0058
vn 0.6972 0.7168 -0.0107
vn 0.7136 0.7005 -0.0053
vn -0.2805 0.2956 0.9132
vn -0.2988 0.1635 0.9402
vn -0.0605 -0.0800 0.9950
vn -0.0531 -0.0667 -0.9964
vn -0.0830 -0.0562 0.9950
vn -0.0923 -0.0602 -0.9939
vn -0.7201 -0.6833 -0.1208
vn -0.1913 -0.2034 0.9602
vn -0.1064 -0.1009 0.9892
vn -0.2029 -0.1925 0.9601
vn 0.7007 0.6649 0.2588
vn 0.1064 0.1009 -0.9892
vn 0.1279 0.1213 -0.9843
vn 0.6768 -0.7362 -0.0057
vn 0.6758 -0.7370 -0.0040
vn -0.6979 0.7162 0.0103
vn 0.6651 -0.7465 0.0177
vn 0.6582 -0.7528 -0.0049
vn 0.1239 0.1266 -0.9842
vn 0.1492 0.1416 -0.9786
vn -0.6999 0.7143 -0.0058
vn -0.7168 0.6972 -0.0107
vn -0.7005 0.7136 -0.0053
vn -0.2956 -0.2805 0.9132
vn -0.1635 -0.2988 0.9402
vn 0.0844 -0.0627 0.9945
vn 0.0890 -0.0650 -0.9939
vn 0.0582 -0.0876 0.9945
vn 0.0602 -0.0923 -0.9939
vn 0.5793 0.0027 0.8151
vn 0.6833 -0.7201 -0.1207
vn 0.1804 -0.2132 0.9602
vn -0.1126 0.1337 -0.9846
vn 0.7344 0.6786 0.0103
vn -0.7144 -0.6997 -0.0057
vn -0.7135 -0.7006 -0.0040
vn 0.7363 0.6766 -0.0058
vn 0.7369 0.6759 -0.0053
vn 0.7523 0.6587 -0.0107
vn -0.1211 0.1281 -0.9843
vn -0.7033 -0.7106 0.0177
vn -0.6968 -0.7173 -0.0050
vn 0.2805 -0.2956 0.9132
vn 0.1476 -0.3070 0.9402
vn -0.0876 -0.0582 0.9945
vn -0.0650 -0.0890 -0.9939
vn 0.7201 0.6833 -0.1208
vn 0.2404 0.0920 0.9663
vn -0.6786 0.7344 0.0103
vn 0.6997 -0.7144 -0.0057
vn 0.7006 -0.7135 -0.0040
vn -0.6766 0.7363 -0.0058
vn -0.6759 0.7369 -0.0053
vn -0.6587 0.7523 -0.0107
vn -0.1281 -0.1211 -0.9843
vn 0.7106 -0.7033 0.0177
vn 0.7173 -0.6968 -0.0049
vn 0.2956 0.2805 0.9132
vn 0.3070 0.1476 0.9402
vn 0.0562 -0.0830 0.9950
vn 0.0001 -0.0001 1.0000
vn 0.0800 -0.0605 0.9950
vn -0.0920 0.2404 0.9663
vn -0.7344 -0.6786 0.0103
vn 0.7144 0.6997 -0.0057
vn 0.7135 0.7006 -0.0040
vn -0.7363 -0.6766 -0.0058
vn -0.7369 -0.6759 -0.0053
vn -0.7523 -0.6587 -0.0107
vn 0.1211 -0.1281 -0.9843
vn 0.7033 0.7107 0.0177
vn 0.6968 0.7173 -0.0050
vn -0.1856 0.2100 0.9599
vn 0.0922 0.0602 -0.9939
vn 0.0627 0.0844 0.9945
vn -0.2404 -0.0920 0.9663
vn 0.1337 0.1126 -0.9846
vn 0.6786 -0.7344 0.0103
vn -0.6997 0.7144 -0.0057
vn -0.7006 0.7135 -0.0040
vn 0.6766 -0.7363 -0.0058
vn 0.6760 -0.7369 -0.0053
vn 0.6587 -0.7523 -0.0107
vn 0.1281 0.1211 -0.9843
vn -0.7107 0.7033 0.0177
vn -0.7173 0.6968 -0.0050
vn -0.2100 -0.1856 0.9599
vn -0.0562 0.0830 0.9950
vn -0.0800 0.0605 0.9950
vt 0.112005 0.281609
s 0
usemtl MetalTable.002
f 22/1/1 1/1/1 15/1/1
f 23/1/2 5/1/2 1/1/2
f 16/1/3 6/1/3 2/1/3
f 26/1/4 3/1/4 8/1/4
f 15/1/5 5/1/5 20/1/5
f 24/1/6 9/1/6 5/1/6
f 17/1/7 10/1/7 6/1/7
f 20/1/8 9/1/8 19/1/8
f 3/1/1 22/1/1 15/1/1
f 16/1/9 7/1/9 17/1/9
f 15/1/10 8/1/10 3/1/10
f 22/1/1 4/1/1 16/1/1
f 22/1/1 2/1/1 23/1/1
f 23/1/11 6/1/11 24/1/11
f 24/1/12 10/1/12 25/1/12
f 26/1/13 4/1/13 21/1/13
f 27/1/14 30/1/14 29/1/14
f 38/1/15 32/1/16 31/1/16
f 31/1/17 34/1/17 33/1/17
f 34/1/18 37/1/19 33/1/18
f 36/1/20 32/1/21 35/1/22
f 37/1/23 31/1/24 33/1/24
f 36/1/25 30/1/26 28/1/26
f 36/1/27 27/1/28 37/1/19
f 37/1/29 29/1/30 38/1/31
f 29/1/32 35/1/33 38/1/34
f 40/1/35 63/1/35 39/1/35
f 48/1/36 43/1/37 47/1/38
f 62/1/39 46/1/39 45/1/39
f 46/1/40 50/1/41 45/1/40
f 56/1/21 46/1/21 55/1/21
f 45/1/24 61/1/24 62/1/24
f 42/1/42 47/1/43 41/1/42
f 40/1/21 56/1/21 57/1/21
f 50/1/44 40/1/45 39/1/45
f 61/1/24 39/1/24 63/1/24
f 61/1/24 65/1/24 62/1/24
f 44/1/46 51/1/46 43/1/46
f 56/1/21 59/1/21 58/1/21
f 56/1/21 60/1/21 57/1/21
f 54/1/47 42/1/47 41/1/47
f 61/1/24 66/1/24 64/1/24
f 52/1/21 59/1/21 55/1/21
f 48/1/21 59/1/21 44/1/21
f 48/1/21 60/1/21 58/1/21
f 53/1/21 60/1/21 42/1/21
f 47/1/24 65/1/24 64/1/24
f 51/1/24 65/1/24 43/1/24
f 54/1/24 66/1/24 63/1/24
f 47/1/24 66/1/24 41/1/24
f 53/1/1 63/1/1 57/1/1
f 51/1/1 55/1/1 62/1/1
f 68/1/48 69/1/48 67/1/48
f 75/1/49 71/1/50 78/1/51
f 72/1/52 73/1/52 71/1/52
f 73/1/53 76/1/54 77/1/55
f 76/1/56 72/1/57 75/1/58
f 77/1/59 71/1/60 73/1/60
f 76/1/61 70/1/62 68/1/62
f 76/1/63 67/1/64 77/1/55
f 77/1/65 69/1/66 78/1/67
f 69/1/68 75/1/69 78/1/51
f 80/1/70 103/1/70 79/1/70
f 87/1/71 84/1/72 83/1/72
f 95/1/73 85/1/73 102/1/73
f 86/1/74 90/1/75 85/1/74
f 96/1/57 86/1/57 95/1/57
f 85/1/60 101/1/60 102/1/60
f 82/1/76 87/1/77 81/1/76
f 80/1/57 96/1/57 97/1/57
f 90/1/78 80/1/79 79/1/79
f 101/1/60 79/1/60 103/1/60
f 101/1/60 105/1/60 102/1/60
f 83/1/80 92/1/80 91/1/80
f 96/1/57 99/1/57 98/1/57
f 96/1/57 100/1/57 97/1/57
f 94/1/81 82/1/81 81/1/81
f 101/1/60 106/1/60 104/1/60
f 92/1/57 99/1/57 95/1/57
f 88/1/57 99/1/57 84/1/57
f 88/1/57 100/1/57 98/1/57
f 93/1/57 100/1/57 82/1/57
f 87/1/60 105/1/60 104/1/60
f 91/1/60 105/1/60 83/1/60
f 94/1/60 106/1/60 103/1/60
f 87/1/60 106/1/60 81/1/60
f 94/1/1 97/1/1 93/1/1
f 91/1/1 95/1/1 102/1/1
f 107/1/82 110/1/82 109/1/82
f 115/1/83 111/1/84 118/1/85
f 111/1/86 114/1/86 113/1/86
f 113/1/87 116/1/88 117/1/89
f 116/1/90 112/1/24 115/1/91
f 117/1/92 111/1/21 113/1/21
f 116/1/93 110/1/94 108/1/94
f 116/1/95 107/1/96 117/1/89
f 117/1/97 109/1/98 118/1/99
f 110/1/100 118/1/101 109/1/100
f 119/1/39 137/1/39 143/1/39
f 128/1/102 123/1/42 127/1/38
f 142/1/35 126/1/35 125/1/35
f 126/1/45 130/1/103 125/1/45
f 136/1/24 126/1/24 135/1/24
f 125/1/21 141/1/21 142/1/21
f 121/1/37 128/1/104 127/1/38
f 120/1/24 136/1/24 137/1/24
f 129/1/105 119/1/40 130/1/1
f 141/1/21 119/1/21 143/1/21
f 141/1/21 145/1/21 142/1/21
f 123/1/47 132/1/47 131/1/47
f 136/1/24 139/1/24 138/1/24
f 136/1/24 140/1/24 137/1/24
f 134/1/46 122/1/46 121/1/46
f 141/1/21 146/1/21 144/1/21
f 132/1/24 139/1/24 135/1/24
f 128/1/24 139/1/24 124/1/24
f 128/1/24 140/1/24 138/1/24
f 133/1/24 140/1/24 122/1/24
f 127/1/21 145/1/21 144/1/21
f 131/1/21 145/1/21 123/1/21
f 134/1/21 146/1/21 143/1/21
f 127/1/21 146/1/21 121/1/21
f 134/1/1 137/1/1 133/1/1
f 131/1/1 135/1/1 142/1/1
f 147/1/106 150/1/106 149/1/106
f 155/1/107 151/1/108 158/1/109
f 151/1/110 154/1/110 153/1/110
f 154/1/111 157/1/112 153/1/111
f 156/1/113 152/1/60 155/1/114
f 157/1/115 151/1/57 153/1/57
f 156/1/116 150/1/117 148/1/117
f 156/1/118 147/1/119 157/1/112
f 157/1/120 149/1/121 158/1/122
f 150/1/123 158/1/124 149/1/123
f 159/1/73 177/1/73 183/1/73
f 167/1/125 164/1/76 163/1/76
f 175/1/70 165/1/70 182/1/70
f 165/1/79 169/1/126 170/1/1
f 176/1/60 166/1/60 175/1/60
f 165/1/57 181/1/57 182/1/57
f 162/1/72 167/1/127 161/1/72
f 160/1/60 176/1/60 177/1/60
f 169/1/128 159/1/74 170/1/1
f 181/1/57 159/1/57 183/1/57
f 181/1/57 185/1/57 182/1/57
f 163/1/81 172/1/81 171/1/81
f 176/1/60 179/1/60 178/1/60
f 176/1/60 180/1/60 177/1/60
f 174/1/80 162/1/80 161/1/80
f 181/1/57 186/1/57 184/1/57
f 172/1/60 179/1/60 175/1/60
f 168/1/60 179/1/60 164/1/60
f 168/1/60 180/1/60 178/1/60
f 173/1/60 180/1/60 162/1/60
f 167/1/57 185/1/57 184/1/57
f 171/1/57 185/1/57 163/1/57
f 174/1/57 186/1/57 183/1/57
f 167/1/57 186/1/57 161/1/57
f 174/1/1 177/1/1 173/1/1
f 172/1/1 182/1/1 171/1/1
f 22/1/1 23/1/1 1/1/1
f 23/1/2 24/1/2 5/1/2
f 16/1/3 17/1/3 6/1/3
f 26/1/4 21/1/4 3/1/4
f 15/1/5 1/1/5 5/1/5
f 24/1/6 25/1/6 9/1/6
f 17/1/129 18/1/129 10/1/129
f 20/1/8 5/1/8 9/1/8
f 3/1/1 21/1/1 22/1/1
f 16/1/9 4/1/9 7/1/9
f 15/1/10 20/1/10 8/1/10
f 22/1/1 21/1/1 4/1/1
f 22/1/1 16/1/1 2/1/1
f 23/1/11 2/1/11 6/1/11
f 24/1/12 6/1/12 10/1/12
f 26/1/13 7/1/13 4/1/13
f 27/1/130 28/1/130 30/1/130
f 38/1/131 35/1/34 32/1/16
f 31/1/17 32/1/17 34/1/17
f 34/1/18 36/1/19 37/1/132
f 36/1/133 34/1/21 32/1/21
f 37/1/134 38/1/135 31/1/24
f 36/1/136 35/1/137 30/1/138
f 36/1/139 28/1/28 27/1/28
f 37/1/140 27/1/141 29/1/141
f 29/1/142 30/1/142 35/1/143
f 40/1/35 57/1/35 63/1/35
f 48/1/144 44/1/37 43/1/37
f 62/1/39 55/1/39 46/1/39
f 46/1/40 49/1/1 50/1/105
f 56/1/21 49/1/21 46/1/21
f 45/1/24 50/1/24 61/1/24
f 42/1/42 48/1/38 47/1/102
f 40/1/21 49/1/21 56/1/21
f 50/1/145 49/1/1 40/1/45
f 61/1/24 50/1/24 39/1/24
f 61/1/24 64/1/24 65/1/24
f 44/1/46 52/1/46 51/1/46
f 56/1/21 55/1/21 59/1/21
f 56/1/21 58/1/21 60/1/21
f 54/1/47 53/1/47 42/1/47
f 61/1/24 63/1/24 66/1/24
f 52/1/21 44/1/21 59/1/21
f 48/1/21 58/1/21 59/1/21
f 48/1/21 42/1/21 60/1/21
f 53/1/21 57/1/21 60/1/21
f 47/1/24 43/1/24 65/1/24
f 51/1/24 62/1/24 65/1/24
f 54/1/24 41/1/24 66/1/24
f 47/1/24 64/1/24 66/1/24
f 53/1/1 54/1/1 63/1/1
f 51/1/1 52/1/1 55/1/1
f 68/1/146 70/1/146 69/1/146
f 75/1/147 72/1/50 71/1/50
f 72/1/52 74/1/52 73/1/52
f 73/1/53 74/1/53 76/1/55
f 76/1/148 74/1/57 72/1/57
f 77/1/149 78/1/150 71/1/60
f 76/1/151 75/1/152 70/1/153
f 76/1/154 68/1/64 67/1/64
f 77/1/155 67/1/156 69/1/156
f 69/1/157 70/1/157 75/1/158
f 80/1/70 97/1/70 103/1/70
f 87/1/159 88/1/160 84/1/72
f 95/1/73 86/1/73 85/1/73
f 86/1/74 89/1/1 90/1/128
f 96/1/57 89/1/57 86/1/57
f 85/1/60 90/1/60 101/1/60
f 82/1/76 88/1/38 87/1/161
f 80/1/57 89/1/57 96/1/57
f 90/1/126 89/1/1 80/1/79
f 101/1/60 90/1/60 79/1/60
f 101/1/60 104/1/60 105/1/60
f 83/1/80 84/1/80 92/1/80
f 96/1/57 95/1/57 99/1/57
f 96/1/57 98/1/57 100/1/57
f 94/1/81 93/1/81 82/1/81
f 101/1/60 103/1/60 106/1/60
f 92/1/57 84/1/57 99/1/57
f 88/1/57 98/1/57 99/1/57
f 88/1/57 82/1/57 100/1/57
f 93/1/57 97/1/57 100/1/57
f 87/1/60 83/1/60 105/1/60
f 91/1/60 102/1/60 105/1/60
f 94/1/60 81/1/60 106/1/60
f 87/1/60 104/1/60 106/1/60
f 94/1/1 103/1/1 97/1/1
f 91/1/1 92/1/1 95/1/1
f 107/1/82 108/1/82 110/1/82
f 115/1/162 112/1/84 111/1/84
f 111/1/86 112/1/86 114/1/86
f 113/1/87 114/1/87 116/1/89
f 116/1/163 114/1/24 112/1/24
f 117/1/164 118/1/165 111/1/21
f 116/1/166 115/1/167 110/1/168
f 116/1/169 108/1/96 107/1/96
f 117/1/170 107/1/171 109/1/171
f 110/1/100 115/1/85 118/1/172
f 119/1/39 120/1/39 137/1/39
f 128/1/43 124/1/42 123/1/42
f 142/1/35 135/1/35 126/1/35
f 126/1/45 129/1/1 130/1/173
f 136/1/24 129/1/24 126/1/24
f 125/1/21 130/1/21 141/1/21
f 121/1/37 122/1/37 128/1/174
f 120/1/24 129/1/24 136/1/24
f 129/1/41 120/1/40 119/1/40
f 141/1/21 130/1/21 119/1/21
f 141/1/21 144/1/21 145/1/21
f 123/1/47 124/1/47 132/1/47
f 136/1/24 135/1/24 139/1/24
f 136/1/24 138/1/24 140/1/24
f 134/1/46 133/1/46 122/1/46
f 141/1/21 143/1/21 146/1/21
f 132/1/24 124/1/24 139/1/24
f 128/1/24 138/1/24 139/1/24
f 128/1/24 122/1/24 140/1/24
f 133/1/24 137/1/24 140/1/24
f 127/1/21 123/1/21 145/1/21
f 131/1/21 142/1/21 145/1/21
f 134/1/21 121/1/21 146/1/21
f 127/1/21 144/1/21 146/1/21
f 134/1/1 143/1/1 137/1/1
f 131/1/1 132/1/1 135/1/1
f 147/1/106 148/1/106 150/1/106
f 155/1/175 152/1/108 151/1/108
f 151/1/110 152/1/110 154/1/110
f 154/1/111 156/1/112 157/1/176
f 156/1/177 154/1/60 152/1/60
f 157/1/178 158/1/179 151/1/57
f 156/1/180 155/1/181 150/1/182
f 156/1/183 148/1/119 147/1/119
f 157/1/184 147/1/185 149/1/185
f 150/1/123 155/1/109 158/1/186
f 159/1/73 160/1/73 177/1/73
f 167/1/187 168/1/38 164/1/76
f 175/1/70 166/1/70 165/1/70
f 165/1/79 166/1/79 169/1/78
f 176/1/60 169/1/60 166/1/60
f 165/1/57 170/1/57 181/1/57
f 162/1/72 168/1/38 167/1/188
f 160/1/60 169/1/60 176/1/60
f 169/1/75 160/1/74 159/1/74
f 181/1/57 170/1/57 159/1/57
f 181/1/57 184/1/57 185/1/57
f 163/1/81 164/1/81 172/1/81
f 176/1/60 175/1/60 179/1/60
f 176/1/60 178/1/60 180/1/60
f 174/1/80 173/1/80 162/1/80
f 181/1/57 183/1/57 186/1/57
f 172/1/60 164/1/60 179/1/60
f 168/1/60 178/1/60 179/1/60
f 168/1/60 162/1/60 180/1/60
f 173/1/60 177/1/60 180/1/60
f 167/1/57 163/1/57 185/1/57
f 171/1/57 182/1/57 185/1/57
f 174/1/57 161/1/57 186/1/57
f 167/1/57 184/1/57 186/1/57
f 174/1/1 183/1/1 177/1/1
f 172/1/1 175/1/1 182/1/1
