o SM_Prop_DeskChair_01.002
v -5.321636 -1.880233 0.117303
v -5.249660 -1.850168 0.117303
v -5.351702 -1.808257 0.117303
v -5.279727 -1.778191 0.117303
v -5.321636 -1.880233 0.325753
v -5.249660 -1.850168 0.325753
v -5.279727 -1.778191 0.325753
v -5.351702 -1.808257 0.325753
v -5.314654 -1.863232 0.337812
v -5.266661 -1.843184 0.337812
v -5.089572 -2.086492 0.770490
v -5.089572 -2.086492 0.807201
v -5.304561 -2.136893 0.743501
v -5.507782 -1.650392 0.743501
v -5.351501 -1.850441 0.117303
v -5.249861 -1.807983 0.117303
v -5.249861 -1.807983 0.325753
v -5.266795 -1.815058 0.337812
v -5.334568 -1.843368 0.337812
v -5.351501 -1.850441 0.325753
v -5.321910 -1.778392 0.117303
v -5.300681 -1.829212 0.117303
v -5.279453 -1.880033 0.117303
v -5.279453 -1.880033 0.325753
v -5.286527 -1.863098 0.337812
v -5.321910 -1.778392 0.325753
v -5.075753 -2.092396 0.063171
v -5.046569 -2.064703 0.063171
v -5.074499 -2.093718 0.078147
v -5.045315 -2.066025 0.078147
v -5.291974 -1.875022 0.171838
v -5.252313 -1.837388 0.171838
v -5.301291 -1.865203 0.121322
v -5.261630 -1.827569 0.121322
v -5.150949 -1.944210 0.150011
v -5.160266 -1.934392 0.099495
v -5.199927 -1.972025 0.099495
v -5.190610 -1.981844 0.150011
v -5.090816 -2.101239 -0.008591
v -5.040028 -2.053046 -0.008591
v -5.084679 -2.107707 0.062811
v -5.033890 -2.059514 0.062811
v -5.139965 -2.049443 0.062811
v -5.089176 -2.001250 0.062811
v -5.133827 -2.055912 -0.008591
v -5.083038 -2.007718 -0.008591
v -5.112321 -2.078575 0.075154
v -5.061533 -2.030382 0.075154
v -5.061533 -2.030382 -0.018194
v -5.112321 -2.078575 -0.018194
v -5.148460 -2.040490 0.022651
v -5.097672 -1.992296 0.022651
v -5.025394 -2.068467 0.022651
v -5.076183 -2.116660 0.022651
v -5.089648 -2.000753 0.022651
v -5.061533 -2.030382 0.022651
v -5.033418 -2.060011 0.022651
v -5.061533 -2.030382 0.063496
v -5.083038 -2.007718 0.053894
v -5.040028 -2.053046 0.053894
v -5.112321 -2.078575 0.022651
v -5.140436 -2.048946 0.022651
v -5.084207 -2.108204 0.022651
v -5.112321 -2.078575 0.063496
v -5.133827 -2.055912 0.053894
v -5.090816 -2.101239 0.053894
v -5.037497 -1.604283 0.063171
v -5.065190 -1.575099 0.063171
v -5.036176 -1.603029 0.078147
v -5.063869 -1.573845 0.078147
v -5.254871 -1.820504 0.171838
v -5.292505 -1.780844 0.171838
v -5.264690 -1.829821 0.121322
v -5.302324 -1.790160 0.121322
v -5.185682 -1.679480 0.150011
v -5.195501 -1.688797 0.099495
v -5.157867 -1.728457 0.099495
v -5.148049 -1.719141 0.150011
v -5.028654 -1.619347 -0.008591
v -5.076848 -1.568558 -0.008591
v -5.022186 -1.613209 0.062811
v -5.070380 -1.562420 0.062811
v -5.080450 -1.668495 0.062811
v -5.128643 -1.617706 0.062811
v -5.073982 -1.662358 -0.008591
v -5.122175 -1.611569 -0.008591
v -5.051318 -1.640852 0.075154
v -5.099512 -1.590063 0.075154
v -5.099512 -1.590063 -0.018194
v -5.051318 -1.640852 -0.018194
v -5.089403 -1.676991 0.022651
v -5.137596 -1.626202 0.022651
v -5.061426 -1.553924 0.022651
v -5.013233 -1.604713 0.022651
v -5.129140 -1.618178 0.022651
v -5.099512 -1.590063 0.022651
v -5.069882 -1.561948 0.022651
v -5.099512 -1.590063 0.063496
v -5.122175 -1.611569 0.053894
v -5.076848 -1.568558 0.053894
v -5.051318 -1.640852 0.022651
v -5.080947 -1.668967 0.022651
v -5.021689 -1.612737 0.022651
v -5.051318 -1.640852 0.063496
v -5.073982 -1.662358 0.053894
v -5.028654 -1.619347 0.053894
v -5.525609 -1.566028 0.063171
v -5.554794 -1.593720 0.063171
v -5.526864 -1.564706 0.078147
v -5.556047 -1.592398 0.078147
v -5.309389 -1.783402 0.171838
v -5.349050 -1.821036 0.171838
v -5.300072 -1.793221 0.121322
v -5.339732 -1.830854 0.121322
v -5.450413 -1.714213 0.150011
v -5.441096 -1.724032 0.099495
v -5.401436 -1.686398 0.099495
v -5.410753 -1.676579 0.150011
v -5.510547 -1.557185 -0.008592
v -5.561335 -1.605378 -0.008592
v -5.516684 -1.550717 0.062811
v -5.567472 -1.598910 0.062811
v -5.461398 -1.608980 0.062811
v -5.512187 -1.657173 0.062811
v -5.467535 -1.602512 -0.008592
v -5.518324 -1.650705 -0.008592
v -5.489041 -1.579848 0.075154
v -5.539830 -1.628042 0.075154
v -5.539830 -1.628042 -0.018194
v -5.489041 -1.579848 -0.018194
v -5.452902 -1.617933 0.022651
v -5.503691 -1.666127 0.022651
v -5.575968 -1.589957 0.022651
v -5.525179 -1.541764 0.022651
v -5.511715 -1.657670 0.022651
v -5.539830 -1.628042 0.022651
v -5.567945 -1.598413 0.022651
v -5.539830 -1.628042 0.063496
v -5.518324 -1.650705 0.053894
v -5.561335 -1.605378 0.053894
v -5.489041 -1.579848 0.022651
v -5.460926 -1.609477 0.022651
v -5.517156 -1.550219 0.022651
v -5.489041 -1.579848 0.063496
v -5.467535 -1.602512 0.053894
v -5.510547 -1.557185 0.053894
v -5.563865 -2.054141 0.063171
v -5.536172 -2.083324 0.063171
v -5.565187 -2.055394 0.078147
v -5.537494 -2.084578 0.078147
v -5.346491 -1.837920 0.171838
v -5.308857 -1.877580 0.171838
v -5.336673 -1.828603 0.121322
v -5.299039 -1.868263 0.121322
v -5.415680 -1.978944 0.150011
v -5.405861 -1.969627 0.099495
v -5.443495 -1.929966 0.099495
v -5.453313 -1.939283 0.150011
v -5.572708 -2.039077 -0.008592
v -5.524515 -2.089866 -0.008592
v -5.579176 -2.045215 0.062811
v -5.530983 -2.096004 0.062811
v -5.520913 -1.989929 0.062811
v -5.472720 -2.040718 0.062811
v -5.527381 -1.996067 -0.008592
v -5.479187 -2.046855 -0.008592
v -5.550045 -2.017572 0.075153
v -5.501851 -2.068360 0.075153
v -5.501851 -2.068360 -0.018194
v -5.550045 -2.017572 -0.018194
v -5.511960 -1.981433 0.022651
v -5.463767 -2.032222 0.022651
v -5.539936 -2.104499 0.022651
v -5.588130 -2.053710 0.022651
v -5.472222 -2.040246 0.022651
v -5.501851 -2.068360 0.022651
v -5.531480 -2.096475 0.022651
v -5.501851 -2.068360 0.063496
v -5.479187 -2.046855 0.053894
v -5.524515 -2.089866 0.053894
v -5.550045 -2.017572 0.022651
v -5.520416 -1.989457 0.022651
v -5.579673 -2.045686 0.022651
v -5.550045 -2.017572 0.063496
v -5.527381 -1.996067 0.053894
v -5.572708 -2.039077 0.053894
vn -0.0000 -0.0000 -1.0000
vn 0.0048 -1.0000 -0.0000
vn 1.0000 0.0048 -0.0000
vn -0.7080 0.7062 -0.0000
vn -0.7062 -0.7080 -0.0000
vn 0.0028 -0.5793 0.8151
vn 0.5793 0.0028 0.8151
vn -0.4091 -0.4101 0.8151
vn 0.7062 0.7080 -0.0000
vn -1.0000 -0.0048 -0.0000
vn 0.7080 -0.7062 -0.0000
vn 0.4101 -0.4091 0.8151
vn -0.0048 1.0000 -0.0000
vn 0.6833 -0.7201 -0.1208
vn 0.2352 -0.1045 0.9663
vn 0.1009 -0.1064 0.9892
vn -0.6649 0.7007 0.2588
vn -0.1009 0.1064 -0.9892
vn -0.1213 0.1279 -0.9843
vn 0.7362 0.6768 -0.0057
vn 0.7254 0.6883 -0.0000
vn 0.7370 0.6758 -0.0040
vn -0.7162 -0.6979 0.0103
vn -0.7254 -0.6883 -0.0000
vn 0.7465 0.6651 0.0177
vn 0.7528 0.6582 -0.0049
vn -0.1266 0.1239 -0.9842
vn -0.1416 0.1492 -0.9786
vn -0.7143 -0.6998 -0.0058
vn -0.6972 -0.7168 -0.0107
vn -0.7136 -0.7005 -0.0053
vn 0.2804 -0.2956 0.9132
vn 0.2000 -0.1963 0.9599
vn 0.1925 -0.2029 0.9601
vn 0.6580 -0.6934 -0.2938
vn 0.0605 0.0800 0.9950
vn -0.2022 0.2131 0.9559
vn -0.0000 -0.0000 1.0000
vn -0.6580 0.6934 -0.2938
vn -0.2022 0.2131 -0.9559
vn 0.0531 0.0666 -0.9964
vn 0.2022 -0.2131 0.9559
vn 0.0876 0.0582 0.9945
vn 0.0693 0.0495 -0.9964
vn 0.2022 -0.2131 -0.9559
vn -0.6580 0.6934 0.2938
vn 0.6580 -0.6934 0.2938
vn 0.7201 0.6833 -0.1207
vn 0.1913 0.2034 0.9602
vn 0.1064 0.1009 0.9892
vn 0.2029 0.1925 0.9601
vn -0.7007 -0.6649 0.2588
vn -0.1064 -0.1009 -0.9892
vn -0.1194 -0.1276 -0.9846
vn -0.1279 -0.1213 -0.9843
vn -0.6768 0.7362 -0.0057
vn -0.6883 0.7254 -0.0000
vn -0.6758 0.7370 -0.0040
vn 0.6979 -0.7162 0.0103
vn 0.6883 -0.7254 -0.0000
vn -0.6651 0.7465 0.0177
vn -0.6582 0.7528 -0.0049
vn -0.1239 -0.1266 -0.9842
vn -0.1492 -0.1416 -0.9786
vn 0.6999 -0.7143 -0.0058
vn 0.7168 -0.6972 -0.0107
vn 0.7005 -0.7136 -0.0053
vn 0.2956 0.2804 0.9132
vn 0.1963 0.2000 0.9599
vn 0.6934 0.6580 -0.2938
vn -0.0844 0.0627 0.9945
vn -0.2131 -0.2022 0.9559
vn -0.6934 -0.6580 -0.2938
vn -0.2131 -0.2022 -0.9559
vn -0.0666 0.0531 -0.9964
vn 0.2131 0.2022 0.9559
vn -0.0582 0.0876 0.9945
vn -0.0495 0.0693 -0.9964
vn 0.2131 0.2022 -0.9559
vn -0.6934 -0.6580 0.2938
vn 0.6934 0.6580 0.2938
vn -0.6833 0.7201 -0.1208
vn -0.2034 0.1913 0.9602
vn -0.1009 0.1064 0.9892
vn -0.1925 0.2029 0.9601
vn 0.6649 -0.7007 0.2588
vn 0.1009 -0.1064 -0.9892
vn 0.1276 -0.1194 -0.9846
vn 0.1213 -0.1279 -0.9843
vn -0.7362 -0.6768 -0.0057
vn -0.7370 -0.6758 -0.0040
vn 0.7162 0.6979 0.0103
vn -0.7465 -0.6651 0.0177
vn -0.7528 -0.6582 -0.0049
vn 0.1266 -0.1239 -0.9842
vn 0.1416 -0.1492 -0.9786
vn 0.7143 0.6998 -0.0058
vn 0.6972 0.7168 -0.0107
vn 0.7136 0.7005 -0.0053
vn -0.2805 0.2956 0.9132
vn -0.2988 0.1635 0.9402
vn -0.0605 -0.0800 0.9950
vn -0.0531 -0.0667 -0.9964
vn -0.0830 -0.0562 0.9950
vn -0.0923 -0.0602 -0.9939
vn -0.7201 -0.6833 -0.1208
vn -0.1913 -0.2034 0.9602
vn -0.1064 -0.1009 0.9892
vn -0.2029 -0.1925 0.9601
vn 0.7007 0.6649 0.2588
vn 0.1064 0.1009 -0.9892
vn 0.1279 0.1213 -0.9843
vn 0.6768 -0.7362 -0.0057
vn 0.6758 -0.7370 -0.0040
vn -0.6979 0.7162 0.0103
vn 0.6651 -0.7465 0.0177
vn 0.6582 -0.7528 -0.0049
vn 0.1239 0.1266 -0.9842
vn 0.1492 0.1416 -0.9786
vn -0.6999 0.7143 -0.0058
vn -0.7168 0.6972 -0.0107
vn -0.7005 0.7136 -0.0053
vn -0.2956 -0.2805 0.9132
vn -0.1635 -0.2988 0.9402
vn 0.0844 -0.0627 0.9945
vn 0.0890 -0.0650 -0.9939
vn 0.0582 -0.0876 0.9945
vn 0.0602 -0.0923 -0.9939
vn 0.5793 0.0027 0.8151
vn 0.6833 -0.7201 -0.1207
vn 0.1804 -0.2132 0.9602
vn -0.1126 0.1337 -0.9846
vn 0.7344 0.6786 0.0103
vn -0.7144 -0.6997 -0.0057
vn -0.7135 -0.7006 -0.0040
vn 0.7363 0.6766 -0.0058
vn 0.7369 0.6759 -0.0053
vn 0.7523 0.6587 -0.0107
vn -0.1211 0.1281 -0.9843
vn -0.7033 -0.7106 0.0177
vn -0.6968 -0.7173 -0.0050
vn 0.2805 -0.2956 0.9132
vn 0.1476 -0.3070 0.9402
vn -0.0876 -0.0582 0.9945
vn -0.0650 -0.0890 -0.9939
vn 0.7201 0.6833 -0.1208
vn 0.2404 0.0920 0.9663
vn -0.6786 0.7344 0.0103
vn 0.6997 -0.7144 -0.0057
vn 0.7006 -0.7135 -0.0040
vn -0.6766 0.7363 -0.0058
vn -0.6759 0.7369 -0.0053
vn -0.6587 0.7523 -0.0107
vn -0.1281 -0.1211 -0.9843
vn 0.7106 -0.7033 0.0177
vn 0.7173 -0.6968 -0.0049
vn 0.2956 0.2805 0.9132
vn 0.3070 0.1476 0.9402
vn 0.0562 -0.0830 0.9950
vn 0.0001 -0.0001 1.0000
vn 0.0800 -0.0605 0.9950
vn -0.0920 0.2404 0.9663
vn -0.7344 -0.6786 0.0103
vn 0.7144 0.6997 -0.0057
vn 0.7135 0.7006 -0.0040
vn -0.7363 -0.6766 -0.0058
vn -0.7369 -0.6759 -0.0053
vn -0.7523 -0.6587 -0.0107
vn 0.1211 -0.1281 -0.9843
vn 0.7033 0.7107 0.0177
vn 0.6968 0.7173 -0.0050
vn -0.1856 0.2100 0.9599
vn 0.0922 0.0602 -0.9939
vn 0.0627 0.0844 0.9945
vn -0.2404 -0.0920 0.9663
vn 0.1337 0.1126 -0.9846
vn 0.6786 -0.7344 0.0103
vn -0.6997 0.7144 -0.0057
vn -0.7006 0.7135 -0.0040
vn 0.6766 -0.7363 -0.0058
vn 0.6760 -0.7369 -0.0053
vn 0.6587 -0.7523 -0.0107
vn 0.1281 0.1211 -0.9843
vn -0.7107 0.7033 0.0177
vn -0.7173 0.6968 -0.0050
vn -0.2100 -0.1856 0.9599
vn -0.0562 0.0830 0.9950
vn -0.0800 0.0605 0.9950
vt 0.112005 0.281609
s 0
usemtl MetalTable
f 22/1/1 1/1/1 15/1/1
f 23/1/2 5/1/2 1/1/2
f 16/1/3 6/1/3 2/1/3
f 26/1/4 3/1/4 8/1/4
f 15/1/5 5/1/5 20/1/5
f 24/1/6 9/1/6 5/1/6
f 17/1/7 10/1/7 6/1/7
f 20/1/8 9/1/8 19/1/8
f 3/1/1 22/1/1 15/1/1
f 16/1/9 7/1/9 17/1/9
f 15/1/10 8/1/10 3/1/10
f 22/1/1 4/1/1 16/1/1
f 22/1/1 2/1/1 23/1/1
f 23/1/11 6/1/11 24/1/11
f 24/1/12 10/1/12 25/1/12
f 26/1/13 4/1/13 21/1/13
f 27/1/14 30/1/14 29/1/14
f 38/1/15 32/1/16 31/1/16
f 31/1/17 34/1/17 33/1/17
f 34/1/18 37/1/19 33/1/18
f 36/1/20 32/1/21 35/1/22
f 37/1/23 31/1/24 33/1/24
f 36/1/25 30/1/26 28/1/26
f 36/1/27 27/1/28 37/1/19
f 37/1/29 29/1/30 38/1/31
f 29/1/32 35/1/33 38/1/34
f 40/1/35 63/1/35 39/1/35
f 48/1/36 43/1/37 47/1/38
f 62/1/39 46/1/39 45/1/39
f 46/1/40 50/1/41 45/1/40
f 56/1/21 46/1/21 55/1/21
f 45/1/24 61/1/24 62/1/24
f 42/1/42 47/1/43 41/1/42
f 40/1/21 56/1/21 57/1/21
f 50/1/44 40/1/45 39/1/45
f 61/1/24 39/1/24 63/1/24
f 61/1/24 65/1/24 62/1/24
f 44/1/46 51/1/46 43/1/46
f 56/1/21 59/1/21 58/1/21
f 56/1/21 60/1/21 57/1/21
f 54/1/47 42/1/47 41/1/47
f 61/1/24 66/1/24 64/1/24
f 52/1/21 59/1/21 55/1/21
f 48/1/21 59/1/21 44/1/21
f 48/1/21 60/1/21 58/1/21
f 53/1/21 60/1/21 42/1/21
f 47/1/24 65/1/24 64/1/24
f 51/1/24 65/1/24 43/1/24
f 54/1/24 66/1/24 63/1/24
f 47/1/24 66/1/24 41/1/24
f 53/1/1 63/1/1 57/1/1
f 51/1/1 55/1/1 62/1/1
f 68/1/48 69/1/48 67/1/48
f 75/1/49 71/1/50 78/1/51
f 72/1/52 73/1/52 71/1/52
f 73/1/53 76/1/54 77/1/55
f 76/1/56 72/1/57 75/1/58
f 77/1/59 71/1/60 73/1/60
f 76/1/61 70/1/62 68/1/62
f 76/1/63 67/1/64 77/1/55
f 77/1/65 69/1/66 78/1/67
f 69/1/68 75/1/69 78/1/51
f 80/1/70 103/1/70 79/1/70
f 87/1/71 84/1/72 83/1/72
f 95/1/73 85/1/73 102/1/73
f 86/1/74 90/1/75 85/1/74
f 96/1/57 86/1/57 95/1/57
f 85/1/60 101/1/60 102/1/60
f 82/1/76 87/1/77 81/1/76
f 80/1/57 96/1/57 97/1/57
f 90/1/78 80/1/79 79/1/79
f 101/1/60 79/1/60 103/1/60
f 101/1/60 105/1/60 102/1/60
f 83/1/80 92/1/80 91/1/80
f 96/1/57 99/1/57 98/1/57
f 96/1/57 100/1/57 97/1/57
f 94/1/81 82/1/81 81/1/81
f 101/1/60 106/1/60 104/1/60
f 92/1/57 99/1/57 95/1/57
f 88/1/57 99/1/57 84/1/57
f 88/1/57 100/1/57 98/1/57
f 93/1/57 100/1/57 82/1/57
f 87/1/60 105/1/60 104/1/60
f 91/1/60 105/1/60 83/1/60
f 94/1/60 106/1/60 103/1/60
f 87/1/60 106/1/60 81/1/60
f 94/1/1 97/1/1 93/1/1
f 91/1/1 95/1/1 102/1/1
f 107/1/82 110/1/82 109/1/82
f 115/1/83 111/1/84 118/1/85
f 111/1/86 114/1/86 113/1/86
f 113/1/87 116/1/88 117/1/89
f 116/1/90 112/1/24 115/1/91
f 117/1/92 111/1/21 113/1/21
f 116/1/93 110/1/94 108/1/94
f 116/1/95 107/1/96 117/1/89
f 117/1/97 109/1/98 118/1/99
f 110/1/100 118/1/101 109/1/100
f 119/1/39 137/1/39 143/1/39
f 128/1/102 123/1/42 127/1/38
f 142/1/35 126/1/35 125/1/35
f 126/1/45 130/1/103 125/1/45
f 136/1/24 126/1/24 135/1/24
f 125/1/21 141/1/21 142/1/21
f 121/1/37 128/1/104 127/1/38
f 120/1/24 136/1/24 137/1/24
f 129/1/105 119/1/40 130/1/1
f 141/1/21 119/1/21 143/1/21
f 141/1/21 145/1/21 142/1/21
f 123/1/47 132/1/47 131/1/47
f 136/1/24 139/1/24 138/1/24
f 136/1/24 140/1/24 137/1/24
f 134/1/46 122/1/46 121/1/46
f 141/1/21 146/1/21 144/1/21
f 132/1/24 139/1/24 135/1/24
f 128/1/24 139/1/24 124/1/24
f 128/1/24 140/1/24 138/1/24
f 133/1/24 140/1/24 122/1/24
f 127/1/21 145/1/21 144/1/21
f 131/1/21 145/1/21 123/1/21
f 134/1/21 146/1/21 143/1/21
f 127/1/21 146/1/21 121/1/21
f 134/1/1 137/1/1 133/1/1
f 131/1/1 135/1/1 142/1/1
f 147/1/106 150/1/106 149/1/106
f 155/1/107 151/1/108 158/1/109
f 151/1/110 154/1/110 153/1/110
f 154/1/111 157/1/112 153/1/111
f 156/1/113 152/1/60 155/1/114
f 157/1/115 151/1/57 153/1/57
f 156/1/116 150/1/117 148/1/117
f 156/1/118 147/1/119 157/1/112
f 157/1/120 149/1/121 158/1/122
f 150/1/123 158/1/124 149/1/123
f 159/1/73 177/1/73 183/1/73
f 167/1/125 164/1/76 163/1/76
f 175/1/70 165/1/70 182/1/70
f 165/1/79 169/1/126 170/1/1
f 176/1/60 166/1/60 175/1/60
f 165/1/57 181/1/57 182/1/57
f 162/1/72 167/1/127 161/1/72
f 160/1/60 176/1/60 177/1/60
f 169/1/128 159/1/74 170/1/1
f 181/1/57 159/1/57 183/1/57
f 181/1/57 185/1/57 182/1/57
f 163/1/81 172/1/81 171/1/81
f 176/1/60 179/1/60 178/1/60
f 176/1/60 180/1/60 177/1/60
f 174/1/80 162/1/80 161/1/80
f 181/1/57 186/1/57 184/1/57
f 172/1/60 179/1/60 175/1/60
f 168/1/60 179/1/60 164/1/60
f 168/1/60 180/1/60 178/1/60
f 173/1/60 180/1/60 162/1/60
f 167/1/57 185/1/57 184/1/57
f 171/1/57 185/1/57 163/1/57
f 174/1/57 186/1/57 183/1/57
f 167/1/57 186/1/57 161/1/57
f 174/1/1 177/1/1 173/1/1
f 172/1/1 182/1/1 171/1/1
f 22/1/1 23/1/1 1/1/1
f 23/1/2 24/1/2 5/1/2
f 16/1/3 17/1/3 6/1/3
f 26/1/4 21/1/4 3/1/4
f 15/1/5 1/1/5 5/1/5
f 24/1/6 25/1/6 9/1/6
f 17/1/129 18/1/129 10/1/129
f 20/1/8 5/1/8 9/1/8
f 3/1/1 21/1/1 22/1/1
f 16/1/9 4/1/9 7/1/9
f 15/1/10 20/1/10 8/1/10
f 22/1/1 21/1/1 4/1/1
f 22/1/1 16/1/1 2/1/1
f 23/1/11 2/1/11 6/1/11
f 24/1/12 6/1/12 10/1/12
f 26/1/13 7/1/13 4/1/13
f 27/1/130 28/1/130 30/1/130
f 38/1/131 35/1/34 32/1/16
f 31/1/17 32/1/17 34/1/17
f 34/1/18 36/1/19 37/1/132
f 36/1/133 34/1/21 32/1/21
f 37/1/134 38/1/135 31/1/24
f 36/1/136 35/1/137 30/1/138
f 36/1/139 28/1/28 27/1/28
f 37/1/140 27/1/141 29/1/141
f 29/1/142 30/1/142 35/1/143
f 40/1/35 57/1/35 63/1/35
f 48/1/144 44/1/37 43/1/37
f 62/1/39 55/1/39 46/1/39
f 46/1/40 49/1/1 50/1/105
f 56/1/21 49/1/21 46/1/21
f 45/1/24 50/1/24 61/1/24
f 42/1/42 48/1/38 47/1/102
f 40/1/21 49/1/21 56/1/21
f 50/1/145 49/1/1 40/1/45
f 61/1/24 50/1/24 39/1/24
f 61/1/24 64/1/24 65/1/24
f 44/1/46 52/1/46 51/1/46
f 56/1/21 55/1/21 59/1/21
f 56/1/21 58/1/21 60/1/21
f 54/1/47 53/1/47 42/1/47
f 61/1/24 63/1/24 66/1/24
f 52/1/21 44/1/21 59/1/21
f 48/1/21 58/1/21 59/1/21
f 48/1/21 42/1/21 60/1/21
f 53/1/21 57/1/21 60/1/21
f 47/1/24 43/1/24 65/1/24
f 51/1/24 62/1/24 65/1/24
f 54/1/24 41/1/24 66/1/24
f 47/1/24 64/1/24 66/1/24
f 53/1/1 54/1/1 63/1/1
f 51/1/1 52/1/1 55/1/1
f 68/1/146 70/1/146 69/1/146
f 75/1/147 72/1/50 71/1/50
f 72/1/52 74/1/52 73/1/52
f 73/1/53 74/1/53 76/1/55
f 76/1/148 74/1/57 72/1/57
f 77/1/149 78/1/150 71/1/60
f 76/1/151 75/1/152 70/1/153
f 76/1/154 68/1/64 67/1/64
f 77/1/155 67/1/156 69/1/156
f 69/1/157 70/1/157 75/1/158
f 80/1/70 97/1/70 103/1/70
f 87/1/159 88/1/160 84/1/72
f 95/1/73 86/1/73 85/1/73
f 86/1/74 89/1/1 90/1/128
f 96/1/57 89/1/57 86/1/57
f 85/1/60 90/1/60 101/1/60
f 82/1/76 88/1/38 87/1/161
f 80/1/57 89/1/57 96/1/57
f 90/1/126 89/1/1 80/1/79
f 101/1/60 90/1/60 79/1/60
f 101/1/60 104/1/60 105/1/60
f 83/1/80 84/1/80 92/1/80
f 96/1/57 95/1/57 99/1/57
f 96/1/57 98/1/57 100/1/57
f 94/1/81 93/1/81 82/1/81
f 101/1/60 103/1/60 106/1/60
f 92/1/57 84/1/57 99/1/57
f 88/1/57 98/1/57 99/1/57
f 88/1/57 82/1/57 100/1/57
f 93/1/57 97/1/57 100/1/57
f 87/1/60 83/1/60 105/1/60
f 91/1/60 102/1/60 105/1/60
f 94/1/60 81/1/60 106/1/60
f 87/1/60 104/1/60 106/1/60
f 94/1/1 103/1/1 97/1/1
f 91/1/1 92/1/1 95/1/1
f 107/1/82 108/1/82 110/1/82
f 115/1/162 112/1/84 111/1/84
f 111/1/86 112/1/86 114/1/86
f 113/1/87 114/1/87 116/1/89
f 116/1/163 114/1/24 112/1/24
f 117/1/164 118/1/165 111/1/21
f 116/1/166 115/1/167 110/1/168
f 116/1/169 108/1/96 107/1/96
f 117/1/170 107/1/171 109/1/171
f 110/1/100 115/1/85 118/1/172
f 119/1/39 120/1/39 137/1/39
f 128/1/43 124/1/42 123/1/42
f 142/1/35 135/1/35 126/1/35
f 126/1/45 129/1/1 130/1/173
f 136/1/24 129/1/24 126/1/24
f 125/1/21 130/1/21 141/1/21
f 121/1/37 122/1/37 128/1/174
f 120/1/24 129/1/24 136/1/24
f 129/1/41 120/1/40 119/1/40
f 141/1/21 130/1/21 119/1/21
f 141/1/21 144/1/21 145/1/21
f 123/1/47 124/1/47 132/1/47
f 136/1/24 135/1/24 139/1/24
f 136/1/24 138/1/24 140/1/24
f 134/1/46 133/1/46 122/1/46
f 141/1/21 143/1/21 146/1/21
f 132/1/24 124/1/24 139/1/24
f 128/1/24 138/1/24 139/1/24
f 128/1/24 122/1/24 140/1/24
f 133/1/24 137/1/24 140/1/24
f 127/1/21 123/1/21 145/1/21
f 131/1/21 142/1/21 145/1/21
f 134/1/21 121/1/21 146/1/21
f 127/1/21 144/1/21 146/1/21
f 134/1/1 143/1/1 137/1/1
f 131/1/1 132/1/1 135/1/1
f 147/1/106 148/1/106 150/1/106
f 155/1/175 152/1/108 151/1/108
f 151/1/110 152/1/110 154/1/110
f 154/1/111 156/1/112 157/1/176
f 156/1/177 154/1/60 152/1/60
f 157/1/178 158/1/179 151/1/57
f 156/1/180 155/1/181 150/1/182
f 156/1/183 148/1/119 147/1/119
f 157/1/184 147/1/185 149/1/185
f 150/1/123 155/1/109 158/1/186
f 159/1/73 160/1/73 177/1/73
f 167/1/187 168/1/38 164/1/76
f 175/1/70 166/1/70 165/1/70
f 165/1/79 166/1/79 169/1/78
f 176/1/60 169/1/60 166/1/60
f 165/1/57 170/1/57 181/1/57
f 162/1/72 168/1/38 167/1/188
f 160/1/60 169/1/60 176/1/60
f 169/1/75 160/1/74 159/1/74
f 181/1/57 170/1/57 159/1/57
f 181/1/57 184/1/57 185/1/57
f 163/1/81 164/1/81 172/1/81
f 176/1/60 175/1/60 179/1/60
f 176/1/60 178/1/60 180/1/60
f 174/1/80 173/1/80 162/1/80
f 181/1/57 183/1/57 186/1/57
f 172/1/60 164/1/60 179/1/60
f 168/1/60 178/1/60 179/1/60
f 168/1/60 162/1/60 180/1/60
f 173/1/60 177/1/60 180/1/60
f 167/1/57 163/1/57 185/1/57
f 171/1/57 182/1/57 185/1/57
f 174/1/57 161/1/57 186/1/57
f 167/1/57 184/1/57 186/1/57
f 174/1/1 183/1/1 177/1/1
f 172/1/1 175/1/1 182/1/1
