o SM_Prop_Television_Flat_Wall_01_-_Copy.001
v -4.212574 -0.093374 1.529703
v -4.211266 -0.141444 1.529703
v -4.212574 -0.093374 2.102668
v -4.211266 -0.141444 2.102668
v -3.372465 -0.070515 2.102668
v -3.371157 -0.118585 2.102668
v -3.372465 -0.070515 1.529703
v -3.371157 -0.118585 1.529703
v -4.204257 -0.093148 2.113272
v -4.202949 -0.141217 2.113272
v -3.379474 -0.118811 2.113272
v -3.380782 -0.070742 2.113272
v -3.380782 -0.070742 1.519098
v -3.379474 -0.118811 1.519098
v -4.202949 -0.141217 1.519098
v -4.204257 -0.093148 1.519098
v -3.383437 -0.118919 1.540782
v -4.198987 -0.141110 1.540782
v -3.383437 -0.118919 2.091588
v -4.198987 -0.141110 2.091588
v -3.391510 -0.119139 2.101783
v -4.190913 -0.140890 2.101783
v -4.190913 -0.140890 1.530587
v -3.391510 -0.119139 1.530587
v -3.390583 -0.107492 1.549638
v -4.192472 -0.129311 1.549638
v -3.390583 -0.107492 2.082732
v -4.192472 -0.129311 2.082732
v -3.398522 -0.107708 2.092599
v -4.184534 -0.129095 2.092599
v -4.184534 -0.129095 1.539772
v -3.398522 -0.107708 1.539772
v -3.632197 -0.077582 1.823317
v -3.952842 -0.086307 1.823317
v -3.952842 -0.086307 2.006632
v -3.632197 -0.077582 2.006632
v -3.913789 -0.085244 2.050956
v -3.671249 -0.078645 2.050956
v -3.671249 -0.078645 1.778993
v -3.913789 -0.085244 1.778993
v -3.644864 0.016584 1.829090
v -3.945315 0.008409 1.829090
v -3.945315 0.008409 2.000859
v -3.644864 0.016584 2.000859
v -3.908722 0.009405 2.042392
v -3.681456 0.015589 2.042392
v -3.681456 0.015589 1.787557
v -3.908722 0.009405 1.787557
v -3.715603 0.014660 1.855111
v -3.874576 0.010334 1.855111
v -3.874576 0.010334 1.974838
v -3.715603 0.014660 1.974838
vn -0.9996 -0.0272 -0.0000
vn -0.0000 -0.0000 1.0000
vn 0.9996 0.0272 -0.0000
vn -0.0000 -0.0000 -1.0000
vn 0.0272 -0.9996 -0.0000
vn -0.0272 0.9996 -0.0000
vn -0.7865 -0.0214 0.6173
vn 0.7865 0.0214 0.6173
vn 0.7865 0.0214 -0.6173
vn -0.7865 -0.0214 -0.6173
vn -0.8478 -0.5303 -0.0000
vn 0.8754 -0.4834 -0.0000
vn -0.5499 -0.6987 -0.4577
vn 0.0169 -0.6200 -0.7845
vn 0.5887 -0.6702 -0.4518
vn 0.5871 -0.6677 0.4577
vn 0.0169 -0.6200 0.7844
vn -0.5514 -0.7013 0.4518
vn -0.9969 0.0792 -0.0000
vn 0.9911 0.1333 -0.0000
vn -0.7478 0.0994 0.6565
vn -0.0025 0.0902 0.9959
vn 0.7413 0.1399 0.6565
vn 0.7413 0.1399 -0.6565
vn -0.0025 0.0902 -0.9959
vn -0.7478 0.0994 -0.6565
vn -0.5514 -0.7013 -0.4518
vn 0.5871 -0.6677 -0.4577
vn 0.5887 -0.6703 0.4518
vn 0.0169 -0.6200 0.7845
vn -0.5499 -0.6987 0.4577
vt 0.080676 0.228912
vt 1.000000 0.017847
vt 0.000000 0.982153
vt 0.000000 0.017847
vt 0.101440 0.230583
vt 0.990100 1.000000
vt 0.009899 1.000000
vt 0.990100 0.000000
vt 1.000000 0.982153
vt 0.009899 0.000000
s 0
usemtl Leather
f 2/1/1 3/1/1 1/1/1
f 10/1/2 12/1/2 9/1/2
f 6/1/3 7/1/3 5/1/3
f 14/1/4 16/1/4 13/1/4
f 25/2/5 28/3/5 26/4/5
f 50/5/6 52/5/6 49/5/6
f 4/1/7 9/1/7 3/1/7
f 28/3/5 29/6/5 30/7/5
f 5/1/8 11/1/8 6/1/8
f 44/1/6 45/1/6 46/1/6
f 8/1/9 13/1/9 7/1/9
f 26/4/5 32/8/5 25/2/5
f 1/1/10 15/1/10 2/1/10
f 41/1/6 48/1/6 42/1/6
f 6/1/5 17/1/5 8/1/5
f 4/1/5 18/1/5 20/1/5
f 11/1/5 19/1/5 6/1/5
f 10/1/5 21/1/5 11/1/5
f 10/1/5 20/1/5 22/1/5
f 15/1/5 18/1/5 2/1/5
f 15/1/5 24/1/5 23/1/5
f 14/1/5 17/1/5 24/1/5
f 19/1/11 25/1/11 17/1/11
f 20/1/12 26/1/12 28/1/12
f 19/1/13 29/1/13 27/1/13
f 22/1/14 29/1/14 21/1/14
f 20/1/15 30/1/15 22/1/15
f 18/1/16 31/1/16 26/1/16
f 23/1/17 32/1/17 31/1/17
f 17/1/18 32/1/18 24/1/18
f 3/1/6 34/1/6 1/1/6
f 5/1/6 33/1/6 36/1/6
f 9/1/6 35/1/6 3/1/6
f 12/1/6 37/1/6 9/1/6
f 12/1/6 36/1/6 38/1/6
f 13/1/6 33/1/6 7/1/6
f 13/1/6 40/1/6 39/1/6
f 16/1/6 34/1/6 40/1/6
f 34/1/19 43/1/19 42/1/19
f 33/1/20 44/1/20 36/1/20
f 37/1/21 43/1/21 35/1/21
f 37/1/22 46/1/22 45/1/22
f 38/1/23 44/1/23 46/1/23
f 39/1/24 41/1/24 33/1/24
f 40/1/25 47/1/25 39/1/25
f 40/1/26 42/1/26 48/1/26
f 42/1/6 49/1/6 41/1/6
f 42/1/6 51/1/6 50/1/6
f 43/1/6 52/1/6 51/1/6
f 41/1/6 52/1/6 44/1/6
f 2/1/1 4/1/1 3/1/1
f 10/1/2 11/1/2 12/1/2
f 6/1/3 8/1/3 7/1/3
f 14/1/4 15/1/4 16/1/4
f 25/2/5 27/9/5 28/3/5
f 50/5/6 51/5/6 52/5/6
f 4/1/7 10/1/7 9/1/7
f 28/3/5 27/9/5 29/6/5
f 5/1/8 12/1/8 11/1/8
f 44/1/6 43/1/6 45/1/6
f 8/1/9 14/1/9 13/1/9
f 26/4/5 31/10/5 32/8/5
f 1/1/10 16/1/10 15/1/10
f 41/1/6 47/1/6 48/1/6
f 6/1/5 19/1/5 17/1/5
f 4/1/5 2/1/5 18/1/5
f 11/1/5 21/1/5 19/1/5
f 10/1/5 22/1/5 21/1/5
f 10/1/5 4/1/5 20/1/5
f 15/1/5 23/1/5 18/1/5
f 15/1/5 14/1/5 24/1/5
f 14/1/5 8/1/5 17/1/5
f 19/1/11 27/1/11 25/1/11
f 20/1/12 18/1/12 26/1/12
f 19/1/27 21/1/27 29/1/27
f 22/1/14 30/1/14 29/1/14
f 20/1/28 28/1/28 30/1/28
f 18/1/29 23/1/29 31/1/29
f 23/1/30 24/1/30 32/1/30
f 17/1/31 25/1/31 32/1/31
f 3/1/6 35/1/6 34/1/6
f 5/1/6 7/1/6 33/1/6
f 9/1/6 37/1/6 35/1/6
f 12/1/6 38/1/6 37/1/6
f 12/1/6 5/1/6 36/1/6
f 13/1/6 39/1/6 33/1/6
f 13/1/6 16/1/6 40/1/6
f 16/1/6 1/1/6 34/1/6
f 34/1/19 35/1/19 43/1/19
f 33/1/20 41/1/20 44/1/20
f 37/1/21 45/1/21 43/1/21
f 37/1/22 38/1/22 46/1/22
f 38/1/23 36/1/23 44/1/23
f 39/1/24 47/1/24 41/1/24
f 40/1/25 48/1/25 47/1/25
f 40/1/26 34/1/26 42/1/26
f 42/1/6 50/1/6 49/1/6
f 42/1/6 43/1/6 51/1/6
f 43/1/6 44/1/6 52/1/6
f 41/1/6 49/1/6 52/1/6
