o SM_Prop_SatelliteDish_01_-_Copy
v -3.033823 -2.392271 2.548416
v -3.269623 -2.392271 2.548416
v -3.106467 -1.857094 2.301892
v -3.196980 -1.857094 2.301892
v -3.106467 -1.624247 2.315377
v -3.196980 -1.624247 2.315377
v -3.033823 -2.287923 2.740266
v -3.269623 -2.287923 2.740266
v -3.120244 -2.205523 2.613151
v -3.120244 -2.240786 2.548320
v -3.183203 -2.240786 2.548320
v -3.183203 -2.205523 2.613151
v -3.204853 -2.208528 2.636486
v -3.098593 -2.208528 2.636486
v -3.098593 -2.262006 2.538162
v -3.204853 -2.262006 2.538162
v -3.269623 -2.229531 2.708506
v -3.033823 -2.229531 2.708506
v -3.033823 -2.333879 2.516656
v -3.269623 -2.333879 2.516656
v -3.098593 -2.295318 2.556281
v -3.098593 -2.241840 2.654604
v -3.204853 -2.241840 2.654604
v -3.204853 -2.295318 2.556281
v -3.106467 -1.743370 2.380168
v -3.196980 -1.743370 2.380168
v -3.196980 -1.883232 2.335461
v -3.106467 -1.883232 2.335461
v -3.183203 -1.886268 2.355496
v -3.183203 -1.789416 2.386829
v -3.120244 -1.789416 2.386829
v -3.120244 -1.886268 2.355496
v -3.573554 -1.731219 2.212062
v -3.573554 -1.694495 2.212997
v -3.195849 -1.721608 1.834479
v -3.195849 -1.684884 1.835414
v -3.199379 -1.723020 1.889943
v -3.199379 -1.686296 1.890878
v -3.540832 -1.731708 2.231286
v -3.540832 -1.694984 2.232221
v -3.133355 -2.134551 2.201796
v -3.170091 -2.134551 2.201796
v -3.133355 -1.747359 1.833824
v -3.170091 -1.747359 1.833824
v -3.133355 -1.752298 1.889199
v -3.170091 -1.752298 1.889199
v -3.133355 -2.102328 2.221852
v -3.170091 -2.102328 2.221852
v -2.729892 -1.694494 2.212997
v -2.729892 -1.731219 2.212062
v -3.107597 -1.684884 1.835415
v -3.107597 -1.721608 1.834479
v -3.104068 -1.686296 1.890878
v -3.104068 -1.723020 1.889943
v -2.762615 -1.694984 2.232221
v -2.762615 -1.731708 2.231286
v -3.170091 -1.291163 2.223264
v -3.133355 -1.291163 2.223264
v -3.170091 -1.659135 1.836070
v -3.133355 -1.659135 1.836070
v -3.170091 -1.657019 1.891623
v -3.133355 -1.657019 1.891623
v -3.170091 -1.324365 2.241654
v -3.133355 -1.324365 2.241654
v -3.100373 -1.757016 1.929316
v -3.203074 -1.757016 1.929316
v -3.100373 -1.752359 1.746367
v -3.203074 -1.752359 1.746367
v -3.100373 -1.649691 1.748981
v -3.203074 -1.649691 1.748981
v -3.100373 -1.654348 1.931929
v -3.203074 -1.654348 1.931929
v -3.077866 -1.705682 1.930623
v -3.077866 -1.701025 1.747674
v -3.225580 -1.701025 1.747674
v -3.225580 -1.705682 1.930623
v -3.151723 -1.627191 1.749553
v -3.151723 -1.701025 1.747674
v -3.151723 -1.774858 1.745794
v -3.151723 -1.779515 1.928743
v -3.151723 -1.705682 1.930623
v -3.151723 -1.631848 1.932501
v -3.557489 -2.114902 2.061166
v -3.151723 -2.282921 2.056890
v -2.745957 -2.114902 2.061166
v -2.577884 -1.709268 2.071491
v -2.745957 -1.303633 2.081816
v -3.151723 -1.135613 2.086093
v -3.557489 -1.303633 2.081816
v -3.725563 -1.709268 2.071491
v -3.523212 -2.082417 2.132055
v -3.151723 -2.236243 2.128140
v -2.780235 -2.082417 2.132055
v -2.626359 -1.711049 2.141508
v -2.780235 -1.339681 2.150961
v -3.151723 -1.185855 2.154876
v -3.523212 -1.339681 2.150961
v -3.677087 -1.711049 2.141508
v -3.436048 -1.997249 2.211535
v -3.151723 -2.114982 2.208538
v -2.867398 -1.997249 2.211535
v -2.749627 -1.713016 2.218769
v -2.867398 -1.428783 2.226005
v -3.151723 -1.311051 2.229001
v -3.436048 -1.428783 2.226005
v -3.553819 -1.713016 2.218769
v -3.305599 -1.868155 2.266479
v -3.151723 -1.931873 2.264857
v -2.997848 -1.868155 2.266479
v -2.934111 -1.714330 2.270394
v -2.997848 -1.560504 2.274309
v -3.151723 -1.496788 2.275931
v -3.305599 -1.560504 2.274309
v -3.369336 -1.714330 2.270394
v -3.151723 -1.714791 2.288522
v -3.579387 -2.137163 2.075176
v -3.151723 -2.314250 2.070668
v -3.151723 -2.264918 2.150352
v -3.543082 -2.102864 2.154476
v -2.724060 -2.137163 2.075176
v -2.760365 -2.102864 2.154476
v -2.546916 -1.709638 2.086056
v -2.598259 -1.711633 2.164435
v -2.724060 -1.282112 2.096939
v -2.760365 -1.320401 2.174393
v -3.151723 -1.105026 2.101447
v -3.151723 -1.158347 2.178518
v -3.579387 -1.282112 2.096939
v -3.543082 -1.320401 2.174393
v -3.756530 -1.709638 2.086056
v -3.705188 -1.711633 2.164435
v -3.151723 -2.131530 2.240814
v -3.447166 -2.009195 2.243928
v -2.856281 -2.009195 2.243928
v -2.733905 -1.713848 2.251446
v -2.856281 -1.418501 2.258964
v -3.151723 -1.296165 2.262077
v -3.447166 -1.418501 2.258964
v -3.569541 -1.713848 2.251446
v -3.151723 -1.940022 2.300201
v -3.310724 -1.874183 2.301876
v -2.992723 -1.874183 2.301876
v -2.926862 -1.715234 2.305923
v -2.992723 -1.556285 2.309968
v -3.151723 -1.490447 2.311644
v -3.310724 -1.556285 2.309968
v -3.376584 -1.715234 2.305923
v -3.151723 -1.715714 2.324781
vn -0.0000 -0.9887 -0.1499
vn -0.0000 0.1432 0.9897
vn -0.0000 -0.8785 0.4778
vn -0.8235 -0.1746 0.5398
vn 0.8283 -0.1706 0.5337
vn 0.5372 0.7410 -0.4030
vn -0.0000 0.4318 -0.9020
vn -0.5372 0.7410 -0.4030
vn -0.0000 0.9918 0.1277
vn -0.0000 0.9749 -0.2226
vn 0.2248 0.8560 -0.4656
vn -0.0000 0.7167 -0.6974
vn -0.2248 0.8560 -0.4656
vn -0.0000 0.4778 0.8785
vn 1.0000 -0.0000 -0.0000
vn -0.0000 -0.4778 -0.8785
vn -1.0000 -0.0000 -0.0000
vn -0.0000 -0.7890 -0.6144
vn -0.7071 0.0180 -0.7069
vn 0.7071 -0.0180 0.7069
vn -0.0000 0.9997 0.0254
vn -0.0000 -0.9997 -0.0254
vn -0.0000 -0.6889 -0.7249
vn -0.0000 0.6889 0.7249
vn 0.7071 0.0180 -0.7069
vn -0.7071 -0.0180 0.7069
vn -0.0000 0.7249 -0.6889
vn -0.0000 -0.7249 0.6889
vn -0.4014 -0.9156 -0.0233
vn -0.0000 0.0254 -0.9997
vn -0.4014 0.9156 0.0233
vn -0.0000 -0.0254 0.9997
vn -0.9159 0.4013 0.0102
vn 0.9159 0.4013 0.0102
vn 0.9159 -0.4013 -0.0102
vn -0.0000 0.0255 -0.9997
vn -0.9159 -0.4013 -0.0102
vn -0.0000 -0.0255 0.9997
vn 0.4014 -0.9156 -0.0233
vn 0.4014 0.9156 0.0233
vn -0.3274 -0.8034 0.4974
vn 0.3274 -0.8034 0.4974
vn 0.7905 -0.3405 0.5092
vn 0.7905 0.3141 0.5258
vn 0.3274 0.7770 0.5376
vn -0.3274 0.7770 0.5376
vn -0.7905 0.3141 0.5258
vn -0.7905 -0.3405 0.5091
vn -0.2183 -0.5478 0.8077
vn 0.2183 -0.5478 0.8077
vn 0.5270 -0.2391 0.8155
vn 0.5270 0.1973 0.8266
vn 0.2183 0.5060 0.8345
vn -0.2183 0.5060 0.8345
vn -0.5270 0.1973 0.8266
vn -0.5270 -0.2391 0.8155
vn -0.1119 -0.2943 0.9491
vn 0.1119 -0.2943 0.9491
vn 0.2701 -0.1362 0.9532
vn 0.2701 0.0875 0.9589
vn 0.1119 0.2457 0.9629
vn -0.1119 0.2457 0.9629
vn -0.2701 0.0875 0.9589
vn -0.2701 -0.1362 0.9532
vn -0.0346 -0.1089 0.9935
vn 0.0346 -0.1089 0.9935
vn 0.0836 -0.0599 0.9947
vn 0.0836 0.0093 0.9965
vn 0.0346 0.0582 0.9977
vn -0.0346 0.0582 0.9977
vn -0.0836 0.0093 0.9965
vn -0.0836 -0.0599 0.9947
vn 0.3224 0.7918 -0.5187
vn -0.3224 0.7918 -0.5187
vn -0.7784 0.3360 -0.5303
vn -0.7784 -0.3086 -0.5467
vn -0.3224 -0.7644 -0.5583
vn 0.3224 -0.7644 -0.5583
vn 0.7784 -0.3086 -0.5467
vn 0.7784 0.3360 -0.5303
vn 0.2149 0.5397 -0.8140
vn -0.2149 0.5397 -0.8140
vn -0.5188 0.2359 -0.8217
vn -0.5188 -0.1938 -0.8326
vn -0.2149 -0.4976 -0.8404
vn 0.2149 -0.4976 -0.8404
vn 0.5188 -0.1938 -0.8326
vn 0.5188 0.2359 -0.8217
vn 0.1110 0.2922 -0.9499
vn -0.1110 0.2922 -0.9499
vn -0.2679 0.1353 -0.9539
vn -0.2679 -0.0866 -0.9596
vn -0.1110 -0.2435 -0.9635
vn 0.1110 -0.2435 -0.9635
vn 0.2679 -0.0866 -0.9596
vn 0.2679 0.1353 -0.9539
vn 0.0344 0.1083 -0.9935
vn -0.0344 0.1083 -0.9935
vn -0.0830 0.0597 -0.9948
vn -0.0830 -0.0090 -0.9965
vn -0.0344 -0.0576 -0.9977
vn 0.0344 -0.0576 -0.9977
vn 0.0830 -0.0090 -0.9965
vn 0.0830 0.0597 -0.9948
vn -0.1068 -0.5423 -0.8334
vn -0.3035 -0.2804 -0.9106
vn -0.3010 -0.2779 -0.9122
vn 0.0001 -0.3985 -0.9172
vn 0.1835 -0.2310 -0.9555
vn -0.0000 -0.4026 -0.9154
vn 0.2983 -0.2750 -0.9140
vn 0.3102 -0.0266 -0.9503
vn 0.3011 -0.2779 -0.9122
vn 0.4738 0.3436 -0.8108
vn 0.4292 0.0230 -0.9029
vn 0.4257 0.0230 -0.9046
vn 0.1068 0.5840 -0.8047
vn 0.3035 0.3264 -0.8952
vn 0.3010 0.3240 -0.8969
vn -0.0001 0.4447 -0.8957
vn -0.1835 0.2793 -0.9425
vn -0.0000 0.4486 -0.8937
vn -0.2982 0.3211 -0.8988
vn -0.3102 0.0749 -0.9477
vn -0.3011 0.3240 -0.8969
vn -0.4738 -0.3019 -0.8273
vn -0.4292 0.0229 -0.9029
vn -0.4257 0.0230 -0.9046
vn -0.8283 -0.1706 0.5337
vn 0.8235 -0.1746 0.5398
vn -0.0000 0.9997 0.0255
vn 0.7905 -0.3405 0.5091
vn -0.7905 -0.3405 0.5092
vn -0.5188 -0.1938 -0.8327
vn 0.5188 -0.1938 -0.8327
vn -0.2679 -0.0866 -0.9595
vn 0.2679 -0.0866 -0.9595
vn -0.0001 -0.3985 -0.9172
vn -0.1835 -0.2310 -0.9555
vn 0.1068 -0.5423 -0.8334
vn 0.3010 -0.2779 -0.9122
vn 0.3035 -0.2804 -0.9106
vn 0.4738 -0.3019 -0.8273
vn 0.4292 0.0229 -0.9029
vn 0.2982 0.3211 -0.8988
vn 0.3011 0.3240 -0.8969
vn 0.3102 0.0749 -0.9477
vn 0.0001 0.4447 -0.8957
vn 0.1835 0.2793 -0.9425
vn -0.1068 0.5840 -0.8047
vn -0.3010 0.3240 -0.8969
vn -0.3035 0.3264 -0.8952
vn -0.4738 0.3436 -0.8108
vn -0.4292 0.0230 -0.9029
vn -0.2983 -0.2750 -0.9140
vn -0.3011 -0.2779 -0.9122
vn -0.3102 -0.0266 -0.9503
vt 0.102997 0.277210
vt 0.102563 0.251909
vt 0.103134 0.322105
vt 0.102164 0.327951
s 0
usemtl Material
f 29/1/1 28/1/1 32/1/1
f 25/1/2 30/1/2 31/1/2
f 8/1/3 1/1/3 7/1/3
f 30/1/4 27/1/4 29/1/4
f 31/1/5 28/1/5 25/1/5
f 15/1/6 9/1/6 14/1/6
f 16/1/7 10/1/7 15/1/7
f 16/1/8 12/1/8 11/1/8
f 12/1/9 14/1/9 9/1/9
f 23/1/10 18/1/10 22/1/10
f 18/1/11 21/1/11 22/1/11
f 20/1/12 21/1/12 19/1/12
f 17/1/13 24/1/13 20/1/13
f 17/1/14 7/1/14 18/1/14
f 1/1/15 18/1/15 7/1/15
f 2/1/16 19/1/16 1/1/16
f 8/1/17 20/1/17 2/1/17
f 21/1/15 14/1/15 22/1/15
f 13/1/14 22/1/14 14/1/14
f 24/1/17 13/1/17 16/1/17
f 24/1/16 15/1/16 21/1/16
f 6/1/14 25/1/14 5/1/14
f 26/1/17 4/1/17 27/1/17
f 27/1/18 3/1/18 28/1/18
f 25/1/15 3/1/15 5/1/15
f 12/1/17 29/1/17 11/1/17
f 30/1/14 9/1/14 31/1/14
f 9/1/15 32/1/15 31/1/15
f 11/1/16 32/1/16 10/1/16
f 34/2/19 35/2/19 33/2/19
f 37/2/20 40/2/20 39/2/20
f 34/2/21 38/2/21 36/2/21
f 33/2/22 37/2/22 39/2/22
f 42/2/23 43/2/23 41/2/23
f 46/2/24 47/2/24 45/2/24
f 42/2/17 46/2/17 44/2/17
f 41/2/15 45/2/15 47/2/15
f 50/2/25 51/2/25 49/2/25
f 54/2/26 55/2/26 53/2/26
f 50/2/22 54/2/22 52/2/22
f 49/2/21 53/2/21 55/2/21
f 58/2/27 59/2/27 57/2/27
f 62/2/28 63/2/28 61/2/28
f 58/2/15 62/2/15 60/2/15
f 57/2/17 61/2/17 63/2/17
f 80/3/29 68/3/29 79/3/29
f 78/3/30 70/3/30 77/3/30
f 82/3/31 70/3/31 72/3/31
f 81/3/32 72/3/32 76/3/32
f 75/3/33 72/3/33 70/3/33
f 71/3/34 74/3/34 69/3/34
f 74/3/35 65/3/35 67/3/35
f 78/3/36 68/3/36 75/3/36
f 66/3/37 75/3/37 68/3/37
f 81/3/38 66/3/38 80/3/38
f 78/3/30 69/3/30 74/3/30
f 67/3/36 78/3/36 74/3/36
f 80/3/39 67/3/39 65/3/39
f 81/3/38 65/3/38 73/3/38
f 71/3/32 81/3/32 73/3/32
f 69/3/40 82/3/40 71/3/40
f 116/4/41 118/4/41 119/4/41
f 120/4/42 118/4/42 117/4/42
f 122/4/43 121/4/43 120/4/43
f 122/4/44 125/4/44 123/4/44
f 126/4/45 125/4/45 124/4/45
f 128/4/46 127/4/46 126/4/46
f 130/4/47 129/4/47 128/4/47
f 130/4/48 119/4/48 131/4/48
f 118/4/49 133/4/49 119/4/49
f 118/4/50 134/4/50 132/4/50
f 121/4/51 135/4/51 134/4/51
f 123/4/52 136/4/52 135/4/52
f 127/4/53 136/4/53 125/4/53
f 129/4/54 137/4/54 127/4/54
f 131/4/55 138/4/55 129/4/55
f 119/4/56 139/4/56 131/4/56
f 132/4/57 141/4/57 133/4/57
f 132/4/58 142/4/58 140/4/58
f 135/4/59 142/4/59 134/4/59
f 136/4/60 143/4/60 135/4/60
f 137/4/61 144/4/61 136/4/61
f 137/4/62 146/4/62 145/4/62
f 138/4/63 147/4/63 146/4/63
f 139/4/64 141/4/64 147/4/64
f 141/4/65 140/4/65 148/4/65
f 140/4/66 142/4/66 148/4/66
f 142/4/67 143/4/67 148/4/67
f 143/4/68 144/4/68 148/4/68
f 144/4/69 145/4/69 148/4/69
f 145/4/70 146/4/70 148/4/70
f 146/4/71 147/4/71 148/4/71
f 147/4/72 141/4/72 148/4/72
f 83/4/73 92/4/73 84/4/73
f 92/4/74 85/4/74 84/4/74
f 93/4/75 86/4/75 85/4/75
f 94/4/76 87/4/76 86/4/76
f 95/4/77 88/4/77 87/4/77
f 96/4/78 89/4/78 88/4/78
f 89/4/79 98/4/79 90/4/79
f 90/4/80 91/4/80 83/4/80
f 99/4/81 92/4/81 91/4/81
f 92/4/82 101/4/82 93/4/82
f 93/4/83 102/4/83 94/4/83
f 94/4/84 103/4/84 95/4/84
f 103/4/85 96/4/85 95/4/85
f 96/4/86 105/4/86 97/4/86
f 105/4/87 98/4/87 97/4/87
f 106/4/88 91/4/88 98/4/88
f 99/4/89 108/4/89 100/4/89
f 108/4/90 101/4/90 100/4/90
f 109/4/91 102/4/91 101/4/91
f 102/4/92 111/4/92 103/4/92
f 111/4/93 104/4/93 103/4/93
f 104/4/94 113/4/94 105/4/94
f 113/4/95 106/4/95 105/4/95
f 106/4/96 107/4/96 99/4/96
f 107/4/97 115/4/97 108/4/97
f 108/4/98 115/4/98 109/4/98
f 109/4/99 115/4/99 110/4/99
f 110/4/100 115/4/100 111/4/100
f 111/4/101 115/4/101 112/4/101
f 112/4/102 115/4/102 113/4/102
f 113/4/103 115/4/103 114/4/103
f 114/4/104 115/4/104 107/4/104
f 84/4/105 116/4/106 83/4/107
f 84/4/108 120/4/109 117/4/110
f 85/4/111 122/4/112 120/4/113
f 87/4/114 122/4/115 86/4/116
f 88/4/117 124/4/118 87/4/119
f 88/4/120 128/4/121 126/4/122
f 89/4/123 130/4/124 128/4/125
f 83/4/126 130/4/127 90/4/128
f 29/1/1 27/1/1 28/1/1
f 25/1/2 26/1/2 30/1/2
f 8/1/3 2/1/3 1/1/3
f 30/1/129 26/1/129 27/1/129
f 31/1/130 32/1/130 28/1/130
f 15/1/6 10/1/6 9/1/6
f 16/1/7 11/1/7 10/1/7
f 16/1/8 13/1/8 12/1/8
f 12/1/9 13/1/9 14/1/9
f 23/1/10 17/1/10 18/1/10
f 18/1/11 19/1/11 21/1/11
f 20/1/12 24/1/12 21/1/12
f 17/1/13 23/1/13 24/1/13
f 17/1/14 8/1/14 7/1/14
f 1/1/15 19/1/15 18/1/15
f 2/1/16 20/1/16 19/1/16
f 8/1/17 17/1/17 20/1/17
f 21/1/15 15/1/15 14/1/15
f 13/1/14 23/1/14 22/1/14
f 24/1/17 23/1/17 13/1/17
f 24/1/16 16/1/16 15/1/16
f 6/1/14 26/1/14 25/1/14
f 26/1/17 6/1/17 4/1/17
f 27/1/18 4/1/18 3/1/18
f 25/1/15 28/1/15 3/1/15
f 12/1/17 30/1/17 29/1/17
f 30/1/14 12/1/14 9/1/14
f 9/1/15 10/1/15 32/1/15
f 11/1/16 29/1/16 32/1/16
f 34/2/19 36/2/19 35/2/19
f 37/2/20 38/2/20 40/2/20
f 34/2/21 40/2/21 38/2/21
f 33/2/22 35/2/22 37/2/22
f 42/2/23 44/2/23 43/2/23
f 46/2/24 48/2/24 47/2/24
f 42/2/17 48/2/17 46/2/17
f 41/2/15 43/2/15 45/2/15
f 50/2/25 52/2/25 51/2/25
f 54/2/26 56/2/26 55/2/26
f 50/2/22 56/2/22 54/2/22
f 49/2/131 51/2/131 53/2/131
f 58/2/27 60/2/27 59/2/27
f 62/2/28 64/2/28 63/2/28
f 58/2/15 64/2/15 62/2/15
f 57/2/17 59/2/17 61/2/17
f 80/3/29 66/3/29 68/3/29
f 78/3/30 75/3/30 70/3/30
f 82/3/31 77/3/31 70/3/31
f 81/3/32 82/3/32 72/3/32
f 75/3/33 76/3/33 72/3/33
f 71/3/34 73/3/34 74/3/34
f 74/3/35 73/3/35 65/3/35
f 78/3/36 79/3/36 68/3/36
f 66/3/37 76/3/37 75/3/37
f 81/3/38 76/3/38 66/3/38
f 78/3/30 77/3/30 69/3/30
f 67/3/36 79/3/36 78/3/36
f 80/3/39 79/3/39 67/3/39
f 81/3/38 80/3/38 65/3/38
f 71/3/32 82/3/32 81/3/32
f 69/3/40 77/3/40 82/3/40
f 116/4/41 117/4/41 118/4/41
f 120/4/42 121/4/42 118/4/42
f 122/4/132 123/4/132 121/4/132
f 122/4/44 124/4/44 125/4/44
f 126/4/45 127/4/45 125/4/45
f 128/4/46 129/4/46 127/4/46
f 130/4/47 131/4/47 129/4/47
f 130/4/133 116/4/133 119/4/133
f 118/4/49 132/4/49 133/4/49
f 118/4/50 121/4/50 134/4/50
f 121/4/51 123/4/51 135/4/51
f 123/4/52 125/4/52 136/4/52
f 127/4/53 137/4/53 136/4/53
f 129/4/54 138/4/54 137/4/54
f 131/4/55 139/4/55 138/4/55
f 119/4/56 133/4/56 139/4/56
f 132/4/57 140/4/57 141/4/57
f 132/4/58 134/4/58 142/4/58
f 135/4/59 143/4/59 142/4/59
f 136/4/60 144/4/60 143/4/60
f 137/4/61 145/4/61 144/4/61
f 137/4/62 138/4/62 146/4/62
f 138/4/63 139/4/63 147/4/63
f 139/4/64 133/4/64 141/4/64
f 83/4/73 91/4/73 92/4/73
f 92/4/74 93/4/74 85/4/74
f 93/4/75 94/4/75 86/4/75
f 94/4/76 95/4/76 87/4/76
f 95/4/77 96/4/77 88/4/77
f 96/4/78 97/4/78 89/4/78
f 89/4/79 97/4/79 98/4/79
f 90/4/80 98/4/80 91/4/80
f 99/4/81 100/4/81 92/4/81
f 92/4/82 100/4/82 101/4/82
f 93/4/83 101/4/83 102/4/83
f 94/4/134 102/4/134 103/4/134
f 103/4/85 104/4/85 96/4/85
f 96/4/86 104/4/86 105/4/86
f 105/4/135 106/4/135 98/4/135
f 106/4/88 99/4/88 91/4/88
f 99/4/89 107/4/89 108/4/89
f 108/4/90 109/4/90 101/4/90
f 109/4/91 110/4/91 102/4/91
f 102/4/136 110/4/136 111/4/136
f 111/4/93 112/4/93 104/4/93
f 104/4/94 112/4/94 113/4/94
f 113/4/137 114/4/137 106/4/137
f 106/4/96 114/4/96 107/4/96
f 84/4/138 117/4/110 116/4/139
f 84/4/140 85/4/141 120/4/142
f 85/4/143 86/4/116 122/4/144
f 87/4/145 124/4/146 122/4/147
f 88/4/148 126/4/122 124/4/149
f 88/4/150 89/4/151 128/4/152
f 89/4/153 90/4/128 130/4/154
f 83/4/155 116/4/156 130/4/157
