o SM_Prop_SatelliteDish_01_-_Copy.001
v -3.269707 -2.435036 2.548416
v -3.033909 -2.434457 2.548416
v -3.195750 -2.970032 2.301892
v -3.105238 -2.969810 2.301892
v -3.195179 -3.202879 2.315376
v -3.104667 -3.202657 2.315376
v -3.269451 -2.539383 2.740266
v -3.033653 -2.538805 2.740266
v -3.182829 -2.621570 2.613151
v -3.182916 -2.586308 2.548320
v -3.119957 -2.586154 2.548320
v -3.119870 -2.621416 2.613151
v -3.098228 -2.618359 2.636486
v -3.204487 -2.618619 2.636486
v -3.204618 -2.565141 2.538162
v -3.098359 -2.564880 2.538162
v -3.033509 -2.597196 2.708506
v -3.269308 -2.597775 2.708506
v -3.269564 -2.493427 2.516656
v -3.033765 -2.492848 2.516656
v -3.204700 -2.531829 2.556281
v -3.204568 -2.585307 2.654604
v -3.098309 -2.585047 2.654604
v -3.098440 -2.531568 2.556281
v -3.195471 -3.083756 2.380168
v -3.104959 -3.083534 2.380168
v -3.105302 -2.943673 2.335461
v -3.195814 -2.943895 2.335461
v -3.119087 -2.940670 2.355496
v -3.118849 -3.037522 2.386829
v -3.181808 -3.037676 2.386829
v -3.182046 -2.940825 2.355496
v -2.728356 -3.094761 2.212062
v -2.728266 -3.131485 2.212997
v -3.106036 -3.105298 1.834479
v -3.105946 -3.142022 1.835413
v -3.102510 -3.103878 1.889943
v -3.102420 -3.140602 1.890878
v -2.761080 -3.094352 2.231286
v -2.760989 -3.131076 2.232221
v -3.169543 -2.692510 2.201796
v -3.132807 -2.692420 2.201796
v -3.168593 -3.079701 1.833823
v -3.131857 -3.079611 1.833823
v -3.168605 -3.074762 1.889199
v -3.131869 -3.074672 1.889199
v -3.169464 -2.724734 2.221852
v -3.132728 -2.724643 2.221852
v -3.571925 -3.133556 2.212997
v -3.572015 -3.096832 2.212062
v -3.194198 -3.142239 1.835414
v -3.194288 -3.105515 1.834479
v -3.197730 -3.140836 1.890878
v -3.197820 -3.104112 1.889943
v -3.539203 -3.132986 2.232221
v -3.539294 -3.096262 2.231286
v -3.130738 -3.535806 2.223263
v -3.167473 -3.535896 2.223263
v -3.131640 -3.167835 1.836069
v -3.168376 -3.167925 1.836069
v -3.131635 -3.169951 1.891623
v -3.168371 -3.170041 1.891623
v -3.130819 -3.502604 2.241654
v -3.167555 -3.502694 2.241654
v -3.201599 -3.070125 1.929316
v -3.098898 -3.069873 1.929316
v -3.201588 -3.074782 1.746367
v -3.098887 -3.074530 1.746367
v -3.201336 -3.177449 1.748980
v -3.098635 -3.177197 1.748980
v -3.201347 -3.172792 1.931929
v -3.098647 -3.172541 1.931929
v -3.223979 -3.121514 1.930623
v -3.223968 -3.126171 1.747674
v -3.076254 -3.125808 1.747674
v -3.076266 -3.121152 1.930623
v -3.149930 -3.199823 1.749553
v -3.150111 -3.125990 1.747674
v -3.150292 -3.052157 1.745794
v -3.150304 -3.047500 1.928743
v -3.150123 -3.121333 1.930623
v -3.149941 -3.195167 1.932501
v -2.745363 -2.711119 2.061166
v -3.151539 -2.544096 2.056890
v -3.556892 -2.713110 2.061166
v -3.723969 -3.119156 2.071491
v -3.554901 -3.524376 2.081815
v -3.148724 -3.691400 2.086092
v -2.743372 -3.522385 2.081815
v -2.576293 -3.116339 2.071491
v -2.779560 -2.743688 2.132055
v -3.151425 -2.590774 2.128140
v -3.522535 -2.745511 2.132055
v -3.675498 -3.117256 2.141508
v -3.520712 -3.488245 2.150961
v -3.148847 -3.641158 2.154876
v -2.777737 -3.486421 2.150961
v -2.624774 -3.114677 2.141508
v -2.866514 -2.829069 2.211535
v -3.151127 -2.712034 2.208538
v -3.435163 -2.830465 2.211535
v -3.552236 -3.114986 2.218769
v -3.433767 -3.398929 2.226005
v -3.149154 -3.515964 2.229001
v -2.865119 -3.397534 2.226005
v -2.748046 -3.113012 2.218769
v -2.996647 -2.958483 2.266478
v -3.150678 -2.895143 2.264857
v -3.304397 -2.959238 2.266478
v -3.367756 -3.113219 2.270394
v -3.303642 -3.266888 2.274309
v -3.149610 -3.330227 2.275931
v -2.995892 -3.266133 2.274309
v -2.932532 -3.112151 2.270394
v -3.150145 -3.112224 2.288521
v -2.723520 -2.688803 2.075175
v -3.151616 -2.512767 2.070668
v -3.151495 -2.562099 2.150352
v -2.759740 -2.723191 2.154476
v -3.578844 -2.690902 2.075175
v -3.542455 -2.725112 2.154476
v -3.754938 -3.118861 2.086056
v -3.703600 -3.116740 2.164435
v -3.576746 -3.545951 2.096939
v -3.540534 -3.507573 2.174393
v -3.148649 -3.721987 2.101447
v -3.148779 -3.668666 2.178517
v -2.721421 -3.543852 2.096939
v -2.757820 -3.505652 2.174393
v -2.545327 -3.115892 2.086056
v -2.596674 -3.114024 2.164435
v -3.151168 -2.695486 2.240814
v -2.855426 -2.817096 2.243928
v -3.446309 -2.818546 2.243928
v -3.567960 -3.114192 2.251446
v -3.444859 -3.409238 2.258963
v -3.149118 -3.530849 2.262077
v -2.853976 -3.407788 2.258963
v -2.732326 -3.112142 2.251446
v -3.150698 -2.886993 2.300201
v -2.991537 -2.952442 2.301876
v -3.309537 -2.953223 2.301876
v -3.375006 -3.112333 2.305923
v -3.308756 -3.271120 2.309968
v -3.149595 -3.336568 2.311643
v -2.990757 -3.270339 2.309968
v -2.925286 -3.111229 2.305923
v -3.150147 -3.111300 2.324781
vn -0.0024 0.9887 -0.1499
vn 0.0004 -0.1432 0.9897
vn -0.0022 0.8785 0.4778
vn 0.8231 0.1766 0.5398
vn -0.8287 0.1686 0.5337
vn -0.5354 -0.7423 -0.4030
vn 0.0011 -0.4318 -0.9020
vn 0.5390 -0.7396 -0.4030
vn 0.0024 -0.9918 0.1277
vn 0.0024 -0.9749 -0.2226
vn -0.2227 -0.8565 -0.4656
vn 0.0018 -0.7167 -0.6974
vn 0.2269 -0.8554 -0.4656
vn 0.0012 -0.4778 0.8785
vn -1.0000 -0.0025 -0.0000
vn -0.0012 0.4778 -0.8785
vn 1.0000 0.0025 -0.0000
vn -0.0019 0.7890 -0.6144
vn 0.7071 -0.0163 -0.7069
vn -0.7071 0.0162 0.7069
vn 0.0025 -0.9997 0.0254
vn -0.0025 0.9997 -0.0254
vn -0.0017 0.6889 -0.7249
vn 0.0017 -0.6889 0.7249
vn -0.7071 -0.0197 -0.7069
vn 0.7071 0.0197 0.7069
vn 0.0018 -0.7249 -0.6889
vn -0.0018 0.7249 0.6889
vn 0.3992 0.9166 -0.0233
vn 0.0001 -0.0254 -0.9997
vn 0.4037 -0.9146 0.0233
vn -0.0001 0.0254 0.9997
vn 0.9169 -0.3991 0.0102
vn -0.9149 -0.4035 0.0102
vn -0.9169 0.3990 -0.0102
vn 0.0001 -0.0255 -0.9997
vn 0.9149 0.4035 -0.0102
vn -0.0001 0.0255 0.9997
vn -0.4037 0.9146 -0.0233
vn -0.3992 -0.9166 0.0233
vn 0.3254 0.8042 0.4974
vn -0.3294 0.8026 0.4974
vn -0.7913 0.3385 0.5092
vn -0.7897 -0.3161 0.5258
vn -0.3255 -0.7778 0.5376
vn 0.3293 -0.7762 0.5376
vn 0.7912 -0.3122 0.5258
vn 0.7896 0.3424 0.5091
vn 0.2170 0.5483 0.8077
vn -0.2196 0.5472 0.8077
vn -0.5276 0.2378 0.8155
vn -0.5265 -0.1986 0.8266
vn -0.2171 -0.5065 0.8345
vn 0.2195 -0.5054 0.8345
vn 0.5275 -0.1960 0.8266
vn 0.5264 0.2404 0.8155
vn 0.1111 0.2946 0.9491
vn -0.1126 0.2941 0.9491
vn -0.2704 0.1355 0.9532
vn -0.2699 -0.0882 0.9589
vn -0.1113 -0.2459 0.9629
vn 0.1125 -0.2454 0.9629
vn 0.2703 -0.0868 0.9589
vn 0.2697 0.1368 0.9532
vn 0.0343 0.1090 0.9935
vn -0.0349 0.1088 0.9935
vn -0.0837 0.0597 0.9947
vn -0.0835 -0.0095 0.9965
vn -0.0345 -0.0583 0.9977
vn 0.0347 -0.0581 0.9977
vn 0.0836 -0.0091 0.9965
vn 0.0834 0.0601 0.9947
vn -0.3205 -0.7926 -0.5187
vn 0.3243 -0.7910 -0.5187
vn 0.7792 -0.3341 -0.5303
vn 0.7776 0.3105 -0.5467
vn 0.3205 0.7652 -0.5583
vn -0.3243 0.7636 -0.5583
vn -0.7791 0.3067 -0.5467
vn -0.7775 -0.3379 -0.5303
vn -0.2136 -0.5402 -0.8140
vn 0.2162 -0.5392 -0.8140
vn 0.5194 -0.2346 -0.8217
vn 0.5183 0.1950 -0.8326
vn 0.2137 0.4981 -0.8404
vn -0.2161 0.4970 -0.8404
vn -0.5193 0.1925 -0.8326
vn -0.5182 -0.2371 -0.8217
vn -0.1102 -0.2924 -0.9499
vn 0.1117 -0.2919 -0.9499
vn 0.2682 -0.1346 -0.9539
vn 0.2677 0.0872 -0.9596
vn 0.1104 0.2437 -0.9635
vn -0.1116 0.2432 -0.9635
vn -0.2681 0.0859 -0.9596
vn -0.2676 -0.1359 -0.9539
vn -0.0341 -0.1084 -0.9935
vn 0.0346 -0.1082 -0.9935
vn 0.0831 -0.0595 -0.9948
vn 0.0830 0.0092 -0.9965
vn 0.0342 0.0577 -0.9977
vn -0.0345 0.0575 -0.9977
vn -0.0830 0.0088 -0.9965
vn -0.0828 -0.0599 -0.9948
vn 0.1054 0.5426 -0.8334
vn 0.3028 0.2812 -0.9106
vn 0.3003 0.2787 -0.9122
vn -0.0010 0.3985 -0.9172
vn -0.1840 0.2306 -0.9555
vn -0.0010 0.4026 -0.9154
vn -0.2989 0.2743 -0.9140
vn -0.3103 0.0258 -0.9503
vn -0.3017 0.2772 -0.9122
vn -0.4730 -0.3448 -0.8108
vn -0.4291 -0.0241 -0.9029
vn -0.4257 -0.0241 -0.9046
vn -0.1053 -0.5843 -0.8047
vn -0.3027 -0.3272 -0.8952
vn -0.3002 -0.3247 -0.8969
vn 0.0012 -0.4447 -0.8957
vn 0.1842 -0.2789 -0.9425
vn 0.0011 -0.4486 -0.8937
vn 0.2990 -0.3204 -0.8988
vn 0.3104 -0.0741 -0.9477
vn 0.3018 -0.3232 -0.8969
vn 0.4731 0.3031 -0.8273
vn 0.4292 -0.0219 -0.9029
vn 0.4258 -0.0220 -0.9046
vn 0.8278 0.1726 0.5337
vn -0.8239 0.1726 0.5398
vn 0.7071 -0.0162 -0.7069
vn -0.7071 0.0163 0.7069
vn -0.0024 0.9997 -0.0254
vn 0.0025 -0.9997 0.0255
vn -0.7913 0.3385 0.5091
vn 0.7896 0.3424 0.5092
vn 0.1112 0.2946 0.9491
vn -0.1126 0.2940 0.9491
vn 0.5183 0.1950 -0.8327
vn -0.5193 0.1925 -0.8327
vn 0.2677 0.0872 -0.9595
vn -0.2681 0.0859 -0.9595
vn -0.0009 0.3985 -0.9172
vn 0.1829 0.2315 -0.9555
vn -0.1081 0.5421 -0.8334
vn -0.3041 0.2797 -0.9106
vn -0.4746 0.3007 -0.8273
vn -0.4291 -0.0240 -0.9029
vn -0.2975 -0.3219 -0.8988
vn -0.3003 -0.3247 -0.8969
vn -0.3100 -0.0757 -0.9477
vn 0.0010 -0.4447 -0.8957
vn -0.1828 -0.2798 -0.9425
vn 0.1082 -0.5837 -0.8047
vn 0.3043 -0.3257 -0.8952
vn 0.4747 -0.3424 -0.8108
vn 0.4292 -0.0220 -0.9029
vn 0.2976 0.2757 -0.9140
vn 0.3004 0.2787 -0.9122
vn 0.3102 0.0273 -0.9503
vt 0.102997 0.277210
vt 0.102563 0.251909
vt 0.103134 0.322105
vt 0.102164 0.327951
s 0
usemtl Material.008
f 29/1/1 28/1/1 32/1/1
f 25/1/2 30/1/2 31/1/2
f 8/1/3 1/1/3 7/1/3
f 30/1/4 27/1/4 29/1/4
f 31/1/5 28/1/5 25/1/5
f 15/1/6 9/1/6 14/1/6
f 16/1/7 10/1/7 15/1/7
f 16/1/8 12/1/8 11/1/8
f 12/1/9 14/1/9 9/1/9
f 23/1/10 18/1/10 22/1/10
f 18/1/11 21/1/11 22/1/11
f 20/1/12 21/1/12 19/1/12
f 17/1/13 24/1/13 20/1/13
f 17/1/14 7/1/14 18/1/14
f 1/1/15 18/1/15 7/1/15
f 2/1/16 19/1/16 1/1/16
f 8/1/17 20/1/17 2/1/17
f 21/1/15 14/1/15 22/1/15
f 13/1/14 22/1/14 14/1/14
f 24/1/17 13/1/17 16/1/17
f 24/1/16 15/1/16 21/1/16
f 6/1/14 25/1/14 5/1/14
f 26/1/17 4/1/17 27/1/17
f 27/1/18 3/1/18 28/1/18
f 25/1/15 3/1/15 5/1/15
f 12/1/17 29/1/17 11/1/17
f 30/1/14 9/1/14 31/1/14
f 9/1/15 32/1/15 31/1/15
f 11/1/16 32/1/16 10/1/16
f 34/2/19 35/2/19 33/2/19
f 37/2/20 40/2/20 39/2/20
f 34/2/21 38/2/21 36/2/21
f 33/2/22 37/2/22 39/2/22
f 42/2/23 43/2/23 41/2/23
f 46/2/24 47/2/24 45/2/24
f 42/2/17 46/2/17 44/2/17
f 41/2/15 45/2/15 47/2/15
f 50/2/25 51/2/25 49/2/25
f 54/2/26 55/2/26 53/2/26
f 50/2/22 54/2/22 52/2/22
f 49/2/21 53/2/21 55/2/21
f 58/2/27 59/2/27 57/2/27
f 62/2/28 63/2/28 61/2/28
f 58/2/15 62/2/15 60/2/15
f 57/2/17 61/2/17 63/2/17
f 80/3/29 68/3/29 79/3/29
f 78/3/30 70/3/30 77/3/30
f 82/3/31 70/3/31 72/3/31
f 81/3/32 72/3/32 76/3/32
f 75/3/33 72/3/33 70/3/33
f 71/3/34 74/3/34 69/3/34
f 74/3/35 65/3/35 67/3/35
f 78/3/36 68/3/36 75/3/36
f 66/3/37 75/3/37 68/3/37
f 81/3/38 66/3/38 80/3/38
f 78/3/30 69/3/30 74/3/30
f 67/3/36 78/3/36 74/3/36
f 80/3/39 67/3/39 65/3/39
f 81/3/38 65/3/38 73/3/38
f 71/3/32 81/3/32 73/3/32
f 69/3/40 82/3/40 71/3/40
f 116/4/41 118/4/41 119/4/41
f 120/4/42 118/4/42 117/4/42
f 122/4/43 121/4/43 120/4/43
f 122/4/44 125/4/44 123/4/44
f 126/4/45 125/4/45 124/4/45
f 128/4/46 127/4/46 126/4/46
f 130/4/47 129/4/47 128/4/47
f 130/4/48 119/4/48 131/4/48
f 118/4/49 133/4/49 119/4/49
f 118/4/50 134/4/50 132/4/50
f 121/4/51 135/4/51 134/4/51
f 123/4/52 136/4/52 135/4/52
f 127/4/53 136/4/53 125/4/53
f 129/4/54 137/4/54 127/4/54
f 131/4/55 138/4/55 129/4/55
f 119/4/56 139/4/56 131/4/56
f 132/4/57 141/4/57 133/4/57
f 132/4/58 142/4/58 140/4/58
f 135/4/59 142/4/59 134/4/59
f 136/4/60 143/4/60 135/4/60
f 137/4/61 144/4/61 136/4/61
f 137/4/62 146/4/62 145/4/62
f 138/4/63 147/4/63 146/4/63
f 139/4/64 141/4/64 147/4/64
f 141/4/65 140/4/65 148/4/65
f 140/4/66 142/4/66 148/4/66
f 142/4/67 143/4/67 148/4/67
f 143/4/68 144/4/68 148/4/68
f 144/4/69 145/4/69 148/4/69
f 145/4/70 146/4/70 148/4/70
f 146/4/71 147/4/71 148/4/71
f 147/4/72 141/4/72 148/4/72
f 83/4/73 92/4/73 84/4/73
f 92/4/74 85/4/74 84/4/74
f 93/4/75 86/4/75 85/4/75
f 94/4/76 87/4/76 86/4/76
f 95/4/77 88/4/77 87/4/77
f 96/4/78 89/4/78 88/4/78
f 89/4/79 98/4/79 90/4/79
f 90/4/80 91/4/80 83/4/80
f 99/4/81 92/4/81 91/4/81
f 92/4/82 101/4/82 93/4/82
f 93/4/83 102/4/83 94/4/83
f 94/4/84 103/4/84 95/4/84
f 103/4/85 96/4/85 95/4/85
f 96/4/86 105/4/86 97/4/86
f 105/4/87 98/4/87 97/4/87
f 106/4/88 91/4/88 98/4/88
f 99/4/89 108/4/89 100/4/89
f 108/4/90 101/4/90 100/4/90
f 109/4/91 102/4/91 101/4/91
f 102/4/92 111/4/92 103/4/92
f 111/4/93 104/4/93 103/4/93
f 104/4/94 113/4/94 105/4/94
f 113/4/95 106/4/95 105/4/95
f 106/4/96 107/4/96 99/4/96
f 107/4/97 115/4/97 108/4/97
f 108/4/98 115/4/98 109/4/98
f 109/4/99 115/4/99 110/4/99
f 110/4/100 115/4/100 111/4/100
f 111/4/101 115/4/101 112/4/101
f 112/4/102 115/4/102 113/4/102
f 113/4/103 115/4/103 114/4/103
f 114/4/104 115/4/104 107/4/104
f 84/4/105 116/4/106 83/4/107
f 84/4/108 120/4/109 117/4/110
f 85/4/111 122/4/112 120/4/113
f 87/4/114 122/4/115 86/4/116
f 88/4/117 124/4/118 87/4/119
f 88/4/120 128/4/121 126/4/122
f 89/4/123 130/4/124 128/4/125
f 83/4/126 130/4/127 90/4/128
f 29/1/1 27/1/1 28/1/1
f 25/1/2 26/1/2 30/1/2
f 8/1/3 2/1/3 1/1/3
f 30/1/129 26/1/129 27/1/129
f 31/1/130 32/1/130 28/1/130
f 15/1/6 10/1/6 9/1/6
f 16/1/7 11/1/7 10/1/7
f 16/1/8 13/1/8 12/1/8
f 12/1/9 13/1/9 14/1/9
f 23/1/10 17/1/10 18/1/10
f 18/1/11 19/1/11 21/1/11
f 20/1/12 24/1/12 21/1/12
f 17/1/13 23/1/13 24/1/13
f 17/1/14 8/1/14 7/1/14
f 1/1/15 19/1/15 18/1/15
f 2/1/16 20/1/16 19/1/16
f 8/1/17 17/1/17 20/1/17
f 21/1/15 15/1/15 14/1/15
f 13/1/14 23/1/14 22/1/14
f 24/1/17 23/1/17 13/1/17
f 24/1/16 16/1/16 15/1/16
f 6/1/14 26/1/14 25/1/14
f 26/1/17 6/1/17 4/1/17
f 27/1/18 4/1/18 3/1/18
f 25/1/15 28/1/15 3/1/15
f 12/1/17 30/1/17 29/1/17
f 30/1/14 12/1/14 9/1/14
f 9/1/15 10/1/15 32/1/15
f 11/1/16 29/1/16 32/1/16
f 34/2/131 36/2/131 35/2/131
f 37/2/132 38/2/132 40/2/132
f 34/2/21 40/2/21 38/2/21
f 33/2/22 35/2/22 37/2/22
f 42/2/23 44/2/23 43/2/23
f 46/2/24 48/2/24 47/2/24
f 42/2/17 48/2/17 46/2/17
f 41/2/15 43/2/15 45/2/15
f 50/2/25 52/2/25 51/2/25
f 54/2/26 56/2/26 55/2/26
f 50/2/133 56/2/133 54/2/133
f 49/2/134 51/2/134 53/2/134
f 58/2/27 60/2/27 59/2/27
f 62/2/28 64/2/28 63/2/28
f 58/2/15 64/2/15 62/2/15
f 57/2/17 59/2/17 61/2/17
f 80/3/29 66/3/29 68/3/29
f 78/3/30 75/3/30 70/3/30
f 82/3/31 77/3/31 70/3/31
f 81/3/32 82/3/32 72/3/32
f 75/3/33 76/3/33 72/3/33
f 71/3/34 73/3/34 74/3/34
f 74/3/35 73/3/35 65/3/35
f 78/3/36 79/3/36 68/3/36
f 66/3/37 76/3/37 75/3/37
f 81/3/38 76/3/38 66/3/38
f 78/3/30 77/3/30 69/3/30
f 67/3/36 79/3/36 78/3/36
f 80/3/39 79/3/39 67/3/39
f 81/3/38 80/3/38 65/3/38
f 71/3/32 82/3/32 81/3/32
f 69/3/40 77/3/40 82/3/40
f 116/4/41 117/4/41 118/4/41
f 120/4/42 121/4/42 118/4/42
f 122/4/135 123/4/135 121/4/135
f 122/4/44 124/4/44 125/4/44
f 126/4/45 127/4/45 125/4/45
f 128/4/46 129/4/46 127/4/46
f 130/4/47 131/4/47 129/4/47
f 130/4/136 116/4/136 119/4/136
f 118/4/49 132/4/49 133/4/49
f 118/4/50 121/4/50 134/4/50
f 121/4/51 123/4/51 135/4/51
f 123/4/52 125/4/52 136/4/52
f 127/4/53 137/4/53 136/4/53
f 129/4/54 138/4/54 137/4/54
f 131/4/55 139/4/55 138/4/55
f 119/4/56 133/4/56 139/4/56
f 132/4/137 140/4/137 141/4/137
f 132/4/138 134/4/138 142/4/138
f 135/4/59 143/4/59 142/4/59
f 136/4/60 144/4/60 143/4/60
f 137/4/61 145/4/61 144/4/61
f 137/4/62 138/4/62 146/4/62
f 138/4/63 139/4/63 147/4/63
f 139/4/64 133/4/64 141/4/64
f 83/4/73 91/4/73 92/4/73
f 92/4/74 93/4/74 85/4/74
f 93/4/75 94/4/75 86/4/75
f 94/4/76 95/4/76 87/4/76
f 95/4/77 96/4/77 88/4/77
f 96/4/78 97/4/78 89/4/78
f 89/4/79 97/4/79 98/4/79
f 90/4/80 98/4/80 91/4/80
f 99/4/81 100/4/81 92/4/81
f 92/4/82 100/4/82 101/4/82
f 93/4/83 101/4/83 102/4/83
f 94/4/139 102/4/139 103/4/139
f 103/4/85 104/4/85 96/4/85
f 96/4/86 104/4/86 105/4/86
f 105/4/140 106/4/140 98/4/140
f 106/4/88 99/4/88 91/4/88
f 99/4/89 107/4/89 108/4/89
f 108/4/90 109/4/90 101/4/90
f 109/4/91 110/4/91 102/4/91
f 102/4/141 110/4/141 111/4/141
f 111/4/93 112/4/93 104/4/93
f 104/4/94 112/4/94 113/4/94
f 113/4/142 114/4/142 106/4/142
f 106/4/96 114/4/96 107/4/96
f 84/4/143 117/4/110 116/4/144
f 84/4/145 85/4/113 120/4/146
f 85/4/147 86/4/116 122/4/148
f 87/4/149 124/4/150 122/4/151
f 88/4/152 126/4/122 124/4/153
f 88/4/154 89/4/125 128/4/155
f 89/4/156 90/4/128 130/4/157
f 83/4/158 116/4/159 130/4/160
