o Flowmeter_2
v -13.102715 -5.066920 1.213776
v -13.066444 -5.041523 1.233776
v -13.066444 -5.041523 1.213776
v -13.102715 -5.066920 1.233776
v -13.069195 -5.114793 1.213776
v -13.069195 -5.114793 1.233776
v -13.032923 -5.089396 1.213776
v -13.032923 -5.089396 1.233776
v -13.052499 -5.091013 1.233776
v -13.049693 -5.086610 1.233776
v -13.048123 -5.081631 1.233776
v -13.047895 -5.076415 1.233776
v -13.049026 -5.071317 1.233776
v -13.051436 -5.066686 1.233776
v -13.056348 -5.094541 1.233776
v -13.054963 -5.062837 1.233776
v -13.059367 -5.060031 1.233776
v -13.064346 -5.058461 1.233776
v -13.069562 -5.058234 1.233776
v -13.074659 -5.059364 1.233776
v -13.079290 -5.061775 1.233776
v -13.084203 -5.089629 1.233776
v -13.080675 -5.093478 1.233776
v -13.076272 -5.096284 1.233776
v -13.071292 -5.097854 1.233776
v -13.066076 -5.098082 1.233776
v -13.060979 -5.096951 1.233776
v -13.086613 -5.084998 1.233776
v -13.087743 -5.079901 1.233776
v -13.087516 -5.074685 1.233776
v -13.085945 -5.069705 1.233776
v -13.083140 -5.065302 1.233776
v -13.138987 -5.092317 1.063776
v -13.082072 -5.123810 1.063776
v -13.105466 -5.140190 1.063776
v -13.115593 -5.075937 1.063776
v -13.105466 -5.140190 1.453776
v -13.032923 -5.089396 1.433776
v -13.032923 -5.089396 1.453776
v -13.069195 -5.114793 1.433776
v -13.032923 -5.089396 1.063776
v -13.066444 -5.041523 1.063776
v -13.102715 -5.066920 1.433776
v -13.066444 -5.041523 1.453776
v -13.066444 -5.041523 1.433776
v -13.138987 -5.092317 1.453776
v -13.066076 -5.098082 1.433776
v -13.060979 -5.096951 1.433776
v -13.071292 -5.097854 1.433776
v -13.076272 -5.096284 1.433776
v -13.080675 -5.093478 1.433776
v -13.084203 -5.089629 1.433776
v -13.086613 -5.084998 1.433776
v -13.087743 -5.079901 1.433776
v -13.087516 -5.074685 1.433776
v -13.085945 -5.069705 1.433776
v -13.083140 -5.065302 1.433776
v -13.079290 -5.061775 1.433776
v -13.074659 -5.059364 1.433776
v -13.069562 -5.058234 1.433776
v -13.064346 -5.058461 1.433776
v -13.059367 -5.060031 1.433776
v -13.054963 -5.062837 1.433776
v -13.051436 -5.066686 1.433776
v -13.049026 -5.071317 1.433776
v -13.047895 -5.076415 1.433776
v -13.056348 -5.094541 1.433776
v -13.049693 -5.086610 1.433776
v -13.048123 -5.081631 1.433776
v -13.052499 -5.091013 1.433776
v -13.038603 -5.081284 1.096100
v -13.031557 -5.073911 1.091277
v -13.030412 -5.075548 1.096100
v -13.039749 -5.079647 1.091277
v -13.038212 -5.081842 1.176276
v -13.030412 -5.075548 1.171100
v -13.030021 -5.076106 1.176276
v -13.038603 -5.081284 1.171100
v -13.038603 -5.081284 1.181453
v -13.030412 -5.075548 1.181453
v -13.044461 -5.055483 1.156958
v -13.038523 -5.063963 1.156958
v -13.041492 -5.059723 1.156276
v -13.035756 -5.067914 1.158956
v -13.047228 -5.051532 1.158956
v -13.033381 -5.071308 1.162134
v -13.049603 -5.048139 1.162134
v -13.051427 -5.045535 1.166276
v -13.031557 -5.073911 1.166276
v -13.052573 -5.043898 1.171100
v -13.052963 -5.043340 1.176276
v -13.052573 -5.043898 1.181453
v -13.031557 -5.073911 1.186276
v -13.051427 -5.045535 1.186276
v -13.033381 -5.071308 1.190419
v -13.049603 -5.048139 1.190419
v -13.047228 -5.051532 1.193597
v -13.035756 -5.067914 1.193597
v -13.044461 -5.055483 1.195595
v -13.038523 -5.063963 1.195595
v -13.041492 -5.059723 1.196276
v -13.039749 -5.079647 1.166276
v -13.044461 -5.055483 1.081958
v -13.038523 -5.063963 1.081958
v -13.041492 -5.059723 1.081277
v -13.035756 -5.067914 1.083956
v -13.047228 -5.051532 1.083956
v -13.033381 -5.071308 1.087134
v -13.049603 -5.048139 1.087134
v -13.051427 -5.045535 1.091277
v -13.052573 -5.043898 1.096100
v -13.030021 -5.076106 1.101277
v -13.052963 -5.043340 1.101277
v -13.030412 -5.075548 1.106453
v -13.052573 -5.043898 1.106453
v -13.031557 -5.073911 1.111277
v -13.051427 -5.045535 1.111277
v -13.033381 -5.071308 1.115419
v -13.049603 -5.048139 1.115419
v -13.035756 -5.067914 1.118597
v -13.047228 -5.051532 1.118597
v -13.038523 -5.063963 1.120595
v -13.044461 -5.055483 1.120595
v -13.041492 -5.059723 1.121276
v -13.041573 -5.077044 1.162134
v -13.043948 -5.073650 1.158956
v -13.046715 -5.069699 1.156958
v -13.049684 -5.065459 1.156276
v -13.052652 -5.061219 1.156958
v -13.055420 -5.057267 1.158956
v -13.057796 -5.053874 1.162134
v -13.059618 -5.051271 1.166276
v -13.060764 -5.049634 1.171100
v -13.061155 -5.049076 1.176276
v -13.060764 -5.049634 1.181453
v -13.059618 -5.051271 1.186276
v -13.057796 -5.053874 1.190419
v -13.055420 -5.057267 1.193597
v -13.052652 -5.061219 1.195595
v -13.049684 -5.065459 1.196276
v -13.046715 -5.069699 1.195595
v -13.043948 -5.073650 1.193597
v -13.041573 -5.077044 1.190419
v -13.039749 -5.079647 1.186276
v -13.038212 -5.081842 1.101277
v -13.038603 -5.081284 1.106453
v -13.041573 -5.077044 1.087134
v -13.043948 -5.073650 1.083956
v -13.046715 -5.069699 1.081958
v -13.049684 -5.065459 1.081277
v -13.052652 -5.061219 1.081958
v -13.055420 -5.057267 1.083956
v -13.057796 -5.053874 1.087134
v -13.059618 -5.051271 1.091277
v -13.060764 -5.049634 1.096100
v -13.061155 -5.049076 1.101277
v -13.060764 -5.049634 1.106453
v -13.059618 -5.051271 1.111277
v -13.057796 -5.053874 1.115419
v -13.055420 -5.057267 1.118597
v -13.052652 -5.061219 1.120595
v -13.049684 -5.065459 1.121276
v -13.046715 -5.069699 1.120595
v -13.043948 -5.073650 1.118597
v -13.041573 -5.077044 1.115419
v -13.039749 -5.079647 1.111277
vn -0.5736 0.8192 -0.0000
vn 0.8192 0.5736 -0.0000
vn 0.5736 -0.8192 -0.0000
vn -0.0000 -0.0000 1.0000
vn -0.0000 -0.0000 -1.0000
vn -0.8192 -0.5736 -0.0000
vn 0.0588 -0.6726 -0.7377
vn 0.2309 -0.6344 0.7377
vn 0.2309 -0.6344 -0.7377
vn 0.0588 -0.6726 0.7377
vn -0.1172 -0.6649 -0.7377
vn -0.1172 -0.6649 0.7377
vn -0.2853 -0.6119 0.7377
vn -0.2853 -0.6119 -0.7377
vn -0.4340 -0.5172 0.7377
vn -0.4340 -0.5172 -0.7377
vn -0.5530 -0.3872 0.7377
vn -0.5530 -0.3872 -0.7377
vn -0.6344 -0.2309 0.7377
vn -0.6344 -0.2309 -0.7377
vn -0.6726 -0.0588 0.7377
vn -0.6726 -0.0588 -0.7377
vn -0.6649 0.1172 0.7377
vn -0.6649 0.1172 -0.7377
vn -0.6119 0.2853 -0.7377
vn -0.6119 0.2853 0.7377
vn -0.5172 0.4340 -0.7377
vn -0.5172 0.4340 0.7377
vn -0.3872 0.5530 -0.7377
vn -0.3872 0.5530 0.7377
vn -0.2309 0.6344 -0.7377
vn -0.2309 0.6344 0.7377
vn -0.0588 0.6726 -0.7377
vn -0.0588 0.6726 0.7377
vn 0.1172 0.6649 -0.7377
vn 0.1172 0.6649 0.7377
vn 0.2853 0.6119 0.7377
vn 0.2853 0.6119 -0.7377
vn 0.4340 0.5172 0.7377
vn 0.4340 0.5172 -0.7377
vn 0.5530 0.3872 0.7377
vn 0.5530 0.3872 -0.7377
vn 0.6344 0.2309 0.7377
vn 0.6344 0.2309 -0.7377
vn 0.6726 0.0588 0.7377
vn 0.6726 0.0588 -0.7377
vn 0.3872 -0.5530 0.7377
vn 0.3872 -0.5530 -0.7377
vn 0.6119 -0.2853 -0.7377
vn 0.6649 -0.1172 0.7377
vn 0.6649 -0.1172 -0.7377
vn 0.6119 -0.2853 0.7377
vn 0.5172 -0.4340 -0.7377
vn 0.5172 -0.4340 0.7377
vn 0.9783 -0.1111 -0.1747
vn 0.9208 -0.1315 -0.3671
vn 0.9629 -0.1916 -0.1900
vn 0.9396 -0.0558 -0.3376
vn 0.9915 -0.1299 -0.0000
vn 0.9773 -0.2121 -0.0000
vn 0.9783 -0.1111 0.1747
vn 0.9629 -0.1916 0.1900
vn 0.8539 -0.0359 -0.5192
vn 0.8781 0.0321 -0.4774
vn 0.7979 0.1466 -0.5847
vn 0.7667 0.0887 -0.6359
vn 0.7045 0.2800 -0.6521
vn 0.6651 0.2337 -0.7092
vn 0.6043 0.4231 -0.6751
vn 0.5561 0.3894 -0.7343
vn 0.5041 0.5663 -0.6521
vn 0.4471 0.5451 -0.7092
vn 0.4107 0.6996 -0.5847
vn 0.3455 0.6901 -0.6359
vn 0.3305 0.8142 -0.4774
vn 0.2583 0.8147 -0.5192
vn 0.1914 0.9103 -0.3671
vn 0.2689 0.9021 -0.3376
vn 0.1493 0.9704 -0.1900
vn 0.2302 0.9573 -0.1747
vn 0.1350 0.9909 -0.0000
vn 0.2171 0.9762 -0.0000
vn 0.1493 0.9704 0.1900
vn 0.2302 0.9573 0.1747
vn 0.1914 0.9103 0.3671
vn 0.2689 0.9021 0.3376
vn 0.2583 0.8147 0.5192
vn 0.3305 0.8142 0.4774
vn 0.4107 0.6996 0.5847
vn 0.3455 0.6901 0.6359
vn 0.5041 0.5663 0.6521
vn 0.4471 0.5451 0.7092
vn 0.6043 0.4231 0.6751
vn 0.5561 0.3894 0.7343
vn 0.7045 0.2800 0.6521
vn 0.6651 0.2337 0.7092
vn 0.7979 0.1466 0.5847
vn 0.7667 0.0887 0.6359
vn 0.8781 0.0321 0.4774
vn 0.8539 -0.0359 0.5192
vn 0.9208 -0.1315 0.3671
vn 0.9396 -0.0558 0.3376
s 0
s 1
s 0
s 1
s 0
s 1
s 0
s 1
s 0
s 1
s 0
usemtl [Translucent_Glass_Blue]
f 47//7 27//8 48//9
f 27//8 47//7 26//10
f 49//11 26//10 47//7
f 26//10 49//11 25//12
f 49//11 24//13 25//12
f 24//13 49//11 50//14
f 50//14 23//15 24//13
f 23//15 50//14 51//16
f 51//16 22//17 23//15
f 22//17 51//16 52//18
f 52//18 28//19 22//17
f 28//19 52//18 53//20
f 53//20 29//21 28//19
f 29//21 53//20 54//22
f 54//22 30//23 29//21
f 30//23 54//22 55//24
f 30//23 56//25 31//26
f 56//25 30//23 55//24
f 31//26 57//27 32//28
f 57//27 31//26 56//25
f 32//28 58//29 21//30
f 58//29 32//28 57//27
f 21//30 59//31 20//32
f 59//31 21//30 58//29
f 20//32 60//33 19//34
f 60//33 20//32 59//31
f 19//34 61//35 18//36
f 61//35 19//34 60//33
f 61//35 17//37 18//36
f 17//37 61//35 62//38
f 62//38 16//39 17//37
f 16//39 62//38 63//40
f 63//40 14//41 16//39
f 14//41 63//40 64//42
f 64//42 13//43 14//41
f 13//43 64//42 65//44
f 65//44 12//45 13//43
f 12//45 65//44 66//46
f 48//9 15//47 67//48
f 15//47 48//9 27//8
f 68//49 11//50 69//51
f 11//50 68//49 10//52
f 70//53 10//52 68//49
f 10//52 70//53 9//54
f 66//46 11//50 12//45
f 11//50 66//46 69//51
f 67//48 9//54 70//53
f 9//54 67//48 15//47
