o Flowmeter_2
v -13.102715 -5.066920 1.213776
v -13.066444 -5.041523 1.233776
v -13.066444 -5.041523 1.213776
v -13.102715 -5.066920 1.233776
v -13.069195 -5.114793 1.213776
v -13.069195 -5.114793 1.233776
v -13.032923 -5.089396 1.213776
v -13.032923 -5.089396 1.233776
v -13.052499 -5.091013 1.233776
v -13.049693 -5.086610 1.233776
v -13.048123 -5.081631 1.233776
v -13.047895 -5.076415 1.233776
v -13.049026 -5.071317 1.233776
v -13.051436 -5.066686 1.233776
v -13.056348 -5.094541 1.233776
v -13.054963 -5.062837 1.233776
v -13.059367 -5.060031 1.233776
v -13.064346 -5.058461 1.233776
v -13.069562 -5.058234 1.233776
v -13.074659 -5.059364 1.233776
v -13.079290 -5.061775 1.233776
v -13.084203 -5.089629 1.233776
v -13.080675 -5.093478 1.233776
v -13.076272 -5.096284 1.233776
v -13.071292 -5.097854 1.233776
v -13.066076 -5.098082 1.233776
v -13.060979 -5.096951 1.233776
v -13.086613 -5.084998 1.233776
v -13.087743 -5.079901 1.233776
v -13.087516 -5.074685 1.233776
v -13.085945 -5.069705 1.233776
v -13.083140 -5.065302 1.233776
v -13.138987 -5.092317 1.063776
v -13.082072 -5.123810 1.063776
v -13.105466 -5.140190 1.063776
v -13.115593 -5.075937 1.063776
v -13.105466 -5.140190 1.453776
v -13.032923 -5.089396 1.433776
v -13.032923 -5.089396 1.453776
v -13.069195 -5.114793 1.433776
v -13.032923 -5.089396 1.063776
v -13.066444 -5.041523 1.063776
v -13.102715 -5.066920 1.433776
v -13.066444 -5.041523 1.453776
v -13.066444 -5.041523 1.433776
v -13.138987 -5.092317 1.453776
v -13.066076 -5.098082 1.433776
v -13.060979 -5.096951 1.433776
v -13.071292 -5.097854 1.433776
v -13.076272 -5.096284 1.433776
v -13.080675 -5.093478 1.433776
v -13.084203 -5.089629 1.433776
v -13.086613 -5.084998 1.433776
v -13.087743 -5.079901 1.433776
v -13.087516 -5.074685 1.433776
v -13.085945 -5.069705 1.433776
v -13.083140 -5.065302 1.433776
v -13.079290 -5.061775 1.433776
v -13.074659 -5.059364 1.433776
v -13.069562 -5.058234 1.433776
v -13.064346 -5.058461 1.433776
v -13.059367 -5.060031 1.433776
v -13.054963 -5.062837 1.433776
v -13.051436 -5.066686 1.433776
v -13.049026 -5.071317 1.433776
v -13.047895 -5.076415 1.433776
v -13.056348 -5.094541 1.433776
v -13.049693 -5.086610 1.433776
v -13.048123 -5.081631 1.433776
v -13.052499 -5.091013 1.433776
v -13.038603 -5.081284 1.096100
v -13.031557 -5.073911 1.091277
v -13.030412 -5.075548 1.096100
v -13.039749 -5.079647 1.091277
v -13.038212 -5.081842 1.176276
v -13.030412 -5.075548 1.171100
v -13.030021 -5.076106 1.176276
v -13.038603 -5.081284 1.171100
v -13.038603 -5.081284 1.181453
v -13.030412 -5.075548 1.181453
v -13.044461 -5.055483 1.156958
v -13.038523 -5.063963 1.156958
v -13.041492 -5.059723 1.156276
v -13.035756 -5.067914 1.158956
v -13.047228 -5.051532 1.158956
v -13.033381 -5.071308 1.162134
v -13.049603 -5.048139 1.162134
v -13.051427 -5.045535 1.166276
v -13.031557 -5.073911 1.166276
v -13.052573 -5.043898 1.171100
v -13.052963 -5.043340 1.176276
v -13.052573 -5.043898 1.181453
v -13.031557 -5.073911 1.186276
v -13.051427 -5.045535 1.186276
v -13.033381 -5.071308 1.190419
v -13.049603 -5.048139 1.190419
v -13.047228 -5.051532 1.193597
v -13.035756 -5.067914 1.193597
v -13.044461 -5.055483 1.195595
v -13.038523 -5.063963 1.195595
v -13.041492 -5.059723 1.196276
v -13.039749 -5.079647 1.166276
v -13.044461 -5.055483 1.081958
v -13.038523 -5.063963 1.081958
v -13.041492 -5.059723 1.081277
v -13.035756 -5.067914 1.083956
v -13.047228 -5.051532 1.083956
v -13.033381 -5.071308 1.087134
v -13.049603 -5.048139 1.087134
v -13.051427 -5.045535 1.091277
v -13.052573 -5.043898 1.096100
v -13.030021 -5.076106 1.101277
v -13.052963 -5.043340 1.101277
v -13.030412 -5.075548 1.106453
v -13.052573 -5.043898 1.106453
v -13.031557 -5.073911 1.111277
v -13.051427 -5.045535 1.111277
v -13.033381 -5.071308 1.115419
v -13.049603 -5.048139 1.115419
v -13.035756 -5.067914 1.118597
v -13.047228 -5.051532 1.118597
v -13.038523 -5.063963 1.120595
v -13.044461 -5.055483 1.120595
v -13.041492 -5.059723 1.121276
v -13.041573 -5.077044 1.162134
v -13.043948 -5.073650 1.158956
v -13.046715 -5.069699 1.156958
v -13.049684 -5.065459 1.156276
v -13.052652 -5.061219 1.156958
v -13.055420 -5.057267 1.158956
v -13.057796 -5.053874 1.162134
v -13.059618 -5.051271 1.166276
v -13.060764 -5.049634 1.171100
v -13.061155 -5.049076 1.176276
v -13.060764 -5.049634 1.181453
v -13.059618 -5.051271 1.186276
v -13.057796 -5.053874 1.190419
v -13.055420 -5.057267 1.193597
v -13.052652 -5.061219 1.195595
v -13.049684 -5.065459 1.196276
v -13.046715 -5.069699 1.195595
v -13.043948 -5.073650 1.193597
v -13.041573 -5.077044 1.190419
v -13.039749 -5.079647 1.186276
v -13.038212 -5.081842 1.101277
v -13.038603 -5.081284 1.106453
v -13.041573 -5.077044 1.087134
v -13.043948 -5.073650 1.083956
v -13.046715 -5.069699 1.081958
v -13.049684 -5.065459 1.081277
v -13.052652 -5.061219 1.081958
v -13.055420 -5.057267 1.083956
v -13.057796 -5.053874 1.087134
v -13.059618 -5.051271 1.091277
v -13.060764 -5.049634 1.096100
v -13.061155 -5.049076 1.101277
v -13.060764 -5.049634 1.106453
v -13.059618 -5.051271 1.111277
v -13.057796 -5.053874 1.115419
v -13.055420 -5.057267 1.118597
v -13.052652 -5.061219 1.120595
v -13.049684 -5.065459 1.121276
v -13.046715 -5.069699 1.120595
v -13.043948 -5.073650 1.118597
v -13.041573 -5.077044 1.115419
v -13.039749 -5.079647 1.111277
vn -0.5736 0.8192 -0.0000
vn 0.8192 0.5736 -0.0000
vn 0.5736 -0.8192 -0.0000
vn -0.0000 -0.0000 1.0000
vn -0.0000 -0.0000 -1.0000
vn -0.8192 -0.5736 -0.0000
vn 0.0588 -0.6726 -0.7377
vn 0.2309 -0.6344 0.7377
vn 0.2309 -0.6344 -0.7377
vn 0.0588 -0.6726 0.7377
vn -0.1172 -0.6649 -0.7377
vn -0.1172 -0.6649 0.7377
vn -0.2853 -0.6119 0.7377
vn -0.2853 -0.6119 -0.7377
vn -0.4340 -0.5172 0.7377
vn -0.4340 -0.5172 -0.7377
vn -0.5530 -0.3872 0.7377
vn -0.5530 -0.3872 -0.7377
vn -0.6344 -0.2309 0.7377
vn -0.6344 -0.2309 -0.7377
vn -0.6726 -0.0588 0.7377
vn -0.6726 -0.0588 -0.7377
vn -0.6649 0.1172 0.7377
vn -0.6649 0.1172 -0.7377
vn -0.6119 0.2853 -0.7377
vn -0.6119 0.2853 0.7377
vn -0.5172 0.4340 -0.7377
vn -0.5172 0.4340 0.7377
vn -0.3872 0.5530 -0.7377
vn -0.3872 0.5530 0.7377
vn -0.2309 0.6344 -0.7377
vn -0.2309 0.6344 0.7377
vn -0.0588 0.6726 -0.7377
vn -0.0588 0.6726 0.7377
vn 0.1172 0.6649 -0.7377
vn 0.1172 0.6649 0.7377
vn 0.2853 0.6119 0.7377
vn 0.2853 0.6119 -0.7377
vn 0.4340 0.5172 0.7377
vn 0.4340 0.5172 -0.7377
vn 0.5530 0.3872 0.7377
vn 0.5530 0.3872 -0.7377
vn 0.6344 0.2309 0.7377
vn 0.6344 0.2309 -0.7377
vn 0.6726 0.0588 0.7377
vn 0.6726 0.0588 -0.7377
vn 0.3872 -0.5530 0.7377
vn 0.3872 -0.5530 -0.7377
vn 0.6119 -0.2853 -0.7377
vn 0.6649 -0.1172 0.7377
vn 0.6649 -0.1172 -0.7377
vn 0.6119 -0.2853 0.7377
vn 0.5172 -0.4340 -0.7377
vn 0.5172 -0.4340 0.7377
vn 0.9783 -0.1111 -0.1747
vn 0.9208 -0.1315 -0.3671
vn 0.9629 -0.1916 -0.1900
vn 0.9396 -0.0558 -0.3376
vn 0.9915 -0.1299 -0.0000
vn 0.9773 -0.2121 -0.0000
vn 0.9783 -0.1111 0.1747
vn 0.9629 -0.1916 0.1900
vn 0.8539 -0.0359 -0.5192
vn 0.8781 0.0321 -0.4774
vn 0.7979 0.1466 -0.5847
vn 0.7667 0.0887 -0.6359
vn 0.7045 0.2800 -0.6521
vn 0.6651 0.2337 -0.7092
vn 0.6043 0.4231 -0.6751
vn 0.5561 0.3894 -0.7343
vn 0.5041 0.5663 -0.6521
vn 0.4471 0.5451 -0.7092
vn 0.4107 0.6996 -0.5847
vn 0.3455 0.6901 -0.6359
vn 0.3305 0.8142 -0.4774
vn 0.2583 0.8147 -0.5192
vn 0.1914 0.9103 -0.3671
vn 0.2689 0.9021 -0.3376
vn 0.1493 0.9704 -0.1900
vn 0.2302 0.9573 -0.1747
vn 0.1350 0.9909 -0.0000
vn 0.2171 0.9762 -0.0000
vn 0.1493 0.9704 0.1900
vn 0.2302 0.9573 0.1747
vn 0.1914 0.9103 0.3671
vn 0.2689 0.9021 0.3376
vn 0.2583 0.8147 0.5192
vn 0.3305 0.8142 0.4774
vn 0.4107 0.6996 0.5847
vn 0.3455 0.6901 0.6359
vn 0.5041 0.5663 0.6521
vn 0.4471 0.5451 0.7092
vn 0.6043 0.4231 0.6751
vn 0.5561 0.3894 0.7343
vn 0.7045 0.2800 0.6521
vn 0.6651 0.2337 0.7092
vn 0.7979 0.1466 0.5847
vn 0.7667 0.0887 0.6359
vn 0.8781 0.0321 0.4774
vn 0.8539 -0.0359 0.5192
vn 0.9208 -0.1315 0.3671
vn 0.9396 -0.0558 0.3376
s 0
s 1
s 0
s 1
s 0
s 1
s 0
s 1
s 0
s 1
s 0
usemtl Material
f 1//1 2//1 3//1
f 2//1 1//1 4//1
f 1//2 4//2 5//2
f 5//2 4//2 6//2
f 6//3 7//3 8//3
f 7//3 6//3 5//3
f 8//4 9//4 6//4
f 9//4 8//4 10//4
f 10//4 8//4 11//4
f 11//4 8//4 12//4
f 12//4 8//4 13//4
f 13//4 8//4 14//4
f 14//4 8//4 2//4
f 6//4 9//4 15//4
f 14//4 2//4 16//4
f 16//4 2//4 17//4
f 17//4 2//4 18//4
f 18//4 2//4 19//4
f 19//4 2//4 20//4
f 20//4 2//4 21//4
f 6//4 22//4 4//4
f 22//4 6//4 23//4
f 23//4 6//4 24//4
f 24//4 6//4 25//4
f 25//4 6//4 26//4
f 26//4 6//4 27//4
f 27//4 6//4 15//4
f 4//4 22//4 28//4
f 4//4 28//4 29//4
f 4//4 29//4 30//4
f 4//4 30//4 31//4
f 4//4 31//4 32//4
f 4//4 32//4 21//4
f 4//4 21//4 2//4
f 2//2 7//2 3//2
f 7//2 2//2 8//2
f 33//5 34//5 35//5
f 34//5 33//5 36//5
f 37//6 33//6 35//6
f 33//6 37//6 46//6
f 40//5 48//5 38//5
f 48//5 40//5 47//5
f 47//5 40//5 49//5
f 49//5 40//5 50//5
f 50//5 40//5 51//5
f 51//5 40//5 52//5
f 52//5 40//5 43//5
f 38//5 48//5 67//5
f 52//5 43//5 53//5
f 53//5 43//5 54//5
f 54//5 43//5 55//5
f 55//5 43//5 56//5
f 56//5 43//5 57//5
f 57//5 43//5 58//5
f 38//5 64//5 45//5
f 64//5 38//5 65//5
f 65//5 38//5 66//5
f 66//5 38//5 69//5
f 69//5 38//5 68//5
f 68//5 38//5 70//5
f 70//5 38//5 67//5
f 45//5 64//5 63//5
f 45//5 63//5 62//5
f 45//5 62//5 61//5
f 45//5 61//5 60//5
f 45//5 60//5 59//5
f 45//5 59//5 58//5
f 45//5 58//5 43//5
f 3//4 5//4 7//4
f 1//4 5//4 3//4
f 36//5 41//5 34//5
f 41//5 36//5 42//5
