o Flowmeter_1
v -13.069195 -5.114792 1.233776
v -13.035698 -5.162631 1.213776
v -13.069195 -5.114792 1.213776
v -13.035698 -5.162631 1.233776
v -13.032923 -5.089395 1.233776
v -12.999426 -5.137234 1.213776
v -13.032923 -5.089395 1.213776
v -12.999426 -5.137234 1.233776
v -13.018990 -5.138869 1.233776
v -13.016184 -5.134465 1.233776
v -13.014614 -5.129486 1.233776
v -13.014386 -5.124270 1.233776
v -13.015516 -5.119173 1.233776
v -13.017927 -5.114542 1.233776
v -13.022839 -5.142396 1.233776
v -13.021455 -5.110692 1.233776
v -13.025858 -5.107887 1.233776
v -13.030837 -5.106317 1.233776
v -13.036054 -5.106089 1.233776
v -13.041151 -5.107219 1.233776
v -13.045782 -5.109630 1.233776
v -13.050694 -5.137485 1.233776
v -13.047166 -5.141334 1.233776
v -13.042763 -5.144139 1.233776
v -13.037784 -5.145709 1.233776
v -13.032567 -5.145937 1.233776
v -13.027470 -5.144807 1.233776
v -13.053104 -5.132854 1.233776
v -13.054235 -5.127756 1.233776
v -13.054007 -5.122540 1.233776
v -13.052437 -5.117561 1.233776
v -13.049631 -5.113157 1.233776
v -13.026110 -5.099126 1.166276
v -13.019064 -5.091754 1.171100
v -13.017918 -5.093390 1.166276
v -13.027255 -5.097489 1.171100
v -13.005095 -5.129139 1.096100
v -12.998049 -5.121767 1.091277
v -12.996902 -5.123404 1.096100
v -13.006240 -5.127502 1.091277
v -13.005014 -5.111819 1.195595
v -13.010439 -5.121506 1.193597
v -13.002248 -5.115770 1.193597
v -13.013206 -5.117555 1.195595
v -13.004704 -5.129697 1.101277
v -12.996511 -5.123961 1.101277
v -13.008063 -5.124899 1.190419
v -12.999871 -5.119163 1.190419
v -13.024286 -5.101730 1.162134
v -13.016095 -5.095994 1.162134
v -13.007983 -5.107579 1.196276
v -13.016174 -5.113314 1.196276
v -13.032567 -5.145937 1.433776
v -13.027470 -5.144807 1.433776
v -13.047166 -5.141334 1.433776
v -13.050694 -5.137485 1.433776
v -13.053104 -5.132854 1.433776
v -13.054235 -5.127756 1.433776
v -13.054007 -5.122540 1.433776
v -13.016184 -5.134465 1.433776
v -13.014614 -5.129486 1.433776
v -13.022839 -5.142396 1.433776
v -13.018990 -5.138869 1.433776
v -13.035698 -5.162631 1.433776
v -12.999426 -5.137234 1.433776
v -13.037784 -5.145709 1.433776
v -13.042763 -5.144139 1.433776
v -13.069195 -5.114792 1.433776
v -13.052437 -5.117561 1.433776
v -13.049631 -5.113157 1.433776
v -13.045782 -5.109630 1.433776
v -13.017927 -5.114542 1.433776
v -13.032923 -5.089395 1.433776
v -13.015516 -5.119173 1.433776
v -13.014386 -5.124270 1.433776
v -13.021455 -5.110692 1.433776
v -13.025858 -5.107887 1.433776
v -13.030837 -5.106317 1.433776
v -13.036054 -5.106089 1.433776
v -13.041151 -5.107219 1.433776
v -13.013719 -5.099387 1.158956
v -13.021911 -5.105123 1.158956
v -13.032923 -5.089395 1.453776
v -12.999426 -5.137234 1.453776
v -12.999871 -5.119163 1.087134
v -13.008063 -5.124899 1.087134
v -13.005095 -5.129139 1.106453
v -12.996902 -5.123404 1.106453
v -13.019144 -5.109074 1.081958
v -13.007983 -5.107579 1.081277
v -13.016174 -5.113314 1.081277
v -13.010952 -5.103338 1.081958
v -13.005014 -5.111819 1.081958
v -13.013719 -5.099387 1.083956
v -13.002248 -5.115770 1.083956
v -13.016095 -5.095994 1.087134
v -13.017918 -5.093390 1.091277
v -13.019064 -5.091754 1.096100
v -13.019455 -5.091196 1.101277
v -13.019064 -5.091754 1.106453
v -13.017918 -5.093390 1.111277
v -12.998049 -5.121767 1.111277
v -13.016095 -5.095994 1.115419
v -12.999871 -5.119163 1.115419
v -13.013719 -5.099387 1.118597
v -13.002248 -5.115770 1.118597
v -13.010952 -5.103338 1.120595
v -13.005014 -5.111819 1.120595
v -13.007983 -5.107579 1.121276
v -13.010952 -5.103338 1.156958
v -13.019144 -5.109074 1.156958
v -13.013206 -5.117555 1.081958
v -13.007983 -5.107579 1.156276
v -13.016174 -5.113314 1.156276
v -13.010952 -5.103338 1.195595
v -13.019144 -5.109074 1.195595
v -13.005014 -5.111819 1.156958
v -13.013206 -5.117555 1.156958
v -12.998049 -5.121767 1.186276
v -13.006240 -5.127502 1.186276
v -13.002248 -5.115770 1.158956
v -13.010439 -5.121506 1.158956
v -13.013719 -5.099387 1.193597
v -13.021911 -5.105123 1.193597
v -12.996902 -5.123404 1.181453
v -13.005095 -5.129139 1.181453
v -12.999871 -5.119163 1.162134
v -13.008063 -5.124899 1.162134
v -13.016095 -5.095994 1.190419
v -13.024286 -5.101730 1.190419
v -13.006240 -5.127502 1.166276
v -12.998049 -5.121767 1.166276
v -13.026110 -5.099126 1.186276
v -13.017918 -5.093390 1.186276
v -13.005095 -5.129139 1.171100
v -12.996902 -5.123404 1.171100
v -13.027255 -5.097489 1.181453
v -13.019064 -5.091754 1.181453
v -13.004704 -5.129697 1.176276
v -12.996511 -5.123961 1.176276
v -13.027646 -5.096931 1.176276
v -13.019455 -5.091196 1.176276
v -13.010439 -5.121506 1.083956
v -13.021911 -5.105123 1.083956
v -13.024286 -5.101730 1.087134
v -13.026110 -5.099126 1.091277
v -13.027255 -5.097489 1.096100
v -13.027646 -5.096931 1.101277
v -13.027255 -5.097489 1.106453
v -13.026110 -5.099126 1.111277
v -13.024286 -5.101730 1.115419
v -13.021911 -5.105123 1.118597
v -13.019144 -5.109074 1.120595
v -13.016174 -5.113314 1.121276
v -13.013206 -5.117555 1.120595
v -13.010439 -5.121506 1.118597
v -13.008063 -5.124899 1.115419
v -13.006240 -5.127502 1.111277
v -13.071969 -5.188028 1.453776
v -13.105466 -5.140190 1.453776
v -13.105466 -5.140190 1.063776
v -13.048575 -5.171648 1.063776
v -13.071969 -5.188028 1.063776
v -13.082072 -5.123810 1.063776
v -12.999426 -5.137234 1.063776
v -13.032923 -5.089395 1.063776
vn 0.8192 0.5736 -0.0000
vn 0.5736 -0.8192 -0.0000
vn -0.0000 -0.0000 1.0000
vn -0.5736 0.8192 -0.0000
vn 0.2689 0.9021 -0.3376
vn 0.1493 0.9704 -0.1900
vn 0.1914 0.9103 -0.3671
vn 0.2302 0.9573 -0.1747
vn 0.9783 -0.1111 -0.1747
vn 0.9208 -0.1315 -0.3671
vn 0.9629 -0.1916 -0.1900
vn 0.9396 -0.0558 -0.3376
vn 0.6651 0.2337 0.7092
vn 0.7979 0.1466 0.5847
vn 0.7667 0.0887 0.6359
vn 0.7045 0.2800 0.6521
vn 0.9915 -0.1299 -0.0000
vn 0.9773 -0.2121 -0.0000
vn 0.8781 0.0321 0.4774
vn 0.8539 -0.0359 0.5192
vn 0.3305 0.8142 -0.4774
vn 0.2583 0.8147 -0.5192
vn 0.5561 0.3894 0.7343
vn 0.6043 0.4231 0.6751
vn 0.0588 -0.6726 -0.7377
vn 0.2309 -0.6344 0.7377
vn 0.2309 -0.6344 -0.7377
vn 0.0588 -0.6726 0.7377
vn -0.4340 -0.5172 -0.7377
vn -0.5530 -0.3872 0.7377
vn -0.4340 -0.5172 0.7377
vn -0.5530 -0.3872 -0.7377
vn -0.6344 -0.2309 0.7377
vn -0.6344 -0.2309 -0.7377
vn -0.6726 -0.0588 0.7377
vn -0.6726 -0.0588 -0.7377
vn -0.6649 0.1172 0.7377
vn -0.6649 0.1172 -0.7377
vn 0.6119 -0.2853 -0.7377
vn 0.6649 -0.1172 0.7377
vn 0.6649 -0.1172 -0.7377
vn 0.6119 -0.2853 0.7377
vn 0.3872 -0.5530 -0.7377
vn 0.5172 -0.4340 0.7377
vn 0.5172 -0.4340 -0.7377
vn 0.3872 -0.5530 0.7377
vn -0.0000 -0.0000 -1.0000
vn 0.4340 0.5172 -0.7377
vn 0.5530 0.3872 0.7377
vn 0.4340 0.5172 0.7377
vn 0.5530 0.3872 -0.7377
vn 0.6344 0.2309 0.7377
vn 0.6344 0.2309 -0.7377
vn 0.3455 0.6901 -0.6359
vn 0.4107 0.6996 -0.5847
vn -0.1172 -0.6649 -0.7377
vn -0.1172 -0.6649 0.7377
vn -0.2853 -0.6119 0.7377
vn -0.2853 -0.6119 -0.7377
vn 0.8539 -0.0359 -0.5192
vn 0.8781 0.0321 -0.4774
vn 0.9783 -0.1111 0.1747
vn 0.9629 -0.1916 0.1900
vn 0.5041 0.5663 -0.6521
vn 0.5561 0.3894 -0.7343
vn 0.6043 0.4231 -0.6751
vn 0.4471 0.5451 -0.7092
vn 0.6726 0.0588 0.7377
vn 0.6726 0.0588 -0.7377
vn -0.6119 0.2853 -0.7377
vn -0.6119 0.2853 0.7377
vn -0.5172 0.4340 -0.7377
vn -0.5172 0.4340 0.7377
vn -0.3872 0.5530 -0.7377
vn -0.3872 0.5530 0.7377
vn -0.2309 0.6344 -0.7377
vn -0.2309 0.6344 0.7377
vn -0.0588 0.6726 -0.7377
vn -0.0588 0.6726 0.7377
vn 0.1172 0.6649 -0.7377
vn 0.1172 0.6649 0.7377
vn 0.2853 0.6119 0.7377
vn 0.2853 0.6119 -0.7377
vn 0.6651 0.2337 -0.7092
vn 0.7045 0.2800 -0.6521
vn 0.4471 0.5451 0.7092
vn 0.5041 0.5663 0.6521
vn 0.9208 -0.1315 0.3671
vn 0.9396 -0.0558 0.3376
vn 0.7667 0.0887 -0.6359
vn 0.7979 0.1466 -0.5847
vn 0.3455 0.6901 0.6359
vn 0.4107 0.6996 0.5847
vn 0.2583 0.8147 0.5192
vn 0.3305 0.8142 0.4774
vn 0.2689 0.9021 0.3376
vn 0.1914 0.9103 0.3671
vn 0.2302 0.9573 0.1747
vn 0.1493 0.9704 0.1900
vn 0.2171 0.9762 -0.0000
vn 0.1350 0.9909 -0.0000
vn -0.8192 -0.5736 -0.0000
s 0
s 1
s 0
s 1
s 0
s 1
s 0
s 1
s 0
s 1
s 0
s 1
s 0
usemtl [Color_008]2
f 33//5 34//6 35//7
f 34//6 33//5 36//8
f 37//9 38//10 39//11
f 38//10 37//9 40//12
f 41//13 42//14 43//15
f 42//14 41//13 44//16
f 45//17 39//11 46//18
f 39//11 45//17 37//9
f 43//15 47//19 48//20
f 47//19 43//15 42//14
f 49//21 35//7 50//22
f 35//7 49//21 33//5
f 51//23 44//16 41//13
f 44//16 51//23 52//24
f 49//21 81//54 82//55
f 81//54 49//21 50//22
f 83//1 65//1 73//1
f 65//1 83//1 84//1
f 40//12 85//60 38//10
f 85//60 40//12 86//61
f 87//62 46//18 88//63
f 46//18 87//62 45//17
f 89//64 90//65 91//66
f 90//65 89//64 92//67
f 92//1 93//1 90//1
f 93//1 92//1 94//1
f 93//1 94//1 95//1
f 95//1 94//1 96//1
f 95//1 96//1 85//1
f 85//1 96//1 97//1
f 85//1 97//1 38//1
f 38//1 97//1 98//1
f 38//1 98//1 39//1
f 39//1 98//1 99//1
f 39//1 99//1 46//1
f 46//1 99//1 100//1
f 46//1 100//1 88//1
f 88//1 100//1 101//1
f 88//1 101//1 102//1
f 102//1 101//1 103//1
f 102//1 103//1 104//1
f 104//1 103//1 105//1
f 104//1 105//1 106//1
f 106//1 105//1 107//1
f 106//1 107//1 108//1
f 108//1 107//1 109//1
f 82//55 110//67 111//64
f 110//67 82//55 81//54
f 91//66 93//84 112//85
f 93//84 91//66 90//65
f 1//1 68//1 4//1
f 4//1 68//1 64//1
f 111//64 113//65 114//66
f 113//65 111//64 110//67
f 115//86 52//24 51//23
f 52//24 115//86 116//87
f 114//66 117//84 118//85
f 117//84 114//66 113//65
f 47//19 119//88 48//20
f 119//88 47//19 120//89
f 118//85 121//90 122//91
f 121//90 118//85 117//84
f 123//92 116//87 115//86
f 116//87 123//92 124//93
f 120//89 125//63 119//88
f 125//63 120//89 126//62
f 122//91 127//60 128//61
f 127//60 122//91 121//90
f 129//94 124//93 123//92
f 124//93 129//94 130//95
f 131//12 127//60 132//10
f 127//60 131//12 128//61
f 133//96 129//94 134//97
f 129//94 133//96 130//95
f 135//9 132//10 136//11
f 132//10 135//9 131//12
f 137//98 134//97 138//99
f 134//97 137//98 133//96
f 139//17 136//11 140//18
f 136//11 139//17 135//9
f 141//100 138//99 142//101
f 138//99 141//100 137//98
f 126//62 140//18 125//63
f 140//18 126//62 139//17
f 110//1 117//1 113//1
f 117//1 110//1 81//1
f 117//1 81//1 121//1
f 121//1 81//1 50//1
f 121//1 50//1 127//1
f 127//1 50//1 35//1
f 127//1 35//1 132//1
f 132//1 35//1 34//1
f 132//1 34//1 136//1
f 136//1 34//1 142//1
f 136//1 142//1 140//1
f 140//1 142//1 138//1
f 140//1 138//1 125//1
f 125//1 138//1 134//1
f 125//1 134//1 119//1
f 119//1 134//1 48//1
f 48//1 134//1 129//1
f 48//1 129//1 123//1
f 48//1 123//1 43//1
f 43//1 123//1 115//1
f 43//1 115//1 41//1
f 41//1 115//1 51//1
f 36//8 142//101 34//6
f 142//101 36//8 141//100
f 143//91 85//60 86//61
f 85//60 143//91 95//90
f 112//85 95//90 143//91
f 95//90 112//85 93//84
f 144//55 92//67 89//64
f 92//67 144//55 94//54
f 145//21 94//54 144//55
f 94//54 145//21 96//22
f 145//21 97//7 96//22
f 97//7 145//21 146//5
f 146//5 98//6 97//7
f 98//6 146//5 147//8
f 147//8 99//101 98//6
f 99//101 147//8 148//100
f 148//100 100//99 99//101
f 100//99 148//100 149//98
f 149//98 101//97 100//99
f 101//97 149//98 150//96
f 150//96 103//94 101//97
f 103//94 150//96 151//95
f 103//94 152//93 105//92
f 152//93 103//94 151//95
f 105//92 153//87 107//86
f 153//87 105//92 152//93
f 107//86 154//24 109//23
f 154//24 107//86 153//87
f 109//23 155//16 108//13
f 155//16 109//23 154//24
f 108//13 156//14 106//15
f 156//14 108//13 155//16
f 106//15 157//19 104//20
f 157//19 106//15 156//14
f 157//19 102//88 104//20
f 102//88 157//19 158//89
f 158//89 88//63 102//88
f 88//63 158//89 87//62
f 83//3 159//3 84//3
f 159//3 83//3 160//3
f 164//4 7//4 166//4
f 7//4 164//4 3//4
f 1//4 3//4 164//4
f 1//4 164//4 68//4
f 68//4 83//4 73//4
f 83//4 68//4 160//4
f 160//4 68//4 164//4
f 160//4 164//4 161//4
f 159//2 65//2 84//2
f 65//2 159//2 64//2
f 64//2 159//2 4//2
f 4//2 159//2 2//2
f 2//2 159//2 162//2
f 162//2 159//2 163//2
f 2//2 165//2 6//2
f 165//2 2//2 162//2
