o Flowmeter_3
v -13.099965 -4.993649 1.233776
v -13.066443 -5.041523 1.213776
v -13.099965 -4.993649 1.213776
v -13.066443 -5.041523 1.233776
v -13.136236 -5.019047 1.213776
v -13.136236 -5.019047 1.233776
v -13.102715 -5.066920 1.233776
v -13.102715 -5.066920 1.213776
v -13.086020 -5.043140 1.233776
v -13.083214 -5.038737 1.233776
v -13.081644 -5.033758 1.233776
v -13.081416 -5.028542 1.233776
v -13.082546 -5.023444 1.233776
v -13.084957 -5.018813 1.233776
v -13.089869 -5.046668 1.233776
v -13.088484 -5.014964 1.233776
v -13.092888 -5.012158 1.233776
v -13.097867 -5.010588 1.233776
v -13.103083 -5.010361 1.233776
v -13.108180 -5.011491 1.233776
v -13.112811 -5.013902 1.233776
v -13.117723 -5.041756 1.233776
v -13.114196 -5.045605 1.233776
v -13.109793 -5.048411 1.233776
v -13.104813 -5.049981 1.233776
v -13.099597 -5.050209 1.233776
v -13.094500 -5.049078 1.233776
v -13.120133 -5.037125 1.233776
v -13.121264 -5.032028 1.233776
v -13.121037 -5.026812 1.233776
v -13.119466 -5.021832 1.233776
v -13.116661 -5.017429 1.233776
v -13.099597 -5.050209 1.433776
v -13.094500 -5.049078 1.433776
v -13.104813 -5.049981 1.433776
v -13.109793 -5.048411 1.433776
v -13.114196 -5.045605 1.433776
v -13.117723 -5.041756 1.433776
v -13.120133 -5.037125 1.433776
v -13.121264 -5.032028 1.433776
v -13.121037 -5.026812 1.433776
v -13.119466 -5.021832 1.433776
v -13.116661 -5.017429 1.433776
v -13.112811 -5.013902 1.433776
v -13.088484 -5.014964 1.433776
v -13.084957 -5.018813 1.433776
v -13.082546 -5.023444 1.433776
v -13.081416 -5.028542 1.433776
v -13.081644 -5.033758 1.433776
v -13.097867 -5.010588 1.433776
v -13.103083 -5.010361 1.433776
v -13.108180 -5.011491 1.433776
v -13.092888 -5.012158 1.433776
v -13.089869 -5.046668 1.433776
v -13.086020 -5.043140 1.433776
v -13.083214 -5.038737 1.433776
v -13.071733 -5.033969 1.176276
v -13.063932 -5.027675 1.171100
v -13.063541 -5.028233 1.176276
v -13.072124 -5.033411 1.171100
v -13.099965 -4.993649 1.453776
v -13.066443 -5.041523 1.433776
v -13.099965 -4.993649 1.433776
v -13.066443 -5.041523 1.453776
v -13.071733 -5.033969 1.101277
v -13.063932 -5.027675 1.096100
v -13.063541 -5.028233 1.101277
v -13.072124 -5.033411 1.096100
v -13.102715 -5.066920 1.433776
v -13.136236 -5.019047 1.433776
v -13.072124 -5.033411 1.181453
v -13.063932 -5.027675 1.181453
v -13.077982 -5.007610 1.081958
v -13.072043 -5.016090 1.081958
v -13.075013 -5.011850 1.081277
v -13.069277 -5.020041 1.083956
v -13.080749 -5.003659 1.083956
v -13.066901 -5.023435 1.087134
v -13.083124 -5.000266 1.087134
v -13.065078 -5.026038 1.091277
v -13.084948 -4.997662 1.091277
v -13.086094 -4.996025 1.096100
v -13.086484 -4.995467 1.101277
v -13.063932 -5.027675 1.106453
v -13.086094 -4.996025 1.106453
v -13.065078 -5.026038 1.111277
v -13.084948 -4.997662 1.111277
v -13.066901 -5.023435 1.115419
v -13.083124 -5.000266 1.115419
v -13.069277 -5.020041 1.118597
v -13.080749 -5.003659 1.118597
v -13.072043 -5.016090 1.120595
v -13.077982 -5.007610 1.120595
v -13.075013 -5.011850 1.121276
v -13.065078 -5.026038 1.166276
v -13.073270 -5.031774 1.166276
v -13.073270 -5.031774 1.091277
v -13.077982 -5.007610 1.156958
v -13.072043 -5.016090 1.156958
v -13.075013 -5.011850 1.156276
v -13.069277 -5.020041 1.158956
v -13.080749 -5.003659 1.158956
v -13.066901 -5.023435 1.162134
v -13.083124 -5.000266 1.162134
v -13.084948 -4.997662 1.166276
v -13.086094 -4.996025 1.171100
v -13.086484 -4.995467 1.176276
v -13.086094 -4.996025 1.181453
v -13.084948 -4.997662 1.186276
v -13.065078 -5.026038 1.186276
v -13.083124 -5.000266 1.190419
v -13.066901 -5.023435 1.190419
v -13.080749 -5.003659 1.193597
v -13.069277 -5.020041 1.193597
v -13.077982 -5.007610 1.195595
v -13.072043 -5.016090 1.195595
v -13.075013 -5.011850 1.196276
v -13.075093 -5.029171 1.162134
v -13.077469 -5.025777 1.158956
v -13.080235 -5.021826 1.156958
v -13.083204 -5.017586 1.156276
v -13.086173 -5.013346 1.156958
v -13.088941 -5.009394 1.158956
v -13.091316 -5.006001 1.162134
v -13.093139 -5.003398 1.166276
v -13.094285 -5.001761 1.171100
v -13.094676 -5.001203 1.176276
v -13.094285 -5.001761 1.181453
v -13.093139 -5.003398 1.186276
v -13.091316 -5.006001 1.190419
v -13.088941 -5.009394 1.193597
v -13.086173 -5.013346 1.195595
v -13.083204 -5.017586 1.196276
v -13.080235 -5.021826 1.195595
v -13.077469 -5.025777 1.193597
v -13.075093 -5.029171 1.190419
v -13.073270 -5.031774 1.186276
v -13.072124 -5.033411 1.106453
v -13.075093 -5.029171 1.087134
v -13.077469 -5.025777 1.083956
v -13.080235 -5.021826 1.081958
v -13.083204 -5.017586 1.081277
v -13.086173 -5.013346 1.081958
v -13.088941 -5.009394 1.083956
v -13.091316 -5.006001 1.087134
v -13.093139 -5.003398 1.091277
v -13.094285 -5.001761 1.096100
v -13.094676 -5.001203 1.101277
v -13.094285 -5.001761 1.106453
v -13.093139 -5.003398 1.111277
v -13.091316 -5.006001 1.115419
v -13.088941 -5.009394 1.118597
v -13.086173 -5.013346 1.120595
v -13.083204 -5.017586 1.121276
v -13.080235 -5.021826 1.120595
v -13.077469 -5.025777 1.118597
v -13.075093 -5.029171 1.115419
v -13.073270 -5.031774 1.111277
v -13.172507 -5.044444 1.063776
v -13.115593 -5.075937 1.063776
v -13.138987 -5.092317 1.063776
v -13.149114 -5.028064 1.063776
v -13.099965 -4.993649 1.063776
v -13.172507 -5.044444 1.453776
v -13.138987 -5.092317 1.453776
v -13.066443 -5.041523 1.063776
vn 0.8192 0.5736 -0.0000
vn -0.5736 0.8192 -0.0000
vn 0.5736 -0.8192 -0.0000
vn -0.0000 -0.0000 1.0000
vn 0.0588 -0.6726 -0.7377
vn 0.2309 -0.6344 0.7377
vn 0.2309 -0.6344 -0.7377
vn 0.0588 -0.6726 0.7377
vn -0.1172 -0.6649 -0.7377
vn -0.1172 -0.6649 0.7377
vn -0.2853 -0.6119 0.7377
vn -0.2853 -0.6119 -0.7377
vn -0.4340 -0.5172 0.7377
vn -0.4340 -0.5172 -0.7377
vn -0.5530 -0.3872 0.7377
vn -0.5530 -0.3872 -0.7377
vn -0.6344 -0.2309 0.7377
vn -0.6344 -0.2309 -0.7377
vn -0.6726 -0.0588 0.7377
vn -0.6726 -0.0588 -0.7377
vn -0.6649 0.1172 0.7377
vn -0.6649 0.1172 -0.7377
vn -0.6119 0.2853 -0.7377
vn -0.6119 0.2853 0.7377
vn -0.5172 0.4340 -0.7377
vn -0.5172 0.4340 0.7377
vn -0.3872 0.5530 -0.7377
vn -0.3872 0.5530 0.7377
vn 0.4340 0.5172 -0.7377
vn 0.5530 0.3872 0.7377
vn 0.4340 0.5172 0.7377
vn 0.5530 0.3872 -0.7377
vn 0.6344 0.2309 -0.7377
vn 0.6726 0.0588 0.7377
vn 0.6344 0.2309 0.7377
vn 0.6726 0.0588 -0.7377
vn 0.6649 -0.1172 0.7377
vn 0.6649 -0.1172 -0.7377
vn -0.0588 0.6726 0.7377
vn 0.1172 0.6649 -0.7377
vn 0.1172 0.6649 0.7377
vn -0.0588 0.6726 -0.7377
vn -0.2309 0.6344 0.7377
vn -0.2309 0.6344 -0.7377
vn 0.2853 0.6119 -0.7377
vn 0.2853 0.6119 0.7377
vn 0.3872 -0.5530 0.7377
vn 0.3872 -0.5530 -0.7377
vn 0.5172 -0.4340 0.7377
vn 0.5172 -0.4340 -0.7377
vn 0.6119 -0.2853 -0.7377
vn 0.6119 -0.2853 0.7377
vn 0.9915 -0.1299 -0.0000
vn 0.9629 -0.1916 -0.1900
vn 0.9773 -0.2121 -0.0000
vn 0.9783 -0.1111 -0.1747
vn -0.0000 -0.0000 -1.0000
vn 0.9783 -0.1111 0.1747
vn 0.9629 -0.1916 0.1900
vn 0.9208 -0.1315 -0.3671
vn 0.9396 -0.0558 -0.3376
vn 0.8539 -0.0359 -0.5192
vn 0.8781 0.0321 -0.4774
vn 0.7979 0.1466 -0.5847
vn 0.7667 0.0887 -0.6359
vn 0.7045 0.2800 -0.6521
vn 0.6651 0.2337 -0.7092
vn 0.6043 0.4231 -0.6751
vn 0.5561 0.3894 -0.7343
vn 0.5041 0.5663 -0.6521
vn 0.4471 0.5451 -0.7092
vn 0.4107 0.6996 -0.5847
vn 0.3455 0.6901 -0.6359
vn 0.3305 0.8142 -0.4774
vn 0.2583 0.8147 -0.5192
vn 0.1914 0.9103 -0.3671
vn 0.2689 0.9021 -0.3376
vn 0.1493 0.9704 -0.1900
vn 0.2302 0.9573 -0.1747
vn 0.1350 0.9909 -0.0000
vn 0.2171 0.9762 -0.0000
vn 0.1493 0.9704 0.1900
vn 0.2302 0.9573 0.1747
vn 0.1914 0.9103 0.3671
vn 0.2689 0.9021 0.3376
vn 0.2583 0.8147 0.5192
vn 0.3305 0.8142 0.4774
vn 0.4107 0.6996 0.5847
vn 0.3455 0.6901 0.6359
vn 0.5041 0.5663 0.6521
vn 0.4471 0.5451 0.7092
vn 0.6043 0.4231 0.6751
vn 0.5561 0.3894 0.7343
vn 0.7045 0.2800 0.6521
vn 0.6651 0.2337 0.7092
vn 0.7979 0.1466 0.5847
vn 0.7667 0.0887 0.6359
vn 0.8781 0.0321 0.4774
vn 0.8539 -0.0359 0.5192
vn 0.9208 -0.1315 0.3671
vn 0.9396 -0.0558 0.3376
vn -0.8192 -0.5736 -0.0000
s 0
s 1
s 0
s 1
s 0
s 1
s 0
s 1
s 0
s 1
s 0
usemtl Material
f 1//1 2//1 3//1
f 2//1 1//1 4//1
f 5//2 1//2 3//2
f 1//2 5//2 6//2
f 7//3 2//3 4//3
f 2//3 7//3 8//3
f 6//1 8//1 5//1
f 8//1 6//1 7//1
f 4//4 9//4 7//4
f 9//4 4//4 10//4
f 10//4 4//4 11//4
f 11//4 4//4 12//4
f 12//4 4//4 13//4
f 13//4 4//4 14//4
f 1//4 14//4 4//4
f 7//4 9//4 15//4
f 14//4 1//4 16//4
f 16//4 1//4 17//4
f 17//4 1//4 18//4
f 18//4 1//4 19//4
f 19//4 1//4 20//4
f 20//4 1//4 21//4
f 7//4 22//4 6//4
f 22//4 7//4 23//4
f 23//4 7//4 24//4
f 24//4 7//4 25//4
f 25//4 7//4 26//4
f 26//4 7//4 27//4
f 27//4 7//4 15//4
f 6//4 22//4 28//4
f 6//4 28//4 29//4
f 6//4 29//4 30//4
f 6//4 30//4 31//4
f 6//4 31//4 32//4
f 6//4 32//4 21//4
f 1//4 6//4 21//4
f 69//57 34//57 62//57
f 34//57 69//57 33//57
f 33//57 69//57 35//57
f 35//57 69//57 36//57
f 36//57 69//57 37//57
f 37//57 69//57 38//57
f 38//57 69//57 70//57
f 62//57 34//57 54//57
f 38//57 70//57 39//57
f 39//57 70//57 40//57
f 40//57 70//57 41//57
f 41//57 70//57 42//57
f 42//57 70//57 43//57
f 43//57 70//57 44//57
f 62//57 46//57 63//57
f 46//57 62//57 47//57
f 47//57 62//57 48//57
f 48//57 62//57 49//57
f 49//57 62//57 56//57
f 56//57 62//57 55//57
f 55//57 62//57 54//57
f 63//57 46//57 45//57
f 63//57 45//57 53//57
f 63//57 53//57 50//57
f 63//57 50//57 51//57
f 63//57 51//57 52//57
f 63//57 52//57 44//57
f 63//57 44//57 70//57
f 159//57 160//57 161//57
f 160//57 159//57 162//57
f 3//4 8//4 2//4
f 8//4 3//4 5//4
f 165//102 159//102 161//102
f 159//102 165//102 164//102
f 162//57 166//57 160//57
f 166//57 162//57 163//57
