o G-__555690
v -8.382963 -6.950406 1.191840
v -8.362964 -6.950406 1.171840
v -8.382963 -6.950406 1.171840
v -8.362964 -6.950406 1.191840
v -9.081451 -6.950406 0.493679
v -9.081451 -7.320405 0.822760
v -9.081451 -7.320405 0.493679
v -9.081451 -6.950406 0.822760
v -9.081451 -6.940406 0.493679
v -9.081451 -6.940406 0.822760
v -7.664475 -7.320406 1.890000
v -8.362964 -6.950406 1.890000
v -8.362964 -7.320406 1.890000
v -7.664475 -6.950406 1.890000
v -9.081451 -7.320405 1.870000
v -8.382963 -7.320406 1.540920
v -9.081451 -7.320405 1.540920
v -8.382963 -7.320406 1.870000
v -8.382963 -7.320406 0.822760
v -8.382963 -7.320406 0.493679
v -8.382963 -6.950406 0.473679
v -8.382963 -7.320406 0.130920
v -8.382963 -7.320406 0.473679
v -8.382963 -6.950406 0.130920
v -9.081451 -6.950406 1.191840
v -9.081451 -6.950406 1.171840
v -9.081451 -7.320405 1.520920
v -8.382963 -7.320406 1.191840
v -9.081451 -7.320405 1.191840
v -8.382963 -7.320406 1.520920
v -9.081451 -6.950406 1.890000
v -9.081451 -7.320405 1.890000
v -9.081451 -6.950406 1.870000
v -9.081451 -7.320405 0.842760
v -8.362964 -7.320406 0.822760
v -7.664475 -7.320406 0.822760
v -7.664475 -7.320406 0.842760
v -8.382963 -7.320406 0.842760
v -8.362964 -7.320406 0.842760
v -8.362964 -7.320406 2.229080
v -8.362964 -6.950406 2.229080
v -8.362964 -7.320406 1.870000
v -7.664475 -7.320406 1.870000
v -8.382963 -7.320406 1.890000
v -7.664475 -6.950406 1.191840
v -7.664475 -7.320406 1.171840
v -7.664475 -7.320406 1.191840
v -7.664475 -6.950406 1.171840
v -9.081451 -6.950406 1.540920
v -9.081451 -6.940406 1.540920
v -9.081451 -6.940406 1.870000
v -8.362964 -6.950406 0.130920
v -8.362964 -7.320406 0.473679
v -8.362964 -7.320406 0.130920
v -8.362964 -6.950406 0.473679
v -8.362964 -7.320406 1.191840
v -8.362964 -6.950406 1.540920
v -8.362964 -7.320406 1.540920
v -8.362964 -6.950406 1.870000
v -8.362964 -7.320406 1.520920
v -7.664475 -7.320406 1.520920
v -7.664475 -7.320406 1.540920
v -8.382963 -6.950406 1.890000
v -9.081451 -7.320405 1.171840
v -8.382963 -7.320406 1.171840
v -7.664475 -7.320406 1.900000
v -7.664475 -7.320406 2.229080
v -7.664475 -6.940406 2.229080
v -7.664475 -6.940406 1.890000
v -8.382963 -6.950406 1.520920
v -9.081451 -6.950406 1.520920
v -9.081451 -6.950406 0.842760
v -9.081451 -6.940406 0.842760
v -9.081451 -6.940406 1.171840
v -8.362964 -7.320406 1.171840
v -8.382963 -6.950406 0.822760
v -8.382963 -6.950406 0.842760
v -8.362964 -6.950406 0.822760
v -8.362964 -6.950406 0.842760
v -8.382963 -6.950406 1.870000
v -7.664475 -6.950406 1.870000
v -8.382963 -7.320406 2.229080
v -8.382963 -6.950406 1.540920
v -8.362964 -6.950406 1.520920
v -8.382963 -6.950406 2.229080
v -7.664475 -6.950406 1.540920
v -8.362964 -6.940406 2.229080
v -7.664475 -6.950406 0.842760
v -9.081451 -6.940406 1.191840
v -9.081451 -6.940406 1.520920
v -7.664475 -6.950406 0.493679
v -7.664475 -6.950406 0.473679
v -8.362964 -6.950406 0.493679
v -7.664475 -6.950406 0.822760
v -9.081451 -7.320405 0.473679
v -7.664475 -7.320406 0.493679
v -7.664475 -7.320406 0.473679
v -8.362964 -7.320406 0.493679
v -7.664475 -6.940406 1.171840
v -7.664475 -6.940406 0.842760
v -7.664475 -6.950406 1.520920
v -9.081451 -6.950406 0.473679
v -8.382963 -6.940406 2.229080
v -9.081451 -7.320405 2.229080
v -9.081451 -6.940406 2.229080
v -9.081451 -7.320405 0.130920
v -7.620463 -7.350406 2.270000
v -9.125463 -6.940406 2.270000
v -9.125463 -7.350406 2.270000
v -7.620463 -6.940406 2.270000
v -7.620463 -6.940406 0.100000
v -7.620463 -7.350406 0.100000
v -7.664475 -6.940406 1.870000
v -9.081451 -6.940406 0.130920
v -8.382963 -6.940406 0.130920
v -8.382963 -6.950406 0.493679
v -9.081451 -6.940406 1.890000
v -9.125463 -7.350406 0.100000
v -9.125463 -6.940406 0.100000
v -7.664475 -6.940406 0.822760
v -9.081451 -6.940406 0.473679
v -7.664475 -6.940406 0.130920
v -8.362964 -6.940406 0.130920
v -7.664475 -6.940406 0.473679
v -7.664475 -6.940406 0.493679
v -7.664475 -6.940406 1.191840
v -7.664475 -6.940406 1.520920
v -7.664475 -6.940406 1.540920
v -7.664475 -7.320406 0.130920
vn -0.0000 1.0000 -0.0000
vn 1.0000 -0.0000 -0.0000
vn -0.0000 -0.0000 1.0000
vn -1.0000 -0.0000 -0.0000
vn -0.0000 -0.0000 -1.0000
vn -0.0000 -1.0000 -0.0000
s 0
usemtl [Color_004]1
f 1//1 2//1 3//1
f 2//1 1//1 4//1
f 5//2 6//2 7//2
f 6//2 5//2 8//2
f 8//2 5//2 9//2
f 8//2 9//2 10//2
f 11//3 12//3 13//3
f 12//3 11//3 14//3
f 15//1 16//1 17//1
f 16//1 15//1 18//1
f 7//1 19//1 20//1
f 19//1 7//1 6//1
f 21//4 22//4 23//4
f 22//4 21//4 24//4
f 25//1 3//1 26//1
f 1//1 3//1 25//1
f 27//1 28//1 29//1
f 28//1 27//1 30//1
f 31//4 15//4 32//4
f 15//4 31//4 33//4
f 34//1 19//1 6//1
f 19//1 34//1 35//1
f 35//1 34//1 36//1
f 36//1 34//1 37//1
f 37//5 34//5 38//5
f 37//3 38//3 39//3
f 12//2 40//2 13//2
f 40//2 12//2 41//2
f 32//1 18//1 15//1
f 18//1 32//1 42//1
f 42//1 32//1 43//1
f 43//1 32//1 11//1
f 11//5 32//5 44//5
f 11//3 44//3 13//3
f 45//4 46//4 47//4
f 46//4 45//4 48//4
f 49//2 15//2 17//2
f 15//2 49//2 33//2
f 33//2 49//2 50//2
f 33//2 50//2 51//2
f 52//2 53//2 54//2
f 53//2 52//2 55//2
f 47//3 4//3 56//3
f 4//3 47//3 45//3
f 57//2 42//2 58//2
f 42//2 57//2 59//2
f 17//1 30//1 27//1
f 30//1 17//1 60//1
f 60//1 17//1 61//1
f 61//1 17//1 62//1
f 62//5 17//5 16//5
f 62//3 16//3 58//3
f 13//3 63//3 44//3
f 63//3 13//3 12//3
f 64//1 38//1 34//1
f 38//1 64//1 65//1
f 3//5 64//5 26//5
f 64//5 3//5 65//5
f 40//1 11//1 13//1
f 11//1 40//1 66//1
f 66//1 40//1 67//1
f 68//4 66//4 67//4
f 66//4 68//4 11//4
f 11//4 68//4 14//4
f 14//4 68//4 69//4
f 70//4 28//4 30//4
f 1//4 28//4 70//4
f 49//4 27//4 17//4
f 27//4 49//4 71//4
f 72//2 64//2 34//2
f 64//2 72//2 26//2
f 26//2 72//2 73//2
f 26//2 73//2 74//2
f 29//1 65//1 64//1
f 65//1 29//1 75//1
f 75//1 29//1 46//1
f 46//1 29//1 47//1
f 47//5 29//5 28//5
f 47//3 28//3 56//3
f 76//5 6//5 8//5
f 6//5 76//5 19//5
f 72//1 76//1 8//1
f 76//1 72//1 77//1
f 77//1 78//1 76//1
f 78//1 77//1 79//1
f 25//4 64//4 29//4
f 64//4 25//4 26//4
f 31//1 80//1 33//1
f 80//1 31//1 59//1
f 59//1 31//1 81//1
f 81//1 31//1 14//1
f 14//5 31//5 63//5
f 14//5 63//5 12//5
f 40//6 44//6 13//6
f 44//6 40//6 82//6
f 16//3 49//3 17//3
f 49//3 16//3 83//3
f 14//4 43//4 11//4
f 43//4 14//4 81//4
f 44//3 31//3 32//3
f 31//3 44//3 63//3
f 72//4 6//4 34//4
f 6//4 72//4 8//4
f 4//2 60//2 56//2
f 60//2 4//2 84//2
f 70//5 27//5 71//5
f 27//5 70//5 30//5
f 49//1 70//1 71//1
f 70//1 49//1 83//1
f 80//4 16//4 18//4
f 16//4 80//4 83//4
f 41//5 82//5 85//5
f 82//5 41//5 40//5
f 62//3 57//3 58//3
f 57//3 62//3 86//3
f 85//4 44//4 82//4
f 44//4 85//4 63//4
f 68//5 41//5 87//5
f 41//5 68//5 40//5
f 40//5 68//5 67//5
f 60//6 28//6 56//6
f 28//6 60//6 30//6
f 37//3 79//3 39//3
f 79//3 37//3 88//3
f 42//6 16//6 58//6
f 16//6 42//6 18//6
f 80//5 15//5 33//5
f 15//5 80//5 18//5
f 25//2 27//2 29//2
f 27//2 25//2 71//2
f 71//2 25//2 89//2
f 71//2 89//2 90//2
f 53//6 22//6 54//6
f 22//6 53//6 23//6
f 55//1 91//1 92//1
f 91//1 55//1 93//1
f 4//1 48//1 2//1
f 48//1 4//1 45//1
f 84//5 30//5 70//5
f 30//5 84//5 60//5
f 94//5 35//5 78//5
f 35//5 94//5 36//5
f 7//1 23//1 95//1
f 23//1 7//1 53//1
f 53//1 7//1 20//1
f 53//1 96//1 97//1
f 96//1 53//1 20//1
f 96//3 20//3 98//3
f 54//3 24//3 22//3
f 24//3 54//3 52//3
f 28//3 25//3 29//3
f 1//3 25//3 28//3
f 75//6 38//6 39//6
f 38//6 75//6 65//6
f 48//4 37//4 46//4
f 37//4 48//4 88//4
f 88//4 48//4 99//4
f 88//4 99//4 100//4
f 101//5 60//5 84//5
f 60//5 101//5 61//5
f 5//4 95//4 7//4
f 95//4 5//4 102//4
f 103//5 104//5 105//5
f 104//5 103//5 82//5
f 82//4 103//4 85//4
f 95//1 22//1 106//1
f 22//1 95//1 23//1
f 107//3 108//3 109//3
f 108//3 107//3 110//3
f 39//3 77//3 38//3
f 77//3 39//3 79//3
f 111//2 107//2 112//2
f 107//2 111//2 110//2
f 69//4 81//4 14//4
f 81//4 69//4 113//4
f 83//1 84//1 70//1
f 84//1 83//1 57//1
f 22//3 114//3 106//3
f 114//3 22//3 115//3
f 115//2 22//2 24//2
f 76//1 93//1 116//1
f 93//1 76//1 78//1
f 59//5 18//5 80//5
f 18//5 59//5 42//5
f 116//1 55//1 21//1
f 55//1 116//1 93//1
f 5//1 21//1 102//1
f 21//1 5//1 116//1
f 51//2 31//2 33//2
f 31//2 51//2 117//2
f 48//5 75//5 2//5
f 75//5 48//5 46//5
f 85//1 12//1 63//1
f 12//1 85//1 41//1
f 111//5 118//5 119//5
f 118//5 111//5 112//5
f 74//2 25//2 26//2
f 25//2 74//2 89//2
f 90//2 49//2 71//2
f 49//2 90//2 50//2
f 21//1 52//1 24//1
f 52//1 21//1 55//1
f 100//4 94//4 88//4
f 94//4 100//4 120//4
f 56//3 1//3 28//3
f 1//3 56//3 4//3
f 10//2 72//2 8//2
f 72//2 10//2 73//2
f 20//3 5//3 7//3
f 5//3 20//3 116//3
f 114//2 95//2 106//2
f 95//2 114//2 102//2
f 102//2 114//2 121//2
f 119//1 114//1 111//1
f 114//1 119//1 108//1
f 114//1 108//1 121//1
f 121//1 108//1 9//1
f 9//1 108//1 10//1
f 10//1 108//1 73//1
f 73//1 108//1 74//1
f 74//1 108//1 89//1
f 89//1 108//1 90//1
f 90//1 108//1 50//1
f 50//1 108//1 51//1
f 51//1 108//1 117//1
f 117//1 108//1 105//1
f 105//1 108//1 103//1
f 103//1 108//1 87//1
f 87//1 108//1 68//1
f 111//1 122//1 110//1
f 122//1 111//1 114//1
f 122//2 114//2 115//2
f 122//5 115//5 123//5
f 110//1 122//1 124//1
f 110//1 124//1 125//1
f 110//1 125//1 120//1
f 110//1 120//1 100//1
f 110//1 100//1 99//1
f 110//1 99//1 126//1
f 110//1 126//1 127//1
f 110//1 127//1 128//1
f 110//1 128//1 113//1
f 110//1 113//1 69//1
f 110//1 69//1 68//1
f 110//1 68//1 108//1
f 121//2 5//2 102//2
f 5//2 121//2 9//2
f 125//4 92//4 91//4
f 92//4 125//4 124//4
f 78//5 19//5 76//5
f 19//5 78//5 35//5
f 75//1 37//1 39//1
f 37//1 75//1 46//1
f 53//1 129//1 54//1
f 129//1 53//1 97//1
f 126//4 48//4 45//4
f 48//4 126//4 99//4
f 58//3 83//3 16//3
f 83//3 58//3 57//3
f 101//4 47//4 61//4
f 47//4 101//4 45//4
f 45//4 101//4 127//4
f 45//4 127//4 126//4
f 60//1 47//1 56//1
f 47//1 60//1 61//1
f 81//5 42//5 59//5
f 42//5 81//5 43//5
f 3//1 79//1 77//1
f 79//1 3//1 2//1
f 35//1 96//1 98//1
f 96//1 35//1 36//1
f 92//4 129//4 97//4
f 129//4 92//4 122//4
f 122//4 92//4 124//4
f 94//4 96//4 36//4
f 96//4 94//4 91//4
f 91//4 94//4 120//4
f 91//4 120//4 125//4
f 42//1 62//1 58//1
f 62//1 42//1 43//1
f 91//4 97//4 96//4
f 97//4 91//4 92//4
f 1//1 70//1 4//1
f 4//1 70//1 84//1
f 98//3 116//3 20//3
f 116//3 98//3 93//3
f 96//3 93//3 98//3
f 93//3 96//3 91//3
f 92//5 53//5 55//5
f 53//5 92//5 97//5
f 79//2 75//2 39//2
f 75//2 79//2 2//2
f 98//6 19//6 20//6
f 19//6 98//6 35//6
f 129//3 52//3 54//3
f 52//3 129//3 123//3
f 123//3 129//3 122//3
f 38//3 72//3 34//3
f 72//3 38//3 77//3
f 2//5 65//5 3//5
f 65//5 2//5 75//5
f 81//4 62//4 43//4
f 62//4 81//4 86//4
f 86//4 81//4 113//4
f 86//4 113//4 128//4
f 88//4 36//4 37//4
f 36//4 88//4 94//4
f 3//4 38//4 65//4
f 38//4 3//4 77//4
f 21//5 95//5 102//5
f 95//5 21//5 23//5
f 52//3 115//3 24//3
f 115//3 52//3 123//3
f 128//4 101//4 86//4
f 101//4 128//4 127//4
f 87//5 85//5 103//5
f 85//5 87//5 41//5
f 93//2 35//2 98//2
f 35//2 93//2 78//2
f 57//1 101//1 84//1
f 101//1 57//1 86//1
f 86//4 61//4 62//4
f 61//4 86//4 101//4
f 80//1 57//1 83//1
f 57//1 80//1 59//1
f 55//5 23//5 21//5
f 23//5 55//5 53//5
f 31//2 104//2 32//2
f 104//2 31//2 105//2
f 105//2 31//2 117//2
f 76//4 20//4 19//4
f 20//4 76//4 116//4
f 104//1 44//1 32//1
f 44//1 104//1 82//1
f 79//1 94//1 78//1
f 94//1 79//1 88//1
f 108//4 118//4 109//4
f 118//4 108//4 119//4
f 107//6 118//6 112//6
f 118//6 107//6 109//6
