o G-__555600
v -11.932254 -2.182887 2.269422
v -11.947873 -2.181717 2.319422
v -11.947873 -2.181717 2.269422
v -11.932254 -2.182887 2.319422
v -11.968489 -2.072785 2.319422
v -11.954377 -2.065989 2.269422
v -11.968489 -2.072785 2.269422
v -11.954377 -2.065989 2.319422
v -11.885425 -2.090113 2.319422
v -11.878628 -2.104225 2.269422
v -11.885425 -2.090113 2.269422
v -11.878628 -2.104225 2.319422
v -12.014455 -2.127412 2.269422
v -12.012916 -2.106857 2.169422
v -12.014455 -2.127412 2.169422
v -12.012916 -2.106857 2.269422
v -11.967527 -2.210572 2.422422
v -11.979757 -2.207317 2.319422
v -11.967527 -2.210572 2.319422
v -11.979757 -2.207317 2.422422
v -11.919497 -2.045687 2.269422
v -11.940051 -2.044147 2.169422
v -11.940051 -2.044147 2.269422
v -11.919497 -2.045687 2.169422
v -11.960304 -2.047980 2.169422
v -11.960304 -2.047980 2.269422
v -11.858326 -2.139106 2.169422
v -11.865132 -2.158562 2.269422
v -11.865132 -2.158562 2.169422
v -11.858326 -2.139106 2.269422
v -11.942428 -2.213623 2.319422
v -11.955048 -2.212680 2.422422
v -11.955048 -2.212680 2.319422
v -11.942428 -2.213623 2.422422
v -11.931190 -2.201816 2.169422
v -11.951745 -2.200276 2.269422
v -11.951745 -2.200276 2.169422
v -11.931190 -2.201816 2.269422
v -11.962658 -2.176544 2.319422
v -11.975599 -2.167722 2.269422
v -11.962658 -2.176544 2.269422
v -11.975599 -2.167722 2.319422
v -11.989183 -2.095944 2.319422
v -11.980361 -2.083003 2.269422
v -11.989183 -2.095944 2.269422
v -11.980361 -2.083003 2.319422
v -12.010622 -2.147665 2.269422
v -12.010622 -2.147665 2.169422
v -11.900041 -2.052494 2.269422
v -11.883009 -2.064104 2.169422
v -11.900041 -2.052494 2.169422
v -11.883009 -2.064104 2.269422
v -11.859154 -2.188183 2.319422
v -11.869776 -2.195063 2.422422
v -11.869776 -2.195063 2.319422
v -11.859154 -2.188183 2.422422
v -11.859154 -2.188183 2.401822
v -11.985817 -2.155850 2.319422
v -11.992614 -2.141738 2.269422
v -11.985817 -2.155850 2.269422
v -11.992614 -2.141738 2.319422
v -11.994497 -2.070370 2.169422
v -11.978874 -2.056924 2.169422
v -12.006108 -2.087401 2.169422
v -12.001678 -2.166235 2.169422
v -11.869563 -2.079727 2.169422
v -11.988232 -2.181859 2.169422
v -11.860619 -2.098298 2.169422
v -11.971201 -2.193469 2.169422
v -11.856786 -2.118551 2.169422
v -11.910937 -2.197983 2.169422
v -11.876743 -2.175593 2.169422
v -11.892366 -2.189039 2.169422
v -11.917196 -2.211991 2.319422
v -11.929774 -2.213392 2.422422
v -11.929774 -2.213392 2.319422
v -11.917196 -2.211991 2.422422
v -12.006108 -2.087401 2.269422
v -11.860619 -2.098298 2.269422
v -11.856786 -2.118551 2.269422
v -11.995526 -2.126348 2.319422
v -11.994356 -2.110729 2.269422
v -11.995526 -2.126348 2.269422
v -11.994356 -2.110729 2.319422
v -11.971201 -2.193469 2.269422
v -11.988232 -2.181859 2.269422
v -12.001678 -2.166235 2.269422
v -11.916863 -2.179974 2.269422
v -11.902752 -2.173178 2.269422
v -11.910937 -2.197983 2.269422
v -11.876743 -2.175593 2.269422
v -11.892366 -2.189039 2.269422
v -11.994497 -2.070370 2.269422
v -11.978874 -2.056924 2.269422
v -11.938987 -2.063076 2.269422
v -11.923368 -2.064246 2.269422
v -11.908584 -2.069418 2.269422
v -11.895641 -2.078241 2.269422
v -11.869563 -2.079727 2.269422
v -11.875715 -2.119615 2.269422
v -11.876884 -2.135234 2.269422
v -11.882057 -2.150019 2.269422
v -11.890881 -2.162961 2.269422
v -11.916863 -2.179974 2.319422
v -11.908584 -2.069418 2.319422
v -11.895641 -2.078241 2.319422
v -12.003053 -2.197488 2.422422
v -12.053568 -1.416323 2.401822
v -12.003053 -2.197488 2.401822
v -12.053568 -1.416323 2.422422
v -11.875715 -2.119615 2.319422
v -11.909670 -1.407018 2.319422
v -11.909670 -1.407018 2.401822
v -12.042946 -1.409443 2.422422
v -12.031733 -1.403576 2.422422
v -12.020023 -1.398773 2.422422
v -12.007920 -1.395075 2.422422
v -11.995526 -1.392515 2.422422
v -11.982948 -1.391113 2.422422
v -11.970295 -1.390883 2.422422
v -11.957674 -1.391826 2.422422
v -11.945195 -1.393934 2.422422
v -11.932965 -1.397189 2.422422
v -11.921089 -1.401563 2.422422
v -11.909670 -1.407018 2.422422
v -11.991633 -2.202943 2.422422
v -11.904802 -2.209431 2.422422
v -11.892698 -2.205733 2.422422
v -11.880989 -2.200930 2.422422
v -11.938987 -2.063076 2.319422
v -11.923368 -2.064246 2.319422
v -11.880989 -2.200930 2.319422
v -11.904802 -2.209431 2.319422
v -12.053568 -1.416323 2.319422
v -12.003053 -2.197488 2.319422
v -11.892698 -2.205733 2.319422
v -11.902752 -2.173178 2.319422
v -11.890881 -2.162961 2.319422
v -11.991633 -2.202943 2.319422
v -11.882057 -2.150019 2.319422
v -11.876884 -2.135234 2.319422
v -12.020023 -1.398773 2.319422
v -12.031733 -1.403576 2.319422
v -11.921089 -1.401563 2.319422
v -11.982948 -1.391113 2.319422
v -11.995526 -1.392515 2.319422
v -12.042946 -1.409443 2.319422
v -12.007920 -1.395075 2.319422
v -11.970295 -1.390883 2.319422
v -11.957674 -1.391826 2.319422
v -11.945195 -1.393934 2.319422
v -11.932965 -1.397189 2.319422
vn 0.0553 -0.9846 0.1658
vn -0.1379 -0.6609 -0.7377
vn -0.2014 -0.9654 0.1658
vn 0.0379 -0.6741 -0.7377
vn -0.3698 0.5648 -0.7377
vn -0.3083 0.9367 0.1658
vn -0.5402 0.8250 0.1658
vn -0.2111 0.6413 -0.7377
vn 0.5648 0.3698 -0.7377
vn 0.9367 0.3083 0.1658
vn 0.8250 0.5402 0.1658
vn 0.6413 0.2111 -0.7377
vn -0.7331 -0.0412 0.6789
vn -0.7188 0.1499 -0.6789
vn -0.7331 -0.0412 -0.6789
vn -0.7188 0.1499 0.6789
vn -0.1521 -0.7009 0.6968
vn -0.2164 -0.6838 -0.6968
vn -0.1521 -0.7009 -0.6968
vn -0.2164 -0.6838 0.6968
vn 0.1499 0.7188 0.6789
vn -0.0412 0.7331 -0.6789
vn -0.0412 0.7331 0.6789
vn 0.1499 0.7188 -0.6789
vn -0.2295 0.6975 -0.6789
vn -0.2295 0.6975 0.6789
vn 0.7188 -0.1499 -0.6789
vn 0.6555 -0.3309 0.6789
vn 0.6555 -0.3309 -0.6789
vn 0.7188 -0.1499 0.6789
vn -0.0202 -0.7170 -0.6968
vn -0.0865 -0.7120 0.6968
vn -0.0865 -0.7120 -0.6968
vn -0.0202 -0.7170 0.6968
vn 0.0412 -0.7331 -0.6789
vn -0.1499 -0.7188 0.6789
vn -0.1499 -0.7188 -0.6789
vn 0.0412 -0.7331 0.6789
vn -0.3042 -0.6027 -0.7377
vn -0.6571 -0.7354 0.1658
vn -0.4444 -0.8804 0.1658
vn -0.4498 -0.5034 -0.7377
vn -0.6027 0.3042 -0.7377
vn -0.7353 0.6571 0.1658
vn -0.8804 0.4444 0.1658
vn -0.5034 0.4498 -0.7377
vn -0.6975 -0.2295 0.6789
vn -0.6975 -0.2295 -0.6789
vn 0.3309 0.6555 0.6789
vn 0.4892 0.5475 -0.6789
vn 0.3309 0.6555 -0.6789
vn 0.4892 0.5475 0.6789
vn 0.7087 -0.3562 -0.6090
vn 0.3616 -0.6194 0.6968
vn 0.3616 -0.6194 -0.6968
vn 0.7086 -0.3562 0.6090
vn 0.3626 -0.9319 -0.0000
vn -0.5648 -0.3698 -0.7377
vn -0.9367 -0.3083 0.1658
vn -0.8250 -0.5402 0.1658
vn -0.6413 -0.2111 -0.7377
vn -0.0000 -0.0000 -1.0000
vn 0.1124 -0.7084 -0.6968
vn 0.0463 -0.7158 0.6968
vn 0.0463 -0.7158 -0.6968
vn 0.1124 -0.7084 0.6968
vn -0.6555 0.3309 0.6789
vn -0.6555 0.3309 -0.6789
vn 0.6975 0.2295 0.6789
vn 0.7331 0.0412 -0.6789
vn 0.6975 0.2295 -0.6789
vn 0.7331 0.0412 0.6789
vn -0.6741 -0.0379 -0.7377
vn -0.9654 0.2014 0.1658
vn -0.9846 -0.0553 0.1658
vn -0.6609 0.1379 -0.7377
vn -0.3309 -0.6555 0.6789
vn -0.4892 -0.5475 -0.6789
vn -0.3309 -0.6555 -0.6789
vn -0.4892 -0.5475 0.6789
vn -0.0000 -0.0000 1.0000
vn 0.6143 0.4022 -0.6789
vn 0.6143 0.4022 0.6789
vn 0.3083 -0.9367 0.1658
vn 0.2111 -0.6413 -0.7377
vn 0.3042 0.6027 -0.7377
vn 0.6571 0.7354 0.1658
vn 0.4444 0.8804 0.1658
vn 0.4498 0.5034 -0.7377
vn -0.9979 -0.0645 -0.0000
vn -0.5475 0.4892 0.6789
vn -0.5475 0.4892 -0.6789
vn 0.5475 -0.4892 -0.6789
vn 0.4022 -0.6143 0.6789
vn 0.4022 -0.6143 -0.6789
vn 0.5475 -0.4892 0.6789
vn 0.9846 0.0553 0.1658
vn 0.6741 0.0379 -0.7377
vn 0.2295 -0.6975 0.6789
vn 0.2295 -0.6975 -0.6789
vn 0.9979 0.0645 -0.0000
vn -0.0379 0.6741 -0.7377
vn 0.2014 0.9654 0.1658
vn -0.0553 0.9846 0.1658
vn 0.1379 0.6609 -0.7377
vn 0.3027 -0.6503 0.6968
vn 0.3027 -0.6503 -0.6968
vn 0.1775 -0.6949 -0.6968
vn 0.1775 -0.6949 0.6968
vn -0.4022 0.6143 0.6789
vn -0.4022 0.6143 -0.6789
vn 0.2411 -0.6755 0.6968
vn 0.2411 -0.6755 -0.6968
vn -0.6143 -0.4022 -0.6789
vn -0.6143 -0.4022 0.6789
vn 0.7354 -0.6571 0.1658
vn 0.3698 -0.5648 -0.7377
vn 0.5402 -0.8250 0.1658
vn 0.5034 -0.4499 -0.7377
vn -0.2788 -0.6608 -0.6968
vn -0.8282 -0.5604 -0.0000
vn -0.6569 -0.4445 -0.6090
vn -0.2788 -0.6608 0.6968
vn -0.6569 -0.4445 0.6090
vn 0.9654 -0.2014 0.1658
vn 0.6027 -0.3042 -0.7377
vn 0.8804 -0.4444 0.1658
vn 0.6609 -0.1379 -0.7377
vn -0.3027 0.6503 0.6968
vn -0.2411 0.6755 -0.6968
vn -0.3027 0.6503 -0.6968
vn -0.2411 0.6755 0.6968
vn 0.2788 0.6608 0.6968
vn 0.6569 0.4445 -0.6090
vn 0.2788 0.6608 -0.6968
vn 0.8282 0.5604 -0.0000
vn 0.6569 0.4445 0.6090
vn -0.1124 0.7084 0.6968
vn -0.0463 0.7158 -0.6968
vn -0.1124 0.7084 -0.6968
vn -0.0463 0.7158 0.6968
vn -0.3616 0.6194 0.6968
vn -0.3616 0.6194 -0.6968
vn -0.8935 0.4491 -0.0000
vn -0.7087 0.3562 0.6090
vn -0.7087 0.3562 -0.6090
vn 0.0865 0.7120 0.6968
vn 0.0202 0.7170 -0.6968
vn 0.0202 0.7170 0.6968
vn 0.0865 0.7120 -0.6968
vn 0.1521 0.7009 0.6968
vn 0.2164 0.6838 -0.6968
vn 0.1521 0.7009 -0.6968
vn 0.2164 0.6838 0.6968
vn -0.1775 0.6949 0.6968
vn -0.1775 0.6949 -0.6968
s 1
s 0
s 1
s 0
s 1
s 0
s 1
s 0
s 1
s 0
s 1
s 0
s 1
s 0
s 1
s 0
s 1
usemtl Material
f 1//1 2//2 3//3
f 2//2 1//1 4//4
f 5//5 6//6 7//7
f 6//6 5//5 8//8
f 9//9 10//10 11//11
f 10//10 9//9 12//12
f 13//13 14//14 15//15
f 14//14 13//13 16//16
f 17//17 18//18 19//19
f 18//18 17//17 20//20
f 21//21 22//22 23//23
f 22//22 21//21 24//24
f 23//23 25//25 26//26
f 25//25 23//23 22//22
f 27//27 28//28 29//29
f 28//28 27//27 30//30
f 31//31 32//32 33//33
f 32//32 31//31 34//34
f 35//35 36//36 37//37
f 36//36 35//35 38//38
f 39//39 40//40 41//41
f 40//40 39//39 42//42
f 43//43 44//44 45//45
f 44//44 43//43 46//46
f 47//47 15//15 48//48
f 15//15 47//47 13//13
f 49//49 50//50 51//51
f 50//50 49//49 52//52
f 53//53 54//54 55//55
f 54//54 53//53 56//56
f 56//56 53//53 57//57
f 58//58 59//59 60//60
f 59//59 58//58 61//61
f 25//62 62//62 63//62
f 62//62 25//62 64//62
f 64//62 25//62 22//62
f 64//62 22//62 14//62
f 14//62 22//62 24//62
f 14//62 24//62 15//62
f 15//62 24//62 51//62
f 15//62 51//62 48//62
f 48//62 51//62 50//62
f 48//62 50//62 65//62
f 65//62 50//62 66//62
f 65//62 66//62 67//62
f 67//62 66//62 68//62
f 67//62 68//62 69//62
f 69//62 68//62 70//62
f 69//62 70//62 37//62
f 37//62 70//62 27//62
f 37//62 27//62 35//62
f 35//62 27//62 29//62
f 35//62 29//62 71//62
f 71//62 29//62 72//62
f 71//62 72//62 73//62
f 74//63 75//64 76//65
f 75//64 74//63 77//66
f 78//67 14//14 16//16
f 14//14 78//67 64//68
f 79//69 70//70 68//71
f 70//70 79//69 80//72
f 81//73 82//74 83//75
f 82//74 81//73 84//76
f 46//46 7//7 44//44
f 7//7 46//46 5//5
f 85//77 67//78 69//79
f 67//78 85//77 86//80
f 16//81 44//81 7//81
f 44//81 16//81 13//81
f 44//81 13//81 45//81
f 45//81 13//81 82//81
f 82//81 13//81 83//81
f 83//81 13//81 47//81
f 83//81 47//81 59//81
f 59//81 47//81 87//81
f 59//81 87//81 60//81
f 60//81 87//81 86//81
f 60//81 86//81 40//81
f 40//81 86//81 41//81
f 41//81 86//81 85//81
f 41//81 85//81 3//81
f 3//81 85//81 36//81
f 1//81 3//81 36//81
f 1//81 36//81 88//81
f 88//81 36//81 38//81
f 88//81 38//81 89//81
f 89//81 38//81 30//81
f 30//81 38//81 28//81
f 28//81 38//81 90//81
f 28//81 90//81 91//81
f 91//81 90//81 92//81
f 93//81 26//81 94//81
f 26//81 93//81 78//81
f 26//81 78//81 23//81
f 23//81 78//81 16//81
f 23//81 16//81 7//81
f 23//81 7//81 21//81
f 21//81 7//81 6//81
f 21//81 6//81 95//81
f 21//81 95//81 49//81
f 49//81 95//81 96//81
f 49//81 96//81 97//81
f 49//81 97//81 52//81
f 52//81 97//81 98//81
f 52//81 98//81 99//81
f 99//81 98//81 11//81
f 99//81 11//81 10//81
f 99//81 10//81 79//81
f 79//81 10//81 100//81
f 79//81 100//81 80//81
f 80//81 100//81 101//81
f 80//81 101//81 30//81
f 30//81 101//81 102//81
f 30//81 102//81 103//81
f 30//81 103//81 89//81
f 52//52 66//82 50//50
f 66//82 52//52 99//83
f 1//1 88//84 4//4
f 4//4 88//84 104//85
f 84//76 45//45 82//74
f 45//45 84//76 43//43
f 105//86 98//87 97//88
f 98//87 105//86 106//89
f 36//36 69//79 37//37
f 69//79 36//36 85//77
f 107//90 108//90 109//90
f 108//90 107//90 110//90
f 93//91 64//68 78//67
f 64//68 93//91 62//92
f 72//93 92//94 73//95
f 92//94 72//93 91//96
f 12//12 100//97 10//10
f 100//97 12//12 111//98
f 73//95 90//99 71//100
f 90//99 73//95 92//94
f 112//101 57//101 53//101
f 57//101 112//101 113//101
f 76//65 34//34 31//31
f 34//34 76//65 75//64
f 107//81 114//81 110//81
f 114//81 107//81 115//81
f 115//81 107//81 116//81
f 116//81 107//81 117//81
f 117//81 107//81 118//81
f 118//81 107//81 119//81
f 119//81 107//81 120//81
f 120//81 107//81 121//81
f 121//81 107//81 122//81
f 122//81 107//81 123//81
f 123//81 107//81 124//81
f 124//81 107//81 125//81
f 125//81 107//81 56//81
f 56//81 107//81 126//81
f 56//81 126//81 20//81
f 56//81 20//81 17//81
f 56//81 17//81 32//81
f 56//81 32//81 34//81
f 56//81 34//81 75//81
f 56//81 75//81 77//81
f 56//81 77//81 127//81
f 56//81 127//81 128//81
f 56//81 128//81 129//81
f 56//81 129//81 54//81
f 130//102 96//103 95//104
f 96//103 130//102 131//105
f 55//55 129//106 132//107
f 129//106 55//55 54//54
f 42//42 60//60 40//40
f 60//60 42//42 58//58
f 133//108 77//66 74//63
f 77//66 133//108 127//109
f 61//61 83//75 59//59
f 83//75 61//61 81//73
f 94//110 62//92 93//91
f 62//92 94//110 63//111
f 71//100 38//38 35//35
f 38//38 71//100 90//99
f 32//32 19//19 33//33
f 19//19 32//32 17//17
f 109//90 134//90 135//90
f 134//90 109//90 108//90
f 132//107 128//112 136//113
f 128//112 132//107 129//106
f 99//83 68//71 66//82
f 68//71 99//83 79//69
f 2//2 41//41 3//3
f 41//41 2//2 39//39
f 136//113 127//109 133//108
f 127//109 136//113 128//112
f 86//80 65//114 67//78
f 65//114 86//80 87//115
f 87//115 48//48 65//114
f 48//48 87//115 47//47
f 103//116 137//117 89//118
f 137//117 103//116 138//119
f 139//120 109//121 135//122
f 109//121 139//120 126//123
f 109//121 126//123 107//124
f 20//20 139//120 18//18
f 139//120 20//20 126//123
f 26//26 63//111 94//110
f 63//111 26//26 25//25
f 6//62 44//62 7//62
f 44//62 6//62 45//62
f 45//62 6//62 95//62
f 45//62 95//62 82//62
f 82//62 95//62 96//62
f 82//62 96//62 83//62
f 83//62 96//62 97//62
f 83//62 97//62 59//62
f 59//62 97//62 98//62
f 59//62 98//62 60//62
f 60//62 98//62 11//62
f 60//62 11//62 40//62
f 40//62 11//62 10//62
f 40//62 10//62 41//62
f 41//62 10//62 100//62
f 41//62 100//62 3//62
f 3//62 100//62 101//62
f 1//62 3//62 101//62
f 1//62 101//62 102//62
f 1//62 102//62 88//62
f 88//62 102//62 103//62
f 88//62 103//62 89//62
f 125//101 57//101 113//101
f 57//101 125//101 56//101
f 101//125 140//126 102//127
f 140//126 101//125 141//128
f 89//118 104//85 88//84
f 104//85 89//118 137//117
f 80//72 27//27 70//70
f 27//27 80//72 30//30
f 8//8 95//104 6//6
f 95//104 8//8 130//102
f 111//98 101//125 100//97
f 101//125 111//98 141//128
f 29//29 91//96 72//93
f 91//96 29//29 28//28
f 96//103 105//86 97//88
f 105//86 96//103 131//105
f 102//127 138//119 103//116
f 138//119 102//127 140//126
f 24//24 49//49 51//51
f 49//49 24//24 21//21
f 106//89 11//11 98//87
f 11//11 106//89 9//9
f 115//129 142//130 143//131
f 142//130 115//129 116//132
f 124//133 112//134 144//135
f 112//134 124//133 113//136
f 113//136 124//133 125//137
f 118//138 145//139 146//140
f 145//139 118//138 119//141
f 112//62 8//62 5//62
f 8//62 112//62 130//62
f 130//62 112//62 131//62
f 131//62 112//62 105//62
f 105//62 112//62 106//62
f 106//62 112//62 9//62
f 9//62 112//62 12//62
f 12//62 112//62 53//62
f 12//62 53//62 111//62
f 111//62 53//62 141//62
f 141//62 53//62 140//62
f 140//62 53//62 138//62
f 138//62 53//62 137//62
f 137//62 53//62 31//62
f 31//62 53//62 76//62
f 76//62 53//62 74//62
f 74//62 53//62 133//62
f 133//62 53//62 136//62
f 136//62 53//62 132//62
f 132//62 53//62 55//62
f 147//62 135//62 134//62
f 135//62 147//62 143//62
f 135//62 143//62 142//62
f 135//62 142//62 148//62
f 135//62 148//62 146//62
f 135//62 146//62 145//62
f 135//62 145//62 149//62
f 135//62 149//62 150//62
f 135//62 150//62 151//62
f 135//62 151//62 152//62
f 135//62 152//62 84//62
f 84//62 152//62 144//62
f 84//62 144//62 112//62
f 84//62 112//62 43//62
f 43//62 112//62 46//62
f 46//62 112//62 5//62
f 135//62 84//62 81//62
f 135//62 81//62 61//62
f 135//62 61//62 58//62
f 135//62 58//62 42//62
f 135//62 42//62 39//62
f 135//62 39//62 139//62
f 139//62 39//62 2//62
f 139//62 2//62 18//62
f 18//62 2//62 19//62
f 19//62 2//62 4//62
f 19//62 4//62 33//62
f 33//62 4//62 104//62
f 33//62 104//62 137//62
f 33//62 137//62 31//62
f 114//142 143//131 147//143
f 143//131 114//142 115//129
f 114//142 108//144 110//145
f 108//144 114//142 147//143
f 147//143 134//146 108//144
f 121//147 149//148 120//149
f 149//148 121//147 150//150
f 119//141 149//148 145//139
f 149//148 119//141 120//149
f 122//151 152//152 151//153
f 152//152 122//151 123//154
f 121//147 151//153 150//150
f 151//153 121//147 122//151
f 117//155 146//140 148//156
f 146//140 117//155 118//138
f 123//154 144//135 152//152
f 144//135 123//154 124//133
f 116//132 148//156 142//130
f 148//156 116//132 117//155
