o G-__555978
v -5.660141 -7.500082 3.612118
v -15.660141 -7.500082 -0.000000
v -5.660141 -7.500082 -0.000000
v -15.660141 -7.500082 3.612118
v -15.660142 0.499918 3.612118
v -15.660142 0.499918 -0.000000
v -15.510464 -7.350405 2.056059
v -5.809818 -7.350405 1.956059
v -15.510464 -7.350405 1.956059
v -5.809818 -7.350405 2.056059
v -15.510465 0.349917 1.956059
v -15.510465 0.349917 2.056059
v -15.510464 -7.350405 2.356059
v -5.809818 -7.350405 2.356059
v -15.510465 0.349917 2.356059
v -15.510464 -7.350405 2.456059
v -5.809818 -7.350405 2.456059
v -15.510465 0.349917 2.456059
v -5.660142 0.499918 -0.000000
v -5.660141 -3.275243 0.100000
v -5.660142 0.499918 0.100000
v -5.660141 -3.275243 3.612118
v -15.510465 0.499918 0.100000
v -15.510465 0.499918 3.612118
v -7.959818 0.499918 0.100000
v -7.809819 0.499918 0.100000
v -15.510465 0.349917 0.100000
v -15.510465 0.349917 3.612118
v -15.510464 -7.350405 0.100000
v -5.809818 -7.350405 0.100000
v -7.959818 0.349918 0.100000
v -5.809818 -3.425243 1.956059
v -5.809818 -3.425243 0.100000
v -15.510464 -7.350405 3.612118
v -5.809818 -7.350405 3.612118
v -7.809819 0.499918 3.612118
v -7.959818 0.499918 3.612118
v -7.809819 -3.275243 3.612118
v -5.809818 -3.425243 3.612118
v -7.959818 -3.425243 3.612118
v -5.809818 -3.275243 0.100000
v -7.809819 -3.275243 0.100000
v -5.809818 -3.425243 2.056059
v -7.959818 -3.425243 1.956059
v -7.959818 -3.425243 2.056059
v -7.959818 0.499918 2.056059
v -7.959818 -0.446668 1.956059
v -7.959818 -0.446668 2.056059
v -7.959818 0.499918 1.956059
v -7.769819 -0.556372 0.100000
v -7.999818 -0.446668 0.100000
v -7.999818 -0.556372 0.100000
v -7.959818 -0.446668 0.100000
v -7.809819 -0.446668 0.100000
v -7.769819 -0.446668 0.100000
v -7.809819 0.349918 0.100000
v -7.959818 -2.478657 0.100000
v -7.999818 -2.478657 0.100000
v -7.959818 -3.425243 0.100000
v -7.809819 -3.425243 0.100000
v -7.809819 -2.478657 0.100000
v -7.769819 -2.478657 0.100000
v -7.769819 -2.368953 0.100000
v -5.809819 0.349918 0.100000
v -5.809819 -0.649759 0.100000
v -7.999818 -2.368953 0.100000
v -7.769819 -0.556372 2.350000
v -7.999818 -0.556372 2.350000
v -7.999818 -2.368953 2.350000
v -7.769819 -2.368953 2.350000
v -7.959818 0.499918 2.356059
v -7.959818 0.499918 2.456059
v -7.809819 -0.446668 2.459704
v -7.809819 -2.478657 2.459704
v -7.769819 -2.478657 2.459704
v -7.769819 -0.446668 2.459704
v -7.999818 -2.478657 2.456059
v -7.999818 -0.446668 2.456059
v -7.959818 -2.478657 1.956059
v -7.959818 -2.478657 2.056059
v -7.959818 -2.478657 2.356059
v -7.959818 -2.478657 2.456059
v -7.959818 -0.446668 2.456059
v -7.959818 -0.446668 2.356059
v -5.809818 -3.425243 2.456059
v -5.809818 -3.425243 2.356059
v -7.959818 -3.425243 2.356059
v -7.959818 -3.425243 2.456059
vn -0.0000 -1.0000 -0.0000
vn -1.0000 -0.0000 -0.0000
vn -0.0000 1.0000 -0.0000
vn 1.0000 -0.0000 -0.0000
vn -0.0000 -0.0000 -1.0000
vn -0.0000 -0.0000 1.0000
s 0
usemtl Material
f 1//1 2//1 3//1
f 2//1 1//1 4//1
f 5//2 2//2 4//2
f 2//2 5//2 6//2
f 13//3 10//3 7//3
f 10//3 13//3 14//3
f 12//4 13//4 7//4
f 13//4 12//4 15//4
f 19//5 2//5 6//5
f 2//5 19//5 3//5
f 1//4 3//4 20//4
f 20//4 3//4 19//4
f 20//4 19//4 21//4
f 22//4 1//4 20//4
f 6//3 23//3 19//3
f 23//3 6//3 5//3
f 23//3 5//3 24//3
f 23//3 21//3 19//3
f 21//6 23//6 25//6
f 21//6 25//6 26//6
f 23//4 11//4 27//4
f 11//4 23//4 12//4
f 12//4 23//4 15//4
f 15//4 23//4 18//4
f 18//4 23//4 28//4
f 28//4 23//4 24//4
f 31//6 23//6 27//6
f 23//6 31//6 25//6
f 36//6 37//6 38//6
f 4//6 34//6 5//6
f 1//6 34//6 4//6
f 34//6 1//6 35//6
f 35//6 1//6 39//6
f 40//6 38//6 37//6
f 38//6 40//6 39//6
f 38//6 39//6 22//6
f 1//6 22//6 39//6
f 34//6 24//6 5//6
f 24//6 34//6 28//6
f 50//6 51//6 52//6
f 51//6 50//6 53//6
f 53//6 50//6 54//6
f 53//6 54//6 31//6
f 54//6 50//6 55//6
f 56//6 31//6 54//6
f 60//6 57//6 59//6
f 57//6 66//6 58//6
f 66//6 57//6 63//6
f 63//6 57//6 61//6
f 61//6 57//6 60//6
f 61//2 60//2 42//2
f 63//6 61//6 62//6
f 49//3 26//3 25//3
f 26//3 49//3 36//3
f 36//3 49//3 46//3
f 36//3 46//3 71//3
f 36//3 71//3 72//3
f 36//3 72//3 37//3
f 56//6 25//6 31//6
f 25//6 56//6 26//6
f 20//6 65//6 41//6
f 65//6 20//6 64//6
f 64//6 26//6 56//6
f 26//6 64//6 21//6
f 21//6 64//6 20//6
f 75//1 61//1 62//1
f 61//1 75//1 74//1
f 86//2 10//2 14//2
f 10//2 86//2 43//2
f 86//1 45//1 43//1
f 45//1 86//1 87//1
f 81//2 45//2 87//2
f 45//2 81//2 80//2
f 71//2 48//2 84//2
f 48//2 71//2 46//2
