o G-__555978
v -5.660141 -7.500082 3.612118
v -15.660141 -7.500082 -0.000000
v -5.660141 -7.500082 -0.000000
v -15.660141 -7.500082 3.612118
v -15.660142 0.499918 3.612118
v -15.660142 0.499918 -0.000000
v -15.510464 -7.350405 2.056059
v -5.809818 -7.350405 1.956059
v -15.510464 -7.350405 1.956059
v -5.809818 -7.350405 2.056059
v -15.510465 0.349917 1.956059
v -15.510465 0.349917 2.056059
v -15.510464 -7.350405 2.356059
v -5.809818 -7.350405 2.356059
v -15.510465 0.349917 2.356059
v -15.510464 -7.350405 2.456059
v -5.809818 -7.350405 2.456059
v -15.510465 0.349917 2.456059
v -5.660142 0.499918 -0.000000
v -5.660141 -3.275243 0.100000
v -5.660142 0.499918 0.100000
v -5.660141 -3.275243 3.612118
v -15.510465 0.499918 0.100000
v -15.510465 0.499918 3.612118
v -7.959818 0.499918 0.100000
v -7.809819 0.499918 0.100000
v -15.510465 0.349917 0.100000
v -15.510465 0.349917 3.612118
v -15.510464 -7.350405 0.100000
v -5.809818 -7.350405 0.100000
v -7.959818 0.349918 0.100000
v -5.809818 -3.425243 1.956059
v -5.809818 -3.425243 0.100000
v -15.510464 -7.350405 3.612118
v -5.809818 -7.350405 3.612118
v -7.809819 0.499918 3.612118
v -7.959818 0.499918 3.612118
v -7.809819 -3.275243 3.612118
v -5.809818 -3.425243 3.612118
v -7.959818 -3.425243 3.612118
v -5.809818 -3.275243 0.100000
v -7.809819 -3.275243 0.100000
v -5.809818 -3.425243 2.056059
v -7.959818 -3.425243 1.956059
v -7.959818 -3.425243 2.056059
v -7.959818 0.499918 2.056059
v -7.959818 -0.446668 1.956059
v -7.959818 -0.446668 2.056059
v -7.959818 0.499918 1.956059
v -7.769819 -0.556372 0.100000
v -7.999818 -0.446668 0.100000
v -7.999818 -0.556372 0.100000
v -7.959818 -0.446668 0.100000
v -7.809819 -0.446668 0.100000
v -7.769819 -0.446668 0.100000
v -7.809819 0.349918 0.100000
v -7.959818 -2.478657 0.100000
v -7.999818 -2.478657 0.100000
v -7.959818 -3.425243 0.100000
v -7.809819 -3.425243 0.100000
v -7.809819 -2.478657 0.100000
v -7.769819 -2.478657 0.100000
v -7.769819 -2.368953 0.100000
v -5.809819 0.349918 0.100000
v -5.809819 -0.649759 0.100000
v -7.999818 -2.368953 0.100000
v -7.769819 -0.556372 2.350000
v -7.999818 -0.556372 2.350000
v -7.999818 -2.368953 2.350000
v -7.769819 -2.368953 2.350000
v -7.959818 0.499918 2.356059
v -7.959818 0.499918 2.456059
v -7.809819 -0.446668 2.459704
v -7.809819 -2.478657 2.459704
v -7.769819 -2.478657 2.459704
v -7.769819 -0.446668 2.459704
v -7.999818 -2.478657 2.456059
v -7.999818 -0.446668 2.456059
v -7.959818 -2.478657 1.956059
v -7.959818 -2.478657 2.056059
v -7.959818 -2.478657 2.356059
v -7.959818 -2.478657 2.456059
v -7.959818 -0.446668 2.456059
v -7.959818 -0.446668 2.356059
v -5.809818 -3.425243 2.456059
v -5.809818 -3.425243 2.356059
v -7.959818 -3.425243 2.356059
v -7.959818 -3.425243 2.456059
vn -0.0000 -1.0000 -0.0000
vn -1.0000 -0.0000 -0.0000
vn -0.0000 1.0000 -0.0000
vn 1.0000 -0.0000 -0.0000
vn -0.0000 -0.0000 -1.0000
vn -0.0000 -0.0000 1.0000
s 0
usemtl [Color_005]2
f 38//3 41//3 42//3
f 41//3 38//3 20//3
f 20//3 38//3 22//3
f 57//6 58//6 59//6
f 30//6 27//6 29//6
f 27//6 30//6 59//6
f 27//6 59//6 58//6
f 59//6 30//6 60//6
f 60//6 30//6 33//6
f 41//6 61//6 42//6
f 61//6 41//6 62//6
f 62//6 41//6 63//6
f 63//6 41//6 50//6
f 50//6 41//6 55//6
f 55//6 56//6 54//6
f 56//6 55//6 64//6
f 64//6 55//6 41//6
f 64//6 41//6 65//6
f 63//6 52//6 66//6
f 52//6 63//6 50//6
f 27//6 51//6 31//6
f 51//6 27//6 58//6
f 51//2 58//2 66//2
f 51//6 66//6 52//6
f 31//6 51//6 53//6
f 67//1 52//1 50//1
f 52//1 67//1 68//1
f 67//5 69//5 68//5
f 69//5 67//5 70//5
f 69//3 63//3 66//3
f 63//3 69//3 70//3
f 56//4 73//4 54//4
f 38//4 74//4 36//4
f 74//4 38//4 42//4
f 74//4 42//4 61//4
f 36//4 74//4 73//4
f 36//4 73//4 56//4
f 36//4 56//4 26//4
