o G-__556257
v -7.232625 -3.149761 1.156350
v -7.245326 -2.879400 1.297091
v -7.245326 -3.149761 1.156350
v -7.219925 -2.879400 1.297091
v -7.219925 -3.149761 1.156350
v -7.232625 -2.876468 1.291459
v -7.245326 -3.146829 1.150718
v -7.245326 -2.876468 1.291459
v -7.232625 -3.146829 1.150718
v -7.219925 -2.876468 1.291459
v -7.219925 -3.146829 1.150718
v -7.245326 -2.854000 1.297091
v -7.219925 -2.854000 1.297091
v -7.245326 -2.854000 1.291459
v -7.243360 -2.862358 1.291459
v -7.242249 -2.859678 1.291459
v -7.240483 -2.857376 1.291459
v -7.238182 -2.855610 1.291459
v -7.235502 -2.854500 1.291459
v -7.232625 -2.854000 1.291459
v -7.243738 -2.865234 1.291459
v -7.232625 -2.854121 1.291459
v -7.235502 -2.875968 1.291459
v -7.238182 -2.874857 1.291459
v -7.240483 -2.873091 1.291459
v -7.242249 -2.870790 1.291459
v -7.243360 -2.868110 1.291459
v -7.232625 -2.876346 1.291459
v -7.219925 -2.854000 1.291459
v -7.229749 -2.854500 1.291459
v -7.227069 -2.855610 1.291459
v -7.224768 -2.857376 1.291459
v -7.223002 -2.859678 1.291459
v -7.221892 -2.862358 1.291459
v -7.221513 -2.865234 1.291459
v -7.229749 -2.875968 1.291459
v -7.227069 -2.874857 1.291459
v -7.224768 -2.873091 1.291459
v -7.223002 -2.870790 1.291459
v -7.221892 -2.868110 1.291459
v -7.241813 -2.862772 1.280346
v -7.241813 -2.867696 1.280346
v -7.242137 -2.865234 1.280346
v -7.240862 -2.860478 1.280346
v -7.240862 -2.869989 1.280346
v -7.239351 -2.858508 1.280346
v -7.239351 -2.871959 1.280346
v -7.237381 -2.856997 1.280346
v -7.237381 -2.873471 1.280346
v -7.235087 -2.856047 1.280346
v -7.235087 -2.874421 1.280346
v -7.232625 -2.855722 1.280346
v -7.232625 -2.874745 1.280346
v -7.230164 -2.856047 1.280346
v -7.230164 -2.874421 1.280346
v -7.227870 -2.856997 1.280346
v -7.227870 -2.873471 1.280346
v -7.225900 -2.858508 1.280346
v -7.225900 -2.871959 1.280346
v -7.224389 -2.860478 1.280346
v -7.224389 -2.869989 1.280346
v -7.223438 -2.862772 1.280346
v -7.223438 -2.867696 1.280346
v -7.223114 -2.865234 1.280346
v -7.243360 -2.862358 1.278759
v -7.243360 -2.868110 1.278759
v -7.243738 -2.865234 1.278759
v -7.242249 -2.859678 1.278759
v -7.242249 -2.870790 1.278759
v -7.242137 -2.865234 1.278759
v -7.241813 -2.862772 1.278759
v -7.240483 -2.857376 1.278759
v -7.240862 -2.860478 1.278759
v -7.239351 -2.858508 1.278759
v -7.238182 -2.855610 1.278759
v -7.237381 -2.856997 1.278759
v -7.235502 -2.854500 1.278759
v -7.235087 -2.856047 1.278759
v -7.232625 -2.854121 1.278759
v -7.232625 -2.855722 1.278759
v -7.229749 -2.854500 1.278759
v -7.230164 -2.856047 1.278759
v -7.227870 -2.856997 1.278759
v -7.227069 -2.855610 1.278759
v -7.225900 -2.858508 1.278759
v -7.224768 -2.857376 1.278759
v -7.224389 -2.860478 1.278759
v -7.223002 -2.859678 1.278759
v -7.223438 -2.862772 1.278759
v -7.223114 -2.865234 1.278759
v -7.241813 -2.867696 1.278759
v -7.240483 -2.873091 1.278759
v -7.240862 -2.869989 1.278759
v -7.239351 -2.871959 1.278759
v -7.238182 -2.874857 1.278759
v -7.237381 -2.873471 1.278759
v -7.235502 -2.875968 1.278759
v -7.235087 -2.874421 1.278759
v -7.232625 -2.876346 1.278759
v -7.232625 -2.874745 1.278759
v -7.230164 -2.874421 1.278759
v -7.229749 -2.875968 1.278759
v -7.227870 -2.873471 1.278759
v -7.227069 -2.874857 1.278759
v -7.225900 -2.871959 1.278759
v -7.224768 -2.873091 1.278759
v -7.224389 -2.869989 1.278759
v -7.223002 -2.870790 1.278759
v -7.223438 -2.867696 1.278759
v -7.221892 -2.862358 1.278759
v -7.221892 -2.868110 1.278759
v -7.221513 -2.865234 1.278759
vn -0.0000 -0.9537 0.3007
vn -0.5789 0.1453 0.8024
vn -0.5774 -0.7787 0.2455
vn 0.5789 0.1453 0.8024
vn 0.5774 -0.7787 0.2455
vn -0.0000 0.6873 -0.7263
vn -0.5774 -0.2455 -0.7787
vn -0.7615 0.4455 -0.4708
vn -0.0000 -0.3007 -0.9537
vn 0.7615 0.4455 -0.4708
vn 0.5774 -0.2455 -0.7787
vn -0.0000 0.8870 0.4617
vn -0.0000 0.8870 0.4618
vn -0.0000 -0.8870 -0.4617
vn -0.5774 0.5773 0.5774
vn 0.5774 0.5774 0.5774
vn -0.5774 0.5773 -0.5773
vn -0.6521 0.1747 -0.7377
vn -0.5847 0.3376 -0.7377
vn -0.4774 0.4774 -0.7377
vn -0.3376 0.5847 -0.7377
vn -0.1747 0.6521 -0.7377
vn -0.0000 0.7071 -0.7071
vn -0.6748 -0.0000 -0.7380
vn -0.0000 0.6751 -0.7377
vn -0.1747 -0.6521 -0.7377
vn -0.3376 -0.5847 -0.7377
vn -0.4774 -0.4774 -0.7377
vn -0.5847 -0.3376 -0.7377
vn -0.6521 -0.1747 -0.7377
vn -0.0000 -0.6751 -0.7377
vn 0.5774 0.5773 -0.5773
vn 0.1747 0.6521 -0.7377
vn 0.3376 0.5847 -0.7377
vn 0.4774 0.4774 -0.7377
vn 0.5847 0.3376 -0.7377
vn 0.6521 0.1747 -0.7377
vn 0.6751 -0.0000 -0.7377
vn 0.1747 -0.6521 -0.7377
vn 0.3376 -0.5847 -0.7377
vn 0.4774 -0.4774 -0.7377
vn 0.5847 -0.3376 -0.7377
vn 0.6521 -0.1747 -0.7377
vn -0.0000 -0.0000 -1.0000
vn -0.7092 0.1900 -0.6789
vn -0.7092 -0.1900 -0.6789
vn -0.7343 -0.0000 -0.6789
vn -0.6359 0.3671 -0.6789
vn -0.6359 -0.3671 -0.6789
vn -0.5192 0.5192 -0.6789
vn -0.3671 0.6359 -0.6789
vn -0.1900 0.7092 -0.6789
vn -0.0000 0.7343 -0.6789
vn 0.1900 0.7092 -0.6789
vn 0.3671 0.6359 -0.6789
vn 0.5192 0.5192 -0.6789
vn 0.6359 0.3671 -0.6789
vn -0.6751 -0.0000 -0.7377
vn -0.5192 -0.5192 -0.6789
vn -0.3671 -0.6359 -0.6789
vn -0.1900 -0.7092 -0.6789
vn -0.0000 -0.7343 -0.6789
vn 0.1900 -0.7092 -0.6789
vn 0.3671 -0.6359 -0.6789
vn 0.5192 -0.5192 -0.6789
vn 0.6359 -0.3671 -0.6789
vn 0.7092 0.1900 -0.6789
vn 0.7092 -0.1900 -0.6789
vn 0.7343 -0.0000 -0.6789
s 1
s 0
s 1
s 0
s 1
s 0
usemtl Charcoal
f 41//44 42//44 43//44
f 42//44 41//44 44//44
f 42//44 44//44 45//44
f 45//44 44//44 46//44
f 45//44 46//44 47//44
f 47//44 46//44 48//44
f 47//44 48//44 49//44
f 49//44 48//44 50//44
f 49//44 50//44 51//44
f 51//44 50//44 52//44
f 51//44 52//44 53//44
f 53//44 52//44 54//44
f 53//44 54//44 55//44
f 55//44 54//44 56//44
f 55//44 56//44 57//44
f 57//44 56//44 58//44
f 57//44 58//44 59//44
f 59//44 58//44 60//44
f 59//44 60//44 61//44
f 61//44 60//44 62//44
f 61//44 62//44 63//44
f 63//44 62//44 64//44
