o G-__555807
v -12.957986 -6.880406 1.245000
v -12.917985 -6.920406 1.245000
v -12.917985 -6.880406 1.245000
v -12.957986 -6.920406 1.245000
v -12.957986 -6.860406 1.085000
v -12.957986 -6.920406 1.125000
v -12.957986 -6.920406 1.085000
v -12.957986 -6.880406 1.125000
v -12.957986 -6.860406 1.285000
v -12.957986 -6.920406 1.285000
v -12.917986 -6.920406 1.085000
v -12.917986 -6.860406 1.085000
v -12.887964 -6.920406 2.250000
v -12.887964 -6.940406 0.120000
v -12.887964 -6.940406 2.250000
v -12.887964 -6.920406 0.120000
v -12.988007 -6.940406 2.149958
v -13.517921 -6.940406 0.220042
v -12.988007 -6.940406 0.220042
v -13.517921 -6.940406 2.149958
v -12.917985 -6.860406 1.285000
v -12.917985 -6.920406 1.285000
v -13.617964 -6.920406 0.120000
v -13.617964 -6.940406 2.250000
v -13.617964 -6.940406 0.120000
v -13.617964 -6.920406 2.250000
v -12.988007 -6.920406 0.220042
v -13.517921 -6.920406 0.220042
v -13.517921 -6.920406 2.149958
v -12.988007 -6.920406 2.149958
v -12.917986 -6.880406 1.125000
v -12.917985 -6.920406 1.125000
vn -0.0000 -0.0000 -1.0000
vn -1.0000 -0.0000 -0.0000
vn 1.0000 -0.0000 -0.0000
vn -0.0000 1.0000 -0.0000
vn -0.0000 -0.0000 1.0000
vn -0.0000 -1.0000 -0.0000
s 0
usemtl [Color_004]1
f 1//1 3//1 2//1
f 2//1 4//1 1//1
f 5//2 7//2 6//2
f 6//2 8//2 5//2
f 1//2 5//2 8//2
f 1//2 9//2 5//2
f 1//2 4//2 10//2
f 10//2 9//2 1//2
f 5//1 12//1 11//1
f 11//1 7//1 5//1
f 13//3 15//3 14//3
f 14//3 16//3 13//3
f 10//5 22//5 21//5
f 21//5 9//5 10//5
f 23//2 25//2 24//2
f 24//2 26//2 23//2
f 18//5 19//5 27//5
f 27//5 28//5 18//5
f 29//1 30//1 17//1
f 17//1 20//1 29//1
f 29//3 20//3 18//3
f 18//3 28//3 29//3
f 23//1 16//1 14//1
f 14//1 25//1 23//1
f 1//6 8//6 31//6
f 31//6 3//6 1//6
f 21//3 22//3 2//3
f 2//3 3//3 21//3
f 3//3 31//3 21//3
f 31//3 32//3 11//3
f 11//3 12//3 31//3
f 12//3 21//3 31//3
f 16//4 23//4 27//4
f 27//4 11//4 16//4
f 11//4 13//4 16//4
f 11//4 32//4 13//4
f 32//4 2//4 13//4
f 32//4 6//4 2//4
f 2//4 22//4 13//4
f 22//4 10//4 13//4
f 10//4 30//4 13//4
f 30//4 29//4 13//4
f 23//4 26//4 28//4
f 28//4 27//4 23//4
f 26//4 29//4 28//4
f 26//4 13//4 29//4
f 27//4 30//4 7//4
f 7//4 11//4 27//4
f 30//4 6//4 7//4
f 30//4 4//4 6//4
f 4//4 2//4 6//4
f 30//4 10//4 4//4
f 19//2 17//2 30//2
f 30//2 27//2 19//2
f 24//5 15//5 13//5
f 13//5 26//5 24//5
f 21//4 12//4 5//4
f 5//4 9//4 21//4
f 25//6 14//6 18//6
f 18//6 24//6 25//6
f 18//6 20//6 24//6
f 20//6 17//6 24//6
f 14//6 15//6 19//6
f 19//6 18//6 14//6
f 15//6 17//6 19//6
f 15//6 24//6 17//6
f 6//5 32//5 31//5
f 31//5 8//5 6//5
