o G-__555735
v -15.040463 -6.117885 1.245000
v -15.080463 -6.157885 1.245000
v -15.040463 -6.157885 1.245000
v -15.080463 -6.117885 1.245000
v -15.020464 -6.117885 1.085000
v -15.080463 -6.117885 1.125000
v -15.080463 -6.117885 1.085000
v -15.040463 -6.117885 1.125000
v -15.020464 -6.117885 1.285000
v -15.080463 -6.117885 1.285000
v -15.080463 -6.157885 1.085000
v -15.020464 -6.157885 1.085000
v -15.080463 -6.187906 2.250000
v -15.100464 -6.187906 0.120000
v -15.100464 -6.187906 2.250000
v -15.080463 -6.187906 0.120000
v -15.100464 -6.087863 2.149958
v -15.100464 -5.557948 0.220043
v -15.100464 -6.087863 0.220042
v -15.100464 -5.557949 2.149958
v -15.020464 -6.157885 1.285000
v -15.080463 -6.157885 1.285000
v -15.080463 -5.457906 0.120000
v -15.100464 -5.457906 2.250000
v -15.100464 -5.457906 0.120000
v -15.080463 -5.457906 2.250000
v -15.080463 -6.087863 0.220042
v -15.080463 -5.557948 0.220043
v -15.080463 -5.557949 2.149958
v -15.080463 -6.087863 2.149958
v -15.040463 -6.157885 1.125000
v -15.080463 -6.157885 1.125000
vn -0.0000 -0.0000 -1.0000
vn -0.0000 1.0000 -0.0000
vn -0.0000 -1.0000 -0.0000
vn 1.0000 -0.0000 -0.0000
vn -0.0000 -0.0000 1.0000
vn -1.0000 -0.0000 -0.0000
s 0
usemtl [Translucent_Glass_Blue]
f 17//4 19//4 18//4
f 18//4 20//4 17//4
