o G-__555609
v -10.189772 -5.346840 3.185869
v -10.171483 -5.348011 3.183302
v -10.069396 -5.481002 3.185869
v -9.456816 -4.689196 2.988920
v -9.749766 -4.969626 3.069985
v -9.572796 -4.810557 3.022395
v -9.646868 -5.084309 3.069985
v -9.457800 -4.707377 2.991495
v -9.354620 -4.822373 2.991495
v -10.068584 -5.462693 3.183302
v -9.336439 -4.823358 2.988920
v -9.469616 -4.925553 3.022395
v -9.441957 -4.694412 2.987405
v -9.340019 -4.808023 2.987405
v -9.427618 -4.700975 2.986147
v -9.344996 -4.793059 2.986147
v -9.413922 -4.708830 2.985157
v -9.351326 -4.778595 2.985157
v -9.400987 -4.717908 2.984444
v -9.358953 -4.764754 2.984444
v -9.388923 -4.728132 2.984014
v -9.367815 -4.751657 2.984014
v -9.377833 -4.739414 2.983870
v -9.321404 -4.809867 3.089919
v -10.054360 -5.467512 3.286868
v -9.332532 -4.761733 3.111406
v -9.340160 -4.747892 3.110693
v -9.441780 -4.675706 3.089919
v -10.174737 -5.333350 3.286868
v -10.069712 -5.463705 3.175727
v -9.647996 -5.085321 3.062410
v -9.326202 -4.776197 3.112396
v -9.317645 -4.806495 3.115169
v -10.050602 -5.464139 3.312118
v -10.170979 -5.329978 3.312118
v -9.750895 -4.970638 3.062410
v -10.190900 -5.347852 3.178294
v -9.750083 -4.952330 3.049544
v -10.171734 -5.330656 3.049544
v -9.750083 -4.952330 3.059844
v -10.051357 -5.464817 3.049544
v -10.070523 -5.482014 3.178294
v -9.438022 -4.672333 3.115169
v -9.629706 -5.086492 3.059844
v -10.172610 -5.349022 3.175727
v -9.629706 -5.086492 3.049544
v -9.469616 -4.925553 2.988920
v -9.354620 -4.822373 2.988920
v -9.321226 -4.791161 3.113654
v -9.382193 -4.701046 3.110693
v -9.395128 -4.691967 3.111406
v -9.408825 -4.684113 3.112396
v -9.423163 -4.677549 3.113654
v -9.370129 -4.711270 3.110263
v -9.349022 -4.734794 3.110263
v -9.359039 -4.722551 3.110119
v -9.368378 -4.807040 2.988920
v -9.457800 -4.707377 2.988920
v -9.572796 -4.810557 2.988920
vn -0.1460 -0.1310 -0.9806
vn -0.1459 -0.1309 -0.9806
vn 0.6678 -0.7443 -0.0000
vn 0.1460 0.1310 0.9806
vn 0.5011 0.2719 -0.8215
vn 0.7367 0.3962 0.5480
vn 0.5332 0.2137 -0.8185
vn 0.7046 0.4544 0.5450
vn -0.6678 0.7443 -0.0000
vn 0.7633 0.3354 0.5522
vn 0.5598 0.1529 -0.8144
vn -0.7299 -0.6549 0.1961
vn 0.7299 0.6549 -0.1961
vn -0.7299 -0.6549 -0.1961
vn 0.7443 0.6678 -0.0000
vn -0.0000 -0.0000 -1.0000
vn 0.5808 0.0900 -0.8091
vn 0.9453 -0.3109 -0.0992
vn 0.6608 -0.3263 -0.6759
vn 0.8386 -0.1668 0.5185
vn 0.7842 0.2725 0.5575
vn 0.2700 0.5070 -0.8185
vn 0.5279 0.6514 0.5450
vn 0.3244 0.4689 -0.8215
vn 0.4735 0.6895 0.5480
vn 0.2125 0.5401 -0.8144
vn 0.4159 0.7226 0.5522
vn 0.1522 0.5676 -0.8091
vn 0.3556 0.7502 0.5575
vn -0.2531 0.6923 -0.6758
vn -0.0752 0.8517 0.5186
vn -0.4723 0.5263 0.7071
vn 0.5786 0.6084 0.5433
vn 0.3752 0.4259 -0.8233
vn 0.4639 0.3270 -0.8233
vn 0.6673 0.5095 0.5432
vn 0.6252 0.5610 0.5426
vn 0.4218 0.3785 -0.8239
vn 0.1459 0.1309 0.9806
vn -0.7443 -0.6678 -0.0000
vn -0.0000 -0.0000 1.0000
s 0
s 1
s 0
s 1
s 0
s 1
s 0
s 1
s 0
s 1
s 0
s 1
s 0
usemtl Material
f 1//1 2//1 3//1
f 2//1 1//1 4//1
f 2//1 4//1 5//1
f 5//1 4//1 6//1
f 5//1 6//1 7//1
f 6//1 4//1 8//1
f 8//1 4//1 9//1
f 3//1 10//1 11//1
f 10//1 3//1 2//1
f 11//1 10//1 7//1
f 11//1 7//1 12//1
f 12//1 7//1 6//1
f 11//1 12//1 9//1
f 11//1 9//1 4//1
f 11//1 4//1 13//1
f 11//1 13//1 14//1
f 14//1 13//1 15//1
f 14//1 15//1 16//1
f 16//1 15//1 17//1
f 16//1 17//1 18//1
f 18//1 17//1 19//1
f 18//1 19//1 20//1
f 20//1 19//1 21//1
f 20//1 21//1 22//1
f 22//2 21//2 23//2
f 24//3 3//3 11//3
f 3//3 24//3 25//3
f 7//4 2//4 10//4
f 2//4 7//4 5//4
f 20//5 26//6 18//7
f 26//6 20//5 27//8
f 1//9 28//9 4//9
f 28//9 1//9 29//9
f 7//3 30//3 31//3
f 30//3 7//3 10//3
f 18//7 32//10 16//11
f 32//10 18//7 26//6
f 33//3 25//3 24//3
f 25//3 33//3 34//3
f 35//12 25//12 34//12
f 25//12 35//12 29//12
f 29//12 3//12 25//12
f 1//12 3//12 29//12
f 36//13 7//13 31//13
f 7//13 36//13 5//13
f 37//9 38//9 39//9
f 38//9 37//9 40//9
f 37//14 41//14 42//14
f 41//14 37//14 39//14
f 29//9 43//9 28//9
f 43//9 29//9 35//9
f 42//4 30//4 37//4
f 30//4 42//4 44//4
f 30//4 44//4 31//4
f 31//4 44//4 36//4
f 37//4 45//4 40//4
f 45//4 37//4 30//4
f 40//4 45//4 36//4
f 40//4 36//4 44//4
f 45//9 5//9 36//9
f 5//9 45//9 2//9
f 38//15 44//15 46//15
f 44//15 38//15 40//15
f 9//3 47//3 48//3
f 47//3 9//3 12//3
f 38//16 41//16 39//16
f 41//16 38//16 46//16
f 14//17 24//18 11//19
f 24//18 14//17 33//20
f 33//20 14//17 49//21
f 16//11 49//21 14//17
f 49//21 16//11 32//10
f 44//3 41//3 46//3
f 41//3 44//3 42//3
f 2//12 30//12 10//12
f 30//12 2//12 45//12
f 17//22 50//23 19//24
f 50//23 17//22 51//25
f 15//26 51//25 17//22
f 51//25 15//26 52//27
f 13//28 52//27 15//26
f 52//27 13//28 53//29
f 4//30 53//29 13//28
f 53//29 4//30 43//31
f 43//31 4//30 28//32
f 19//24 54//33 21//34
f 54//33 19//24 50//23
f 22//35 27//8 20//5
f 27//8 22//35 55//36
f 8//1 12//1 6//1
f 12//1 8//1 9//1
f 21//34 56//37 23//38
f 56//37 21//34 54//33
f 33//4 35//4 34//4
f 35//4 33//4 43//4
f 43//4 33//4 49//4
f 43//4 49//4 53//4
f 53//4 49//4 32//4
f 53//4 32//4 52//4
f 52//4 32//4 26//4
f 52//39 26//39 51//39
f 51//4 26//4 27//4
f 51//4 27//4 50//4
f 50//4 27//4 55//4
f 50//39 55//39 54//39
f 54//4 55//4 56//4
f 23//38 55//36 22//35
f 55//36 23//38 56//37
f 57//15 9//15 48//15
f 9//15 57//15 8//15
f 8//15 57//15 58//15
f 6//40 47//40 12//40
f 47//40 6//40 59//40
f 6//9 58//9 59//9
f 58//9 6//9 8//9
f 58//16 47//16 59//16
f 47//16 58//16 48//16
f 48//41 58//41 57//41
