o G-__555807
v -12.957986 -6.880406 1.245000
v -12.917985 -6.920406 1.245000
v -12.917985 -6.880406 1.245000
v -12.957986 -6.920406 1.245000
v -12.957986 -6.860406 1.085000
v -12.957986 -6.920406 1.125000
v -12.957986 -6.920406 1.085000
v -12.957986 -6.880406 1.125000
v -12.957986 -6.860406 1.285000
v -12.957986 -6.920406 1.285000
v -12.917986 -6.920406 1.085000
v -12.917986 -6.860406 1.085000
v -12.887964 -6.920406 2.250000
v -12.887964 -6.940406 0.120000
v -12.887964 -6.940406 2.250000
v -12.887964 -6.920406 0.120000
v -12.988007 -6.940406 2.149958
v -13.517921 -6.940406 0.220042
v -12.988007 -6.940406 0.220042
v -13.517921 -6.940406 2.149958
v -12.917985 -6.860406 1.285000
v -12.917985 -6.920406 1.285000
v -13.617964 -6.920406 0.120000
v -13.617964 -6.940406 2.250000
v -13.617964 -6.940406 0.120000
v -13.617964 -6.920406 2.250000
v -12.988007 -6.920406 0.220042
v -13.517921 -6.920406 0.220042
v -13.517921 -6.920406 2.149958
v -12.988007 -6.920406 2.149958
v -12.917986 -6.880406 1.125000
v -12.917985 -6.920406 1.125000
vn -0.0000 -0.0000 -1.0000
vn -1.0000 -0.0000 -0.0000
vn 1.0000 -0.0000 -0.0000
vn -0.0000 1.0000 -0.0000
vn -0.0000 -0.0000 1.0000
vn -0.0000 -1.0000 -0.0000
s 0
usemtl [Translucent_Glass_Blue]
f 17//4 19//4 18//4
f 18//4 20//4 17//4
