o G-__556023
v -13.370571 -3.731933 1.004989
v -13.370571 -4.149630 0.994989
v -13.370571 -3.731933 0.994989
v -13.370571 -4.149630 1.004989
v -13.797009 -4.149630 1.004989
v -13.797009 -3.731933 1.004989
v -13.380570 -4.149630 0.994989
v -13.380570 -4.149630 0.984989
v -13.390571 -4.149630 0.984989
v -13.390571 -4.149630 0.824989
v -13.390571 -4.149630 0.814989
v -13.390571 -4.149630 0.654989
v -13.390571 -4.149630 0.644989
v -13.390571 -4.149630 0.405297
v -13.797009 -4.149630 0.405297
v -13.380570 -4.149630 0.644989
v -13.380570 -4.149630 0.654989
v -13.380570 -4.149630 0.814989
v -13.380570 -4.149630 0.824989
v -13.390571 -3.731933 0.984989
v -13.380570 -3.731933 0.994989
v -13.380570 -3.731933 0.984989
v -13.797009 -3.731933 0.405297
v -13.390571 -3.731933 0.644989
v -13.390571 -3.731933 0.405297
v -13.390571 -3.731933 0.654989
v -13.390571 -3.731933 0.814989
v -13.390571 -3.731933 0.824989
v -13.380570 -3.731933 0.824989
v -13.380570 -3.731933 0.814989
v -13.380570 -3.731933 0.654989
v -13.380570 -3.731933 0.644989
v -13.309305 -4.205983 0.354946
v -13.337735 -4.200301 0.354946
v -13.859305 -4.205982 0.354946
v -13.332628 -4.199215 0.354946
v -13.327976 -4.196845 0.354946
v -13.324097 -4.193351 0.354946
v -13.321253 -4.188972 0.354946
v -13.309305 -4.154743 0.354946
v -13.319640 -4.184006 0.354946
v -13.319366 -4.178792 0.354946
v -13.320453 -4.173686 0.354946
v -13.322824 -4.169034 0.354946
v -13.326317 -4.165154 0.354946
v -13.330696 -4.162311 0.354946
v -13.335661 -4.160697 0.354946
v -13.340876 -4.160424 0.354946
v -13.830875 -4.160424 0.354946
v -13.848158 -4.187039 0.354946
v -13.859305 -4.154742 0.354946
v -13.845787 -4.191691 0.354946
v -13.842294 -4.195571 0.354946
v -13.837914 -4.198414 0.354946
v -13.832949 -4.200027 0.354946
v -13.827735 -4.200301 0.354946
v -13.849243 -4.181932 0.354946
v -13.848970 -4.176719 0.354946
v -13.847357 -4.171753 0.354946
v -13.844514 -4.167374 0.354946
v -13.840634 -4.163880 0.354946
v -13.835982 -4.161510 0.354946
v -13.342949 -4.200028 0.354946
v -13.822628 -4.199215 0.354946
v -13.347915 -4.198415 0.354946
v -13.817976 -4.196845 0.354946
v -13.352293 -4.195571 0.354946
v -13.814096 -4.193351 0.354946
v -13.355787 -4.191691 0.354946
v -13.811253 -4.188972 0.354946
v -13.358158 -4.187039 0.354946
v -13.809640 -4.184006 0.354946
v -13.359243 -4.181932 0.354946
v -13.809367 -4.178792 0.354946
v -13.358971 -4.176719 0.354946
v -13.810452 -4.173686 0.354946
v -13.357357 -4.171753 0.354946
v -13.812823 -4.169034 0.354946
v -13.354514 -4.167374 0.354946
v -13.816317 -4.165154 0.354946
v -13.350634 -4.163880 0.354946
v -13.820696 -4.162310 0.354946
v -13.345983 -4.161510 0.354946
v -13.825662 -4.160697 0.354946
v -13.812823 -4.169034 0.374947
v -13.810452 -4.173686 0.374947
v -13.811253 -3.738972 0.374947
v -13.814096 -3.743351 0.354946
v -13.811253 -3.738972 0.354946
v -13.814096 -3.743351 0.374947
v -13.820696 -3.712310 0.354946
v -13.816317 -3.715154 0.374947
v -13.816317 -3.715154 0.354946
v -13.820696 -3.712310 0.374947
v -13.322824 -4.169034 0.374947
v -13.320453 -4.173686 0.374947
v -13.319366 -4.178792 0.374947
v -13.319640 -4.184006 0.374947
v -13.321253 -4.188972 0.374947
v -13.370571 -3.731933 0.814989
v -13.370571 -4.149630 0.654989
v -13.370571 -3.731933 0.654989
v -13.370571 -4.149630 0.814989
v -13.822628 -4.199215 0.374947
v -13.817976 -4.196845 0.374947
v -13.827735 -4.200301 0.374947
v -13.832949 -4.200027 0.374947
v -13.837914 -4.198414 0.374947
v -13.842294 -4.195571 0.374947
v -13.845787 -4.191691 0.374947
v -13.848158 -4.187039 0.374947
v -13.849243 -4.181932 0.374947
v -13.848970 -4.176719 0.374947
v -13.847357 -4.171753 0.374947
v -13.811253 -4.188972 0.374947
v -13.814096 -4.193351 0.374947
v -13.809640 -4.184006 0.374947
v -13.809367 -4.178792 0.374947
v -13.335661 -4.160697 0.374947
v -13.340876 -4.160424 0.374947
v -13.825662 -4.160697 0.374947
v -13.830875 -4.160424 0.374947
v -13.820696 -4.162310 0.374947
v -13.835982 -3.711510 0.354946
v -13.830875 -3.710424 0.374947
v -13.830875 -3.710424 0.354946
v -13.835982 -3.711510 0.374947
v -13.840634 -3.713881 0.354946
v -13.840634 -3.713881 0.374947
v -13.844514 -3.717374 0.354946
v -13.844514 -3.717374 0.374947
v -13.848970 -3.726719 0.374947
v -13.847357 -3.721753 0.354946
v -13.848970 -3.726719 0.354946
v -13.847357 -3.721753 0.374947
v -13.849243 -3.731933 0.374947
v -13.849243 -3.731933 0.354946
v -13.842294 -3.745571 0.374947
v -13.845787 -3.741691 0.354946
v -13.842294 -3.745571 0.354946
v -13.845787 -3.741691 0.374947
v -13.848158 -3.737040 0.354946
v -13.848158 -3.737040 0.374947
v -13.837914 -3.748415 0.354946
v -13.837914 -3.748415 0.374947
v -13.832949 -3.750028 0.354946
v -13.832949 -3.750028 0.374947
v -13.827735 -3.750301 0.354946
v -13.827735 -3.750301 0.374947
v -13.822628 -3.749215 0.354946
v -13.822628 -3.749215 0.374947
v -13.817976 -3.746844 0.354946
v -13.817976 -3.746844 0.374947
v -13.358971 -4.176719 0.374947
v -13.357357 -4.171753 0.374947
v -13.324097 -4.193351 0.374947
v -13.338094 -4.195747 0.374947
v -13.327976 -4.196845 0.374947
v -13.334153 -4.194910 0.374947
v -13.330564 -4.193080 0.374947
v -13.327570 -4.190384 0.374947
v -13.325376 -4.187006 0.374947
v -13.324131 -4.183174 0.374947
v -13.323920 -4.179151 0.374947
v -13.324758 -4.175210 0.374947
v -13.326587 -4.171621 0.374947
v -13.329283 -4.168627 0.374947
v -13.326317 -4.165154 0.374947
v -13.332662 -4.166433 0.374947
v -13.336493 -4.165188 0.374947
v -13.340517 -4.164978 0.374947
v -13.330696 -4.162311 0.374947
v -13.350634 -4.163880 0.374947
v -13.345983 -4.161510 0.374947
v -13.332628 -4.199215 0.374947
v -13.342949 -4.200028 0.374947
v -13.337735 -4.200301 0.374947
v -13.347915 -4.198415 0.374947
v -13.352293 -4.195571 0.374947
v -13.342117 -4.195537 0.374947
v -13.355787 -4.191691 0.374947
v -13.345948 -4.194292 0.374947
v -13.349327 -4.192098 0.374947
v -13.352023 -4.189104 0.374947
v -13.358158 -4.187039 0.374947
v -13.353852 -4.185514 0.374947
v -13.359243 -4.181932 0.374947
v -13.354691 -4.181574 0.374947
v -13.354480 -4.177551 0.374947
v -13.353234 -4.173719 0.374947
v -13.351041 -4.170341 0.374947
v -13.354514 -4.167374 0.374947
v -13.348047 -4.167645 0.374947
v -13.344458 -4.165815 0.374947
v -13.809367 -3.728792 0.374947
v -13.809640 -3.734006 0.354946
v -13.809367 -3.728792 0.354946
v -13.809640 -3.734006 0.374947
v -13.859305 -4.154742 0.294946
v -13.309305 -4.205983 0.294946
v -13.859305 -4.205982 0.294946
v -13.309305 -4.154743 0.294946
v -13.828094 -4.195747 0.374947
v -13.824153 -4.194910 0.374947
v -13.820563 -4.193080 0.374947
v -13.817570 -4.190384 0.374947
v -13.815375 -4.187006 0.374947
v -13.814131 -4.183174 0.374947
v -13.813920 -4.179151 0.374947
v -13.814758 -4.175210 0.374947
v -13.816587 -4.171621 0.374947
v -13.819283 -4.168627 0.374947
v -13.816317 -4.165154 0.374947
v -13.822662 -4.166433 0.374947
v -13.826493 -4.165188 0.374947
v -13.830517 -4.164978 0.374947
v -13.840634 -4.163880 0.374947
v -13.835982 -4.161510 0.374947
v -13.832117 -4.195537 0.374947
v -13.835949 -4.194292 0.374947
v -13.839327 -4.192098 0.374947
v -13.842023 -4.189104 0.374947
v -13.843852 -4.185514 0.374947
v -13.844690 -4.181574 0.374947
v -13.844480 -4.177551 0.374947
v -13.843235 -4.173719 0.374947
v -13.841041 -4.170341 0.374947
v -13.844514 -4.167374 0.374947
v -13.838047 -4.167645 0.374947
v -13.834457 -4.165815 0.374947
v -13.828094 -3.745747 0.374947
v -13.824153 -3.744910 0.374947
v -13.820563 -3.743080 0.374947
v -13.817570 -3.740385 0.374947
v -13.815375 -3.737006 0.374947
v -13.814131 -3.733174 0.374947
v -13.813920 -3.729151 0.374947
v -13.814758 -3.725210 0.374947
v -13.810452 -3.723686 0.374947
v -13.816587 -3.721621 0.374947
v -13.812823 -3.719033 0.374947
v -13.819283 -3.718627 0.374947
v -13.822662 -3.716433 0.374947
v -13.826493 -3.715188 0.374947
v -13.830517 -3.714978 0.374947
v -13.825662 -3.710697 0.374947
v -13.832117 -3.745537 0.374947
v -13.835948 -3.744292 0.374947
v -13.839327 -3.742098 0.374947
v -13.842023 -3.739104 0.374947
v -13.843852 -3.735515 0.374947
v -13.844690 -3.731574 0.374947
v -13.844480 -3.727551 0.374947
v -13.843235 -3.723719 0.374947
v -13.841041 -3.720340 0.374947
v -13.838047 -3.717644 0.374947
v -13.834457 -3.715815 0.374947
v -13.743930 -4.096550 0.405297
v -13.423651 -4.096550 0.250538
v -13.423651 -4.096550 0.405297
v -13.743930 -4.096550 0.250538
v -13.318955 -3.755982 0.345297
v -13.318955 -4.154743 0.304596
v -13.318955 -3.755982 0.304596
v -13.318955 -4.154743 0.345297
v -13.743930 -3.785012 0.250538
v -13.743930 -3.785012 0.405297
v -13.423651 -3.785012 0.405297
v -13.423651 -3.785012 0.250538
v -13.356515 -4.154743 0.345297
v -13.356515 -3.755982 0.345297
v -13.356515 -3.755982 0.304596
v -13.356515 -4.154743 0.304596
v -13.370571 -3.731933 0.984989
v -13.370571 -4.149630 0.824989
v -13.370571 -3.731933 0.824989
v -13.370571 -4.149630 0.984989
v -13.825662 -3.710697 0.354946
v -13.812823 -3.719033 0.354946
v -13.811544 -4.154742 0.304045
v -13.850206 -4.154742 0.304045
v -13.850206 -4.154742 0.345848
v -13.811544 -4.154742 0.345848
v -13.370571 -4.149630 0.405297
v -13.370571 -4.149630 0.644989
v -13.370571 -3.731933 0.644989
v -13.370571 -3.731933 0.405297
v -13.859305 -3.704742 0.294946
v -13.309305 -3.755982 0.294946
v -13.859305 -3.755982 0.294946
v -13.309305 -3.704742 0.294946
v -13.309305 -3.704742 0.354946
v -13.309305 -3.755982 0.354946
v -13.859305 -3.704742 0.354946
v -13.859305 -3.755982 0.354946
v -13.811544 -3.755982 0.345848
v -13.850206 -3.755982 0.345848
v -13.850206 -3.755982 0.304045
v -13.811544 -3.755982 0.304045
v -13.810452 -3.723686 0.354946
vn 1.0000 -0.0000 -0.0000
vn -0.0000 -0.0000 1.0000
vn -0.0000 -1.0000 -0.0000
vn -0.0000 1.0000 -0.0000
vn 0.6051 0.4159 0.6789
vn 0.6364 0.2254 0.7377
vn 0.5564 0.3824 0.7377
vn 0.6921 0.2451 0.6789
vn 0.6627 -0.3161 0.6789
vn 0.5134 -0.4384 0.7377
vn 0.6094 -0.2906 0.7377
vn 0.5584 -0.4768 0.6789
vn 0.2906 0.6094 0.7377
vn 0.4768 0.5584 0.6789
vn 0.4384 0.5134 0.7377
vn 0.3161 0.6627 0.6789
vn -1.0000 -0.0000 -0.0000
vn 0.6730 0.0530 0.7377
vn 0.7320 0.0576 0.6789
vn 0.6638 -0.1230 0.7377
vn 0.7220 -0.1338 0.6789
vn 0.2451 -0.6921 0.6789
vn 0.3824 -0.5564 0.7377
vn 0.4159 -0.6051 0.6789
vn 0.2254 -0.6364 0.7377
vn 0.0576 -0.7320 0.6789
vn 0.0530 -0.6730 0.7377
vn -0.1338 -0.7220 0.6789
vn -0.1230 -0.6638 0.7377
vn -0.3161 -0.6627 0.6789
vn -0.2906 -0.6094 0.7377
vn -0.4768 -0.5584 0.6789
vn -0.4384 -0.5134 0.7377
vn -0.5564 -0.3824 0.7377
vn -0.6051 -0.4159 0.6789
vn -0.6364 -0.2254 0.7377
vn -0.6921 -0.2451 0.6789
vn -0.6730 -0.0530 0.7377
vn -0.7320 -0.0576 0.6789
vn -0.6638 0.1230 0.7377
vn -0.7220 0.1338 0.6789
vn -0.6094 0.2906 0.7377
vn -0.6627 0.3161 0.6789
vn -0.0530 0.6730 0.7377
vn 0.1338 0.7220 0.6789
vn 0.1230 0.6638 0.7377
vn -0.0576 0.7320 0.6789
vn -0.2254 0.6364 0.7377
vn -0.2451 0.6921 0.6789
vn -0.3824 0.5564 0.7377
vn -0.4159 0.6051 0.6789
vn -0.5134 0.4384 0.7377
vn -0.5584 0.4768 0.6789
vn -0.0000 -0.0002 1.0000
vn -0.0000 -0.0001 1.0000
vn -0.0000 -0.0000 -1.0000
vn 0.1230 0.6639 0.7376
vn -0.0000 0.0002 1.0000
s 0
s 1
s 0
s 1
s 0
s 1
s 0
s 1
s 0
s 1
s 0
s 1
s 0
s 1
s 0
s 1
s 0
s 1
s 0
usemtl [Color_008]
f 1//1 2//1 3//1
f 2//1 1//1 4//1
f 1//2 5//2 4//2
f 5//2 1//2 6//2
f 33//2 34//2 35//2
f 34//2 33//2 36//2
f 36//2 33//2 37//2
f 37//2 33//2 38//2
f 38//2 33//2 39//2
f 39//2 33//2 40//2
f 39//2 40//2 41//2
f 41//2 40//2 42//2
f 42//2 40//2 43//2
f 43//2 40//2 44//2
f 44//2 40//2 45//2
f 45//2 40//2 46//2
f 46//2 40//2 47//2
f 47//2 40//2 48//2
f 48//2 40//2 49//2
f 35//2 50//2 51//2
f 50//2 35//2 52//2
f 52//2 35//2 53//2
f 53//2 35//2 54//2
f 54//2 35//2 55//2
f 55//2 35//2 56//2
f 56//2 35//2 34//2
f 51//2 50//2 57//2
f 51//2 57//2 58//2
f 51//2 58//2 59//2
f 51//2 59//2 60//2
f 51//2 60//2 61//2
f 51//2 61//2 62//2
f 51//2 62//2 49//2
f 51//2 49//2 40//2
f 63//2 56//2 34//2
f 56//2 63//2 64//2
f 64//2 63//2 65//2
f 64//2 65//2 66//2
f 66//2 65//2 67//2
f 66//2 67//2 68//2
f 68//2 67//2 69//2
f 68//2 69//2 70//2
f 70//2 69//2 71//2
f 70//2 71//2 72//2
f 72//2 71//2 73//2
f 72//2 73//2 74//2
f 74//2 73//2 75//2
f 74//2 75//2 76//2
f 76//2 75//2 77//2
f 76//2 77//2 78//2
f 78//2 77//2 79//2
f 78//2 79//2 80//2
f 80//2 79//2 81//2
f 80//2 81//2 82//2
f 82//2 81//2 83//2
f 82//2 83//2 84//2
f 84//2 83//2 48//2
f 84//2 48//2 49//2
f 85//5 76//6 78//7
f 76//6 85//5 86//8
f 87//9 88//10 89//11
f 88//10 87//9 90//12
f 91//13 92//14 93//15
f 92//14 91//13 94//16
f 95//5 43//6 44//7
f 43//6 95//5 96//8
f 96//8 42//18 43//6
f 42//18 96//8 97//19
f 97//19 41//20 42//18
f 41//20 97//19 98//21
f 98//21 39//11 41//20
f 39//11 98//21 99//9
f 104//22 66//23 105//24
f 66//23 104//22 64//25
f 106//26 64//25 104//22
f 64//25 106//26 56//27
f 107//28 56//27 106//26
f 56//27 107//28 55//29
f 108//30 55//29 107//28
f 55//29 108//30 54//31
f 109//32 54//31 108//30
f 54//31 109//32 53//33
f 109//32 52//34 53//33
f 52//34 109//32 110//35
f 110//35 50//36 52//34
f 50//36 110//35 111//37
f 111//37 57//38 50//36
f 57//38 111//37 112//39
f 112//39 58//40 57//38
f 58//40 112//39 113//41
f 113//41 59//42 58//40
f 59//42 113//41 114//43
f 115//9 68//10 70//11
f 68//10 115//9 116//12
f 117//21 70//11 72//20
f 70//11 117//21 115//9
f 118//19 72//20 74//18
f 72//20 118//19 117//21
f 86//8 74//18 76//6
f 74//18 86//8 118//19
f 48//44 119//45 47//46
f 119//45 48//44 120//47
f 49//44 121//45 84//46
f 121//45 49//44 122//47
f 84//46 123//16 82//13
f 123//16 84//46 121//45
f 124//48 125//47 126//44
f 125//47 124//48 127//49
f 128//50 127//49 124//48
f 127//49 128//50 129//51
f 130//52 129//51 128//50
f 129//51 130//52 131//53
f 132//41 133//42 134//40
f 133//42 132//41 135//43
f 136//39 134//40 137//38
f 134//40 136//39 132//41
f 138//32 139//34 140//33
f 139//34 138//32 141//35
f 141//35 142//36 139//34
f 142//36 141//35 143//37
f 143//37 137//38 142//36
f 137//38 143//37 136//39
f 138//32 144//31 145//30
f 144//31 138//32 140//33
f 145//30 146//29 147//28
f 146//29 145//30 144//31
f 147//28 148//27 149//26
f 148//27 147//28 146//29
f 149//26 150//25 151//22
f 150//25 149//26 148//27
f 151//22 152//23 153//24
f 152//23 151//22 150//25
f 154//41 77//42 75//40
f 77//42 154//41 155//43
f 156//2 157//2 158//2
f 157//54 156//54 159//54
f 159//2 156//2 160//2
f 160//2 156//2 99//2
f 160//2 99//2 161//2
f 161//2 99//2 162//2
f 162//2 99//2 98//2
f 162//2 98//2 163//2
f 163//2 98//2 97//2
f 163//2 97//2 164//2
f 164//2 97//2 165//2
f 165//2 97//2 96//2
f 165//2 96//2 166//2
f 166//2 96//2 95//2
f 166//2 95//2 167//2
f 167//2 95//2 168//2
f 167//2 168//2 169//2
f 169//2 168//2 170//2
f 170//54 168//54 171//54
f 171//2 168//2 172//2
f 171//2 172//2 173//2
f 173//2 172//2 174//2
f 174//2 172//2 119//2
f 174//2 119//2 120//2
f 175//2 176//2 177//2
f 176//2 175//2 178//2
f 178//2 175//2 158//2
f 178//2 158//2 179//2
f 179//2 158//2 157//2
f 179//55 157//55 180//55
f 179//2 180//2 181//2
f 181//2 180//2 182//2
f 181//2 182//2 183//2
f 181//2 183//2 184//2
f 181//2 184//2 185//2
f 185//2 184//2 186//2
f 185//2 186//2 187//2
f 187//2 186//2 188//2
f 187//2 188//2 154//2
f 154//2 188//2 189//2
f 154//2 189//2 190//2
f 154//2 190//2 155//2
f 155//2 190//2 191//2
f 155//2 191//2 192//2
f 192//2 191//2 193//2
f 192//2 193//2 194//2
f 192//2 194//2 173//2
f 173//2 194//2 171//2
f 187//39 75//40 73//38
f 75//40 187//39 154//41
f 185//37 73//38 71//36
f 73//38 185//37 187//39
f 181//35 71//36 69//34
f 71//36 181//35 185//37
f 179//32 69//34 67//33
f 69//34 179//32 181//35
f 179//32 65//31 178//30
f 65//31 179//32 67//33
f 178//30 63//29 176//28
f 63//29 178//30 65//31
f 176//28 34//27 177//26
f 34//27 176//28 63//29
f 177//26 36//25 175//22
f 36//25 177//26 34//27
f 175//22 37//23 158//24
f 37//23 175//22 36//25
f 195//19 196//20 197//18
f 196//20 195//19 198//21
f 199//56 200//56 201//56
f 200//56 199//56 202//56
f 105//24 68//10 116//12
f 68//10 105//24 66//23
f 116//2 203//2 105//2
f 203//2 116//2 204//2
f 204//2 116//2 205//2
f 205//2 116//2 115//2
f 205//2 115//2 206//2
f 206//2 115//2 207//2
f 207//2 115//2 117//2
f 207//2 117//2 208//2
f 208//2 117//2 118//2
f 208//2 118//2 209//2
f 209//2 118//2 210//2
f 210//2 118//2 86//2
f 210//2 86//2 211//2
f 211//2 86//2 85//2
f 211//2 85//2 212//2
f 212//2 85//2 213//2
f 212//2 213//2 214//2
f 214//2 213//2 215//2
f 215//2 213//2 216//2
f 216//2 213//2 123//2
f 216//2 123//2 217//2
f 217//2 123//2 218//2
f 218//2 123//2 121//2
f 218//2 121//2 122//2
f 104//2 107//2 106//2
f 107//2 104//2 108//2
f 108//2 104//2 105//2
f 108//2 105//2 109//2
f 109//2 105//2 203//2
f 109//2 203//2 219//2
f 109//2 219//2 110//2
f 110//55 219//55 220//55
f 110//2 220//2 221//2
f 110//2 221//2 222//2
f 110//2 222//2 111//2
f 111//2 222//2 223//2
f 111//2 223//2 112//2
f 112//2 223//2 224//2
f 112//2 224//2 113//2
f 113//2 224//2 225//2
f 113//2 225//2 226//2
f 113//2 226//2 114//2
f 114//2 226//2 227//2
f 114//2 227//2 228//2
f 228//2 227//2 229//2
f 228//2 229//2 230//2
f 228//2 230//2 217//2
f 217//2 230//2 216//2
f 90//2 231//2 153//2
f 231//2 90//2 232//2
f 232//2 90//2 233//2
f 233//2 90//2 87//2
f 233//2 87//2 234//2
f 234//2 87//2 235//2
f 235//2 87//2 198//2
f 235//2 198//2 236//2
f 236//2 198//2 195//2
f 236//2 195//2 237//2
f 237//2 195//2 238//2
f 238//2 195//2 239//2
f 238//2 239//2 240//2
f 240//2 239//2 241//2
f 240//2 241//2 242//2
f 242//2 241//2 92//2
f 242//2 92//2 243//2
f 243//2 92//2 244//2
f 244//2 92//2 245//2
f 245//2 92//2 94//2
f 245//2 94//2 129//2
f 129//2 94//2 127//2
f 127//2 94//2 246//2
f 127//2 246//2 125//2
f 151//2 147//2 149//2
f 147//2 151//2 145//2
f 145//2 151//2 153//2
f 145//2 153//2 138//2
f 138//2 153//2 231//2
f 138//2 231//2 247//2
f 138//2 247//2 141//2
f 141//55 247//55 248//55
f 141//2 248//2 249//2
f 141//2 249//2 250//2
f 141//2 250//2 143//2
f 143//2 250//2 251//2
f 143//2 251//2 136//2
f 136//2 251//2 252//2
f 136//2 252//2 132//2
f 132//2 252//2 253//2
f 132//2 253//2 254//2
f 132//2 254//2 135//2
f 135//2 254//2 255//2
f 135//2 255//2 131//2
f 131//2 255//2 256//2
f 131//2 256//2 257//2
f 131//2 257//2 129//2
f 129//2 257//2 245//2
f 99//9 38//10 39//11
f 38//10 99//9 156//12
f 158//24 38//10 156//12
f 38//10 158//24 37//23
f 258//3 259//3 260//3
f 259//3 258//3 261//3
f 262//1 263//1 264//1
f 263//1 262//1 265//1
f 258//17 266//17 261//17
f 266//17 258//17 267//17
f 266//4 268//4 269//4
f 268//4 266//4 267//4
f 262//2 270//2 265//2
f 270//2 262//2 271//2
f 270//17 272//17 273//17
f 272//17 270//17 271//17
f 268//1 259//1 269//1
f 259//1 268//1 260//1
f 15//56 258//56 14//56
f 258//56 15//56 23//56
f 258//56 23//56 267//56
f 267//56 23//56 268//56
f 14//56 260//56 25//56
f 260//56 14//56 258//56
f 25//56 260//56 268//56
f 25//56 268//56 23//56
f 278//57 94//16 91//13
f 94//16 278//57 246//45
f 92//14 279//7 93//15
f 279//7 92//14 241//5
f 202//4 263//4 40//4
f 263//4 202//4 199//4
f 263//4 199//4 273//4
f 273//4 199//4 270//4
f 270//4 199//4 280//4
f 280//4 199//4 281//4
f 281//4 199//4 282//4
f 40//4 265//4 51//4
f 265//4 40//4 263//4
f 51//4 265//4 270//4
f 51//4 270//4 283//4
f 283//4 270//4 280//4
f 51//4 283//4 282//4
f 51//4 282//4 199//4
f 40//1 200//1 202//1
f 200//1 40//1 33//1
f 35//3 200//3 33//3
f 200//3 35//3 201//3
f 79//52 173//51 81//50
f 173//51 79//52 192//53
f 126//44 246//45 278//57
f 246//45 126//44 125//47
f 60//52 217//51 61//50
f 217//51 60//52 228//53
f 82//13 213//14 80//15
f 213//14 82//13 123//16
f 155//43 79//52 77//42
f 79//52 155//43 192//53
f 213//14 78//7 80//15
f 78//7 213//14 85//5
f 114//43 60//52 59//42
f 60//52 114//43 228//53
f 62//48 122//47 49//44
f 122//47 62//48 218//49
f 272//56 263//56 273//56
f 263//56 272//56 264//56
f 135//43 130//52 133//42
f 130//52 135//43 131//53
f 47//46 172//16 46//13
f 172//16 47//46 119//45
f 46//13 168//14 45//15
f 168//14 46//13 172//16
f 168//14 44//7 45//15
f 44//7 168//14 95//5
f 266//56 259//56 261//56
f 259//56 266//56 269//56
f 21//56 2//56 7//56
f 2//56 21//56 3//56
f 274//2 8//2 277//2
f 8//2 274//2 22//2
f 29//56 275//56 19//56
f 275//56 29//56 276//56
f 31//56 101//56 17//56
f 101//56 31//56 102//56
f 286//2 16//2 285//2
f 16//2 286//2 32//2
f 100//2 18//2 103//2
f 18//2 100//2 30//2
f 288//56 289//56 290//56
f 289//56 288//56 291//56
f 292//1 289//1 291//1
f 289//1 292//1 293//1
f 288//4 292//4 291//4
f 292//4 288//4 294//4
f 293//3 262//3 289//3
f 262//3 293//3 295//3
f 262//3 295//3 271//3
f 271//3 295//3 272//3
f 272//3 295//3 296//3
f 296//3 295//3 297//3
f 297//3 295//3 298//3
f 289//3 264//3 290//3
f 264//3 289//3 262//3
f 290//3 264//3 272//3
f 290//3 272//3 299//3
f 299//3 272//3 296//3
f 290//3 299//3 298//3
f 290//3 298//3 295//3
f 292//2 295//2 293//2
f 295//2 292//2 148//2
f 148//2 292//2 150//2
f 150//2 292//2 152//2
f 152//2 292//2 88//2
f 88//2 292//2 89//2
f 89//2 292//2 196//2
f 196//2 292//2 197//2
f 197//2 292//2 300//2
f 300//2 292//2 279//2
f 279//2 292//2 93//2
f 93//2 292//2 91//2
f 91//2 292//2 278//2
f 278//58 292//58 126//58
f 295//2 142//2 294//2
f 142//2 295//2 139//2
f 139//2 295//2 140//2
f 140//2 295//2 144//2
f 144//2 295//2 146//2
f 146//2 295//2 148//2
f 294//2 142//2 137//2
f 294//2 137//2 134//2
f 294//2 134//2 133//2
f 294//2 133//2 130//2
f 294//2 130//2 128//2
f 294//2 128//2 124//2
f 294//2 124//2 126//2
f 294//2 126//2 292//2
f 295//17 288//17 290//17
f 288//17 295//17 294//17
f 25//56 284//56 14//56
f 284//56 25//56 287//56
f 296//1 280//1 299//1
f 280//1 296//1 283//1
f 298//56 280//56 281//56
f 280//56 298//56 299//56
f 239//8 197//18 300//6
f 197//18 239//8 195//19
f 241//5 300//6 279//7
f 300//6 241//5 239//8
f 198//21 89//11 196//20
f 89//11 198//21 87//9
f 81//50 174//49 83//48
f 174//49 81//50 173//51
f 83//48 120//47 48//44
f 120//47 83//48 174//49
f 35//17 199//17 201//17
f 199//17 35//17 51//17
f 153//24 88//10 90//12
f 88//10 153//24 152//23
f 61//50 218//49 62//48
f 218//49 61//50 217//51
