o G-__555708
v -8.302942 -6.880406 1.245000
v -8.342942 -6.920406 1.245000
v -8.342942 -6.880406 1.245000
v -8.302942 -6.920406 1.245000
v -8.302942 -6.860406 1.085000
v -8.302942 -6.920406 1.125000
v -8.302942 -6.920406 1.085000
v -8.302942 -6.880406 1.125000
v -8.302942 -6.860406 1.285000
v -8.302942 -6.920406 1.285000
v -8.342942 -6.920406 1.085000
v -8.342942 -6.860406 1.085000
v -8.372964 -6.920406 2.250000
v -8.372964 -6.940406 0.120000
v -8.372964 -6.940406 2.250000
v -8.372964 -6.920406 0.120000
v -8.272922 -6.940406 2.149958
v -7.743006 -6.940406 0.220042
v -8.272922 -6.940406 0.220042
v -7.743006 -6.940406 2.149958
v -8.342942 -6.860406 1.285000
v -8.342942 -6.920406 1.285000
v -7.642964 -6.920406 0.120000
v -7.642964 -6.940406 2.250000
v -7.642964 -6.940406 0.120000
v -7.642964 -6.920406 2.250000
v -8.272922 -6.920406 0.220042
v -7.743006 -6.920406 0.220042
v -7.743006 -6.920406 2.149958
v -8.272922 -6.920406 2.149958
v -8.342942 -6.880406 1.125000
v -8.342942 -6.920406 1.125000
vn -0.0000 -0.0000 -1.0000
vn 1.0000 -0.0000 -0.0000
vn -1.0000 -0.0000 -0.0000
vn -0.0000 1.0000 -0.0000
vn -0.0000 -0.0000 1.0000
vn -0.0000 -1.0000 -0.0000
s 0
usemtl [Translucent_Glass_Blue]
f 17//4 18//4 19//4
f 18//4 17//4 20//4
