o G-__556131
v -6.588101 -3.137117 1.210419
v -6.588101 -3.141612 1.215156
v -6.588101 -3.138437 1.209657
v -6.588101 -3.140292 1.215918
v -6.607151 -3.140292 1.215918
v -6.607151 -3.138437 1.209657
v -6.607151 -3.141612 1.215156
v -6.607151 -3.137117 1.210419
v -6.607151 -3.028679 1.280357
v -6.588101 -3.025504 1.274858
v -6.607151 -3.025504 1.274858
v -6.588101 -3.028679 1.280357
v -6.597626 -3.157487 1.198658
v -6.584926 -3.157487 1.198658
v -6.610326 -3.157487 1.198658
v -6.610326 -3.160662 1.204157
v -6.584926 -3.160662 1.204157
v -6.597626 -3.160662 1.204157
vn 1.0000 -0.0000 -0.0000
vn 0.6885 -0.3190 0.6513
vn 0.6885 0.4046 -0.6019
vn -0.7071 -0.3536 0.6124
vn -0.6885 0.4046 -0.6019
vn -0.6885 -0.3190 0.6514
vn -0.7071 0.3536 -0.6124
vn -0.5774 0.2113 0.7887
vn 0.5773 0.7887 -0.2113
vn -0.5774 0.7887 -0.2113
vn 0.5774 0.2113 0.7887
vn -0.0000 -0.2588 -0.9659
vn 0.6210 -0.1807 -0.7627
vn -0.6210 -0.1807 -0.7627
vn -0.6210 -0.7508 0.2249
vn 0.6210 -0.7508 0.2249
vn -0.0000 -0.9659 0.2588
vt -2.838453 0.627604
vt -2.838453 -5.682703
vt -2.839287 0.631076
vt 2.839287 -5.682703
vt -1.998350 0.631076
vt -2.839287 0.627604
vt -2.839287 -5.682703
vt -1.998350 0.627604
vt -2.838453 0.631076
vt 2.838453 -5.682703
vt 2.838453 0.631076
vt 2.838453 -5.693120
vt 2.839287 0.627604
vt -2.839287 -5.693120
vt 3.623468 0.627604
vt 2.839287 0.631076
vt 3.623468 0.631076
vt 2.839287 -5.693120
vt 2.838453 0.627604
vt -2.838453 -5.693120
vt 5.693120 0.631076
vt 2.767981 0.631076
vt 2.767981 -5.693120
vt 5.682703 0.627604
vt -2.767981 0.627604
vt -2.767981 -5.682703
vt 5.693120 0.627604
vt 2.767981 0.627604
vt -2.767981 -5.693120
vt 5.682703 0.631076
vt -2.767981 0.631076
vt 2.767981 -5.682703
vt -2.851315 -5.687912
vt -5.687912 0.627604
vt -2.851315 -5.680968
vt -2.010503 0.627604
vt -5.680968 0.627604
vt -2.851315 -5.694857
vt 3.635621 0.627604
vt -5.694857 0.627604
vt 3.635621 0.631076
vt 2.851315 -5.694857
vt -5.694857 0.631076
vt 2.851315 -5.680968
vt -2.010503 0.631076
vt -5.680968 0.631076
vt 2.851315 -5.687912
vt -5.687912 0.631076
s 1
usemtl Kitchen_Sink
f 1/1/1 2/3/2 3/6/3
f 2/3/2 1/1/1 4/9/1
f 5/11/4 6/13/5 7/16/6
f 6/13/5 5/11/4 8/19/7
f 9/21/8 10/24/9 11/27/10
f 10/24/9 9/21/8 12/30/11
f 9/22/8 8/19/7 5/11/4
f 8/19/7 9/22/8 11/28/10
f 1/1/1 10/25/9 4/9/1
f 4/9/1 10/25/9 12/31/11
f 10/26/9 8/20/7 11/29/10
f 8/20/7 10/26/9 6/14/5
f 6/14/5 10/26/9 13/33/12
f 13/33/12 10/26/9 3/7/3
f 13/33/12 3/7/3 14/35/13
f 1/2/1 3/7/3 10/26/9
f 13/33/12 15/38/14 6/14/5
f 7/17/6 15/39/14 16/41/15
f 15/39/14 7/17/6 6/15/5
f 17/44/16 2/4/2 18/47/17
f 18/47/17 7/18/6 16/42/15
f 7/18/6 18/47/17 5/12/4
f 5/12/4 18/47/17 9/23/8
f 9/23/8 18/47/17 12/32/11
f 12/32/11 18/47/17 2/4/2
f 12/32/11 2/4/2 4/10/1
f 18/48/17 15/40/14 13/34/12
f 15/40/14 18/48/17 16/43/15
f 3/8/3 17/45/16 14/36/13
f 17/45/16 3/8/3 2/5/2
f 17/46/16 13/34/12 14/37/13
f 13/34/12 17/46/16 18/48/17
