o G-__556068
v -6.695117 -3.184770 1.255808
v -6.699226 -3.185311 1.154208
v -6.695117 -3.184770 1.154208
v -6.699226 -3.185311 1.255808
v -6.691288 -3.183184 1.255808
v -6.691288 -3.183184 1.154208
v -6.683892 -3.173545 1.154208
v -6.685478 -3.177374 1.255808
v -6.685478 -3.177374 1.154208
v -6.683892 -3.173545 1.255808
v -6.683351 -3.169436 1.154208
v -6.683351 -3.169436 1.255808
v -6.683351 -3.169436 1.230408
v -6.685478 -3.161499 1.154208
v -6.683892 -3.165328 1.230408
v -6.683892 -3.165328 1.154208
v -6.685478 -3.161499 1.230408
v -6.703334 -3.184770 1.154208
v -6.703334 -3.184770 1.255808
v -6.710451 -3.158211 1.230408
v -6.712974 -3.161499 1.154208
v -6.712974 -3.161499 1.230408
v -6.710451 -3.158211 1.154208
v -6.707163 -3.155688 1.154208
v -6.707163 -3.155688 1.230408
v -6.703334 -3.154102 1.154208
v -6.703334 -3.154102 1.230408
v -6.699226 -3.153561 1.230408
v -6.695117 -3.154102 1.154208
v -6.699226 -3.153561 1.154208
v -6.695117 -3.154102 1.230408
v -6.691288 -3.155688 1.154208
v -6.691288 -3.155688 1.230408
v -6.688001 -3.158211 1.154208
v -6.688001 -3.158211 1.230408
v -6.707163 -3.183184 1.154208
v -6.707163 -3.183184 1.255808
v -6.710451 -3.180662 1.154208
v -6.710451 -3.180662 1.255808
v -6.712974 -3.177374 1.255808
v -6.712974 -3.177374 1.154208
v -6.714560 -3.173545 1.255808
v -6.714560 -3.173545 1.154208
v -6.714560 -3.165328 1.154208
v -6.714560 -3.165328 1.230408
v -6.688001 -3.180662 1.255808
v -6.688001 -3.180662 1.154208
v -6.715101 -3.169436 1.154208
v -6.715101 -3.169436 1.230408
v -6.715101 -3.150386 1.230408
v -6.699226 -3.150386 1.230408
v -6.683351 -3.150386 1.230408
v -6.702513 -3.150386 1.230841
v -6.705576 -3.150386 1.232110
v -6.708206 -3.150386 1.234128
v -6.710224 -3.150386 1.236758
v -6.711493 -3.150386 1.239821
v -6.715101 -3.150386 1.255808
v -6.711926 -3.150386 1.243108
v -6.711493 -3.150386 1.246395
v -6.710224 -3.150386 1.249458
v -6.708206 -3.150386 1.252088
v -6.705576 -3.150386 1.254107
v -6.702513 -3.150386 1.255375
v -6.699226 -3.150386 1.255808
v -6.683351 -3.150386 1.255808
v -6.695939 -3.150386 1.230841
v -6.692876 -3.150386 1.232110
v -6.690246 -3.150386 1.234128
v -6.688227 -3.150386 1.236758
v -6.686958 -3.150386 1.239821
v -6.686526 -3.150386 1.243108
v -6.686958 -3.150386 1.246395
v -6.688227 -3.150386 1.249458
v -6.690246 -3.150386 1.252088
v -6.692876 -3.150386 1.254107
v -6.695939 -3.150386 1.255375
v -6.702513 -3.131336 1.230841
v -6.695939 -3.131336 1.230841
v -6.699226 -3.131336 1.230408
v -6.705576 -3.131336 1.232110
v -6.699226 -3.131336 1.232009
v -6.702098 -3.131336 1.232387
v -6.708206 -3.131336 1.234128
v -6.704775 -3.131336 1.233496
v -6.707074 -3.131336 1.235260
v -6.710224 -3.131336 1.236758
v -6.708838 -3.131336 1.237559
v -6.711493 -3.131336 1.239821
v -6.709946 -3.131336 1.240235
v -6.711926 -3.131336 1.243108
v -6.710325 -3.131336 1.243108
v -6.711493 -3.131336 1.246395
v -6.709946 -3.131336 1.245981
v -6.708838 -3.131336 1.248657
v -6.710224 -3.131336 1.249458
v -6.707074 -3.131336 1.250956
v -6.708206 -3.131336 1.252088
v -6.704775 -3.131336 1.252720
v -6.705576 -3.131336 1.254107
v -6.702098 -3.131336 1.253829
v -6.699226 -3.131336 1.254207
v -6.702513 -3.131336 1.255375
v -6.692876 -3.131336 1.232110
v -6.696353 -3.131336 1.232387
v -6.690246 -3.131336 1.234128
v -6.693676 -3.131336 1.233496
v -6.691378 -3.131336 1.235260
v -6.688227 -3.131336 1.236758
v -6.689614 -3.131336 1.237559
v -6.686958 -3.131336 1.239821
v -6.688505 -3.131336 1.240235
v -6.686526 -3.131336 1.243108
v -6.688127 -3.131336 1.243108
v -6.688505 -3.131336 1.245981
v -6.686958 -3.131336 1.246395
v -6.689614 -3.131336 1.248657
v -6.688227 -3.131336 1.249458
v -6.691378 -3.131336 1.250956
v -6.690246 -3.131336 1.252088
v -6.693676 -3.131336 1.252720
v -6.692876 -3.131336 1.254107
v -6.696353 -3.131336 1.253829
v -6.695939 -3.131336 1.255375
v -6.699226 -3.131336 1.255808
v -6.715101 -3.169436 1.255808
v -6.715101 -3.150386 1.262158
v -6.683351 -3.150386 1.262158
v -6.715101 -3.191661 1.262158
v -6.715101 -3.188486 1.255808
v -6.715101 -3.191661 1.217708
v -6.715101 -3.188486 1.217708
v -6.683351 -3.188486 1.217708
v -6.683351 -3.191661 1.262158
v -6.683351 -3.191661 1.217708
v -6.683351 -3.188486 1.255808
v -6.699226 -3.131336 1.233611
v -6.701684 -3.131336 1.233934
v -6.703975 -3.131336 1.234883
v -6.705942 -3.131336 1.236392
v -6.707451 -3.131336 1.238359
v -6.708400 -3.131336 1.240650
v -6.708724 -3.131336 1.243108
v -6.708400 -3.131336 1.245566
v -6.707451 -3.131336 1.247857
v -6.705942 -3.131336 1.249824
v -6.703975 -3.131336 1.251333
v -6.701684 -3.131336 1.252282
v -6.699226 -3.131336 1.252606
v -6.696768 -3.131336 1.233934
v -6.694477 -3.131336 1.234883
v -6.692510 -3.131336 1.236392
v -6.691000 -3.131336 1.238359
v -6.690052 -3.131336 1.240650
v -6.689728 -3.131336 1.243108
v -6.690052 -3.131336 1.245566
v -6.691000 -3.131336 1.247857
v -6.692510 -3.131336 1.249824
v -6.694477 -3.131336 1.251333
v -6.696768 -3.131336 1.252282
v -6.699226 -3.131336 1.235212
v -6.701270 -3.131336 1.235481
v -6.703174 -3.131336 1.236270
v -6.704809 -3.131336 1.237525
v -6.706064 -3.131336 1.239160
v -6.706853 -3.131336 1.241064
v -6.707122 -3.131336 1.243108
v -6.706853 -3.131336 1.245152
v -6.706064 -3.131336 1.247056
v -6.704809 -3.131336 1.248692
v -6.703174 -3.131336 1.249947
v -6.701270 -3.131336 1.250735
v -6.699226 -3.131336 1.251004
v -6.697182 -3.131336 1.235481
v -6.695278 -3.131336 1.236270
v -6.693642 -3.131336 1.237525
v -6.692387 -3.131336 1.239160
v -6.691598 -3.131336 1.241064
v -6.691329 -3.131336 1.243108
v -6.691598 -3.131336 1.245152
v -6.692387 -3.131336 1.247056
v -6.693642 -3.131336 1.248692
v -6.695278 -3.131336 1.249947
v -6.697182 -3.131336 1.250735
vn 0.1150 -0.4290 0.8960
vn -0.0000 -1.0000 -0.0000
vn 0.2588 -0.9659 -0.0000
vn -0.0000 -0.4441 0.8960
vn 0.2221 -0.3846 0.8960
vn 0.5000 -0.8660 -0.0000
vn 0.9659 -0.2588 -0.0000
vn 0.3846 -0.2221 0.8960
vn 0.8660 -0.5000 -0.0000
vn 0.4290 -0.1150 0.8960
vn 1.0000 -0.0000 -0.0000
vn 0.8937 -0.0292 0.4478
vn 0.9992 0.0327 -0.0209
vn 0.8660 0.5000 -0.0000
vn 0.6521 0.1747 -0.7377
vn 0.9659 0.2588 -0.0000
vn 0.5847 0.3376 -0.7377
vn -0.2588 -0.9659 -0.0000
vn -0.1150 -0.4290 0.8960
vn -0.4774 0.4774 -0.7377
vn -0.8660 0.5000 -0.0000
vn -0.5847 0.3376 -0.7377
vn -0.7071 0.7071 -0.0000
vn -0.5000 0.8660 -0.0000
vn -0.3376 0.5847 -0.7377
vn -0.2588 0.9659 -0.0000
vn -0.1747 0.6521 -0.7377
vn -0.0000 0.6751 -0.7377
vn 0.2588 0.9659 -0.0000
vn -0.0000 1.0000 -0.0000
vn 0.1747 0.6521 -0.7377
vn 0.5000 0.8660 -0.0000
vn 0.3376 0.5847 -0.7377
vn 0.7071 0.7071 -0.0000
vn 0.4774 0.4774 -0.7377
vn -0.5000 -0.8660 -0.0000
vn -0.2221 -0.3846 0.8960
vn -0.7071 -0.7071 -0.0000
vn -0.3141 -0.3141 0.8960
vn -0.3846 -0.2221 0.8960
vn -0.8660 -0.5000 -0.0000
vn -0.4290 -0.1150 0.8960
vn -0.9659 -0.2588 -0.0000
vn -0.9659 0.2588 -0.0000
vn -0.6521 0.1747 -0.7377
vn 0.3141 -0.3141 0.8960
vn 0.7071 -0.7071 -0.0000
vn -1.0000 -0.0000 -0.0000
vn 0.0552 0.8416 -0.5373
vn -0.5774 0.5774 -0.5773
vn -0.0000 0.0418 -0.9991
vn 0.5774 0.5774 -0.5774
vn -0.1747 0.7377 -0.6521
vn -0.3376 0.7377 -0.5847
vn -0.4774 0.7377 -0.4774
vn -0.5847 0.7377 -0.3376
vn -0.6521 0.7377 -0.1747
vn -0.6667 0.6667 0.3333
vn -0.6751 0.7377 -0.0000
vn -0.6521 0.7377 0.1747
vn -0.5847 0.7377 0.3376
vn -0.4774 0.7377 0.4774
vn -0.3376 0.7377 0.5847
vn -0.1747 0.7377 0.6521
vn -0.0000 0.4779 0.8784
vn 0.6667 0.6667 0.3333
vn 0.1747 0.7377 -0.6521
vn 0.3376 0.7377 -0.5847
vn 0.4774 0.7377 -0.4774
vn 0.5847 0.7377 -0.3376
vn 0.6521 0.7377 -0.1747
vn 0.6751 0.7377 -0.0000
vn 0.6521 0.7377 0.1747
vn 0.5847 0.7377 0.3376
vn 0.4774 0.7377 0.4774
vn 0.3376 0.7377 0.5847
vn 0.1747 0.7377 0.6521
vn -0.1900 0.6789 -0.7092
vn 0.1900 0.6789 -0.7092
vn -0.0000 0.6789 -0.7343
vn -0.3671 0.6789 -0.6359
vn -0.5192 0.6789 -0.5192
vn -0.6359 0.6789 -0.3671
vn -0.7092 0.6789 -0.1900
vn -0.7343 0.6789 -0.0000
vn -0.7092 0.6789 0.1900
vn -0.6359 0.6789 0.3671
vn -0.5192 0.6789 0.5192
vn -0.3671 0.6789 0.6359
vn -0.1900 0.6789 0.7092
vn 0.3671 0.6789 -0.6359
vn 0.5192 0.6789 -0.5192
vn 0.6359 0.6789 -0.3671
vn 0.7092 0.6789 -0.1900
vn 0.7343 0.6789 -0.0000
vn 0.7092 0.6789 0.1900
vn 0.6359 0.6789 0.3671
vn 0.5192 0.6789 0.5192
vn 0.3671 0.6789 0.6359
vn 0.1900 0.6789 0.7092
vn -0.0000 0.6789 0.7343
vn -0.0000 -0.0000 1.0000
vn -0.8937 -0.0292 0.4478
vn -0.5774 0.5774 0.5774
vn 0.5774 0.5774 0.5774
vn -0.5774 -0.5774 0.5774
vn -0.9045 -0.3015 0.3015
vn 0.5774 -0.5774 0.5774
vn 0.9045 -0.3015 0.3015
s 1
s 0
s 1
s 0
usemtl Charcoal
f 1//1 2//2 3//3
f 2//2 1//1 4//4
f 5//5 3//3 6//6
f 1//1 3//3 5//5
f 7//7 8//8 9//9
f 8//8 7//7 10//10
f 11//11 10//10 7//7
f 10//10 11//11 12//12
f 12//12 11//11 13//13
f 14//14 15//15 16//16
f 15//15 14//14 17//17
f 16//16 13//13 11//11
f 13//13 16//16 15//15
f 4//4 18//18 2//2
f 18//18 4//4 19//19
f 20//20 21//21 22//22
f 21//21 20//20 23//23
f 20//20 24//24 23//23
f 24//24 20//20 25//25
f 25//25 26//26 24//24
f 26//26 25//25 27//27
f 28//28 29//29 30//30
f 29//29 28//28 31//31
f 31//31 32//32 29//29
f 32//32 31//31 33//33
f 33//33 34//34 32//32
f 34//34 33//33 35//35
f 34//34 17//17 14//14
f 17//17 34//34 35//35
f 19//19 36//36 18//18
f 36//36 19//19 37//37
f 37//37 38//38 36//36
f 38//38 37//37 39//39
f 40//40 38//38 39//39
f 38//38 40//40 41//41
f 42//42 41//41 40//40
f 41//41 42//42 43//43
f 22//22 44//44 45//45
f 44//44 22//22 21//21
f 9//9 46//46 47//47
f 46//46 9//9 8//8
f 46//46 6//6 47//47
f 6//6 46//46 5//5
f 27//27 30//30 26//26
f 30//30 27//27 28//28
f 45//45 48//48 49//49
f 48//48 45//45 44//44
f 50//50 45//45 49//49
f 45//45 50//50 22//22
f 22//22 50//50 20//20
f 20//20 50//50 25//25
f 25//25 50//50 51//51
f 25//25 51//51 27//27
f 27//27 51//51 28//28
f 28//28 51//51 52//52
f 28//28 52//52 31//31
f 31//31 52//52 33//33
f 33//33 52//52 35//35
f 35//35 52//52 17//17
f 17//17 52//52 15//15
f 15//15 52//52 13//13
f 50//50 53//53 51//51
f 53//53 50//50 54//54
f 54//54 50//50 55//55
f 55//55 50//50 56//56
f 56//56 50//50 57//57
f 57//57 50//50 58//58
f 57//57 58//58 59//59
f 59//59 58//58 60//60
f 60//60 58//58 61//61
f 61//61 58//58 62//62
f 62//62 58//58 63//63
f 63//63 58//58 64//64
f 64//64 58//58 65//65
f 52//52 12//12 13//13
f 12//12 52//52 66//66
f 67//67 52//52 51//51
f 52//52 67//67 68//68
f 52//52 68//68 69//69
f 52//52 69//69 70//70
f 52//52 70//70 71//71
f 52//52 71//71 66//66
f 66//66 71//71 72//72
f 66//66 72//72 73//73
f 66//66 73//73 74//74
f 66//66 74//74 75//75
f 66//66 75//75 76//76
f 66//66 76//76 77//77
f 66//66 77//77 65//65
f 78//78 79//79 80//80
f 79//79 78//78 81//81
f 79//79 81//81 82//30
f 82//30 81//81 83//30
f 83//30 81//81 84//82
f 83//30 84//82 85//30
f 85//30 84//82 86//30
f 86//30 84//82 87//83
f 86//30 87//83 88//30
f 88//30 87//83 89//84
f 88//30 89//84 90//30
f 90//30 89//84 91//85
f 90//30 91//85 92//30
f 92//30 91//85 93//86
f 92//30 93//86 94//30
f 94//30 93//86 95//30
f 95//30 93//86 96//87
f 95//30 96//87 97//30
f 97//30 96//87 98//88
f 97//30 98//88 99//30
f 99//30 98//88 100//89
f 99//30 100//89 101//30
f 101//30 100//89 102//30
f 102//30 100//89 103//90
f 82//30 104//91 79//79
f 104//91 82//30 105//30
f 104//91 105//30 106//92
f 106//92 105//30 107//30
f 106//92 107//30 108//30
f 106//92 108//30 109//93
f 109//93 108//30 110//30
f 109//93 110//30 111//94
f 111//94 110//30 112//30
f 111//94 112//30 113//95
f 113//95 112//30 114//30
f 113//95 114//30 115//30
f 113//95 115//30 116//96
f 116//96 115//30 117//30
f 116//96 117//30 118//97
f 118//97 117//30 119//30
f 118//97 119//30 120//98
f 120//98 119//30 121//30
f 120//98 121//30 122//99
f 122//99 121//30 123//30
f 122//99 123//30 102//30
f 122//99 102//30 124//100
f 124//100 102//30 103//90
f 124//100 103//90 125//101
f 65//65 103//90 64//64
f 103//90 65//65 125//101
f 77//77 125//101 65//65
f 125//101 77//77 124//100
f 76//76 124//100 77//77
f 124//100 76//76 122//99
f 75//75 122//99 76//76
f 122//99 75//75 120//98
f 118//97 75//75 74//74
f 75//75 118//97 120//98
f 116//96 74//74 73//73
f 74//74 116//96 118//97
f 113//95 73//73 72//72
f 73//73 113//95 116//96
f 111//94 72//72 71//71
f 72//72 111//94 113//95
f 109//93 71//71 70//70
f 71//71 109//93 111//94
f 106//92 70//70 69//69
f 70//70 106//92 109//93
f 106//92 68//68 104//91
f 68//68 106//92 69//69
f 104//91 67//67 79//79
f 67//67 104//91 68//68
f 79//79 51//51 80//80
f 51//51 79//79 67//67
f 80//80 53//53 78//78
f 53//53 80//80 51//51
f 78//78 54//54 81//81
f 54//54 78//78 53//53
f 81//81 55//55 84//82
f 55//55 81//81 54//54
f 87//83 55//55 56//56
f 55//55 87//83 84//82
f 89//84 56//56 57//57
f 56//56 89//84 87//83
f 91//85 57//57 59//59
f 57//57 91//85 89//84
f 93//86 59//59 60//60
f 59//59 93//86 91//85
f 96//87 60//60 61//61
f 60//60 96//87 93//86
f 98//88 61//61 62//62
f 61//61 98//88 96//87
f 63//63 98//88 62//62
f 98//88 63//63 100//89
f 64//64 100//89 63//63
f 100//89 64//64 103//90
f 42//102 12//102 126//102
f 12//102 42//102 40//102
f 12//102 40//102 39//102
f 12//102 39//102 37//102
f 12//102 37//102 19//102
f 12//102 19//102 4//102
f 1//102 12//102 4//102
f 12//102 1//102 5//102
f 12//102 5//102 46//102
f 12//102 46//102 8//102
f 12//102 8//102 10//102
f 12//102 58//102 126//102
f 58//102 12//102 65//102
f 65//102 12//102 66//102
f 126//103 43//43 42//42
f 43//43 126//103 48//48
f 48//48 126//103 49//49
f 58//58 49//49 126//103
f 49//49 58//58 50//50
f 127//104 65//65 58//58
f 65//65 127//104 66//66
f 66//66 127//104 128//105
f 129//106 130//107 131//106
f 130//107 129//106 127//104
f 130//107 127//104 126//103
f 126//103 127//104 58//58
f 132//106 131//106 130//107
f 133//108 134//108 135//108
f 134//108 133//108 136//109
f 134//108 136//109 128//105
f 128//105 136//109 12//12
f 128//105 12//12 66//66
f 134//108 127//104 129//106
f 127//104 134//108 128//105
f 134//108 131//106 135//108
f 131//106 134//108 129//106
f 130//107 42//42 126//103
f 42//42 130//107 40//40
f 40//40 130//107 39//39
f 39//39 130//107 37//37
f 37//37 130//107 19//19
f 19//19 130//107 136//109
f 19//19 136//109 4//4
f 1//1 4//4 136//109
f 1//1 136//109 5//5
f 5//5 136//109 46//46
f 46//46 136//109 8//8
f 8//8 136//109 10//10
f 10//10 136//109 12//12
f 135//108 132//106 131//106
f 132//106 135//108 133//108
f 136//109 132//106 133//108
f 132//106 136//109 130//107
f 138//30 150//30 137//30
f 150//30 138//30 139//30
f 150//30 139//30 151//30
f 151//30 139//30 161//30
f 161//30 139//30 162//30
f 162//30 139//30 140//30
f 162//30 140//30 163//30
f 163//30 140//30 164//30
f 164//30 140//30 141//30
f 164//30 141//30 165//30
f 165//30 141//30 142//30
f 165//30 142//30 166//30
f 166//30 142//30 143//30
f 166//30 143//30 167//30
f 167//30 143//30 144//30
f 167//30 144//30 168//30
f 168//30 144//30 169//30
f 169//30 144//30 145//30
f 169//30 145//30 170//30
f 170//30 145//30 146//30
f 170//30 146//30 171//30
f 171//30 146//30 147//30
f 171//30 147//30 172//30
f 172//30 147//30 173//30
f 151//30 174//30 152//30
f 174//30 151//30 161//30
f 152//30 174//30 175//30
f 152//30 175//30 176//30
f 152//30 176//30 153//30
f 153//30 176//30 177//30
f 153//30 177//30 154//30
f 154//30 177//30 178//30
f 154//30 178//30 155//30
f 155//30 178//30 179//30
f 155//30 179//30 180//30
f 155//30 180//30 156//30
f 156//30 180//30 181//30
f 156//30 181//30 157//30
f 157//30 181//30 182//30
f 157//30 182//30 158//30
f 158//30 182//30 183//30
f 158//30 183//30 159//30
f 159//30 183//30 184//30
f 159//30 184//30 173//30
f 159//30 173//30 147//30
f 159//30 147//30 148//30
f 159//30 148//30 160//30
f 160//30 148//30 149//30
f 162//30 174//30 161//30
f 174//30 162//30 163//30
f 174//30 163//30 175//30
f 175//30 163//30 164//30
f 175//30 164//30 176//30
f 176//30 164//30 165//30
f 176//30 165//30 177//30
f 177//30 165//30 166//30
f 177//30 166//30 178//30
f 178//30 166//30 167//30
f 178//30 167//30 179//30
f 179//30 167//30 168//30
f 179//30 168//30 180//30
f 180//30 168//30 169//30
f 180//30 169//30 181//30
f 181//30 169//30 170//30
f 181//30 170//30 182//30
f 182//30 170//30 171//30
f 182//30 171//30 183//30
f 183//30 171//30 172//30
f 183//30 172//30 184//30
f 184//30 172//30 173//30
