o G-__555861
v -10.481991 -5.039286 1.872815
v -10.481991 -5.091558 2.299092
v -10.481991 -5.091558 1.872815
v -10.481991 -5.039286 2.299092
v -10.500273 -4.987014 1.852484
v -9.843471 -5.039286 1.852484
v -9.843471 -4.987014 1.852484
v -10.500273 -5.039286 1.852484
v -9.861753 -5.039286 2.299092
v -9.861753 -5.091558 2.299092
v -10.481991 -5.004438 2.299092
v -10.481991 -5.004438 1.872815
v -10.464567 -5.004438 2.299092
v -9.861753 -5.004438 2.299092
v -10.500273 -5.039286 2.319422
v -9.843471 -4.987014 2.319422
v -9.843471 -5.039286 2.319422
v -10.500273 -4.987014 2.319422
v -9.917574 -5.161254 1.911180
v -9.917574 -5.161254 2.256464
v -9.861753 -5.091558 1.872815
v -9.861753 -5.004438 1.872815
v -9.861753 -5.039286 1.872815
v -9.879177 -5.004438 1.872815
v -10.464566 -5.004438 1.872815
v -10.419967 -5.161254 1.911180
v -9.861753 -5.004438 2.279715
v -9.879177 -4.987014 1.930943
v -9.879177 -4.987014 2.279715
v -10.464567 -4.987014 2.279715
v -10.464566 -4.987014 1.930943
v -9.879177 -5.004438 2.279715
v -10.464566 -5.004438 1.930943
v -9.879177 -5.004438 1.930943
v -10.464567 -5.004438 2.279715
v -10.419967 -5.161254 2.256464
vn -1.0000 -0.0000 -0.0000
vn -0.0000 -0.0000 -1.0000
vn -0.0000 -0.0000 1.0000
vn 1.0000 -0.0000 -0.0000
vn 0.7805 -0.6251 -0.0000
vn -0.0000 -0.4822 -0.8760
vn -0.0000 -1.0000 -0.0000
vn -0.0000 1.0000 -0.0000
vn -0.0000 -0.5218 0.8531
vn -0.7470 -0.6648 -0.0000
s 0
usemtl Material
f 1//1 3//1 2//1
f 2//1 4//1 1//1
f 5//2 7//2 6//2
f 6//2 8//2 5//2
f 2//3 10//3 9//3
f 9//3 4//3 2//3
f 11//4 4//4 1//4
f 1//4 12//4 11//4
f 13//2 14//2 9//2
f 9//2 4//2 13//2
f 4//2 11//2 13//2
f 15//3 17//3 16//3
f 16//3 18//3 15//3
f 10//5 20//5 19//5
f 19//5 21//5 10//5
f 1//3 23//3 22//3
f 22//3 24//3 1//3
f 24//3 25//3 1//3
f 25//3 12//3 1//3
f 5//1 8//1 15//1
f 15//1 18//1 5//1
f 3//6 21//6 19//6
f 19//6 26//6 3//6
f 2//7 3//7 21//7
f 21//7 10//7 2//7
f 16//4 17//4 6//4
f 6//4 7//4 16//4
f 22//1 23//1 9//1
f 9//1 14//1 22//1
f 14//1 27//1 22//1
f 7//8 5//8 28//8
f 28//8 16//8 7//8
f 28//8 29//8 16//8
f 29//8 30//8 16//8
f 5//8 18//8 31//8
f 31//8 28//8 5//8
f 18//8 30//8 31//8
f 18//8 16//8 30//8
f 8//7 6//7 1//7
f 1//7 15//7 8//7
f 1//7 4//7 15//7
f 4//7 9//7 15//7
f 6//7 17//7 23//7
f 1//7 6//7 23//7
f 17//7 9//7 23//7
f 17//7 15//7 9//7
f 9//4 10//4 21//4
f 21//4 23//4 9//4
f 20//9 10//9 2//9
f 2//9 36//9 20//9
f 36//7 26//7 19//7
f 19//7 20//7 36//7
f 1//2 23//2 21//2
f 21//2 3//2 1//2
f 3//10 26//10 36//10
f 36//10 2//10 3//10
f 30//4 35//4 33//4
f 33//4 31//4 30//4
f 33//8 25//8 12//8
f 12//8 11//8 33//8
f 11//8 35//8 33//8
f 11//8 13//8 35//8
f 30//2 29//2 32//2
f 32//2 35//2 30//2
f 14//8 27//8 32//8
f 32//8 35//8 14//8
f 35//8 13//8 14//8
f 28//1 34//1 32//1
f 32//1 29//1 28//1
f 27//8 22//8 24//8
f 24//8 34//8 27//8
f 34//8 32//8 27//8
f 33//3 34//3 28//3
f 28//3 31//3 33//3
f 34//8 24//8 25//8
f 25//8 33//8 34//8
