o Monitor_2
v -11.776458 -2.060869 1.493202
v -11.849041 -2.106396 1.493202
v -11.842775 -2.114189 1.493202
v -11.782724 -2.053076 1.493202
v -11.842775 -2.114189 1.480643
v -11.776458 -2.060869 1.480643
v -11.915359 -2.159716 1.493202
v -11.909092 -2.167510 1.493202
v -11.782724 -2.053076 1.480643
v -12.057434 -2.273948 1.505317
v -12.047993 -2.266357 1.493202
v -11.773282 -2.045484 1.505317
v -12.057434 -2.273948 1.468528
v -12.047993 -2.266357 1.480643
v -11.981675 -2.213037 1.480643
v -11.915359 -2.159716 1.480643
v -11.849041 -2.106396 1.480643
v -11.773282 -2.045484 1.468528
v -11.981675 -2.213037 1.493202
v -11.909092 -2.167510 1.480643
v -11.907565 -2.153450 1.590067
v -11.850586 -2.094807 1.590067
v -11.913831 -2.145657 1.590067
v -11.844320 -2.102600 1.590067
v -11.986397 -2.216832 1.580995
v -11.924049 -2.166704 1.590067
v -11.986397 -2.216832 1.590067
v -11.924049 -2.166704 1.580995
v -11.850586 -2.094807 1.580995
v -11.907565 -2.153450 1.580995
v -11.913831 -2.145657 1.580995
v -11.844320 -2.102600 1.580995
v -11.836332 -2.096178 1.561922
v -11.842598 -2.088384 1.575995
v -11.842598 -2.088384 1.561922
v -11.836332 -2.096178 1.575995
v -12.044135 -2.263255 1.585531
v -12.050204 -2.255304 1.587445
v -12.050401 -2.255462 1.585531
v -12.043939 -2.263097 1.587445
v -11.822567 -2.085110 1.561922
v -11.808802 -2.074042 1.575995
v -11.822567 -2.085110 1.575995
v -11.808802 -2.074042 1.561922
v -11.992662 -2.209039 1.590067
v -11.992662 -2.209039 1.580995
v -11.895423 -1.879040 1.459422
v -12.193768 -2.118915 1.609422
v -11.895423 -1.879040 1.609422
v -12.193768 -2.118915 1.459422
v -11.986397 -2.216832 1.561922
v -11.992662 -2.209039 1.571922
v -11.992662 -2.209039 1.561922
v -11.986397 -2.216832 1.571922
v -11.795035 -2.062974 1.590067
v -11.815067 -2.066249 1.590067
v -11.808802 -2.074042 1.590067
v -11.801302 -2.055181 1.590067
v -11.779549 -2.037691 1.600317
v -12.051168 -2.281742 1.600317
v -12.063701 -2.266155 1.600317
v -11.767016 -2.053277 1.600317
v -12.039649 -2.246817 1.589228
v -12.040565 -2.247554 1.590759
v -12.039074 -2.246355 1.587445
v -12.038877 -2.246197 1.585531
v -12.039074 -2.246355 1.583618
v -12.039649 -2.246817 1.581835
v -12.040565 -2.247554 1.580304
v -11.930315 -2.158911 1.580995
v -11.842598 -2.088384 1.590067
v -12.041759 -2.248513 1.579129
v -12.043148 -2.249630 1.578390
v -12.044639 -2.250829 1.578138
v -11.930315 -2.158911 1.590067
v -12.044639 -2.250829 1.592924
v -12.046130 -2.252028 1.592672
v -12.047520 -2.253145 1.591934
v -12.048713 -2.254105 1.590759
v -12.049629 -2.254841 1.589228
v -12.063701 -2.266155 1.523528
v -12.050204 -2.255304 1.583618
v -12.049629 -2.254841 1.581835
v -12.048713 -2.254105 1.580304
v -12.047520 -2.253145 1.579129
v -12.046130 -2.252028 1.578390
v -11.930315 -2.158911 1.561922
v -11.913831 -2.145657 1.561922
v -11.891349 -2.127580 1.561922
v -11.850586 -2.094807 1.561922
v -11.842598 -2.088384 1.547850
v -11.842598 -2.088384 1.533777
v -11.828833 -2.077317 1.533777
v -11.815067 -2.066249 1.533777
v -11.801302 -2.055181 1.533777
v -11.787536 -2.044113 1.533777
v -11.787536 -2.044113 1.590067
v -11.779549 -2.037691 1.523528
v -12.043148 -2.249630 1.592672
v -12.041759 -2.248513 1.591934
v -11.828833 -2.077317 1.590067
v -11.787536 -2.044113 1.575995
v -11.787536 -2.044113 1.561922
v -11.787536 -2.044113 1.547850
v -11.850586 -2.094807 1.571922
v -11.930315 -2.158911 1.571922
v -11.913831 -2.145657 1.571922
v -11.795035 -2.062974 1.533777
v -11.781270 -2.051907 1.533777
v -12.058265 -2.287447 1.609422
v -11.759920 -2.047572 1.609422
v -12.058265 -2.287447 1.514422
v -12.051168 -2.281742 1.523528
v -11.767016 -2.053277 1.523528
v -11.759920 -2.047572 1.514422
v -11.822567 -2.085110 1.590067
v -12.051168 -2.281742 1.505317
v -12.051168 -2.281742 1.468528
v -12.058265 -2.287447 1.459422
v -12.039865 -2.259822 1.592672
v -12.041254 -2.260939 1.591934
v -12.042447 -2.261898 1.590759
v -12.041726 -2.274150 1.480643
v -12.041726 -2.274150 1.493202
v -11.808802 -2.074042 1.547850
v -11.795035 -2.062974 1.561922
v -11.795035 -2.062974 1.547850
v -11.836332 -2.096178 1.590067
v -11.781270 -2.051907 1.575995
v -11.795035 -2.062974 1.575995
v -11.781270 -2.051907 1.561922
v -11.781270 -2.051907 1.547850
v -11.822567 -2.085110 1.533777
v -11.822567 -2.085110 1.547850
v -11.808802 -2.074042 1.533777
v -11.759920 -2.047572 1.459422
v -11.975410 -2.220830 1.480643
v -12.036881 -2.257424 1.592672
v -12.038373 -2.258623 1.592924
v -12.035492 -2.256306 1.591934
v -12.034299 -2.255347 1.590759
v -12.043363 -2.262635 1.589228
v -12.033383 -2.254611 1.589228
v -12.032807 -2.254148 1.587445
v -12.032612 -2.253990 1.585531
v -12.043939 -2.263097 1.583618
v -12.032807 -2.254148 1.583618
v -12.043363 -2.262635 1.581835
v -12.033383 -2.254611 1.581835
v -12.042447 -2.261898 1.580304
v -12.034299 -2.255347 1.580304
v -12.041254 -2.260939 1.579129
v -12.035492 -2.256306 1.579129
v -12.039865 -2.259822 1.578390
v -12.036881 -2.257424 1.578390
v -12.038373 -2.258623 1.578138
v -11.844320 -2.102600 1.561922
v -11.844320 -2.102600 1.571922
v -11.907565 -2.153450 1.571922
v -11.885082 -2.135374 1.561922
v -11.975410 -2.220830 1.493202
v -11.767016 -2.053277 1.468528
v -11.907565 -2.153450 1.561922
v -11.781270 -2.051907 1.590067
v -11.836332 -2.096178 1.547850
v -11.767016 -2.053277 1.505317
v -11.924049 -2.166704 1.571922
v -11.924049 -2.166704 1.561922
v -11.836332 -2.096178 1.533777
vn -0.0000 -0.0000 1.0000
vn 0.6266 -0.7793 -0.0000
vn 0.7793 0.6266 -0.0000
vn -0.0000 -0.0000 -1.0000
vn -0.7793 -0.6266 -0.0000
vn -0.1468 -0.9892 -0.0000
vn -0.0460 -0.9835 0.1747
vn -0.0639 -0.9980 -0.0000
vn -0.1273 -0.9735 0.1900
vn -0.6266 0.7793 -0.0000
vn 0.6266 -0.7793 -0.0001
vn 0.6266 -0.7793 0.0001
vn 0.6266 -0.7793 0.0002
vn 0.2773 -0.6482 0.7092
vn 0.1992 -0.7864 0.5847
vn 0.1393 -0.7591 0.6359
vn 0.3261 -0.6844 0.6521
vn 0.0902 -0.8741 0.4774
vn 0.0208 -0.8544 0.5192
vn 0.8343 -0.2758 -0.4774
vn 0.7115 -0.2990 -0.6359
vn 0.7253 -0.3634 -0.5847
vn 0.8300 -0.2037 -0.5192
vn -0.0460 -0.9835 -0.1747
vn -0.1273 -0.9735 -0.1900
vn 0.5985 -0.4655 -0.6521
vn 0.4254 -0.5291 -0.7343
vn 0.4622 -0.5749 -0.6751
vn 0.5735 -0.4100 -0.7092
vn 0.3261 -0.6844 -0.6521
vn 0.1393 -0.7591 -0.6359
vn 0.1992 -0.7864 -0.5847
vn 0.2773 -0.6482 -0.7092
vn 0.0902 -0.8741 -0.4774
vn 0.0208 -0.8544 -0.5192
vn -0.0702 -0.9275 0.3671
vn 0.0066 -0.9413 0.3376
vn 0.9210 -0.1306 0.3671
vn 0.9705 -0.1663 0.1747
vn 0.9179 -0.2086 0.3376
vn 0.9781 -0.0847 0.1900
vn -0.0702 -0.9275 -0.3671
vn 0.0066 -0.9413 -0.3376
vn 0.9781 -0.0847 -0.1900
vn 0.9179 -0.2086 -0.3376
vn 0.9705 -0.1663 -0.1747
vn 0.9210 -0.1306 -0.3671
vn 0.9976 -0.0690 -0.0000
vn 0.9884 -0.1519 -0.0000
vn 0.8300 -0.2037 0.5192
vn 0.8343 -0.2758 0.4774
vn 0.7115 -0.2990 0.6359
vn 0.7253 -0.3634 0.5847
vn 0.5735 -0.4100 0.7092
vn 0.5985 -0.4655 0.6521
vn 0.4254 -0.5291 0.7343
vn 0.4622 -0.5749 0.6751
s 0
s 1
s 0
s 1
s 0
usemtl [Color_006]
f 10//2 11//2 12//2
f 11//2 10//2 13//2
f 11//2 13//2 14//2
f 14//2 13//2 15//2
f 15//2 13//2 16//2
f 16//2 13//2 17//2
f 17//2 13//2 9//2
f 12//2 4//2 18//2
f 4//2 12//2 11//2
f 4//4 11//4 19//4
f 4//1 19//1 7//1
f 4//4 7//4 2//4
f 18//2 4//2 9//2
f 18//2 9//2 13//2
f 47//10 48//10 49//10
f 48//10 47//10 50//10
f 59//4 60//4 61//4
f 60//4 59//4 62//4
f 63//2 45//2 64//2
f 45//2 63//2 46//2
f 46//2 63//2 65//2
f 46//2 65//2 66//2
f 46//2 66//2 67//2
f 46//2 67//2 68//2
f 46//2 68//2 69//2
f 46//11 69//11 70//11
f 70//2 69//2 31//2
f 31//12 69//12 29//12
f 29//2 71//2 22//2
f 71//2 29//2 34//2
f 34//2 29//2 69//2
f 34//2 69//2 72//2
f 34//2 72//2 73//2
f 34//13 73//13 74//13
f 70//2 23//2 75//2
f 23//2 70//2 31//2
f 61//2 76//2 59//2
f 76//2 61//2 77//2
f 77//2 61//2 78//2
f 78//2 61//2 79//2
f 79//2 61//2 80//2
f 80//2 61//2 38//2
f 38//2 61//2 81//2
f 38//2 81//2 39//2
f 39//2 81//2 82//2
f 82//2 81//2 83//2
f 83//2 81//2 84//2
f 84//2 81//2 85//2
f 85//2 81//2 86//2
f 86//2 81//2 74//2
f 74//2 81//2 52//2
f 74//2 52//2 34//2
f 52//2 81//2 53//2
f 53//2 81//2 87//2
f 87//2 81//2 88//2
f 88//2 81//2 89//2
f 89//2 81//2 90//2
f 90//2 81//2 35//2
f 35//2 81//2 91//2
f 91//2 81//2 92//2
f 92//2 81//2 93//2
f 93//12 81//12 94//12
f 94//2 81//2 95//2
f 95//2 81//2 96//2
f 59//2 97//2 98//2
f 97//2 59//2 76//2
f 97//11 76//11 99//11
f 97//2 99//2 100//2
f 97//2 100//2 64//2
f 97//2 64//2 45//2
f 97//4 45//4 75//4
f 97//1 75//1 23//1
f 97//4 23//4 22//4
f 97//1 22//1 71//1
f 97//4 71//4 101//4
f 97//1 101//1 56//1
f 97//4 56//4 58//4
f 98//2 97//2 102//2
f 98//2 102//2 103//2
f 98//2 103//2 104//2
f 98//2 104//2 96//2
f 98//2 96//2 81//2
f 34//2 105//2 35//2
f 105//2 34//2 52//2
f 105//4 52//4 106//4
f 105//1 106//1 107//1
f 35//2 105//2 90//2
f 87//2 107//2 106//2
f 107//2 87//2 88//2
f 110//2 60//2 111//2
f 60//2 110//2 112//2
f 60//2 112//2 113//2
f 113//2 112//2 114//2
f 111//2 62//2 115//2
f 62//2 111//2 60//2
f 115//2 62//2 114//2
f 115//2 114//2 112//2
f 117//3 13//3 10//3
f 13//3 117//3 118//3
f 119//5 48//5 50//5
f 48//5 119//5 112//5
f 48//5 112//5 110//5
f 113//1 98//1 81//1
f 98//1 113//1 114//1
f 126//2 129//2 130//2
f 129//2 126//2 131//2
f 111//3 47//3 49//3
f 47//3 111//3 115//3
f 136//3 47//3 115//3
f 162//1 13//1 118//1
f 13//1 162//1 18//1
f 130//2 164//2 55//2
f 164//2 130//2 129//2
f 33//2 43//2 36//2
f 43//2 33//2 41//2
f 111//1 48//1 110//1
f 48//1 111//1 49//1
f 42//2 55//2 57//2
f 55//2 42//2 130//2
f 112//2 117//2 115//2
f 117//2 112//2 119//2
f 117//2 119//2 118//2
f 118//2 119//2 162//2
f 115//2 166//2 136//2
f 166//2 115//2 117//2
f 136//2 166//2 162//2
f 136//2 162//2 119//2
f 114//5 59//5 98//5
f 59//5 114//5 62//5
f 44//2 130//2 42//2
f 130//2 44//2 126//2
f 60//3 81//3 61//3
f 81//3 60//3 113//3
f 12//4 117//4 10//4
f 117//4 12//4 166//4
f 162//5 12//5 18//5
f 12//5 162//5 166//5
