o Monitor.004
v -13.157465 -3.119590 1.249276
v -13.160286 -3.124476 1.249276
v -13.158719 -3.122123 1.248810
v -13.156608 -3.117049 1.250643
v -13.162058 -3.126489 1.250643
v -13.163914 -3.128024 1.252817
v -13.156206 -3.114674 1.252817
v -13.156288 -3.112627 1.255650
v -13.165729 -3.128977 1.255650
v -13.156848 -3.111046 1.258949
v -13.167377 -3.129282 1.258949
v -13.168747 -3.128920 1.262489
v -13.157847 -3.110041 1.262489
v -13.159218 -3.109679 1.266029
v -13.169746 -3.127914 1.266029
v -13.170305 -3.126334 1.269328
v -13.160866 -3.109984 1.269328
v -13.162680 -3.110937 1.272161
v -13.170387 -3.124287 1.272161
v -13.164536 -3.112472 1.274335
v -13.169987 -3.121912 1.274335
v -13.169129 -3.119371 1.275702
v -13.166308 -3.114485 1.275702
v -13.167874 -3.116838 1.276168
v -13.119818 -3.141326 1.136776
v -13.122639 -3.146212 1.136776
v -13.121072 -3.143859 1.136310
v -13.118960 -3.138785 1.138143
v -13.124411 -3.148225 1.138143
v -13.126266 -3.149760 1.140317
v -13.118559 -3.136410 1.140317
v -13.128080 -3.150712 1.143150
v -13.118641 -3.134363 1.143150
v -13.119201 -3.132782 1.146449
v -13.129729 -3.151018 1.146449
v -13.131100 -3.150656 1.149989
v -13.120199 -3.131777 1.149989
v -13.121570 -3.131414 1.153529
v -13.132099 -3.149650 1.153529
v -13.132658 -3.148070 1.156828
v -13.123219 -3.131720 1.156828
v -13.125032 -3.132673 1.159661
v -13.132740 -3.146022 1.159661
v -13.132339 -3.143647 1.161835
v -13.126889 -3.134208 1.161835
v -13.131482 -3.141107 1.163202
v -13.128660 -3.136220 1.163202
v -13.130227 -3.138573 1.163668
v -13.107268 -3.148571 1.099276
v -13.110089 -3.153457 1.099276
v -13.108523 -3.151104 1.098810
v -13.106411 -3.146030 1.100643
v -13.111861 -3.155470 1.100643
v -13.113717 -3.157005 1.102817
v -13.106010 -3.143655 1.102817
v -13.106091 -3.141608 1.105650
v -13.115532 -3.157958 1.105650
v -13.106651 -3.140028 1.108949
v -13.117180 -3.158263 1.108949
v -13.118550 -3.157901 1.112489
v -13.107651 -3.139022 1.112489
v -13.109021 -3.138659 1.116029
v -13.119550 -3.156895 1.116029
v -13.120110 -3.155315 1.119328
v -13.110669 -3.138965 1.119328
v -13.112484 -3.139918 1.122161
v -13.120191 -3.153267 1.122161
v -13.114340 -3.141453 1.124335
v -13.119790 -3.150892 1.124335
v -13.118933 -3.148352 1.125702
v -13.116112 -3.143466 1.125702
v -13.117678 -3.145819 1.126168
v -13.144916 -3.126835 1.211776
v -13.147737 -3.131722 1.211776
v -13.146171 -3.129369 1.211310
v -13.144058 -3.124295 1.213143
v -13.149508 -3.133734 1.213143
v -13.151365 -3.135269 1.215317
v -13.143658 -3.121920 1.215317
v -13.143740 -3.119872 1.218150
v -13.153179 -3.136222 1.218150
v -13.144299 -3.118292 1.221449
v -13.154827 -3.136528 1.221449
v -13.156198 -3.136165 1.224989
v -13.145298 -3.117286 1.224989
v -13.146668 -3.116924 1.228529
v -13.157197 -3.135160 1.228529
v -13.157757 -3.133579 1.231828
v -13.148316 -3.117229 1.231828
v -13.150131 -3.118182 1.234661
v -13.157839 -3.131532 1.234661
v -13.151987 -3.119717 1.236835
v -13.157437 -3.129157 1.236835
v -13.156580 -3.126616 1.238202
v -13.153759 -3.121730 1.238202
v -13.155326 -3.124083 1.238668
v -13.132366 -3.134081 1.174276
v -13.135188 -3.138967 1.174276
v -13.133621 -3.136614 1.173810
v -13.131510 -3.131540 1.175643
v -13.136959 -3.140980 1.175643
v -13.138816 -3.142514 1.177817
v -13.131108 -3.129165 1.177817
v -13.131190 -3.127117 1.180650
v -13.140630 -3.143467 1.180650
v -13.131750 -3.125537 1.183949
v -13.142279 -3.143773 1.183949
v -13.143649 -3.143411 1.187489
v -13.132749 -3.124531 1.187489
v -13.134119 -3.124169 1.191029
v -13.144648 -3.142405 1.191029
v -13.145207 -3.140825 1.194328
v -13.135768 -3.124475 1.194328
v -13.137582 -3.125427 1.197161
v -13.145289 -3.138777 1.197161
v -13.139438 -3.126962 1.199335
v -13.144888 -3.136402 1.199335
v -13.144031 -3.133861 1.200702
v -13.141210 -3.128975 1.200702
v -13.142776 -3.131328 1.201168
v -13.225037 -3.046090 1.374989
v -13.663739 -3.274628 1.374989
v -13.433672 -3.407458 1.374989
v -13.455104 -2.913260 1.374989
v -13.182189 -3.108573 1.318943
v -13.183144 -3.121826 1.303934
v -13.177166 -3.111473 1.303934
v -13.188167 -3.118926 1.318943
v -13.189121 -3.132179 1.303934
v -13.194143 -3.129279 1.318943
v -13.176212 -3.098220 1.318943
v -13.171189 -3.101120 1.303934
v -13.198212 -3.113126 1.348962
v -13.199166 -3.126379 1.333953
v -13.193189 -3.116026 1.333953
v -13.204189 -3.123479 1.348962
v -13.187212 -3.105673 1.333953
v -13.157135 -3.085293 1.292916
v -13.165212 -3.090767 1.303934
v -13.189823 -3.141911 1.292916
v -13.184600 -3.069436 1.374989
v -13.170235 -3.087867 1.318943
v -13.175258 -3.084968 1.333953
v -13.180280 -3.082067 1.348962
v -13.185303 -3.079168 1.363971
v -13.191280 -3.089521 1.363971
v -13.197257 -3.099874 1.363971
v -13.203235 -3.110226 1.363971
v -13.209211 -3.120579 1.363971
v -13.217289 -3.126054 1.374989
v -13.433672 -3.407458 1.014989
v -13.085797 -3.126479 1.049741
v -13.294433 -3.487847 1.049741
v -13.225037 -3.046090 1.014989
v -13.085797 -3.126479 1.079741
v -13.118485 -3.183098 1.079741
v -13.294433 -3.487847 1.079741
v -13.455104 -2.913260 1.014989
v -13.141519 -3.194972 1.115997
v -13.214466 -3.152856 1.333981
v -13.363174 -3.410427 1.333981
v -13.290227 -3.452543 1.115997
v -13.393236 -3.430803 1.374989
v -13.186257 -3.092421 1.348962
v -13.192235 -3.102773 1.348962
v -13.181234 -3.095320 1.333953
v -13.663739 -3.274628 1.014989
v -13.224638 -3.146983 1.327826
v -13.300400 -3.446670 1.109842
v -13.151691 -3.189099 1.109842
v -13.373346 -3.404554 1.327826
vn 0.8078 -0.4664 0.3604
vn -0.0000 -0.0000 1.0000
vn -0.0000 -0.0000 -1.0000
vn 0.1830 -0.1056 -0.9774
vn 0.8660 -0.5000 -0.0000
vn 0.5000 0.8660 -0.0000
vn 0.8080 -0.4665 0.3599
vn 0.8078 -0.4664 0.3605
vn 0.8079 -0.4664 0.3603
vn 0.8079 -0.4664 0.3604
vn 0.8079 -0.4661 0.3606
vn 0.8078 -0.4664 0.3603
vn 0.8077 -0.4664 0.3606
vn 0.8078 -0.4663 0.3605
vn 0.8075 -0.4666 0.3609
vn -0.8660 0.5000 -0.0000
vn -0.5000 -0.8660 -0.0000
vn -0.4020 0.2321 0.8857
vn 0.4020 -0.2321 -0.8857
s 0
usemtl Material
f 1//1 2//1 3//1
f 2//1 1//1 4//1
f 2//1 4//1 5//1
f 5//1 4//1 6//1
f 6//1 4//1 7//1
f 6//1 7//1 8//1
f 6//1 8//1 9//1
f 9//1 8//1 10//1
f 9//1 10//1 11//1
f 11//1 10//1 12//1
f 12//1 10//1 13//1
f 12//1 13//1 14//1
f 12//1 14//1 15//1
f 15//1 14//1 16//1
f 16//1 14//1 17//1
f 16//1 17//1 18//1
f 16//1 18//1 19//1
f 19//1 18//1 20//1
f 19//1 20//1 21//1
f 21//1 20//1 22//1
f 22//1 20//1 23//1
f 22//1 23//1 24//1
f 25//1 26//1 27//1
f 26//1 25//1 28//1
f 26//1 28//1 29//1
f 29//1 28//1 30//1
f 30//1 28//1 31//1
f 30//1 31//1 32//1
f 32//1 31//1 33//1
f 32//1 33//1 34//1
f 32//1 34//1 35//1
f 35//1 34//1 36//1
f 36//1 34//1 37//1
f 36//1 37//1 38//1
f 36//1 38//1 39//1
f 39//1 38//1 40//1
f 40//1 38//1 41//1
f 40//1 41//1 42//1
f 40//1 42//1 43//1
f 43//1 42//1 44//1
f 44//1 42//1 45//1
f 44//1 45//1 46//1
f 46//1 45//1 47//1
f 46//1 47//1 48//1
f 49//1 50//1 51//1
f 50//1 49//1 52//1
f 50//1 52//1 53//1
f 53//1 52//1 54//1
f 54//1 52//1 55//1
f 54//1 55//1 56//1
f 54//1 56//1 57//1
f 57//1 56//1 58//1
f 57//1 58//1 59//1
f 59//1 58//1 60//1
f 60//1 58//1 61//1
f 60//1 61//1 62//1
f 60//1 62//1 63//1
f 63//1 62//1 64//1
f 64//1 62//1 65//1
f 64//1 65//1 66//1
f 64//1 66//1 67//1
f 67//1 66//1 68//1
f 67//1 68//1 69//1
f 69//1 68//1 70//1
f 70//1 68//1 71//1
f 70//1 71//1 72//1
f 73//1 74//1 75//1
f 74//1 73//1 76//1
f 74//1 76//1 77//1
f 77//1 76//1 78//1
f 78//1 76//1 79//1
f 78//1 79//1 80//1
f 78//1 80//1 81//1
f 81//1 80//1 82//1
f 81//1 82//1 83//1
f 83//1 82//1 84//1
f 84//1 82//1 85//1
f 84//1 85//1 86//1
f 84//1 86//1 87//1
f 87//1 86//1 88//1
f 88//1 86//1 89//1
f 88//1 89//1 90//1
f 88//1 90//1 91//1
f 91//1 90//1 92//1
f 91//1 92//1 93//1
f 93//1 92//1 94//1
f 94//1 92//1 95//1
f 94//1 95//1 96//1
f 97//1 98//1 99//1
f 98//1 97//1 100//1
f 98//1 100//1 101//1
f 101//1 100//1 102//1
f 102//1 100//1 103//1
f 102//1 103//1 104//1
f 102//1 104//1 105//1
f 105//1 104//1 106//1
f 105//1 106//1 107//1
f 107//1 106//1 108//1
f 108//1 106//1 109//1
f 108//1 109//1 110//1
f 108//1 110//1 111//1
f 111//1 110//1 112//1
f 112//1 110//1 113//1
f 112//1 113//1 114//1
f 112//1 114//1 115//1
f 115//1 114//1 116//1
f 115//1 116//1 117//1
f 117//1 116//1 118//1
f 118//1 116//1 119//1
f 118//1 119//1 120//1
f 121//2 122//2 123//2
f 122//2 121//2 124//2
f 125//1 126//1 127//1
f 126//1 125//1 128//1
f 128//1 129//1 126//1
f 129//1 128//1 130//1
f 131//1 127//1 132//1
f 127//1 131//1 125//1
f 133//1 134//1 135//1
f 134//1 133//1 136//1
f 137//1 128//1 125//1
f 128//1 137//1 135//1
f 138//1 139//1 140//1
f 139//1 138//1 141//1
f 139//1 141//1 142//1
f 142//1 141//1 143//1
f 143//1 141//1 144//1
f 144//1 141//1 145//1
f 145//1 141//1 146//1
f 146//1 141//1 147//1
f 147//1 141//1 148//1
f 148//1 141//1 149//1
f 140//1 129//1 150//1
f 129//1 140//1 139//1
f 129//3 139//3 132//3
f 129//2 132//2 127//2
f 129//3 127//3 126//3
f 150//1 129//1 130//1
f 150//1 130//1 134//1
f 150//1 134//1 136//1
f 150//1 136//1 149//1
f 150//1 149//1 141//1
f 148//1 136//1 133//1
f 136//1 148//1 149//1
f 151//4 152//4 153//4
f 152//4 151//4 154//4
f 155//5 153//5 152//5
f 153//5 155//5 156//5
f 157//5 153//5 156//5
f 158//6 121//6 154//6
f 121//6 158//6 124//6
f 156//1 159//1 157//1
f 159//1 156//1 140//1
f 159//1 140//1 160//1
f 160//1 140//1 150//1
f 160//1 150//1 161//1
f 157//1 162//1 163//1
f 162//1 157//1 159//1
f 163//1 162//1 161//1
f 163//1 161//1 150//1
f 145//1 164//1 144//1
f 164//1 145//1 146//1
f 142//1 132//1 139//1
f 132//1 142//1 131//1
f 165//1 135//1 137//1
f 135//1 165//1 133//1
f 135//1 130//1 128//1
f 130//1 135//1 134//1
f 147//1 133//1 165//1
f 133//1 147//1 148//1
f 166//1 125//1 131//1
f 125//1 166//1 137//1
f 155//1 49//1 51//1
f 49//1 155//1 52//1
f 52//1 155//1 55//1
f 55//1 155//1 56//1
f 56//1 155//1 58//1
f 58//1 155//1 138//1
f 58//7 138//7 61//7
f 61//1 138//1 62//1
f 62//8 138//8 65//8
f 65//1 138//1 66//1
f 66//1 138//1 34//1
f 66//1 34//1 68//1
f 68//8 34//8 33//8
f 68//1 33//1 71//1
f 71//1 33//1 72//1
f 72//8 33//8 31//8
f 72//1 31//1 28//1
f 72//8 28//8 25//8
f 72//1 25//1 27//1
f 34//9 138//9 37//9
f 37//1 138//1 38//1
f 38//8 138//8 41//8
f 41//1 138//1 42//1
f 42//1 138//1 106//1
f 42//1 106//1 45//1
f 45//8 106//8 104//8
f 45//1 104//1 47//1
f 47//1 104//1 48//1
f 48//8 104//8 103//8
f 48//1 103//1 100//1
f 48//8 100//8 97//8
f 48//1 97//1 99//1
f 106//10 138//10 109//10
f 109//8 138//8 110//8
f 110//8 138//8 113//8
f 113//1 138//1 114//1
f 114//1 138//1 116//1
f 116//1 138//1 82//1
f 116//8 82//8 80//8
f 116//1 80//1 119//1
f 119//1 80//1 120//1
f 120//1 80//1 79//1
f 120//8 79//8 76//8
f 120//1 76//1 73//1
f 120//1 73//1 75//1
f 82//1 138//1 85//1
f 85//1 138//1 86//1
f 86//8 138//8 89//8
f 89//1 138//1 90//1
f 90//1 138//1 92//1
f 92//1 138//1 95//1
f 95//1 138//1 96//1
f 96//8 138//8 7//8
f 96//1 7//1 4//1
f 1//8 96//8 4//8
f 96//1 1//1 3//1
f 7//11 138//11 8//11
f 8//8 138//8 10//8
f 10//1 138//1 13//1
f 13//1 138//1 14//1
f 14//1 138//1 17//1
f 17//1 138//1 18//1
f 18//1 138//1 20//1
f 20//1 138//1 23//1
f 23//1 138//1 24//1
f 156//1 59//1 140//1
f 59//1 156//1 57//1
f 57//1 156//1 54//1
f 54//1 156//1 53//1
f 53//1 156//1 155//1
f 53//12 155//12 50//12
f 50//1 155//1 51//1
f 140//13 59//13 60//13
f 140//1 60//1 63//1
f 140//1 63//1 64//1
f 140//1 64//1 67//1
f 140//1 67//1 35//1
f 35//1 67//1 69//1
f 35//1 69//1 32//1
f 32//1 69//1 70//1
f 32//1 70//1 72//1
f 32//1 72//1 30//1
f 30//8 72//8 29//8
f 29//1 72//1 26//1
f 26//1 72//1 27//1
f 140//8 35//8 36//8
f 140//1 36//1 39//1
f 140//1 39//1 40//1
f 140//1 40//1 43//1
f 140//1 43//1 107//1
f 107//1 43//1 44//1
f 107//8 44//8 105//8
f 105//1 44//1 46//1
f 105//1 46//1 48//1
f 105//14 48//14 102//14
f 102//8 48//8 101//8
f 101//1 48//1 98//1
f 98//1 48//1 99//1
f 140//8 107//8 108//8
f 140//1 108//1 111//1
f 140//1 111//1 112//1
f 140//1 112//1 115//1
f 140//1 115//1 117//1
f 140//1 117//1 83//1
f 83//8 117//8 81//8
f 81//1 117//1 118//1
f 81//1 118//1 120//1
f 81//8 120//8 78//8
f 78//1 120//1 77//1
f 77//1 120//1 74//1
f 74//1 120//1 75//1
f 140//1 83//1 84//1
f 140//1 84//1 87//1
f 140//1 87//1 88//1
f 140//1 88//1 91//1
f 140//1 91//1 93//1
f 140//1 93//1 94//1
f 140//1 94//1 96//1
f 140//1 96//1 6//1
f 6//8 96//8 5//8
f 5//1 96//1 2//1
f 2//1 96//1 3//1
f 140//15 6//15 9//15
f 140//1 9//1 11//1
f 140//1 11//1 12//1
f 140//1 12//1 15//1
f 140//1 15//1 16//1
f 140//1 16//1 19//1
f 140//1 19//1 21//1
f 140//1 21//1 22//1
f 140//1 22//1 24//1
f 140//1 24//1 138//1
f 143//1 131//1 142//1
f 131//1 143//1 166//1
f 146//1 165//1 164//1
f 165//1 146//1 147//1
f 164//1 137//1 166//1
f 137//1 164//1 165//1
f 144//1 166//1 143//1
f 166//1 144//1 164//1
f 122//16 158//16 167//16
f 158//16 122//16 124//16
f 158//3 151//3 167//3
f 151//3 158//3 154//3
f 122//17 151//17 123//17
f 151//17 122//17 167//17
f 169//6 161//6 162//6
f 161//6 169//6 171//6
f 159//18 169//18 162//18
f 169//18 159//18 170//18
f 160//17 170//17 159//17
f 170//17 160//17 168//17
f 168//19 161//19 171//19
f 161//19 168//19 160//19
f 163//17 153//17 157//17
f 153//17 163//17 151//17
f 151//17 163//17 123//17
f 150//2 123//2 163//2
f 123//2 150//2 121//2
f 121//2 150//2 141//2
f 154//6 155//6 152//6
f 155//6 154//6 138//6
f 138//6 154//6 141//6
f 141//6 154//6 121//6
f 121//5 151//5 154//5
f 151//5 121//5 123//5
