o Monitor_2.002
v -11.776458 -2.060869 1.643202
v -11.849041 -2.106396 1.643202
v -11.842775 -2.114189 1.643202
v -11.782724 -2.053076 1.643202
v -11.842775 -2.114189 1.630643
v -11.776458 -2.060869 1.630643
v -11.915359 -2.159716 1.643202
v -11.909092 -2.167510 1.643202
v -11.782724 -2.053076 1.630643
v -12.057434 -2.273948 1.655317
v -12.047993 -2.266357 1.643202
v -11.773282 -2.045484 1.655317
v -12.057434 -2.273948 1.618528
v -12.047993 -2.266357 1.630643
v -11.981675 -2.213037 1.630643
v -11.915359 -2.159716 1.630643
v -11.849041 -2.106396 1.630643
v -11.773282 -2.045484 1.618528
v -11.981675 -2.213037 1.643202
v -11.909092 -2.167510 1.630643
v -11.907565 -2.153450 1.740067
v -11.850586 -2.094807 1.740067
v -11.913831 -2.145657 1.740067
v -11.844320 -2.102600 1.740067
v -11.986397 -2.216832 1.730995
v -11.924049 -2.166704 1.740067
v -11.986397 -2.216832 1.740067
v -11.924049 -2.166704 1.730995
v -11.850586 -2.094807 1.730995
v -11.907565 -2.153450 1.730995
v -11.913831 -2.145657 1.730995
v -11.844320 -2.102600 1.730995
v -11.836332 -2.096178 1.711922
v -11.842598 -2.088384 1.725995
v -11.842598 -2.088384 1.711922
v -11.836332 -2.096178 1.725995
v -12.044135 -2.263255 1.735531
v -12.050204 -2.255304 1.737445
v -12.050401 -2.255462 1.735531
v -12.043939 -2.263097 1.737445
v -11.822567 -2.085110 1.711922
v -11.808802 -2.074042 1.725995
v -11.822567 -2.085110 1.725995
v -11.808802 -2.074042 1.711922
v -11.992662 -2.209039 1.740067
v -11.992662 -2.209039 1.730995
v -11.895423 -1.879040 1.609422
v -12.193768 -2.118915 1.759422
v -11.895423 -1.879040 1.759422
v -12.193768 -2.118915 1.609422
v -11.986397 -2.216832 1.711922
v -11.992662 -2.209039 1.721922
v -11.992662 -2.209039 1.711922
v -11.986397 -2.216832 1.721922
v -11.795035 -2.062974 1.740067
v -11.815067 -2.066249 1.740067
v -11.808802 -2.074042 1.740067
v -11.801302 -2.055181 1.740067
v -11.779549 -2.037691 1.750317
v -12.051168 -2.281742 1.750317
v -12.063701 -2.266155 1.750317
v -11.767016 -2.053277 1.750317
v -12.039649 -2.246817 1.739228
v -12.040565 -2.247554 1.740759
v -12.039074 -2.246355 1.737445
v -12.038877 -2.246197 1.735531
v -12.039074 -2.246355 1.733618
v -12.039649 -2.246817 1.731835
v -12.040565 -2.247554 1.730304
v -11.930315 -2.158911 1.730995
v -11.842598 -2.088384 1.740067
v -12.041759 -2.248513 1.729129
v -12.043148 -2.249630 1.728390
v -12.044639 -2.250829 1.728138
v -11.930315 -2.158911 1.740067
v -12.044639 -2.250829 1.742924
v -12.046130 -2.252028 1.742672
v -12.047520 -2.253145 1.741934
v -12.048713 -2.254105 1.740759
v -12.049629 -2.254841 1.739228
v -12.063701 -2.266155 1.673528
v -12.050204 -2.255304 1.733618
v -12.049629 -2.254841 1.731835
v -12.048713 -2.254105 1.730304
v -12.047520 -2.253145 1.729129
v -12.046130 -2.252028 1.728390
v -11.930315 -2.158911 1.711922
v -11.913831 -2.145657 1.711922
v -11.891349 -2.127580 1.711922
v -11.850586 -2.094807 1.711922
v -11.842598 -2.088384 1.697850
v -11.842598 -2.088384 1.683777
v -11.828833 -2.077317 1.683777
v -11.815067 -2.066249 1.683777
v -11.801302 -2.055181 1.683777
v -11.787536 -2.044113 1.683777
v -11.787536 -2.044113 1.740067
v -11.779549 -2.037691 1.673528
v -12.043148 -2.249630 1.742672
v -12.041759 -2.248513 1.741934
v -11.828833 -2.077317 1.740067
v -11.787536 -2.044113 1.725995
v -11.787536 -2.044113 1.711922
v -11.787536 -2.044113 1.697850
v -11.850586 -2.094807 1.721922
v -11.930315 -2.158911 1.721922
v -11.913831 -2.145657 1.721922
v -11.795035 -2.062974 1.683777
v -11.781270 -2.051907 1.683777
v -12.058265 -2.287447 1.759422
v -11.759920 -2.047572 1.759422
v -12.058265 -2.287447 1.664422
v -12.051168 -2.281742 1.673528
v -11.767016 -2.053277 1.673528
v -11.759920 -2.047572 1.664422
v -11.822567 -2.085110 1.740067
v -12.051168 -2.281742 1.655317
v -12.051168 -2.281742 1.618528
v -12.058265 -2.287447 1.609422
v -12.039865 -2.259822 1.742672
v -12.041254 -2.260939 1.741934
v -12.042447 -2.261898 1.740759
v -12.041726 -2.274150 1.630643
v -12.041726 -2.274150 1.643202
v -11.808802 -2.074042 1.697850
v -11.795035 -2.062974 1.711922
v -11.795035 -2.062974 1.697850
v -11.836332 -2.096178 1.740067
v -11.781270 -2.051907 1.725995
v -11.795035 -2.062974 1.725995
v -11.781270 -2.051907 1.711922
v -11.781270 -2.051907 1.697850
v -11.822567 -2.085110 1.683777
v -11.822567 -2.085110 1.697850
v -11.808802 -2.074042 1.683777
v -11.759920 -2.047572 1.609422
v -11.975410 -2.220830 1.630643
v -12.036881 -2.257424 1.742672
v -12.038373 -2.258623 1.742924
v -12.035492 -2.256306 1.741934
v -12.034299 -2.255347 1.740759
v -12.043363 -2.262635 1.739228
v -12.033383 -2.254611 1.739228
v -12.032807 -2.254148 1.737445
v -12.032612 -2.253990 1.735531
v -12.043939 -2.263097 1.733618
v -12.032807 -2.254148 1.733618
v -12.043363 -2.262635 1.731835
v -12.033383 -2.254611 1.731835
v -12.042447 -2.261898 1.730304
v -12.034299 -2.255347 1.730304
v -12.041254 -2.260939 1.729129
v -12.035492 -2.256306 1.729129
v -12.039865 -2.259822 1.728390
v -12.036881 -2.257424 1.728390
v -12.038373 -2.258623 1.728138
v -11.844320 -2.102600 1.711922
v -11.844320 -2.102600 1.721922
v -11.907565 -2.153450 1.721922
v -11.885082 -2.135374 1.711922
v -11.975410 -2.220830 1.643202
v -11.767016 -2.053277 1.618528
v -11.907565 -2.153450 1.711922
v -11.781270 -2.051907 1.740067
v -11.836332 -2.096178 1.697850
v -11.767016 -2.053277 1.655317
v -11.924049 -2.166704 1.721922
v -11.924049 -2.166704 1.711922
v -11.836332 -2.096178 1.683777
vn -0.0000 -0.0000 1.0000
vn 0.6266 -0.7793 -0.0000
vn 0.7793 0.6266 -0.0000
vn -0.0000 -0.0000 -1.0000
vn -0.7793 -0.6266 -0.0000
vn -0.1468 -0.9892 -0.0000
vn -0.0460 -0.9835 0.1747
vn -0.0639 -0.9980 -0.0000
vn -0.1273 -0.9735 0.1900
vn -0.6266 0.7793 -0.0000
vn 0.6266 -0.7793 -0.0001
vn 0.6266 -0.7793 0.0001
vn 0.6266 -0.7793 0.0002
vn 0.2773 -0.6482 0.7092
vn 0.1992 -0.7864 0.5847
vn 0.1393 -0.7591 0.6359
vn 0.3261 -0.6844 0.6521
vn 0.0902 -0.8741 0.4774
vn 0.0208 -0.8544 0.5192
vn 0.8343 -0.2758 -0.4774
vn 0.7115 -0.2990 -0.6359
vn 0.7253 -0.3634 -0.5847
vn 0.8300 -0.2037 -0.5192
vn -0.0460 -0.9835 -0.1747
vn -0.1273 -0.9735 -0.1900
vn 0.5985 -0.4655 -0.6521
vn 0.4254 -0.5291 -0.7343
vn 0.4622 -0.5749 -0.6751
vn 0.5735 -0.4100 -0.7092
vn 0.3261 -0.6844 -0.6521
vn 0.1393 -0.7591 -0.6359
vn 0.1992 -0.7864 -0.5847
vn 0.2773 -0.6482 -0.7092
vn 0.0902 -0.8741 -0.4774
vn 0.0208 -0.8544 -0.5192
vn -0.0702 -0.9275 0.3671
vn 0.0066 -0.9413 0.3376
vn 0.9210 -0.1306 0.3671
vn 0.9705 -0.1663 0.1747
vn 0.9179 -0.2086 0.3376
vn 0.9781 -0.0847 0.1900
vn -0.0702 -0.9275 -0.3671
vn 0.0066 -0.9413 -0.3376
vn 0.9781 -0.0847 -0.1900
vn 0.9179 -0.2086 -0.3376
vn 0.9705 -0.1663 -0.1747
vn 0.9210 -0.1306 -0.3671
vn 0.9976 -0.0690 -0.0000
vn 0.9884 -0.1519 -0.0000
vn 0.8300 -0.2037 0.5192
vn 0.8343 -0.2758 0.4774
vn 0.7115 -0.2990 0.6359
vn 0.7253 -0.3634 0.5847
vn 0.5735 -0.4100 0.7092
vn 0.5985 -0.4655 0.6521
vn 0.4254 -0.5291 0.7343
vn 0.4622 -0.5749 0.6751
s 0
s 1
s 0
s 1
s 0
usemtl Material
f 1//3 9//3 4//3
f 9//3 1//3 6//3
f 17//4 6//4 5//4
f 6//4 17//4 9//4
f 16//4 5//4 20//4
f 5//4 16//4 17//4
f 29//4 30//4 31//4
f 30//4 29//4 32//4
f 33//5 34//5 35//5
f 34//5 33//5 36//5
f 25//5 45//5 46//5
f 45//5 25//5 27//5
f 51//5 52//5 53//5
f 52//5 51//5 54//5
f 55//1 56//1 57//1
f 56//1 55//1 58//1
f 96//4 108//4 95//4
f 108//4 96//4 109//4
f 123//5 11//5 14//5
f 11//5 123//5 124//5
f 47//4 119//4 50//4
f 119//4 47//4 136//4
f 15//4 123//4 14//4
f 123//4 15//4 137//4
f 36//5 71//5 34//5
f 71//5 36//5 128//5
f 90//4 160//4 89//4
f 160//4 90//4 157//4
f 132//3 96//3 104//3
f 96//3 132//3 109//3
f 129//3 103//3 102//3
f 103//3 129//3 131//3
f 165//5 35//5 91//5
f 35//5 165//5 33//5
f 131//3 104//3 103//3
f 104//3 131//3 132//3
f 15//4 20//4 137//4
f 20//4 15//4 16//4
f 164//1 58//1 55//1
f 58//1 164//1 97//1
f 169//5 91//5 92//5
f 91//5 169//5 165//5
f 87//4 51//4 53//4
f 51//4 87//4 168//4
f 89//4 163//4 88//4
f 163//4 89//4 160//4
f 57//1 101//1 116//1
f 101//1 57//1 56//1
f 70//4 25//4 46//4
f 25//4 70//4 28//4
f 128//1 101//1 71//1
f 101//1 128//1 116//1
f 95//4 135//4 94//4
f 135//4 95//4 108//4
f 164//3 102//3 97//3
f 102//3 164//3 129//3
f 93//4 135//4 133//4
f 135//4 93//4 94//4
f 93//4 169//4 92//4
f 169//4 93//4 133//4
