o Sketchup
v -10.516878 -5.211632 2.169422
v -10.466878 -5.291632 2.169422
v -10.466878 -5.211632 2.169422
v -10.516878 -5.291632 2.169422
v -10.266878 -5.291632 2.099422
v -10.316878 -5.211632 2.099422
v -10.266878 -5.121254 2.099422
v -10.716878 -5.291632 2.099422
v -10.666879 -5.211632 2.099422
v -10.666879 -5.101632 2.099422
v -10.716878 -5.101632 2.099422
v -10.316878 -5.121254 2.099422
v -10.516878 -5.291632 2.134422
v -10.516878 -5.211632 2.134422
v -10.466878 -5.291632 2.134422
v -10.266878 -5.291632 2.134422
v -10.716878 -5.291632 2.134422
v -10.466878 -5.211632 2.134422
v -10.716878 -5.101632 2.134422
v -10.666879 -5.211632 2.134422
v -10.666879 -5.101632 2.134422
v -10.266878 -5.121254 2.134422
v -10.316878 -5.121254 2.134422
v -10.316878 -5.211632 2.134422
v -5.890269 -3.275244 2.316746
v -7.729367 -3.275244 1.567648
v -5.890269 -3.275244 1.567648
v -7.729367 -3.275244 2.316746
v -5.890269 -3.235244 1.567648
v -7.729367 -3.235244 1.567648
v -7.729367 -3.235244 2.316746
v -5.890269 -3.235244 2.316746
v -7.690288 -3.235244 1.606727
v -7.690288 -3.235244 2.277667
v -5.929348 -3.235244 2.277667
v -5.929348 -3.235244 1.606727
v -7.690288 -3.255244 2.277667
v -5.929348 -3.255244 1.606727
v -7.690288 -3.255244 1.606727
v -5.929348 -3.255244 2.277667
vn -0.0000 -0.0000 1.0000
vn -0.0000 -0.0000 -1.0000
vn -1.0000 -0.0000 -0.0000
vn -0.0000 -1.0000 -0.0000
vn 1.0000 -0.0000 -0.0000
vn -0.0000 1.0000 -0.0000
vt 414.050323 205.182358
vt 205.182358 85.410324
vt 414.050323 85.410324
vt 412.081818 208.331970
vt -412.081818 85.410324
vt -208.331970 85.410324
vt 412.081818 205.182358
vt -205.182358 85.410324
vt 412.081818 85.410324
vt 414.050323 208.331970
vt 208.331970 85.410324
vt -414.050323 85.410324
vt -404.207794 208.331970
vt -404.207794 82.654419
vt -208.331970 82.654419
vt -406.176300 205.182358
vt 406.176300 82.654419
vt 205.182358 82.654419
vt -404.207794 201.624176
vt -201.624176 82.654419
vt 404.207794 82.654419
vt -421.924347 208.331970
vt -421.924347 82.654419
vt 208.331970 82.654419
vt -419.955841 205.182358
vt 419.955841 82.654419
vt -205.182358 82.654419
vt -419.955841 200.851654
vt 419.955841 82.654419
vt -200.851654 82.654419
vt -421.924347 200.851654
vt 200.851654 82.654419
vt 421.924347 82.654419
vt -406.176300 201.624176
vt 406.176300 82.654419
vt 201.624176 82.654419
vt 208.331970 84.032372
vt -414.050323 84.032372
vt 414.050323 208.331970
vt 205.182358 84.032372
vt 414.050323 205.182358
vt 414.050323 84.032372
vt -412.081818 84.032372
vt -208.331970 84.032372
vt 412.081818 208.331970
vt -404.207794 84.032372
vt -208.331970 84.032372
vt 404.207794 208.331970
vt -421.924347 84.032372
vt 208.331970 84.032372
vt 421.924347 208.331970
vt -205.182358 84.032372
vt 412.081818 205.182358
vt 412.081818 84.032372
vt 200.851654 84.032372
vt 421.924347 200.851654
vt 421.924347 84.032372
vt 419.955841 205.182358
vt 419.955841 84.032372
vt -205.182358 84.032372
vt 419.955841 200.851654
vt 419.955841 84.032372
vt -200.851654 84.032372
vt -201.624176 84.032372
vt 404.207794 201.624176
vt 404.207794 84.032372
vt 406.176300 201.624176
vt 406.176300 84.032372
vt 201.624176 84.032372
vt 406.176300 205.182358
vt 406.176300 84.032372
vt 205.182358 84.032372
vt -231.900345 91.210472
vt 231.900345 128.946625
vt -128.946625 91.210472
vt -304.305786 61.718426
vt -304.305786 128.946625
vt 128.946625 61.718426
vt -231.900345 61.718426
vt -231.900345 128.946625
vt -128.946625 61.718426
vt -304.305786 91.210472
vt 128.946625 91.210472
vt 304.305786 128.946625
vt -231.900345 127.371811
vt -127.371811 61.718426
vt 231.900345 61.718426
vt -304.305786 127.371811
vt 127.371811 61.718426
vt 304.305786 61.718426
vt 127.371811 91.210472
vt 304.305786 127.371811
vt 304.305786 91.210472
vt 231.900345 127.371811
vt -127.371811 91.210472
vt 231.900345 91.210472
vt 302.767242 63.256977
vt 302.767242 127.371811
vt -127.371811 63.256977
vt 302.767242 89.671921
vt -127.371811 89.671921
vt -302.767242 127.371811
vt 233.438904 89.671921
vt 127.371811 89.671921
vt -233.438904 127.371811
vt 233.438904 63.256977
vt 127.371811 63.256977
vt 233.438904 127.371811
vt 4.205101 1.245443
vt -128.159210 89.671921
vt -302.767242 128.159210
vt 3.242207 0.878569
vt 128.159210 63.256977
vt 233.438904 128.159210
vt 4.205101 0.878569
vt 302.767242 128.159210
vt -128.159210 63.256977
vt 3.242207 1.245443
vt 128.159210 89.671921
vt -233.438904 128.159210
s 0
usemtl [Color_007]1
f 26/77/2 29/85/2 27/80/2
f 29/85/2 26/77/2 30/88/2
f 26/78/3 31/91/3 30/89/3
f 31/91/3 26/78/3 28/83/3
f 31/92/1 25/74/1 32/94/1
f 25/74/1 31/92/1 28/84/1
f 32/95/5 27/81/5 29/86/5
f 27/81/5 32/95/5 25/75/5
f 30/90/6 33/97/6 29/87/6
f 33/97/6 30/90/6 31/93/6
f 33/97/6 31/93/6 34/100/6
f 34/100/6 31/93/6 35/103/6
f 29/87/6 36/106/6 32/96/6
f 36/106/6 29/87/6 33/97/6
f 32/96/6 36/106/6 35/103/6
f 32/96/6 35/103/6 31/93/6
f 38/113/3 35/104/3 36/107/3
f 35/104/3 38/113/3 40/119/3
f 33/98/1 38/114/1 36/108/1
f 38/114/1 33/98/1 39/116/1
f 34/101/5 39/117/5 33/99/5
f 39/117/5 34/101/5 37/110/5
f 37/111/2 35/105/2 40/120/2
f 35/105/2 37/111/2 34/102/2
