o Vaporizer_3
v -13.327433 -4.758514 1.306464
v -13.324436 -4.747319 1.225071
v -13.324436 -4.747319 1.306464
v -13.327433 -4.758514 1.225071
v -13.336058 -4.773748 1.393777
v -13.331037 -4.770232 1.367139
v -13.324884 -4.759570 1.367139
v -13.328989 -4.740470 1.393777
v -13.321704 -4.735369 1.367139
v -13.332522 -4.728822 1.393777
v -13.341434 -4.706306 1.367139
v -13.333238 -4.714499 1.316823
v -13.341434 -4.706306 1.316823
v -13.333238 -4.714499 1.367139
v -13.391203 -4.701260 1.393777
v -13.380260 -4.698735 1.393777
v -13.386509 -4.697973 1.367139
v -13.324892 -4.723479 1.367139
v -13.343767 -4.781759 1.393777
v -13.330819 -4.763725 1.393777
v -13.403669 -4.768569 1.296105
v -13.409466 -4.758533 1.225071
v -13.403669 -4.768569 1.225071
v -13.409466 -4.758533 1.296105
v -13.374619 -4.694785 1.367139
v -13.368777 -4.699311 1.393777
v -13.362309 -4.694782 1.367139
v -13.351473 -4.700514 1.306464
v -13.341434 -4.706306 1.225071
v -13.351473 -4.700514 1.225071
v -13.341434 -4.706306 1.306464
v -13.385452 -4.700521 1.306464
v -13.374258 -4.697519 1.316823
v -13.374258 -4.697519 1.306464
v -13.385452 -4.700521 1.316823
v -13.327433 -4.758514 1.367139
v -13.324436 -4.747319 1.316823
v -13.324436 -4.747319 1.367139
v -13.327433 -4.758514 1.316823
v -13.341419 -4.776750 1.306464
v -13.339739 -4.778938 1.296105
v -13.341419 -4.776750 1.296105
v -13.339739 -4.778938 1.367139
v -13.341419 -4.776750 1.316823
v -13.341419 -4.776750 1.367139
v -13.333225 -4.768553 1.306464
v -13.333225 -4.768553 1.225071
v -13.351455 -4.782547 1.296105
v -13.341419 -4.776750 1.225071
v -13.351455 -4.782547 1.225071
v -13.374258 -4.697519 1.225071
v -13.362669 -4.697517 1.306464
v -13.362669 -4.697517 1.225071
v -13.324438 -4.735729 1.306464
v -13.324438 -4.735729 1.225071
v -13.333225 -4.768553 1.316823
v -13.327441 -4.724535 1.316823
v -13.327441 -4.724535 1.367139
v -13.351473 -4.700514 1.316823
v -13.362669 -4.697517 1.316823
v -13.333238 -4.714499 1.306464
v -13.412469 -4.747339 1.367139
v -13.412469 -4.747339 1.296105
v -13.409466 -4.758533 1.367139
v -13.374238 -4.785552 1.296105
v -13.362649 -4.785549 1.225071
v -13.362649 -4.785549 1.296105
v -13.374238 -4.785552 1.225071
v -13.400858 -4.706714 1.393777
v -13.397168 -4.704131 1.367139
v -13.347299 -4.709399 1.393777
v -13.331050 -4.712820 1.367139
v -13.339756 -4.704117 1.367139
v -13.333225 -4.768553 1.367139
v -13.328408 -4.752375 1.393777
v -13.321701 -4.747679 1.367139
v -13.357534 -4.702948 1.393777
v -13.350418 -4.697965 1.367139
v -13.324438 -4.735729 1.367139
v -13.324438 -4.735729 1.316823
v -13.351473 -4.700514 1.367139
v -13.362669 -4.697517 1.367139
v -13.374258 -4.697519 1.367139
v -13.385452 -4.700521 1.367139
v -13.395488 -4.706319 1.367139
v -13.400351 -4.821379 1.296105
v -13.400351 -4.821379 1.393777
v -13.395488 -4.706319 1.296105
v -13.397168 -4.704131 1.296105
v -13.395488 -4.706319 1.306464
v -13.395488 -4.706319 1.316823
v -13.395488 -4.706319 1.225071
v -13.385452 -4.700521 1.225071
v -13.327441 -4.724535 1.306464
v -13.454392 -4.744200 1.296105
v -13.454392 -4.744200 1.393777
v -13.412469 -4.747339 1.225071
v -13.338768 -4.718224 1.393777
v -13.409474 -4.724554 1.225071
v -13.403682 -4.714516 1.296105
v -13.403682 -4.714516 1.225071
v -13.409474 -4.724554 1.296105
v -13.412471 -4.735750 1.225071
v -13.412471 -4.735750 1.296105
v -13.385434 -4.782555 1.225071
v -13.385434 -4.782555 1.296105
v -13.327441 -4.724535 1.225071
v -13.333238 -4.714499 1.225071
v -13.395473 -4.776762 1.296105
v -13.395473 -4.776762 1.225071
v -13.412471 -4.735750 1.367139
vn 0.9240 -0.3825 -0.0000
vn 0.7280 -0.0957 -0.6789
vn 0.9915 -0.1303 -0.0000
vn 0.6784 -0.2808 -0.6789
vn 0.5660 -0.4289 0.7040
vn 0.6103 -0.4491 -0.6526
vn 0.7283 -0.2822 -0.6245
vn 0.6214 0.0963 0.7775
vn 0.8160 0.1210 -0.5652
vn 0.5621 0.2402 0.7914
vn 0.4109 0.5357 -0.7377
vn 0.7932 0.6089 -0.0000
vn 0.6086 0.7935 -0.0000
vn 0.5355 0.4111 -0.7377
vn -0.2748 0.6670 0.6926
vn -0.0784 0.6908 0.7188
vn -0.2733 0.7020 -0.6577
vn 0.7687 0.3248 -0.5511
vn 0.4615 -0.5545 0.6925
vn 0.6335 -0.2464 0.7335
vn -0.5355 -0.4111 -0.7377
vn -0.6783 -0.2811 -0.6789
vn -0.5824 -0.4471 -0.6789
vn -0.3629 -0.2096 -0.9080
vn -0.0824 0.7732 -0.6288
vn 0.0995 0.6554 0.7487
vn 0.1175 0.7893 -0.6027
vn 0.3825 0.9240 -0.0000
vn 0.4469 0.5826 -0.6789
vn 0.2808 0.6784 -0.6789
vn -0.3829 0.9238 -0.0000
vn -0.1308 0.9914 -0.0000
vn 0.6238 -0.2582 -0.7377
vn 0.6694 -0.0880 -0.7377
vn 0.7935 -0.6086 -0.0000
vn 0.5826 -0.4469 -0.6789
vn 0.2585 -0.6237 -0.7377
vn 0.4471 -0.5824 -0.6789
vn 0.8054 -0.1600 0.5708
vn 0.2811 -0.6783 -0.6789
vn -0.0960 0.7280 -0.6789
vn 0.1303 0.9915 -0.0000
vn 0.0957 0.7280 -0.6789
vn 0.9914 0.1308 -0.0000
vn 0.7280 0.0960 -0.6789
vn 0.9979 -0.0652 -0.0000
vn 0.9238 0.3829 -0.0000
vn 0.6237 0.2585 -0.7377
vn -0.0000 -0.0000 -1.0000
vn 0.9659 0.2590 -0.0000
vn -0.0880 -0.6694 -0.7377
vn 0.0960 -0.7280 -0.6789
vn 0.0883 -0.6693 -0.7377
vn -0.0957 -0.7280 -0.6789
vn -0.3845 0.6030 0.6990
vn -0.2517 0.9301 -0.2674
vn 0.3817 0.4788 0.7906
vn 0.6649 0.5070 -0.5485
vn 0.5134 0.6522 -0.5578
vn 0.5357 -0.4109 -0.7377
vn 0.6479 -0.0625 0.7592
vn 0.8023 -0.0823 -0.5913
vn 0.2573 0.5762 0.7757
vn 0.3268 0.7481 -0.5776
vn 0.8096 -0.0529 -0.5845
vn 0.6693 0.0883 -0.7377
vn 0.5736 -0.8192 -0.0000
vn -0.4471 0.5824 -0.6789
vn -0.2811 0.6783 -0.6789
vn 0.1949 0.9808 -0.0000
vn 0.0535 0.8194 0.5708
vn 0.0880 0.6694 -0.7377
vn 0.2582 0.6238 -0.7377
vn -0.0883 0.6693 -0.7377
vn -0.2585 0.6237 -0.7377
vn -0.8192 -0.5736 -0.0000
vn -0.5736 0.8192 -0.0000
vn -0.7280 -0.0960 -0.6789
vn 0.4818 0.3666 0.7959
vn -0.6784 0.2808 -0.6789
vn -0.5357 0.4109 -0.7377
vn -0.5826 0.4469 -0.6789
vn -0.6238 0.2582 -0.7377
vn -0.7280 0.0957 -0.6789
vn -0.4048 0.1084 -0.9080
vn -0.2808 -0.6784 -0.6789
vn -0.2582 -0.6238 -0.7377
vn 0.6783 0.2811 -0.6789
vn 0.5824 0.4471 -0.6789
vn -0.4109 -0.5357 -0.7377
vn -0.4469 -0.5826 -0.6789
vn 0.1581 0.7958 -0.5845
vn -0.0000 -0.0000 1.0000
vn 1.0000 0.0002 -0.0000
vn 0.8090 -0.5233 -0.2678
s 1
s 0
s 1
s 0
s 1
s 0
s 1
s 0
s 1
s 0
s 1
s 0
s 1
usemtl [Color_004]
f 1//1 2//2 3//3
f 2//2 1//1 4//4
f 21//21 22//22 23//23
f 22//22 21//21 24//24
f 28//28 29//29 30//30
f 29//29 28//28 31//13
f 1//1 46//35 4//4
f 4//4 46//35 47//36
f 48//37 49//38 42//39
f 49//38 48//37 50//40
f 51//41 52//42 53//43
f 52//42 51//41 34//32
f 54//44 2//2 55//45
f 2//2 54//44 3//3
f 65//51 66//52 67//53
f 66//52 65//51 68//54
f 52//42 30//30 53//43
f 30//30 52//42 28//28
f 92//68 32//31 93//69
f 32//31 92//68 90//70
f 90//70 92//68 88//71
f 67//53 50//40 48//37
f 50//40 67//53 66//52
f 40//46 47//36 46//35
f 47//36 40//46 49//38
f 49//38 40//46 42//39
f 24//24 97//78 22//22
f 97//78 24//24 63//49
f 99//80 100//81 101//82
f 100//81 99//80 102//83
f 63//49 103//84 97//78
f 103//84 63//49 104//85
f 103//84 102//83 99//80
f 102//83 103//84 104//85
f 93//69 34//32 51//41
f 34//32 93//69 32//31
f 65//51 105//86 68//54
f 105//86 65//51 106//87
f 61//12 107//88 108//89
f 107//88 61//12 94//47
f 109//90 23//23 110//91
f 23//23 109//90 21//21
f 106//87 110//91 105//86
f 110//91 106//87 109//90
f 101//82 88//71 92//68
f 88//71 101//82 100//81
f 31//13 108//89 29//29
f 108//89 31//13 61//12
f 94//47 55//45 107//88
f 55//45 94//47 54//44
