o Vaporizer_1
v -13.421475 -4.600105 1.388200
v -13.407599 -4.605360 1.361562
v -13.413757 -4.594701 1.361562
v -13.451485 -4.581192 1.388200
v -13.433125 -4.579846 1.361562
v -13.445017 -4.576663 1.361562
v -13.483058 -4.703260 1.388200
v -13.537100 -4.626081 1.290528
v -13.483058 -4.703260 1.290528
v -13.537100 -4.626081 1.388200
v -13.445356 -4.667430 1.290528
v -13.434162 -4.664428 1.219495
v -13.434162 -4.664428 1.290528
v -13.445356 -4.667430 1.219495
v -13.424127 -4.658631 1.300887
v -13.415933 -4.650434 1.219495
v -13.415933 -4.650434 1.300887
v -13.424127 -4.658631 1.219495
v -13.424127 -4.658631 1.290528
v -13.479876 -4.586011 1.361562
v -13.479876 -4.586011 1.290528
v -13.483565 -4.588595 1.388200
v -13.492174 -4.640414 1.290528
v -13.495176 -4.629220 1.219495
v -13.492174 -4.640414 1.219495
v -13.495176 -4.629220 1.290528
v -13.430006 -4.591280 1.388200
v -13.492182 -4.606435 1.219495
v -13.486389 -4.596396 1.290528
v -13.486389 -4.596396 1.219495
v -13.492182 -4.606435 1.290528
v -13.495178 -4.617630 1.219495
v -13.495178 -4.617630 1.290528
v -13.411696 -4.622351 1.388200
v -13.404408 -4.629560 1.361562
v -13.404411 -4.617249 1.361562
v -13.415230 -4.610703 1.388200
v -13.410140 -4.640395 1.219495
v -13.456945 -4.667433 1.219495
v -13.407144 -4.629200 1.219495
v -13.468142 -4.664436 1.219495
v -13.407146 -4.617610 1.219495
v -13.478180 -4.658643 1.219495
v -13.410149 -4.606416 1.219495
v -13.486377 -4.650450 1.219495
v -13.415945 -4.596380 1.219495
v -13.424142 -4.588187 1.219495
v -13.434180 -4.582395 1.219495
v -13.445376 -4.579398 1.219495
v -13.456965 -4.579400 1.219495
v -13.468160 -4.582402 1.219495
v -13.478195 -4.588200 1.219495
v -13.424127 -4.658631 1.361562
v -13.415933 -4.650434 1.311247
v -13.415933 -4.650434 1.361562
v -13.424127 -4.658631 1.311247
v -13.456965 -4.579400 1.311247
v -13.445376 -4.579398 1.361562
v -13.445376 -4.579398 1.311247
v -13.456965 -4.579400 1.361562
v -13.478195 -4.588200 1.290528
v -13.478195 -4.588200 1.300887
v -13.478195 -4.588200 1.311247
v -13.478195 -4.588200 1.361562
v -13.426475 -4.663640 1.388200
v -13.422446 -4.660819 1.290528
v -13.422446 -4.660819 1.361562
v -13.422463 -4.585998 1.361562
v -13.440242 -4.584829 1.388200
v -13.410140 -4.640395 1.311247
v -13.407144 -4.629200 1.300887
v -13.407144 -4.629200 1.311247
v -13.410140 -4.640395 1.300887
v -13.468160 -4.582402 1.311247
v -13.468160 -4.582402 1.300887
v -13.469216 -4.579854 1.361562
v -13.462968 -4.580616 1.388200
v -13.457327 -4.576665 1.361562
v -13.445376 -4.579398 1.300887
v -13.434180 -4.582395 1.300887
v -13.456945 -4.667433 1.290528
v -13.468142 -4.664436 1.290528
v -13.478180 -4.658643 1.290528
v -13.486377 -4.650450 1.290528
v -13.407146 -4.617610 1.311247
v -13.407146 -4.617610 1.300887
v -13.413744 -4.652112 1.361562
v -13.407592 -4.641450 1.361562
v -13.410140 -4.640395 1.361562
v -13.407144 -4.629200 1.361562
v -13.407146 -4.617610 1.361562
v -13.410149 -4.606416 1.361562
v -13.415945 -4.596380 1.361562
v -13.424142 -4.588187 1.361562
v -13.434180 -4.582395 1.361562
v -13.468160 -4.582402 1.361562
v -13.424142 -4.588187 1.300887
v -13.415945 -4.596380 1.300887
v -13.413527 -4.645606 1.388200
v -13.495178 -4.617630 1.361562
v -13.495176 -4.629220 1.361562
v -13.424142 -4.588187 1.311247
v -13.434180 -4.582395 1.311247
v -13.410149 -4.606416 1.311247
v -13.410149 -4.606416 1.300887
v -13.411116 -4.634256 1.388200
v -13.456965 -4.579400 1.300887
v -13.418765 -4.655629 1.388200
v -13.473910 -4.583141 1.388200
v -13.415945 -4.596380 1.311247
v -13.492174 -4.640414 1.361562
vn 0.4818 0.3666 0.7959
vn 0.7687 0.3248 -0.5511
vn 0.6649 0.5070 -0.5485
vn 0.0995 0.6554 0.7487
vn 0.3268 0.7481 -0.5776
vn 0.1175 0.7893 -0.6027
vn -0.8192 -0.5736 -0.0000
vn 0.0883 -0.6693 -0.7377
vn 0.2811 -0.6783 -0.6789
vn 0.2585 -0.6237 -0.7377
vn 0.0960 -0.7280 -0.6789
vn 0.9979 -0.0652 -0.0000
vn 0.5826 -0.4469 -0.6789
vn 0.7935 -0.6086 -0.0000
vn 0.4471 -0.5824 -0.6789
vn 0.8054 -0.1600 0.5708
vn -0.5736 0.8192 -0.0000
vn -0.3629 -0.2096 -0.9080
vn -0.7280 -0.0960 -0.6789
vn -0.6783 -0.2811 -0.6789
vn -0.0000 -0.0000 -1.0000
vn 0.3817 0.4788 0.7906
vn -0.6784 0.2808 -0.6789
vn -0.5357 0.4109 -0.7377
vn -0.5826 0.4469 -0.6789
vn -0.6238 0.2582 -0.7377
vn -0.7280 0.0957 -0.6789
vn -0.4048 0.1084 -0.9080
vn 0.6214 0.0963 0.7775
vn 0.8023 -0.0823 -0.5913
vn 0.8160 0.1210 -0.5652
vn 0.5621 0.2402 0.7914
vn 0.8096 -0.0529 -0.5845
vn 0.5357 -0.4109 -0.7377
vn -0.1308 0.9914 -0.0000
vn 0.0880 0.6694 -0.7377
vn 0.1303 0.9915 -0.0000
vn -0.0883 0.6693 -0.7377
vn 0.7932 0.6089 -0.0000
vn 0.5736 -0.8192 -0.0000
vn 0.5134 0.6522 -0.5578
vn 0.2573 0.5762 0.7757
vn 0.9240 -0.3825 -0.0000
vn 0.9915 -0.1303 -0.0000
vn 0.1949 0.9808 -0.0000
vn -0.3829 0.9238 -0.0000
vn -0.2733 0.7020 -0.6577
vn -0.0784 0.6908 0.7188
vn -0.0824 0.7732 -0.6288
vn 0.2808 0.6784 -0.6789
vn 0.0957 0.7280 -0.6789
vn 0.3825 0.9240 -0.0000
vn 0.9914 0.1308 -0.0000
vn 0.6086 0.7935 -0.0000
vn 0.5824 0.4471 -0.6789
vn 0.4469 0.5826 -0.6789
vn 0.6335 -0.2464 0.7335
vn 0.7283 -0.2822 -0.6245
vn 1.0000 0.0002 -0.0000
vn 0.2582 0.6238 -0.7377
vn 0.4109 0.5357 -0.7377
vn -0.2585 0.6237 -0.7377
vn 0.9238 0.3829 -0.0000
vn 0.6237 0.2585 -0.7377
vn 0.6693 0.0883 -0.7377
vn 0.6694 -0.0880 -0.7377
vn 0.1581 0.7958 -0.5845
vn -0.4471 0.5824 -0.6789
vn -0.2811 0.6783 -0.6789
vn 0.0535 0.8194 0.5708
vn 0.6479 -0.0625 0.7592
vn 0.4615 -0.5545 0.6925
vn 0.8090 -0.5233 -0.2678
vn 0.6103 -0.4491 -0.6526
vn 0.7280 0.0960 -0.6789
vn 0.6783 0.2811 -0.6789
vn -0.0960 0.7280 -0.6789
vn -0.2582 -0.6238 -0.7377
vn -0.4469 -0.5826 -0.6789
vn -0.2808 -0.6784 -0.6789
vn -0.4109 -0.5357 -0.7377
vn -0.0000 -0.0000 1.0000
vn -0.5824 -0.4471 -0.6789
vn -0.5355 -0.4111 -0.7377
vn 0.5660 -0.4289 0.7040
vn 0.7280 -0.0957 -0.6789
vn 0.6784 -0.2808 -0.6789
vn 0.5355 0.4111 -0.7377
vn -0.0880 -0.6694 -0.7377
vn -0.0957 -0.7280 -0.6789
vn -0.2748 0.6670 0.6926
vn -0.3845 0.6030 0.6990
vn -0.2517 0.9301 -0.2674
vn 0.6238 -0.2582 -0.7377
vn 0.9659 0.2590 -0.0000
s 1
s 0
s 1
s 0
s 1
s 0
s 1
s 0
s 1
s 0
s 1
s 0
s 1
usemtl [Color_004]
f 11//8 12//9 13//10
f 12//9 11//8 14//11
f 15//12 16//13 17//14
f 16//13 15//12 18//15
f 18//15 15//12 19//16
f 23//18 24//19 25//20
f 24//19 23//18 26//21
f 28//23 29//24 30//25
f 29//24 28//23 31//26
f 26//21 32//27 24//19
f 32//27 26//21 33//28
f 32//27 31//26 28//23
f 31//26 32//27 33//28
f 79//37 48//50 49//51
f 48//50 79//37 80//52
f 97//54 46//55 47//56
f 46//55 97//54 98//39
f 52//68 75//46 51//69
f 75//46 52//68 62//45
f 62//45 52//68 61//70
f 105//63 42//75 44//76
f 42//75 105//63 86//53
f 51//69 107//35 50//77
f 107//35 51//69 75//46
f 30//25 61//70 52//68
f 61//70 30//25 29//24
f 82//78 43//79 41//80
f 43//79 82//78 83//81
f 83//81 45//83 43//79
f 45//83 83//81 84//84
f 98//39 44//76 46//55
f 44//76 98//39 105//63
f 73//43 40//86 71//44
f 40//86 73//43 38//87
f 17//14 38//87 73//43
f 38//87 17//14 16//13
f 84//84 25//20 45//83
f 25//20 84//84 23//18
f 81//89 41//80 39//90
f 41//80 81//89 82//78
f 80//52 47//56 48//50
f 47//56 80//52 97//54
f 81//89 14//11 11//8
f 14//11 81//89 39//90
f 50//77 79//37 49//51
f 79//37 50//77 107//35
f 86//53 40//86 42//75
f 40//86 86//53 71//44
f 13//10 18//15 19//16
f 18//15 13//10 12//9
