o Vaporizer_3
v -13.327433 -4.758514 1.306464
v -13.324436 -4.747319 1.225071
v -13.324436 -4.747319 1.306464
v -13.327433 -4.758514 1.225071
v -13.336058 -4.773748 1.393777
v -13.331037 -4.770232 1.367139
v -13.324884 -4.759570 1.367139
v -13.328989 -4.740470 1.393777
v -13.321704 -4.735369 1.367139
v -13.332522 -4.728822 1.393777
v -13.341434 -4.706306 1.367139
v -13.333238 -4.714499 1.316823
v -13.341434 -4.706306 1.316823
v -13.333238 -4.714499 1.367139
v -13.391203 -4.701260 1.393777
v -13.380260 -4.698735 1.393777
v -13.386509 -4.697973 1.367139
v -13.324892 -4.723479 1.367139
v -13.343767 -4.781759 1.393777
v -13.330819 -4.763725 1.393777
v -13.403669 -4.768569 1.296105
v -13.409466 -4.758533 1.225071
v -13.403669 -4.768569 1.225071
v -13.409466 -4.758533 1.296105
v -13.374619 -4.694785 1.367139
v -13.368777 -4.699311 1.393777
v -13.362309 -4.694782 1.367139
v -13.351473 -4.700514 1.306464
v -13.341434 -4.706306 1.225071
v -13.351473 -4.700514 1.225071
v -13.341434 -4.706306 1.306464
v -13.385452 -4.700521 1.306464
v -13.374258 -4.697519 1.316823
v -13.374258 -4.697519 1.306464
v -13.385452 -4.700521 1.316823
v -13.327433 -4.758514 1.367139
v -13.324436 -4.747319 1.316823
v -13.324436 -4.747319 1.367139
v -13.327433 -4.758514 1.316823
v -13.341419 -4.776750 1.306464
v -13.339739 -4.778938 1.296105
v -13.341419 -4.776750 1.296105
v -13.339739 -4.778938 1.367139
v -13.341419 -4.776750 1.316823
v -13.341419 -4.776750 1.367139
v -13.333225 -4.768553 1.306464
v -13.333225 -4.768553 1.225071
v -13.351455 -4.782547 1.296105
v -13.341419 -4.776750 1.225071
v -13.351455 -4.782547 1.225071
v -13.374258 -4.697519 1.225071
v -13.362669 -4.697517 1.306464
v -13.362669 -4.697517 1.225071
v -13.324438 -4.735729 1.306464
v -13.324438 -4.735729 1.225071
v -13.333225 -4.768553 1.316823
v -13.327441 -4.724535 1.316823
v -13.327441 -4.724535 1.367139
v -13.351473 -4.700514 1.316823
v -13.362669 -4.697517 1.316823
v -13.333238 -4.714499 1.306464
v -13.412469 -4.747339 1.367139
v -13.412469 -4.747339 1.296105
v -13.409466 -4.758533 1.367139
v -13.374238 -4.785552 1.296105
v -13.362649 -4.785549 1.225071
v -13.362649 -4.785549 1.296105
v -13.374238 -4.785552 1.225071
v -13.400858 -4.706714 1.393777
v -13.397168 -4.704131 1.367139
v -13.347299 -4.709399 1.393777
v -13.331050 -4.712820 1.367139
v -13.339756 -4.704117 1.367139
v -13.333225 -4.768553 1.367139
v -13.328408 -4.752375 1.393777
v -13.321701 -4.747679 1.367139
v -13.357534 -4.702948 1.393777
v -13.350418 -4.697965 1.367139
v -13.324438 -4.735729 1.367139
v -13.324438 -4.735729 1.316823
v -13.351473 -4.700514 1.367139
v -13.362669 -4.697517 1.367139
v -13.374258 -4.697519 1.367139
v -13.385452 -4.700521 1.367139
v -13.395488 -4.706319 1.367139
v -13.400351 -4.821379 1.296105
v -13.400351 -4.821379 1.393777
v -13.395488 -4.706319 1.296105
v -13.397168 -4.704131 1.296105
v -13.395488 -4.706319 1.306464
v -13.395488 -4.706319 1.316823
v -13.395488 -4.706319 1.225071
v -13.385452 -4.700521 1.225071
v -13.327441 -4.724535 1.306464
v -13.454392 -4.744200 1.296105
v -13.454392 -4.744200 1.393777
v -13.412469 -4.747339 1.225071
v -13.338768 -4.718224 1.393777
v -13.409474 -4.724554 1.225071
v -13.403682 -4.714516 1.296105
v -13.403682 -4.714516 1.225071
v -13.409474 -4.724554 1.296105
v -13.412471 -4.735750 1.225071
v -13.412471 -4.735750 1.296105
v -13.385434 -4.782555 1.225071
v -13.385434 -4.782555 1.296105
v -13.327441 -4.724535 1.225071
v -13.333238 -4.714499 1.225071
v -13.395473 -4.776762 1.296105
v -13.395473 -4.776762 1.225071
v -13.412471 -4.735750 1.367139
vn 0.9240 -0.3825 -0.0000
vn 0.7280 -0.0957 -0.6789
vn 0.9915 -0.1303 -0.0000
vn 0.6784 -0.2808 -0.6789
vn 0.5660 -0.4289 0.7040
vn 0.6103 -0.4491 -0.6526
vn 0.7283 -0.2822 -0.6245
vn 0.6214 0.0963 0.7775
vn 0.8160 0.1210 -0.5652
vn 0.5621 0.2402 0.7914
vn 0.4109 0.5357 -0.7377
vn 0.7932 0.6089 -0.0000
vn 0.6086 0.7935 -0.0000
vn 0.5355 0.4111 -0.7377
vn -0.2748 0.6670 0.6926
vn -0.0784 0.6908 0.7188
vn -0.2733 0.7020 -0.6577
vn 0.7687 0.3248 -0.5511
vn 0.4615 -0.5545 0.6925
vn 0.6335 -0.2464 0.7335
vn -0.5355 -0.4111 -0.7377
vn -0.6783 -0.2811 -0.6789
vn -0.5824 -0.4471 -0.6789
vn -0.3629 -0.2096 -0.9080
vn -0.0824 0.7732 -0.6288
vn 0.0995 0.6554 0.7487
vn 0.1175 0.7893 -0.6027
vn 0.3825 0.9240 -0.0000
vn 0.4469 0.5826 -0.6789
vn 0.2808 0.6784 -0.6789
vn -0.3829 0.9238 -0.0000
vn -0.1308 0.9914 -0.0000
vn 0.6238 -0.2582 -0.7377
vn 0.6694 -0.0880 -0.7377
vn 0.7935 -0.6086 -0.0000
vn 0.5826 -0.4469 -0.6789
vn 0.2585 -0.6237 -0.7377
vn 0.4471 -0.5824 -0.6789
vn 0.8054 -0.1600 0.5708
vn 0.2811 -0.6783 -0.6789
vn -0.0960 0.7280 -0.6789
vn 0.1303 0.9915 -0.0000
vn 0.0957 0.7280 -0.6789
vn 0.9914 0.1308 -0.0000
vn 0.7280 0.0960 -0.6789
vn 0.9979 -0.0652 -0.0000
vn 0.9238 0.3829 -0.0000
vn 0.6237 0.2585 -0.7377
vn -0.0000 -0.0000 -1.0000
vn 0.9659 0.2590 -0.0000
vn -0.0880 -0.6694 -0.7377
vn 0.0960 -0.7280 -0.6789
vn 0.0883 -0.6693 -0.7377
vn -0.0957 -0.7280 -0.6789
vn -0.3845 0.6030 0.6990
vn -0.2517 0.9301 -0.2674
vn 0.3817 0.4788 0.7906
vn 0.6649 0.5070 -0.5485
vn 0.5134 0.6522 -0.5578
vn 0.5357 -0.4109 -0.7377
vn 0.6479 -0.0625 0.7592
vn 0.8023 -0.0823 -0.5913
vn 0.2573 0.5762 0.7757
vn 0.3268 0.7481 -0.5776
vn 0.8096 -0.0529 -0.5845
vn 0.6693 0.0883 -0.7377
vn 0.5736 -0.8192 -0.0000
vn -0.4471 0.5824 -0.6789
vn -0.2811 0.6783 -0.6789
vn 0.1949 0.9808 -0.0000
vn 0.0535 0.8194 0.5708
vn 0.0880 0.6694 -0.7377
vn 0.2582 0.6238 -0.7377
vn -0.0883 0.6693 -0.7377
vn -0.2585 0.6237 -0.7377
vn -0.8192 -0.5736 -0.0000
vn -0.5736 0.8192 -0.0000
vn -0.7280 -0.0960 -0.6789
vn 0.4818 0.3666 0.7959
vn -0.6784 0.2808 -0.6789
vn -0.5357 0.4109 -0.7377
vn -0.5826 0.4469 -0.6789
vn -0.6238 0.2582 -0.7377
vn -0.7280 0.0957 -0.6789
vn -0.4048 0.1084 -0.9080
vn -0.2808 -0.6784 -0.6789
vn -0.2582 -0.6238 -0.7377
vn 0.6783 0.2811 -0.6789
vn 0.5824 0.4471 -0.6789
vn -0.4109 -0.5357 -0.7377
vn -0.4469 -0.5826 -0.6789
vn 0.1581 0.7958 -0.5845
vn -0.0000 -0.0000 1.0000
vn 1.0000 0.0002 -0.0000
vn 0.8090 -0.5233 -0.2678
s 1
s 0
s 1
s 0
s 1
s 0
s 1
s 0
s 1
s 0
s 1
s 0
s 1
usemtl Material
f 11//11 12//12 13//13
f 12//12 11//11 14//14
f 36//33 37//3 38//34
f 37//3 36//33 39//1
f 14//14 57//47 12//12
f 57//47 14//14 58//48
f 62//44 24//24 63//49
f 24//24 62//44 64//50
f 74//60 39//1 36//33
f 39//1 74//60 56//35
f 45//65 56//35 74//60
f 56//35 45//65 44//46
f 79//66 37//3 80//44
f 37//3 79//66 38//34
f 82//72 59//28 60//42
f 59//28 82//72 81//73
f 35//31 83//74 33//32
f 83//74 35//31 84//75
f 33//32 82//72 60//42
f 82//72 33//32 83//74
f 91//70 84//75 35//31
f 84//75 91//70 85//92
f 58//48 80//44 57//47
f 80//44 58//48 79//66
f 50//49 47//49 49//49
f 47//49 50//49 66//49
f 47//49 66//49 4//49
f 4//49 66//49 68//49
f 4//49 68//49 2//49
f 2//49 68//49 105//49
f 2//49 105//49 55//49
f 55//49 105//49 110//49
f 55//49 110//49 107//49
f 107//49 110//49 23//49
f 107//49 23//49 108//49
f 108//49 23//49 22//49
f 108//49 22//49 29//49
f 29//49 22//49 97//49
f 29//49 97//49 30//49
f 30//49 97//49 103//49
f 30//49 103//49 53//49
f 53//49 103//49 99//49
f 53//49 99//49 51//49
f 51//49 99//49 101//49
f 51//49 101//49 93//49
f 93//49 101//49 92//49
f 111//94 63//49 104//85
f 63//49 111//94 62//44
f 81//73 13//13 59//28
f 13//13 81//73 11//11
