o Flowmeter_1
v -13.069195 -5.114792 1.233776
v -13.035698 -5.162631 1.213776
v -13.069195 -5.114792 1.213776
v -13.035698 -5.162631 1.233776
v -13.032923 -5.089395 1.233776
v -12.999426 -5.137234 1.213776
v -13.032923 -5.089395 1.213776
v -12.999426 -5.137234 1.233776
v -13.018990 -5.138869 1.233776
v -13.016184 -5.134465 1.233776
v -13.014614 -5.129486 1.233776
v -13.014386 -5.124270 1.233776
v -13.015516 -5.119173 1.233776
v -13.017927 -5.114542 1.233776
v -13.022839 -5.142396 1.233776
v -13.021455 -5.110692 1.233776
v -13.025858 -5.107887 1.233776
v -13.030837 -5.106317 1.233776
v -13.036054 -5.106089 1.233776
v -13.041151 -5.107219 1.233776
v -13.045782 -5.109630 1.233776
v -13.050694 -5.137485 1.233776
v -13.047166 -5.141334 1.233776
v -13.042763 -5.144139 1.233776
v -13.037784 -5.145709 1.233776
v -13.032567 -5.145937 1.233776
v -13.027470 -5.144807 1.233776
v -13.053104 -5.132854 1.233776
v -13.054235 -5.127756 1.233776
v -13.054007 -5.122540 1.233776
v -13.052437 -5.117561 1.233776
v -13.049631 -5.113157 1.233776
v -13.026110 -5.099126 1.166276
v -13.019064 -5.091754 1.171100
v -13.017918 -5.093390 1.166276
v -13.027255 -5.097489 1.171100
v -13.005095 -5.129139 1.096100
v -12.998049 -5.121767 1.091277
v -12.996902 -5.123404 1.096100
v -13.006240 -5.127502 1.091277
v -13.005014 -5.111819 1.195595
v -13.010439 -5.121506 1.193597
v -13.002248 -5.115770 1.193597
v -13.013206 -5.117555 1.195595
v -13.004704 -5.129697 1.101277
v -12.996511 -5.123961 1.101277
v -13.008063 -5.124899 1.190419
v -12.999871 -5.119163 1.190419
v -13.024286 -5.101730 1.162134
v -13.016095 -5.095994 1.162134
v -13.007983 -5.107579 1.196276
v -13.016174 -5.113314 1.196276
v -13.032567 -5.145937 1.433776
v -13.027470 -5.144807 1.433776
v -13.047166 -5.141334 1.433776
v -13.050694 -5.137485 1.433776
v -13.053104 -5.132854 1.433776
v -13.054235 -5.127756 1.433776
v -13.054007 -5.122540 1.433776
v -13.016184 -5.134465 1.433776
v -13.014614 -5.129486 1.433776
v -13.022839 -5.142396 1.433776
v -13.018990 -5.138869 1.433776
v -13.035698 -5.162631 1.433776
v -12.999426 -5.137234 1.433776
v -13.037784 -5.145709 1.433776
v -13.042763 -5.144139 1.433776
v -13.069195 -5.114792 1.433776
v -13.052437 -5.117561 1.433776
v -13.049631 -5.113157 1.433776
v -13.045782 -5.109630 1.433776
v -13.017927 -5.114542 1.433776
v -13.032923 -5.089395 1.433776
v -13.015516 -5.119173 1.433776
v -13.014386 -5.124270 1.433776
v -13.021455 -5.110692 1.433776
v -13.025858 -5.107887 1.433776
v -13.030837 -5.106317 1.433776
v -13.036054 -5.106089 1.433776
v -13.041151 -5.107219 1.433776
v -13.013719 -5.099387 1.158956
v -13.021911 -5.105123 1.158956
v -13.032923 -5.089395 1.453776
v -12.999426 -5.137234 1.453776
v -12.999871 -5.119163 1.087134
v -13.008063 -5.124899 1.087134
v -13.005095 -5.129139 1.106453
v -12.996902 -5.123404 1.106453
v -13.019144 -5.109074 1.081958
v -13.007983 -5.107579 1.081277
v -13.016174 -5.113314 1.081277
v -13.010952 -5.103338 1.081958
v -13.005014 -5.111819 1.081958
v -13.013719 -5.099387 1.083956
v -13.002248 -5.115770 1.083956
v -13.016095 -5.095994 1.087134
v -13.017918 -5.093390 1.091277
v -13.019064 -5.091754 1.096100
v -13.019455 -5.091196 1.101277
v -13.019064 -5.091754 1.106453
v -13.017918 -5.093390 1.111277
v -12.998049 -5.121767 1.111277
v -13.016095 -5.095994 1.115419
v -12.999871 -5.119163 1.115419
v -13.013719 -5.099387 1.118597
v -13.002248 -5.115770 1.118597
v -13.010952 -5.103338 1.120595
v -13.005014 -5.111819 1.120595
v -13.007983 -5.107579 1.121276
v -13.010952 -5.103338 1.156958
v -13.019144 -5.109074 1.156958
v -13.013206 -5.117555 1.081958
v -13.007983 -5.107579 1.156276
v -13.016174 -5.113314 1.156276
v -13.010952 -5.103338 1.195595
v -13.019144 -5.109074 1.195595
v -13.005014 -5.111819 1.156958
v -13.013206 -5.117555 1.156958
v -12.998049 -5.121767 1.186276
v -13.006240 -5.127502 1.186276
v -13.002248 -5.115770 1.158956
v -13.010439 -5.121506 1.158956
v -13.013719 -5.099387 1.193597
v -13.021911 -5.105123 1.193597
v -12.996902 -5.123404 1.181453
v -13.005095 -5.129139 1.181453
v -12.999871 -5.119163 1.162134
v -13.008063 -5.124899 1.162134
v -13.016095 -5.095994 1.190419
v -13.024286 -5.101730 1.190419
v -13.006240 -5.127502 1.166276
v -12.998049 -5.121767 1.166276
v -13.026110 -5.099126 1.186276
v -13.017918 -5.093390 1.186276
v -13.005095 -5.129139 1.171100
v -12.996902 -5.123404 1.171100
v -13.027255 -5.097489 1.181453
v -13.019064 -5.091754 1.181453
v -13.004704 -5.129697 1.176276
v -12.996511 -5.123961 1.176276
v -13.027646 -5.096931 1.176276
v -13.019455 -5.091196 1.176276
v -13.010439 -5.121506 1.083956
v -13.021911 -5.105123 1.083956
v -13.024286 -5.101730 1.087134
v -13.026110 -5.099126 1.091277
v -13.027255 -5.097489 1.096100
v -13.027646 -5.096931 1.101277
v -13.027255 -5.097489 1.106453
v -13.026110 -5.099126 1.111277
v -13.024286 -5.101730 1.115419
v -13.021911 -5.105123 1.118597
v -13.019144 -5.109074 1.120595
v -13.016174 -5.113314 1.121276
v -13.013206 -5.117555 1.120595
v -13.010439 -5.121506 1.118597
v -13.008063 -5.124899 1.115419
v -13.006240 -5.127502 1.111277
v -13.071969 -5.188028 1.453776
v -13.105466 -5.140190 1.453776
v -13.105466 -5.140190 1.063776
v -13.048575 -5.171648 1.063776
v -13.071969 -5.188028 1.063776
v -13.082072 -5.123810 1.063776
v -12.999426 -5.137234 1.063776
v -13.032923 -5.089395 1.063776
vn 0.8192 0.5736 -0.0000
vn 0.5736 -0.8192 -0.0000
vn -0.0000 -0.0000 1.0000
vn -0.5736 0.8192 -0.0000
vn 0.2689 0.9021 -0.3376
vn 0.1493 0.9704 -0.1900
vn 0.1914 0.9103 -0.3671
vn 0.2302 0.9573 -0.1747
vn 0.9783 -0.1111 -0.1747
vn 0.9208 -0.1315 -0.3671
vn 0.9629 -0.1916 -0.1900
vn 0.9396 -0.0558 -0.3376
vn 0.6651 0.2337 0.7092
vn 0.7979 0.1466 0.5847
vn 0.7667 0.0887 0.6359
vn 0.7045 0.2800 0.6521
vn 0.9915 -0.1299 -0.0000
vn 0.9773 -0.2121 -0.0000
vn 0.8781 0.0321 0.4774
vn 0.8539 -0.0359 0.5192
vn 0.3305 0.8142 -0.4774
vn 0.2583 0.8147 -0.5192
vn 0.5561 0.3894 0.7343
vn 0.6043 0.4231 0.6751
vn 0.0588 -0.6726 -0.7377
vn 0.2309 -0.6344 0.7377
vn 0.2309 -0.6344 -0.7377
vn 0.0588 -0.6726 0.7377
vn -0.4340 -0.5172 -0.7377
vn -0.5530 -0.3872 0.7377
vn -0.4340 -0.5172 0.7377
vn -0.5530 -0.3872 -0.7377
vn -0.6344 -0.2309 0.7377
vn -0.6344 -0.2309 -0.7377
vn -0.6726 -0.0588 0.7377
vn -0.6726 -0.0588 -0.7377
vn -0.6649 0.1172 0.7377
vn -0.6649 0.1172 -0.7377
vn 0.6119 -0.2853 -0.7377
vn 0.6649 -0.1172 0.7377
vn 0.6649 -0.1172 -0.7377
vn 0.6119 -0.2853 0.7377
vn 0.3872 -0.5530 -0.7377
vn 0.5172 -0.4340 0.7377
vn 0.5172 -0.4340 -0.7377
vn 0.3872 -0.5530 0.7377
vn -0.0000 -0.0000 -1.0000
vn 0.4340 0.5172 -0.7377
vn 0.5530 0.3872 0.7377
vn 0.4340 0.5172 0.7377
vn 0.5530 0.3872 -0.7377
vn 0.6344 0.2309 0.7377
vn 0.6344 0.2309 -0.7377
vn 0.3455 0.6901 -0.6359
vn 0.4107 0.6996 -0.5847
vn -0.1172 -0.6649 -0.7377
vn -0.1172 -0.6649 0.7377
vn -0.2853 -0.6119 0.7377
vn -0.2853 -0.6119 -0.7377
vn 0.8539 -0.0359 -0.5192
vn 0.8781 0.0321 -0.4774
vn 0.9783 -0.1111 0.1747
vn 0.9629 -0.1916 0.1900
vn 0.5041 0.5663 -0.6521
vn 0.5561 0.3894 -0.7343
vn 0.6043 0.4231 -0.6751
vn 0.4471 0.5451 -0.7092
vn 0.6726 0.0588 0.7377
vn 0.6726 0.0588 -0.7377
vn -0.6119 0.2853 -0.7377
vn -0.6119 0.2853 0.7377
vn -0.5172 0.4340 -0.7377
vn -0.5172 0.4340 0.7377
vn -0.3872 0.5530 -0.7377
vn -0.3872 0.5530 0.7377
vn -0.2309 0.6344 -0.7377
vn -0.2309 0.6344 0.7377
vn -0.0588 0.6726 -0.7377
vn -0.0588 0.6726 0.7377
vn 0.1172 0.6649 -0.7377
vn 0.1172 0.6649 0.7377
vn 0.2853 0.6119 0.7377
vn 0.2853 0.6119 -0.7377
vn 0.6651 0.2337 -0.7092
vn 0.7045 0.2800 -0.6521
vn 0.4471 0.5451 0.7092
vn 0.5041 0.5663 0.6521
vn 0.9208 -0.1315 0.3671
vn 0.9396 -0.0558 0.3376
vn 0.7667 0.0887 -0.6359
vn 0.7979 0.1466 -0.5847
vn 0.3455 0.6901 0.6359
vn 0.4107 0.6996 0.5847
vn 0.2583 0.8147 0.5192
vn 0.3305 0.8142 0.4774
vn 0.2689 0.9021 0.3376
vn 0.1914 0.9103 0.3671
vn 0.2302 0.9573 0.1747
vn 0.1493 0.9704 0.1900
vn 0.2171 0.9762 -0.0000
vn 0.1350 0.9909 -0.0000
vn -0.8192 -0.5736 -0.0000
s 0
s 1
s 0
s 1
s 0
s 1
s 0
s 1
s 0
s 1
s 0
s 1
s 0
usemtl [Color_I08]
f 166//1 144//1 165//1
f 144//1 166//1 145//1
f 145//1 166//1 146//1
f 146//1 166//1 147//1
f 147//1 166//1 148//1
f 148//1 166//1 7//1
f 165//1 144//1 89//1
f 165//1 89//1 91//1
f 148//1 7//1 149//1
f 149//1 7//1 150//1
f 150//1 7//1 151//1
f 151//1 7//1 152//1
f 152//1 7//1 36//1
f 152//1 36//1 153//1
f 153//1 36//1 154//1
f 154//1 36//1 33//1
f 154//1 33//1 49//1
f 154//1 49//1 82//1
f 154//1 82//1 111//1
f 154//1 111//1 114//1
f 36//1 7//1 141//1
f 141//1 7//1 137//1
f 137//1 7//1 133//1
f 133//1 7//1 130//1
f 130//1 7//1 124//1
f 124//1 7//1 116//1
f 116//1 7//1 52//1
f 165//1 45//1 6//1
f 45//1 165//1 37//1
f 37//1 165//1 40//1
f 40//1 165//1 86//1
f 86//1 165//1 143//1
f 143//1 165//1 112//1
f 112//1 165//1 91//1
f 6//1 45//1 87//1
f 6//1 87//1 158//1
f 6//1 158//1 157//1
f 6//1 157//1 156//1
f 6//1 156//1 135//1
f 135//1 156//1 155//1
f 135//1 155//1 154//1
f 135//1 154//1 131//1
f 131//1 154//1 128//1
f 128//1 154//1 122//1
f 122//1 154//1 118//1
f 118//1 154//1 114//1
f 6//1 135//1 139//1
f 6//1 139//1 126//1
f 6//1 126//1 120//1
f 6//1 120//1 47//1
f 6//1 47//1 42//1
f 6//1 42//1 44//1
f 6//1 44//1 52//1
f 6//1 52//1 7//1
