o Flowmeter_2
v -13.102715 -5.066920 1.213776
v -13.066444 -5.041523 1.233776
v -13.066444 -5.041523 1.213776
v -13.102715 -5.066920 1.233776
v -13.069195 -5.114793 1.213776
v -13.069195 -5.114793 1.233776
v -13.032923 -5.089396 1.213776
v -13.032923 -5.089396 1.233776
v -13.052499 -5.091013 1.233776
v -13.049693 -5.086610 1.233776
v -13.048123 -5.081631 1.233776
v -13.047895 -5.076415 1.233776
v -13.049026 -5.071317 1.233776
v -13.051436 -5.066686 1.233776
v -13.056348 -5.094541 1.233776
v -13.054963 -5.062837 1.233776
v -13.059367 -5.060031 1.233776
v -13.064346 -5.058461 1.233776
v -13.069562 -5.058234 1.233776
v -13.074659 -5.059364 1.233776
v -13.079290 -5.061775 1.233776
v -13.084203 -5.089629 1.233776
v -13.080675 -5.093478 1.233776
v -13.076272 -5.096284 1.233776
v -13.071292 -5.097854 1.233776
v -13.066076 -5.098082 1.233776
v -13.060979 -5.096951 1.233776
v -13.086613 -5.084998 1.233776
v -13.087743 -5.079901 1.233776
v -13.087516 -5.074685 1.233776
v -13.085945 -5.069705 1.233776
v -13.083140 -5.065302 1.233776
v -13.138987 -5.092317 1.063776
v -13.082072 -5.123810 1.063776
v -13.105466 -5.140190 1.063776
v -13.115593 -5.075937 1.063776
v -13.105466 -5.140190 1.453776
v -13.032923 -5.089396 1.433776
v -13.032923 -5.089396 1.453776
v -13.069195 -5.114793 1.433776
v -13.032923 -5.089396 1.063776
v -13.066444 -5.041523 1.063776
v -13.102715 -5.066920 1.433776
v -13.066444 -5.041523 1.453776
v -13.066444 -5.041523 1.433776
v -13.138987 -5.092317 1.453776
v -13.066076 -5.098082 1.433776
v -13.060979 -5.096951 1.433776
v -13.071292 -5.097854 1.433776
v -13.076272 -5.096284 1.433776
v -13.080675 -5.093478 1.433776
v -13.084203 -5.089629 1.433776
v -13.086613 -5.084998 1.433776
v -13.087743 -5.079901 1.433776
v -13.087516 -5.074685 1.433776
v -13.085945 -5.069705 1.433776
v -13.083140 -5.065302 1.433776
v -13.079290 -5.061775 1.433776
v -13.074659 -5.059364 1.433776
v -13.069562 -5.058234 1.433776
v -13.064346 -5.058461 1.433776
v -13.059367 -5.060031 1.433776
v -13.054963 -5.062837 1.433776
v -13.051436 -5.066686 1.433776
v -13.049026 -5.071317 1.433776
v -13.047895 -5.076415 1.433776
v -13.056348 -5.094541 1.433776
v -13.049693 -5.086610 1.433776
v -13.048123 -5.081631 1.433776
v -13.052499 -5.091013 1.433776
v -13.038603 -5.081284 1.096100
v -13.031557 -5.073911 1.091277
v -13.030412 -5.075548 1.096100
v -13.039749 -5.079647 1.091277
v -13.038212 -5.081842 1.176276
v -13.030412 -5.075548 1.171100
v -13.030021 -5.076106 1.176276
v -13.038603 -5.081284 1.171100
v -13.038603 -5.081284 1.181453
v -13.030412 -5.075548 1.181453
v -13.044461 -5.055483 1.156958
v -13.038523 -5.063963 1.156958
v -13.041492 -5.059723 1.156276
v -13.035756 -5.067914 1.158956
v -13.047228 -5.051532 1.158956
v -13.033381 -5.071308 1.162134
v -13.049603 -5.048139 1.162134
v -13.051427 -5.045535 1.166276
v -13.031557 -5.073911 1.166276
v -13.052573 -5.043898 1.171100
v -13.052963 -5.043340 1.176276
v -13.052573 -5.043898 1.181453
v -13.031557 -5.073911 1.186276
v -13.051427 -5.045535 1.186276
v -13.033381 -5.071308 1.190419
v -13.049603 -5.048139 1.190419
v -13.047228 -5.051532 1.193597
v -13.035756 -5.067914 1.193597
v -13.044461 -5.055483 1.195595
v -13.038523 -5.063963 1.195595
v -13.041492 -5.059723 1.196276
v -13.039749 -5.079647 1.166276
v -13.044461 -5.055483 1.081958
v -13.038523 -5.063963 1.081958
v -13.041492 -5.059723 1.081277
v -13.035756 -5.067914 1.083956
v -13.047228 -5.051532 1.083956
v -13.033381 -5.071308 1.087134
v -13.049603 -5.048139 1.087134
v -13.051427 -5.045535 1.091277
v -13.052573 -5.043898 1.096100
v -13.030021 -5.076106 1.101277
v -13.052963 -5.043340 1.101277
v -13.030412 -5.075548 1.106453
v -13.052573 -5.043898 1.106453
v -13.031557 -5.073911 1.111277
v -13.051427 -5.045535 1.111277
v -13.033381 -5.071308 1.115419
v -13.049603 -5.048139 1.115419
v -13.035756 -5.067914 1.118597
v -13.047228 -5.051532 1.118597
v -13.038523 -5.063963 1.120595
v -13.044461 -5.055483 1.120595
v -13.041492 -5.059723 1.121276
v -13.041573 -5.077044 1.162134
v -13.043948 -5.073650 1.158956
v -13.046715 -5.069699 1.156958
v -13.049684 -5.065459 1.156276
v -13.052652 -5.061219 1.156958
v -13.055420 -5.057267 1.158956
v -13.057796 -5.053874 1.162134
v -13.059618 -5.051271 1.166276
v -13.060764 -5.049634 1.171100
v -13.061155 -5.049076 1.176276
v -13.060764 -5.049634 1.181453
v -13.059618 -5.051271 1.186276
v -13.057796 -5.053874 1.190419
v -13.055420 -5.057267 1.193597
v -13.052652 -5.061219 1.195595
v -13.049684 -5.065459 1.196276
v -13.046715 -5.069699 1.195595
v -13.043948 -5.073650 1.193597
v -13.041573 -5.077044 1.190419
v -13.039749 -5.079647 1.186276
v -13.038212 -5.081842 1.101277
v -13.038603 -5.081284 1.106453
v -13.041573 -5.077044 1.087134
v -13.043948 -5.073650 1.083956
v -13.046715 -5.069699 1.081958
v -13.049684 -5.065459 1.081277
v -13.052652 -5.061219 1.081958
v -13.055420 -5.057267 1.083956
v -13.057796 -5.053874 1.087134
v -13.059618 -5.051271 1.091277
v -13.060764 -5.049634 1.096100
v -13.061155 -5.049076 1.101277
v -13.060764 -5.049634 1.106453
v -13.059618 -5.051271 1.111277
v -13.057796 -5.053874 1.115419
v -13.055420 -5.057267 1.118597
v -13.052652 -5.061219 1.120595
v -13.049684 -5.065459 1.121276
v -13.046715 -5.069699 1.120595
v -13.043948 -5.073650 1.118597
v -13.041573 -5.077044 1.115419
v -13.039749 -5.079647 1.111277
vn -0.5736 0.8192 -0.0000
vn 0.8192 0.5736 -0.0000
vn 0.5736 -0.8192 -0.0000
vn -0.0000 -0.0000 1.0000
vn -0.0000 -0.0000 -1.0000
vn -0.8192 -0.5736 -0.0000
vn 0.0588 -0.6726 -0.7377
vn 0.2309 -0.6344 0.7377
vn 0.2309 -0.6344 -0.7377
vn 0.0588 -0.6726 0.7377
vn -0.1172 -0.6649 -0.7377
vn -0.1172 -0.6649 0.7377
vn -0.2853 -0.6119 0.7377
vn -0.2853 -0.6119 -0.7377
vn -0.4340 -0.5172 0.7377
vn -0.4340 -0.5172 -0.7377
vn -0.5530 -0.3872 0.7377
vn -0.5530 -0.3872 -0.7377
vn -0.6344 -0.2309 0.7377
vn -0.6344 -0.2309 -0.7377
vn -0.6726 -0.0588 0.7377
vn -0.6726 -0.0588 -0.7377
vn -0.6649 0.1172 0.7377
vn -0.6649 0.1172 -0.7377
vn -0.6119 0.2853 -0.7377
vn -0.6119 0.2853 0.7377
vn -0.5172 0.4340 -0.7377
vn -0.5172 0.4340 0.7377
vn -0.3872 0.5530 -0.7377
vn -0.3872 0.5530 0.7377
vn -0.2309 0.6344 -0.7377
vn -0.2309 0.6344 0.7377
vn -0.0588 0.6726 -0.7377
vn -0.0588 0.6726 0.7377
vn 0.1172 0.6649 -0.7377
vn 0.1172 0.6649 0.7377
vn 0.2853 0.6119 0.7377
vn 0.2853 0.6119 -0.7377
vn 0.4340 0.5172 0.7377
vn 0.4340 0.5172 -0.7377
vn 0.5530 0.3872 0.7377
vn 0.5530 0.3872 -0.7377
vn 0.6344 0.2309 0.7377
vn 0.6344 0.2309 -0.7377
vn 0.6726 0.0588 0.7377
vn 0.6726 0.0588 -0.7377
vn 0.3872 -0.5530 0.7377
vn 0.3872 -0.5530 -0.7377
vn 0.6119 -0.2853 -0.7377
vn 0.6649 -0.1172 0.7377
vn 0.6649 -0.1172 -0.7377
vn 0.6119 -0.2853 0.7377
vn 0.5172 -0.4340 -0.7377
vn 0.5172 -0.4340 0.7377
vn 0.9783 -0.1111 -0.1747
vn 0.9208 -0.1315 -0.3671
vn 0.9629 -0.1916 -0.1900
vn 0.9396 -0.0558 -0.3376
vn 0.9915 -0.1299 -0.0000
vn 0.9773 -0.2121 -0.0000
vn 0.9783 -0.1111 0.1747
vn 0.9629 -0.1916 0.1900
vn 0.8539 -0.0359 -0.5192
vn 0.8781 0.0321 -0.4774
vn 0.7979 0.1466 -0.5847
vn 0.7667 0.0887 -0.6359
vn 0.7045 0.2800 -0.6521
vn 0.6651 0.2337 -0.7092
vn 0.6043 0.4231 -0.6751
vn 0.5561 0.3894 -0.7343
vn 0.5041 0.5663 -0.6521
vn 0.4471 0.5451 -0.7092
vn 0.4107 0.6996 -0.5847
vn 0.3455 0.6901 -0.6359
vn 0.3305 0.8142 -0.4774
vn 0.2583 0.8147 -0.5192
vn 0.1914 0.9103 -0.3671
vn 0.2689 0.9021 -0.3376
vn 0.1493 0.9704 -0.1900
vn 0.2302 0.9573 -0.1747
vn 0.1350 0.9909 -0.0000
vn 0.2171 0.9762 -0.0000
vn 0.1493 0.9704 0.1900
vn 0.2302 0.9573 0.1747
vn 0.1914 0.9103 0.3671
vn 0.2689 0.9021 0.3376
vn 0.2583 0.8147 0.5192
vn 0.3305 0.8142 0.4774
vn 0.4107 0.6996 0.5847
vn 0.3455 0.6901 0.6359
vn 0.5041 0.5663 0.6521
vn 0.4471 0.5451 0.7092
vn 0.6043 0.4231 0.6751
vn 0.5561 0.3894 0.7343
vn 0.7045 0.2800 0.6521
vn 0.6651 0.2337 0.7092
vn 0.7979 0.1466 0.5847
vn 0.7667 0.0887 0.6359
vn 0.8781 0.0321 0.4774
vn 0.8539 -0.0359 0.5192
vn 0.9208 -0.1315 0.3671
vn 0.9396 -0.0558 0.3376
s 0
s 1
s 0
s 1
s 0
s 1
s 0
s 1
s 0
s 1
s 0
usemtl [Color_008]2
f 37//3 38//3 39//3
f 38//3 37//3 40//3
f 40//3 37//3 6//3
f 6//3 37//3 5//3
f 5//3 37//3 34//3
f 34//3 37//3 35//3
f 5//3 41//3 7//3
f 41//3 5//3 34//3
f 36//1 3//1 42//1
f 1//1 3//1 36//1
f 1//1 36//1 4//1
f 4//1 36//1 43//1
f 43//1 44//1 45//1
f 44//1 43//1 46//1
f 46//1 43//1 36//1
f 46//1 36//1 33//1
f 71//55 72//56 73//57
f 72//56 71//55 74//58
f 44//2 38//2 45//2
f 38//2 44//2 39//2
f 43//2 6//2 4//2
f 6//2 43//2 40//2
f 75//59 76//57 77//60
f 76//57 75//59 78//55
f 79//61 77//60 80//62
f 77//60 79//61 75//59
f 81//2 82//2 83//2
f 82//2 81//2 84//2
f 84//2 81//2 85//2
f 84//2 85//2 86//2
f 86//2 85//2 87//2
f 86//2 87//2 88//2
f 86//2 88//2 89//2
f 89//2 88//2 90//2
f 89//2 90//2 76//2
f 76//2 90//2 91//2
f 76//2 91//2 77//2
f 77//2 91//2 92//2
f 77//2 92//2 80//2
f 80//2 92//2 93//2
f 93//2 92//2 94//2
f 93//2 94//2 95//2
f 95//2 94//2 96//2
f 95//2 96//2 97//2
f 95//2 97//2 98//2
f 98//2 97//2 99//2
f 98//2 99//2 100//2
f 100//2 99//2 101//2
f 78//55 89//56 76//57
f 89//56 78//55 102//58
f 103//2 104//2 105//2
f 104//2 103//2 106//2
f 106//2 103//2 107//2
f 106//2 107//2 108//2
f 108//2 107//2 109//2
f 108//2 109//2 72//2
f 72//2 109//2 110//2
f 72//2 110//2 73//2
f 73//2 110//2 111//2
f 73//2 111//2 112//2
f 112//2 111//2 113//2
f 112//2 113//2 114//2
f 114//2 113//2 115//2
f 114//2 115//2 116//2
f 116//2 115//2 117//2
f 116//2 117//2 118//2
f 118//2 117//2 119//2
f 118//2 119//2 120//2
f 120//2 119//2 121//2
f 120//2 121//2 122//2
f 122//2 121//2 123//2
f 122//2 123//2 124//2
f 102//58 86//63 89//56
f 86//63 102//58 125//64
f 126//65 86//63 125//64
f 86//63 126//65 84//66
f 127//67 84//66 126//65
f 84//66 127//67 82//68
f 128//69 82//68 127//67
f 82//68 128//69 83//70
f 129//71 83//70 128//69
f 83//70 129//71 81//72
f 130//73 81//72 129//71
f 81//72 130//73 85//74
f 131//75 85//74 130//73
f 85//74 131//75 87//76
f 131//75 88//77 87//76
f 88//77 131//75 132//78
f 132//78 90//79 88//77
f 90//79 132//78 133//80
f 133//80 91//81 90//79
f 91//81 133//80 134//82
f 134//82 92//83 91//81
f 92//83 134//82 135//84
f 135//84 94//85 92//83
f 94//85 135//84 136//86
f 136//86 96//87 94//85
f 96//87 136//86 137//88
f 96//87 138//89 97//90
f 138//89 96//87 137//88
f 97//90 139//91 99//92
f 139//91 97//90 138//89
f 99//92 140//93 101//94
f 140//93 99//92 139//91
f 101//94 141//95 100//96
f 141//95 101//94 140//93
f 100//96 142//97 98//98
f 142//97 100//96 141//95
f 98//98 143//99 95//100
f 143//99 98//98 142//97
f 143//99 93//101 95//100
f 93//101 143//99 144//102
f 144//102 80//62 93//101
f 80//62 144//102 79//61
f 145//59 73//57 112//60
f 73//57 145//59 71//55
f 146//61 112//60 114//62
f 112//60 146//61 145//59
f 74//58 108//63 72//56
f 108//63 74//58 147//64
f 148//65 108//63 147//64
f 108//63 148//65 106//66
f 149//67 106//66 148//65
f 106//66 149//67 104//68
f 150//69 104//68 149//67
f 104//68 150//69 105//70
f 151//71 105//70 150//69
f 105//70 151//71 103//72
f 152//73 103//72 151//71
f 103//72 152//73 107//74
f 153//75 107//74 152//73
f 107//74 153//75 109//76
f 153//75 110//77 109//76
f 110//77 153//75 154//78
f 154//78 111//79 110//77
f 111//79 154//78 155//80
f 155//80 113//81 111//79
f 113//81 155//80 156//82
f 156//82 115//83 113//81
f 115//83 156//82 157//84
f 157//84 117//85 115//83
f 117//85 157//84 158//86
f 158//86 119//87 117//85
f 119//87 158//86 159//88
f 119//87 160//89 121//90
f 160//89 119//87 159//88
f 121//90 161//91 123//92
f 161//91 121//90 160//89
f 123//92 162//93 124//94
f 162//93 123//92 161//91
f 124//94 163//95 122//96
f 163//95 124//94 162//93
f 122//96 164//97 120//98
f 164//97 122//96 163//95
f 120//98 165//99 118//100
f 165//99 120//98 164//97
f 165//99 116//101 118//100
f 116//101 165//99 166//102
f 166//102 114//62 116//101
f 114//62 166//102 146//61
f 44//4 37//4 39//4
f 37//4 44//4 46//4
