o Flowmeter_3
v -13.099965 -4.993649 1.233776
v -13.066443 -5.041523 1.213776
v -13.099965 -4.993649 1.213776
v -13.066443 -5.041523 1.233776
v -13.136236 -5.019047 1.213776
v -13.136236 -5.019047 1.233776
v -13.102715 -5.066920 1.233776
v -13.102715 -5.066920 1.213776
v -13.086020 -5.043140 1.233776
v -13.083214 -5.038737 1.233776
v -13.081644 -5.033758 1.233776
v -13.081416 -5.028542 1.233776
v -13.082546 -5.023444 1.233776
v -13.084957 -5.018813 1.233776
v -13.089869 -5.046668 1.233776
v -13.088484 -5.014964 1.233776
v -13.092888 -5.012158 1.233776
v -13.097867 -5.010588 1.233776
v -13.103083 -5.010361 1.233776
v -13.108180 -5.011491 1.233776
v -13.112811 -5.013902 1.233776
v -13.117723 -5.041756 1.233776
v -13.114196 -5.045605 1.233776
v -13.109793 -5.048411 1.233776
v -13.104813 -5.049981 1.233776
v -13.099597 -5.050209 1.233776
v -13.094500 -5.049078 1.233776
v -13.120133 -5.037125 1.233776
v -13.121264 -5.032028 1.233776
v -13.121037 -5.026812 1.233776
v -13.119466 -5.021832 1.233776
v -13.116661 -5.017429 1.233776
v -13.099597 -5.050209 1.433776
v -13.094500 -5.049078 1.433776
v -13.104813 -5.049981 1.433776
v -13.109793 -5.048411 1.433776
v -13.114196 -5.045605 1.433776
v -13.117723 -5.041756 1.433776
v -13.120133 -5.037125 1.433776
v -13.121264 -5.032028 1.433776
v -13.121037 -5.026812 1.433776
v -13.119466 -5.021832 1.433776
v -13.116661 -5.017429 1.433776
v -13.112811 -5.013902 1.433776
v -13.088484 -5.014964 1.433776
v -13.084957 -5.018813 1.433776
v -13.082546 -5.023444 1.433776
v -13.081416 -5.028542 1.433776
v -13.081644 -5.033758 1.433776
v -13.097867 -5.010588 1.433776
v -13.103083 -5.010361 1.433776
v -13.108180 -5.011491 1.433776
v -13.092888 -5.012158 1.433776
v -13.089869 -5.046668 1.433776
v -13.086020 -5.043140 1.433776
v -13.083214 -5.038737 1.433776
v -13.071733 -5.033969 1.176276
v -13.063932 -5.027675 1.171100
v -13.063541 -5.028233 1.176276
v -13.072124 -5.033411 1.171100
v -13.099965 -4.993649 1.453776
v -13.066443 -5.041523 1.433776
v -13.099965 -4.993649 1.433776
v -13.066443 -5.041523 1.453776
v -13.071733 -5.033969 1.101277
v -13.063932 -5.027675 1.096100
v -13.063541 -5.028233 1.101277
v -13.072124 -5.033411 1.096100
v -13.102715 -5.066920 1.433776
v -13.136236 -5.019047 1.433776
v -13.072124 -5.033411 1.181453
v -13.063932 -5.027675 1.181453
v -13.077982 -5.007610 1.081958
v -13.072043 -5.016090 1.081958
v -13.075013 -5.011850 1.081277
v -13.069277 -5.020041 1.083956
v -13.080749 -5.003659 1.083956
v -13.066901 -5.023435 1.087134
v -13.083124 -5.000266 1.087134
v -13.065078 -5.026038 1.091277
v -13.084948 -4.997662 1.091277
v -13.086094 -4.996025 1.096100
v -13.086484 -4.995467 1.101277
v -13.063932 -5.027675 1.106453
v -13.086094 -4.996025 1.106453
v -13.065078 -5.026038 1.111277
v -13.084948 -4.997662 1.111277
v -13.066901 -5.023435 1.115419
v -13.083124 -5.000266 1.115419
v -13.069277 -5.020041 1.118597
v -13.080749 -5.003659 1.118597
v -13.072043 -5.016090 1.120595
v -13.077982 -5.007610 1.120595
v -13.075013 -5.011850 1.121276
v -13.065078 -5.026038 1.166276
v -13.073270 -5.031774 1.166276
v -13.073270 -5.031774 1.091277
v -13.077982 -5.007610 1.156958
v -13.072043 -5.016090 1.156958
v -13.075013 -5.011850 1.156276
v -13.069277 -5.020041 1.158956
v -13.080749 -5.003659 1.158956
v -13.066901 -5.023435 1.162134
v -13.083124 -5.000266 1.162134
v -13.084948 -4.997662 1.166276
v -13.086094 -4.996025 1.171100
v -13.086484 -4.995467 1.176276
v -13.086094 -4.996025 1.181453
v -13.084948 -4.997662 1.186276
v -13.065078 -5.026038 1.186276
v -13.083124 -5.000266 1.190419
v -13.066901 -5.023435 1.190419
v -13.080749 -5.003659 1.193597
v -13.069277 -5.020041 1.193597
v -13.077982 -5.007610 1.195595
v -13.072043 -5.016090 1.195595
v -13.075013 -5.011850 1.196276
v -13.075093 -5.029171 1.162134
v -13.077469 -5.025777 1.158956
v -13.080235 -5.021826 1.156958
v -13.083204 -5.017586 1.156276
v -13.086173 -5.013346 1.156958
v -13.088941 -5.009394 1.158956
v -13.091316 -5.006001 1.162134
v -13.093139 -5.003398 1.166276
v -13.094285 -5.001761 1.171100
v -13.094676 -5.001203 1.176276
v -13.094285 -5.001761 1.181453
v -13.093139 -5.003398 1.186276
v -13.091316 -5.006001 1.190419
v -13.088941 -5.009394 1.193597
v -13.086173 -5.013346 1.195595
v -13.083204 -5.017586 1.196276
v -13.080235 -5.021826 1.195595
v -13.077469 -5.025777 1.193597
v -13.075093 -5.029171 1.190419
v -13.073270 -5.031774 1.186276
v -13.072124 -5.033411 1.106453
v -13.075093 -5.029171 1.087134
v -13.077469 -5.025777 1.083956
v -13.080235 -5.021826 1.081958
v -13.083204 -5.017586 1.081277
v -13.086173 -5.013346 1.081958
v -13.088941 -5.009394 1.083956
v -13.091316 -5.006001 1.087134
v -13.093139 -5.003398 1.091277
v -13.094285 -5.001761 1.096100
v -13.094676 -5.001203 1.101277
v -13.094285 -5.001761 1.106453
v -13.093139 -5.003398 1.111277
v -13.091316 -5.006001 1.115419
v -13.088941 -5.009394 1.118597
v -13.086173 -5.013346 1.120595
v -13.083204 -5.017586 1.121276
v -13.080235 -5.021826 1.120595
v -13.077469 -5.025777 1.118597
v -13.075093 -5.029171 1.115419
v -13.073270 -5.031774 1.111277
v -13.172507 -5.044444 1.063776
v -13.115593 -5.075937 1.063776
v -13.138987 -5.092317 1.063776
v -13.149114 -5.028064 1.063776
v -13.099965 -4.993649 1.063776
v -13.172507 -5.044444 1.453776
v -13.138987 -5.092317 1.453776
v -13.066443 -5.041523 1.063776
vn 0.8192 0.5736 -0.0000
vn -0.5736 0.8192 -0.0000
vn 0.5736 -0.8192 -0.0000
vn -0.0000 -0.0000 1.0000
vn 0.0588 -0.6726 -0.7377
vn 0.2309 -0.6344 0.7377
vn 0.2309 -0.6344 -0.7377
vn 0.0588 -0.6726 0.7377
vn -0.1172 -0.6649 -0.7377
vn -0.1172 -0.6649 0.7377
vn -0.2853 -0.6119 0.7377
vn -0.2853 -0.6119 -0.7377
vn -0.4340 -0.5172 0.7377
vn -0.4340 -0.5172 -0.7377
vn -0.5530 -0.3872 0.7377
vn -0.5530 -0.3872 -0.7377
vn -0.6344 -0.2309 0.7377
vn -0.6344 -0.2309 -0.7377
vn -0.6726 -0.0588 0.7377
vn -0.6726 -0.0588 -0.7377
vn -0.6649 0.1172 0.7377
vn -0.6649 0.1172 -0.7377
vn -0.6119 0.2853 -0.7377
vn -0.6119 0.2853 0.7377
vn -0.5172 0.4340 -0.7377
vn -0.5172 0.4340 0.7377
vn -0.3872 0.5530 -0.7377
vn -0.3872 0.5530 0.7377
vn 0.4340 0.5172 -0.7377
vn 0.5530 0.3872 0.7377
vn 0.4340 0.5172 0.7377
vn 0.5530 0.3872 -0.7377
vn 0.6344 0.2309 -0.7377
vn 0.6726 0.0588 0.7377
vn 0.6344 0.2309 0.7377
vn 0.6726 0.0588 -0.7377
vn 0.6649 -0.1172 0.7377
vn 0.6649 -0.1172 -0.7377
vn -0.0588 0.6726 0.7377
vn 0.1172 0.6649 -0.7377
vn 0.1172 0.6649 0.7377
vn -0.0588 0.6726 -0.7377
vn -0.2309 0.6344 0.7377
vn -0.2309 0.6344 -0.7377
vn 0.2853 0.6119 -0.7377
vn 0.2853 0.6119 0.7377
vn 0.3872 -0.5530 0.7377
vn 0.3872 -0.5530 -0.7377
vn 0.5172 -0.4340 0.7377
vn 0.5172 -0.4340 -0.7377
vn 0.6119 -0.2853 -0.7377
vn 0.6119 -0.2853 0.7377
vn 0.9915 -0.1299 -0.0000
vn 0.9629 -0.1916 -0.1900
vn 0.9773 -0.2121 -0.0000
vn 0.9783 -0.1111 -0.1747
vn -0.0000 -0.0000 -1.0000
vn 0.9783 -0.1111 0.1747
vn 0.9629 -0.1916 0.1900
vn 0.9208 -0.1315 -0.3671
vn 0.9396 -0.0558 -0.3376
vn 0.8539 -0.0359 -0.5192
vn 0.8781 0.0321 -0.4774
vn 0.7979 0.1466 -0.5847
vn 0.7667 0.0887 -0.6359
vn 0.7045 0.2800 -0.6521
vn 0.6651 0.2337 -0.7092
vn 0.6043 0.4231 -0.6751
vn 0.5561 0.3894 -0.7343
vn 0.5041 0.5663 -0.6521
vn 0.4471 0.5451 -0.7092
vn 0.4107 0.6996 -0.5847
vn 0.3455 0.6901 -0.6359
vn 0.3305 0.8142 -0.4774
vn 0.2583 0.8147 -0.5192
vn 0.1914 0.9103 -0.3671
vn 0.2689 0.9021 -0.3376
vn 0.1493 0.9704 -0.1900
vn 0.2302 0.9573 -0.1747
vn 0.1350 0.9909 -0.0000
vn 0.2171 0.9762 -0.0000
vn 0.1493 0.9704 0.1900
vn 0.2302 0.9573 0.1747
vn 0.1914 0.9103 0.3671
vn 0.2689 0.9021 0.3376
vn 0.2583 0.8147 0.5192
vn 0.3305 0.8142 0.4774
vn 0.4107 0.6996 0.5847
vn 0.3455 0.6901 0.6359
vn 0.5041 0.5663 0.6521
vn 0.4471 0.5451 0.7092
vn 0.6043 0.4231 0.6751
vn 0.5561 0.3894 0.7343
vn 0.7045 0.2800 0.6521
vn 0.6651 0.2337 0.7092
vn 0.7979 0.1466 0.5847
vn 0.7667 0.0887 0.6359
vn 0.8781 0.0321 0.4774
vn 0.8539 -0.0359 0.5192
vn 0.9208 -0.1315 0.3671
vn 0.9396 -0.0558 0.3376
vn -0.8192 -0.5736 -0.0000
s 0
s 1
s 0
s 1
s 0
s 1
s 0
s 1
s 0
s 1
s 0
usemtl [Color_G12]
f 163//1 144//1 166//1
f 144//1 163//1 145//1
f 145//1 163//1 146//1
f 146//1 163//1 147//1
f 147//1 163//1 148//1
f 148//1 163//1 3//1
f 166//1 144//1 143//1
f 166//1 143//1 142//1
f 148//1 3//1 149//1
f 149//1 3//1 150//1
f 150//1 3//1 151//1
f 151//1 3//1 152//1
f 152//1 3//1 126//1
f 152//1 126//1 153//1
f 153//1 126//1 154//1
f 154//1 126//1 125//1
f 154//1 125//1 124//1
f 154//1 124//1 123//1
f 154//1 123//1 122//1
f 154//1 122//1 121//1
f 126//1 3//1 127//1
f 127//1 3//1 128//1
f 128//1 3//1 129//1
f 129//1 3//1 130//1
f 130//1 3//1 131//1
f 131//1 3//1 132//1
f 132//1 3//1 133//1
f 166//1 65//1 2//1
f 65//1 166//1 68//1
f 68//1 166//1 97//1
f 97//1 166//1 139//1
f 139//1 166//1 140//1
f 140//1 166//1 141//1
f 141//1 166//1 142//1
f 2//1 65//1 138//1
f 2//1 138//1 158//1
f 2//1 158//1 157//1
f 2//1 157//1 156//1
f 2//1 156//1 60//1
f 60//1 156//1 155//1
f 60//1 155//1 154//1
f 60//1 154//1 96//1
f 96//1 154//1 118//1
f 118//1 154//1 119//1
f 119//1 154//1 120//1
f 120//1 154//1 121//1
f 2//1 60//1 57//1
f 2//1 57//1 71//1
f 2//1 71//1 137//1
f 2//1 137//1 136//1
f 2//1 136//1 135//1
f 2//1 135//1 134//1
f 2//1 134//1 133//1
f 2//1 133//1 3//1
