o G-__556023
v -13.370571 -3.731933 1.004989
v -13.370571 -4.149630 0.994989
v -13.370571 -3.731933 0.994989
v -13.370571 -4.149630 1.004989
v -13.797009 -4.149630 1.004989
v -13.797009 -3.731933 1.004989
v -13.380570 -4.149630 0.994989
v -13.380570 -4.149630 0.984989
v -13.390571 -4.149630 0.984989
v -13.390571 -4.149630 0.824989
v -13.390571 -4.149630 0.814989
v -13.390571 -4.149630 0.654989
v -13.390571 -4.149630 0.644989
v -13.390571 -4.149630 0.405297
v -13.797009 -4.149630 0.405297
v -13.380570 -4.149630 0.644989
v -13.380570 -4.149630 0.654989
v -13.380570 -4.149630 0.814989
v -13.380570 -4.149630 0.824989
v -13.390571 -3.731933 0.984989
v -13.380570 -3.731933 0.994989
v -13.380570 -3.731933 0.984989
v -13.797009 -3.731933 0.405297
v -13.390571 -3.731933 0.644989
v -13.390571 -3.731933 0.405297
v -13.390571 -3.731933 0.654989
v -13.390571 -3.731933 0.814989
v -13.390571 -3.731933 0.824989
v -13.380570 -3.731933 0.824989
v -13.380570 -3.731933 0.814989
v -13.380570 -3.731933 0.654989
v -13.380570 -3.731933 0.644989
v -13.309305 -4.205983 0.354946
v -13.337735 -4.200301 0.354946
v -13.859305 -4.205982 0.354946
v -13.332628 -4.199215 0.354946
v -13.327976 -4.196845 0.354946
v -13.324097 -4.193351 0.354946
v -13.321253 -4.188972 0.354946
v -13.309305 -4.154743 0.354946
v -13.319640 -4.184006 0.354946
v -13.319366 -4.178792 0.354946
v -13.320453 -4.173686 0.354946
v -13.322824 -4.169034 0.354946
v -13.326317 -4.165154 0.354946
v -13.330696 -4.162311 0.354946
v -13.335661 -4.160697 0.354946
v -13.340876 -4.160424 0.354946
v -13.830875 -4.160424 0.354946
v -13.848158 -4.187039 0.354946
v -13.859305 -4.154742 0.354946
v -13.845787 -4.191691 0.354946
v -13.842294 -4.195571 0.354946
v -13.837914 -4.198414 0.354946
v -13.832949 -4.200027 0.354946
v -13.827735 -4.200301 0.354946
v -13.849243 -4.181932 0.354946
v -13.848970 -4.176719 0.354946
v -13.847357 -4.171753 0.354946
v -13.844514 -4.167374 0.354946
v -13.840634 -4.163880 0.354946
v -13.835982 -4.161510 0.354946
v -13.342949 -4.200028 0.354946
v -13.822628 -4.199215 0.354946
v -13.347915 -4.198415 0.354946
v -13.817976 -4.196845 0.354946
v -13.352293 -4.195571 0.354946
v -13.814096 -4.193351 0.354946
v -13.355787 -4.191691 0.354946
v -13.811253 -4.188972 0.354946
v -13.358158 -4.187039 0.354946
v -13.809640 -4.184006 0.354946
v -13.359243 -4.181932 0.354946
v -13.809367 -4.178792 0.354946
v -13.358971 -4.176719 0.354946
v -13.810452 -4.173686 0.354946
v -13.357357 -4.171753 0.354946
v -13.812823 -4.169034 0.354946
v -13.354514 -4.167374 0.354946
v -13.816317 -4.165154 0.354946
v -13.350634 -4.163880 0.354946
v -13.820696 -4.162310 0.354946
v -13.345983 -4.161510 0.354946
v -13.825662 -4.160697 0.354946
v -13.812823 -4.169034 0.374947
v -13.810452 -4.173686 0.374947
v -13.811253 -3.738972 0.374947
v -13.814096 -3.743351 0.354946
v -13.811253 -3.738972 0.354946
v -13.814096 -3.743351 0.374947
v -13.820696 -3.712310 0.354946
v -13.816317 -3.715154 0.374947
v -13.816317 -3.715154 0.354946
v -13.820696 -3.712310 0.374947
v -13.322824 -4.169034 0.374947
v -13.320453 -4.173686 0.374947
v -13.319366 -4.178792 0.374947
v -13.319640 -4.184006 0.374947
v -13.321253 -4.188972 0.374947
v -13.370571 -3.731933 0.814989
v -13.370571 -4.149630 0.654989
v -13.370571 -3.731933 0.654989
v -13.370571 -4.149630 0.814989
v -13.822628 -4.199215 0.374947
v -13.817976 -4.196845 0.374947
v -13.827735 -4.200301 0.374947
v -13.832949 -4.200027 0.374947
v -13.837914 -4.198414 0.374947
v -13.842294 -4.195571 0.374947
v -13.845787 -4.191691 0.374947
v -13.848158 -4.187039 0.374947
v -13.849243 -4.181932 0.374947
v -13.848970 -4.176719 0.374947
v -13.847357 -4.171753 0.374947
v -13.811253 -4.188972 0.374947
v -13.814096 -4.193351 0.374947
v -13.809640 -4.184006 0.374947
v -13.809367 -4.178792 0.374947
v -13.335661 -4.160697 0.374947
v -13.340876 -4.160424 0.374947
v -13.825662 -4.160697 0.374947
v -13.830875 -4.160424 0.374947
v -13.820696 -4.162310 0.374947
v -13.835982 -3.711510 0.354946
v -13.830875 -3.710424 0.374947
v -13.830875 -3.710424 0.354946
v -13.835982 -3.711510 0.374947
v -13.840634 -3.713881 0.354946
v -13.840634 -3.713881 0.374947
v -13.844514 -3.717374 0.354946
v -13.844514 -3.717374 0.374947
v -13.848970 -3.726719 0.374947
v -13.847357 -3.721753 0.354946
v -13.848970 -3.726719 0.354946
v -13.847357 -3.721753 0.374947
v -13.849243 -3.731933 0.374947
v -13.849243 -3.731933 0.354946
v -13.842294 -3.745571 0.374947
v -13.845787 -3.741691 0.354946
v -13.842294 -3.745571 0.354946
v -13.845787 -3.741691 0.374947
v -13.848158 -3.737040 0.354946
v -13.848158 -3.737040 0.374947
v -13.837914 -3.748415 0.354946
v -13.837914 -3.748415 0.374947
v -13.832949 -3.750028 0.354946
v -13.832949 -3.750028 0.374947
v -13.827735 -3.750301 0.354946
v -13.827735 -3.750301 0.374947
v -13.822628 -3.749215 0.354946
v -13.822628 -3.749215 0.374947
v -13.817976 -3.746844 0.354946
v -13.817976 -3.746844 0.374947
v -13.358971 -4.176719 0.374947
v -13.357357 -4.171753 0.374947
v -13.324097 -4.193351 0.374947
v -13.338094 -4.195747 0.374947
v -13.327976 -4.196845 0.374947
v -13.334153 -4.194910 0.374947
v -13.330564 -4.193080 0.374947
v -13.327570 -4.190384 0.374947
v -13.325376 -4.187006 0.374947
v -13.324131 -4.183174 0.374947
v -13.323920 -4.179151 0.374947
v -13.324758 -4.175210 0.374947
v -13.326587 -4.171621 0.374947
v -13.329283 -4.168627 0.374947
v -13.326317 -4.165154 0.374947
v -13.332662 -4.166433 0.374947
v -13.336493 -4.165188 0.374947
v -13.340517 -4.164978 0.374947
v -13.330696 -4.162311 0.374947
v -13.350634 -4.163880 0.374947
v -13.345983 -4.161510 0.374947
v -13.332628 -4.199215 0.374947
v -13.342949 -4.200028 0.374947
v -13.337735 -4.200301 0.374947
v -13.347915 -4.198415 0.374947
v -13.352293 -4.195571 0.374947
v -13.342117 -4.195537 0.374947
v -13.355787 -4.191691 0.374947
v -13.345948 -4.194292 0.374947
v -13.349327 -4.192098 0.374947
v -13.352023 -4.189104 0.374947
v -13.358158 -4.187039 0.374947
v -13.353852 -4.185514 0.374947
v -13.359243 -4.181932 0.374947
v -13.354691 -4.181574 0.374947
v -13.354480 -4.177551 0.374947
v -13.353234 -4.173719 0.374947
v -13.351041 -4.170341 0.374947
v -13.354514 -4.167374 0.374947
v -13.348047 -4.167645 0.374947
v -13.344458 -4.165815 0.374947
v -13.809367 -3.728792 0.374947
v -13.809640 -3.734006 0.354946
v -13.809367 -3.728792 0.354946
v -13.809640 -3.734006 0.374947
v -13.859305 -4.154742 0.294946
v -13.309305 -4.205983 0.294946
v -13.859305 -4.205982 0.294946
v -13.309305 -4.154743 0.294946
v -13.828094 -4.195747 0.374947
v -13.824153 -4.194910 0.374947
v -13.820563 -4.193080 0.374947
v -13.817570 -4.190384 0.374947
v -13.815375 -4.187006 0.374947
v -13.814131 -4.183174 0.374947
v -13.813920 -4.179151 0.374947
v -13.814758 -4.175210 0.374947
v -13.816587 -4.171621 0.374947
v -13.819283 -4.168627 0.374947
v -13.816317 -4.165154 0.374947
v -13.822662 -4.166433 0.374947
v -13.826493 -4.165188 0.374947
v -13.830517 -4.164978 0.374947
v -13.840634 -4.163880 0.374947
v -13.835982 -4.161510 0.374947
v -13.832117 -4.195537 0.374947
v -13.835949 -4.194292 0.374947
v -13.839327 -4.192098 0.374947
v -13.842023 -4.189104 0.374947
v -13.843852 -4.185514 0.374947
v -13.844690 -4.181574 0.374947
v -13.844480 -4.177551 0.374947
v -13.843235 -4.173719 0.374947
v -13.841041 -4.170341 0.374947
v -13.844514 -4.167374 0.374947
v -13.838047 -4.167645 0.374947
v -13.834457 -4.165815 0.374947
v -13.828094 -3.745747 0.374947
v -13.824153 -3.744910 0.374947
v -13.820563 -3.743080 0.374947
v -13.817570 -3.740385 0.374947
v -13.815375 -3.737006 0.374947
v -13.814131 -3.733174 0.374947
v -13.813920 -3.729151 0.374947
v -13.814758 -3.725210 0.374947
v -13.810452 -3.723686 0.374947
v -13.816587 -3.721621 0.374947
v -13.812823 -3.719033 0.374947
v -13.819283 -3.718627 0.374947
v -13.822662 -3.716433 0.374947
v -13.826493 -3.715188 0.374947
v -13.830517 -3.714978 0.374947
v -13.825662 -3.710697 0.374947
v -13.832117 -3.745537 0.374947
v -13.835948 -3.744292 0.374947
v -13.839327 -3.742098 0.374947
v -13.842023 -3.739104 0.374947
v -13.843852 -3.735515 0.374947
v -13.844690 -3.731574 0.374947
v -13.844480 -3.727551 0.374947
v -13.843235 -3.723719 0.374947
v -13.841041 -3.720340 0.374947
v -13.838047 -3.717644 0.374947
v -13.834457 -3.715815 0.374947
v -13.743930 -4.096550 0.405297
v -13.423651 -4.096550 0.250538
v -13.423651 -4.096550 0.405297
v -13.743930 -4.096550 0.250538
v -13.318955 -3.755982 0.345297
v -13.318955 -4.154743 0.304596
v -13.318955 -3.755982 0.304596
v -13.318955 -4.154743 0.345297
v -13.743930 -3.785012 0.250538
v -13.743930 -3.785012 0.405297
v -13.423651 -3.785012 0.405297
v -13.423651 -3.785012 0.250538
v -13.356515 -4.154743 0.345297
v -13.356515 -3.755982 0.345297
v -13.356515 -3.755982 0.304596
v -13.356515 -4.154743 0.304596
v -13.370571 -3.731933 0.984989
v -13.370571 -4.149630 0.824989
v -13.370571 -3.731933 0.824989
v -13.370571 -4.149630 0.984989
v -13.825662 -3.710697 0.354946
v -13.812823 -3.719033 0.354946
v -13.811544 -4.154742 0.304045
v -13.850206 -4.154742 0.304045
v -13.850206 -4.154742 0.345848
v -13.811544 -4.154742 0.345848
v -13.370571 -4.149630 0.405297
v -13.370571 -4.149630 0.644989
v -13.370571 -3.731933 0.644989
v -13.370571 -3.731933 0.405297
v -13.859305 -3.704742 0.294946
v -13.309305 -3.755982 0.294946
v -13.859305 -3.755982 0.294946
v -13.309305 -3.704742 0.294946
v -13.309305 -3.704742 0.354946
v -13.309305 -3.755982 0.354946
v -13.859305 -3.704742 0.354946
v -13.859305 -3.755982 0.354946
v -13.811544 -3.755982 0.345848
v -13.850206 -3.755982 0.345848
v -13.850206 -3.755982 0.304045
v -13.811544 -3.755982 0.304045
v -13.810452 -3.723686 0.354946
vn 1.0000 -0.0000 -0.0000
vn -0.0000 -0.0000 1.0000
vn -0.0000 -1.0000 -0.0000
vn -0.0000 1.0000 -0.0000
vn 0.6051 0.4159 0.6789
vn 0.6364 0.2254 0.7377
vn 0.5564 0.3824 0.7377
vn 0.6921 0.2451 0.6789
vn 0.6627 -0.3161 0.6789
vn 0.5134 -0.4384 0.7377
vn 0.6094 -0.2906 0.7377
vn 0.5584 -0.4768 0.6789
vn 0.2906 0.6094 0.7377
vn 0.4768 0.5584 0.6789
vn 0.4384 0.5134 0.7377
vn 0.3161 0.6627 0.6789
vn -1.0000 -0.0000 -0.0000
vn 0.6730 0.0530 0.7377
vn 0.7320 0.0576 0.6789
vn 0.6638 -0.1230 0.7377
vn 0.7220 -0.1338 0.6789
vn 0.2451 -0.6921 0.6789
vn 0.3824 -0.5564 0.7377
vn 0.4159 -0.6051 0.6789
vn 0.2254 -0.6364 0.7377
vn 0.0576 -0.7320 0.6789
vn 0.0530 -0.6730 0.7377
vn -0.1338 -0.7220 0.6789
vn -0.1230 -0.6638 0.7377
vn -0.3161 -0.6627 0.6789
vn -0.2906 -0.6094 0.7377
vn -0.4768 -0.5584 0.6789
vn -0.4384 -0.5134 0.7377
vn -0.5564 -0.3824 0.7377
vn -0.6051 -0.4159 0.6789
vn -0.6364 -0.2254 0.7377
vn -0.6921 -0.2451 0.6789
vn -0.6730 -0.0530 0.7377
vn -0.7320 -0.0576 0.6789
vn -0.6638 0.1230 0.7377
vn -0.7220 0.1338 0.6789
vn -0.6094 0.2906 0.7377
vn -0.6627 0.3161 0.6789
vn -0.0530 0.6730 0.7377
vn 0.1338 0.7220 0.6789
vn 0.1230 0.6638 0.7377
vn -0.0576 0.7320 0.6789
vn -0.2254 0.6364 0.7377
vn -0.2451 0.6921 0.6789
vn -0.3824 0.5564 0.7377
vn -0.4159 0.6051 0.6789
vn -0.5134 0.4384 0.7377
vn -0.5584 0.4768 0.6789
vn -0.0000 -0.0002 1.0000
vn -0.0000 -0.0001 1.0000
vn -0.0000 -0.0000 -1.0000
vn 0.1230 0.6639 0.7376
vn -0.0000 0.0002 1.0000
s 0
s 1
s 0
s 1
s 0
s 1
s 0
s 1
s 0
s 1
s 0
s 1
s 0
s 1
s 0
s 1
s 0
s 1
s 0
usemtl [Color_I08]
f 5//3 2//3 4//3
f 2//3 5//3 7//3
f 7//3 5//3 8//3
f 8//3 5//3 9//3
f 9//3 5//3 10//3
f 10//3 5//3 11//3
f 11//3 5//3 12//3
f 12//3 5//3 13//3
f 13//3 5//3 14//3
f 14//3 5//3 15//3
f 12//3 16//3 17//3
f 16//3 12//3 13//3
f 10//3 18//3 19//3
f 18//3 10//3 11//3
f 20//4 21//4 22//4
f 23//4 24//4 25//4
f 24//4 23//4 26//4
f 26//4 23//4 27//4
f 27//4 23//4 28//4
f 28//4 23//4 20//4
f 21//4 1//4 3//4
f 1//4 21//4 6//4
f 6//4 21//4 20//4
f 6//4 20//4 23//4
f 27//4 29//4 30//4
f 29//4 27//4 28//4
f 24//4 31//4 32//4
f 31//4 24//4 26//4
f 5//17 23//17 15//17
f 23//17 5//17 6//17
f 100//1 101//1 102//1
f 101//1 100//1 103//1
f 274//1 275//1 276//1
f 275//1 274//1 277//1
f 16//3 284//3 285//3
f 284//3 16//3 14//3
f 14//3 16//3 13//3
f 18//3 101//3 103//3
f 101//3 18//3 17//3
f 17//3 18//3 11//3
f 17//3 11//3 12//3
f 8//3 275//3 277//3
f 275//3 8//3 19//3
f 19//3 8//3 9//3
f 19//3 9//3 10//3
f 286//1 284//1 287//1
f 284//1 286//1 285//1
f 31//4 100//4 102//4
f 100//4 31//4 30//4
f 30//4 31//4 26//4
f 30//4 26//4 27//4
f 29//4 274//4 276//4
f 274//4 29//4 22//4
f 22//4 29//4 28//4
f 22//4 28//4 20//4
f 25//4 286//4 287//4
f 286//4 25//4 32//4
f 32//4 25//4 24//4
