o G-__555996
v -8.021604 -0.589920 1.225000
v -8.105160 -0.535658 1.324628
v -8.781683 -0.096319 1.225000
v -8.021604 -0.589920 2.350000
v -8.105160 -0.535658 2.250371
v -8.698128 -0.150580 2.250371
v -8.698128 -0.150580 1.324628
v -8.781683 -0.096319 2.350000
v -8.759897 -0.062772 1.225000
v -8.675752 -0.117417 1.325333
v -7.999818 -0.556373 1.225000
v -8.759897 -0.062772 2.350000
v -8.675752 -0.117417 2.249667
v -8.083964 -0.501728 2.249667
v -8.083964 -0.501728 1.325333
v -7.999818 -0.556373 2.350000
v -8.781683 -0.096319 0.943750
v -8.759897 -0.062772 0.100000
v -8.781683 -0.096319 0.100000
v -8.759897 -0.062772 0.943750
v -8.021604 -0.589920 0.100000
v -8.021604 -0.589920 0.943750
v -7.999818 -0.556373 0.100000
v -7.999818 -0.556373 0.943750
v -8.027050 -0.598307 0.943750
v -8.787129 -0.104705 0.943750
v -8.027050 -0.598307 1.225000
v -8.681198 -0.125804 2.249667
v -8.089411 -0.510115 2.249667
v -8.099713 -0.527272 1.324628
v -8.692681 -0.142194 1.324628
v -8.787129 -0.104705 1.225000
v -7.994372 -0.547986 0.943750
v -8.754451 -0.054385 0.943750
v -8.099713 -0.527272 2.250371
v -8.692681 -0.142194 2.250371
v -8.681198 -0.125804 1.325333
v -7.994372 -0.547986 1.225000
v -8.089411 -0.510115 1.325333
v -8.754451 -0.054385 1.225000
vn -0.5446 -0.8387 -0.0000
vn 0.5446 0.8387 -0.0000
vn -0.8387 0.5446 -0.0000
vn 0.8387 -0.5446 -0.0000
vn -0.0000 -0.0000 -1.0000
vn -0.0000 -0.0000 1.0000
s 0
usemtl [Color_005]2
f 1//1 2//1 3//1
f 2//1 1//1 4//1
f 2//1 4//1 5//1
f 5//1 4//1 6//1
f 3//1 7//1 8//1
f 7//1 3//1 2//1
f 8//1 7//1 6//1
f 8//1 6//1 4//1
f 9//2 10//2 11//2
f 10//2 9//2 12//2
f 10//2 12//2 13//2
f 13//2 12//2 14//2
f 11//2 15//2 16//2
f 15//2 11//2 10//2
f 16//2 15//2 14//2
f 16//2 14//2 12//2
f 17//3 18//3 19//3
f 18//3 17//3 3//3
f 18//3 3//3 8//3
f 18//3 8//3 12//3
f 18//1 12//1 9//1
f 18//1 9//1 20//1
f 21//1 1//1 22//1
f 1//4 21//4 23//4
f 1//4 23//4 4//4
f 4//4 23//4 16//4
f 16//2 23//2 24//2
f 16//1 24//1 11//1
f 17//5 25//5 26//5
f 25//5 17//5 22//5
f 21//1 17//1 19//1
f 17//1 21//1 22//1
f 20//2 23//2 18//2
f 23//2 20//2 24//2
f 14//5 28//5 13//5
f 28//5 14//5 29//5
f 7//6 30//6 31//6
f 30//6 7//6 2//6
f 33//5 20//5 34//5
f 20//5 33//5 24//5
f 35//5 6//5 36//5
f 6//5 35//5 5//5
f 10//4 28//4 37//4
f 28//4 10//4 13//4
f 14//3 39//3 29//3
f 39//3 14//3 15//3
f 35//3 2//3 5//3
f 2//3 35//3 30//3
f 1//1 17//1 22//1
f 17//1 1//1 3//1
f 9//2 24//2 20//2
f 24//2 9//2 11//2
f 39//6 10//6 37//6
f 10//6 39//6 15//6
f 31//4 6//4 7//4
f 6//4 31//4 36//4
f 8//6 16//6 12//6
f 16//6 8//6 4//6
f 23//5 19//5 18//5
f 19//5 23//5 21//5
