o G-__556014
v -15.490621 -3.909373 1.065000
v -15.490621 -3.558880 1.045000
v -15.490621 -3.909373 1.045000
v -15.490621 -3.558880 1.065000
v -15.417964 -3.701546 0.755000
v -15.337964 -3.766707 0.755000
v -15.337964 -3.701546 0.755000
v -15.417964 -3.766707 0.755000
v -15.227963 -3.592542 0.995175
v -15.227963 -3.875711 0.824825
v -15.227963 -3.592542 0.824825
v -15.227963 -3.875711 0.995175
v -15.337964 -3.925535 0.755000
v -15.510464 -3.925535 0.775000
v -15.510464 -3.925535 0.755000
v -15.177963 -3.925535 0.775000
v -15.177963 -3.925535 0.755000
v -15.227963 -3.592542 1.285175
v -15.227963 -3.875711 1.114825
v -15.227963 -3.592542 1.114825
v -15.227963 -3.875711 1.285175
v -15.177963 -3.592542 1.114825
v -15.177963 -3.875711 1.114825
v -15.197806 -3.909373 1.045000
v -15.197806 -3.909373 1.065000
v -15.177963 -3.542717 0.775000
v -15.177963 -3.592542 0.824825
v -15.177963 -3.542717 1.045000
v -15.177963 -3.592542 0.995175
v -15.177963 -3.875711 0.995175
v -15.177963 -3.875711 0.824825
v -15.177963 -3.925535 1.045000
v -14.990463 -3.500244 0.133750
v -14.990463 -3.970244 0.100000
v -14.990463 -3.500244 0.100000
v -14.990463 -3.970244 0.133750
v -15.177963 -3.542717 0.755000
v -15.510464 -3.766707 0.755000
v -15.510464 -3.701546 0.755000
v -15.510464 -3.542717 0.755000
v -15.510464 -3.542717 0.775000
v -15.177963 -3.542717 1.065000
v -15.177963 -3.925535 1.065000
v -15.177963 -3.542717 1.335000
v -15.177963 -3.592542 1.285175
v -15.177963 -3.875711 1.285175
v -15.177963 -3.925535 1.335000
v -15.510464 -3.925535 1.335000
v -15.510464 -3.542717 1.065000
v -15.510464 -3.925535 1.065000
v -15.510464 -3.542717 1.335000
v -15.417964 -3.695244 0.235000
v -15.337964 -3.695244 0.235000
v -15.197806 -3.558879 1.065000
v -15.197806 -3.558879 1.045000
v -15.510464 -3.925535 1.045000
v -15.337964 -3.542717 0.755000
v -15.337964 -3.775244 0.235000
v -15.417964 -3.775244 0.235000
v -15.245463 -3.970244 0.235000
v -15.245463 -3.500244 0.235000
v -15.510464 -3.970244 0.235000
v -15.510464 -3.500244 0.100000
v -15.510464 -3.970244 0.100000
v -15.510464 -3.500244 0.235000
v -15.510464 -3.542717 1.045000
vn -1.0000 -0.0000 -0.0000
vn -0.0000 -0.0000 1.0000
vn 1.0000 -0.0000 -0.0000
vn -0.0000 -1.0000 -0.0000
vn -0.0000 -0.0000 -1.0000
vn -0.0000 0.9999 0.0121
vn -0.0000 -0.9999 0.0164
vn -0.0000 1.0000 -0.0000
vn 0.3690 -0.0000 0.9294
s 0
usemtl [Metal_Corrogated_Shiny]
f 33//3 34//3 35//3
f 34//3 33//3 36//3
f 7//6 52//6 5//6
f 52//6 7//6 53//6
f 7//3 58//3 53//3
f 58//3 7//3 6//3
f 58//7 8//7 59//7
f 8//7 58//7 6//7
f 60//9 33//9 61//9
f 33//9 60//9 36//9
f 8//1 52//1 59//1
f 52//1 8//1 5//1
f 62//1 63//1 64//1
f 63//1 62//1 65//1
f 34//4 62//4 64//4
f 62//4 34//4 60//4
f 60//4 34//4 36//4
f 61//8 63//8 65//8
f 63//8 61//8 35//8
f 35//8 61//8 33//8
f 65//2 52//2 61//2
f 52//2 65//2 62//2
f 61//2 52//2 53//2
f 52//2 62//2 59//2
f 53//2 60//2 61//2
f 60//2 53//2 58//2
f 60//2 58//2 59//2
f 60//2 59//2 62//2
