o G-__556104
v -6.705575 -3.137686 1.119283
v -6.713793 -3.138768 1.122458
v -6.713793 -3.138768 1.119283
v -6.705575 -3.137686 1.122458
v -6.721451 -3.141940 1.122458
v -6.721451 -3.141940 1.119283
v -6.728026 -3.146986 1.122458
v -6.728026 -3.146986 1.119283
v -6.733072 -3.153562 1.119283
v -6.733072 -3.153562 1.122458
v -6.736244 -3.161219 1.119283
v -6.736244 -3.161219 1.122458
v -6.737326 -3.169436 1.119283
v -6.737326 -3.169436 1.122458
v -6.736244 -3.177654 1.119283
v -6.736244 -3.177654 1.122458
v -6.733072 -3.185312 1.119283
v -6.733072 -3.185312 1.122458
v -6.728026 -3.191887 1.119283
v -6.728026 -3.191887 1.122458
v -6.721451 -3.196933 1.122458
v -6.721451 -3.196933 1.119283
v -6.713793 -3.200105 1.122458
v -6.713793 -3.200105 1.119283
v -6.705575 -3.201186 1.122458
v -6.705575 -3.201186 1.119283
v -6.489676 -3.201186 1.122458
v -6.489676 -3.201186 1.119283
v -6.481458 -3.200105 1.122458
v -6.481458 -3.200105 1.119283
v -6.473801 -3.196933 1.122458
v -6.473801 -3.196933 1.119283
v -6.467225 -3.191887 1.122458
v -6.467225 -3.191887 1.119283
v -6.462179 -3.185312 1.119283
v -6.462179 -3.185312 1.122458
v -6.459008 -3.177654 1.119283
v -6.459008 -3.177654 1.122458
v -6.457926 -3.169436 1.119283
v -6.457926 -3.169436 1.122458
v -6.459008 -3.161219 1.119283
v -6.459008 -3.161219 1.122458
v -6.462179 -3.153561 1.119283
v -6.462179 -3.153561 1.122458
v -6.467225 -3.146986 1.119283
v -6.467225 -3.146986 1.122458
v -6.473801 -3.141940 1.122458
v -6.473801 -3.141940 1.119283
v -6.481458 -3.138768 1.122458
v -6.481458 -3.138768 1.119283
v -6.489676 -3.137686 1.122458
v -6.489676 -3.137686 1.119283
v -6.610326 -3.137686 1.122458
v -6.584926 -3.137686 1.122458
vn 0.0472 -0.7197 -0.6927
vn 0.2588 -0.9659 -0.0000
vn 0.1900 -0.7092 -0.6789
vn 0.0654 -0.9979 -0.0000
vn 0.5000 -0.8660 -0.0000
vn 0.3671 -0.6359 -0.6789
vn 0.7071 -0.7071 -0.0000
vn 0.5192 -0.5192 -0.6789
vn 0.6359 -0.3671 -0.6789
vn 0.8660 -0.5000 -0.0000
vn 0.7092 -0.1900 -0.6789
vn 0.9659 -0.2588 -0.0000
vn 0.7343 -0.0000 -0.6789
vn 1.0000 -0.0000 -0.0000
vn 0.7092 0.1900 -0.6789
vn 0.9659 0.2588 -0.0000
vn 0.6359 0.3671 -0.6789
vn 0.8660 0.5000 -0.0000
vn 0.5192 0.5192 -0.6789
vn 0.7071 0.7071 -0.0000
vn 0.5000 0.8660 -0.0000
vn 0.3671 0.6359 -0.6789
vn 0.2588 0.9659 -0.0000
vn 0.1900 0.7092 -0.6789
vn 0.0654 0.9979 -0.0000
vn 0.0472 0.7197 -0.6927
vn -0.0654 0.9979 -0.0000
vn -0.0472 0.7197 -0.6927
vn -0.2588 0.9659 -0.0000
vn -0.1900 0.7092 -0.6789
vn -0.5000 0.8660 -0.0000
vn -0.3671 0.6359 -0.6789
vn -0.7071 0.7071 -0.0000
vn -0.5192 0.5192 -0.6789
vn -0.6359 0.3671 -0.6789
vn -0.8660 0.5000 -0.0000
vn -0.7092 0.1900 -0.6789
vn -0.9659 0.2588 -0.0000
vn -0.7343 -0.0000 -0.6789
vn -1.0000 -0.0000 -0.0000
vn -0.7092 -0.1900 -0.6789
vn -0.9659 -0.2588 -0.0000
vn -0.6359 -0.3671 -0.6789
vn -0.8660 -0.5000 -0.0000
vn -0.5192 -0.5192 -0.6789
vn -0.7071 -0.7071 -0.0000
vn -0.5000 -0.8660 -0.0000
vn -0.3671 -0.6359 -0.6789
vn -0.2588 -0.9659 -0.0000
vn -0.1900 -0.7092 -0.6789
vn -0.0654 -0.9979 -0.0000
vn -0.0472 -0.7197 -0.6927
vn -0.0000 -1.0000 -0.0000
vn -0.0000 -0.0000 -1.0000
vt -6.067679 0.500868
vt -5.746940 0.500868
vt 0.000000 0.017361
vt -6.072211 0.502604
vt -6.398365 0.502604
vt -6.072211 0.500868
vt -6.398365 0.500868
vt -0.000592 0.012868
vt -6.067679 0.502604
vt -5.746940 0.502604
vt -6.402897 0.502604
vt -6.292858 0.502604
vt -6.402897 0.500868
vt -6.292858 0.500868
vt -0.002326 0.008681
vt -6.297390 0.502604
vt -5.758349 0.502604
vt -6.297390 0.500868
vt -5.758349 0.500868
vt -0.005085 0.005085
vt -5.762881 0.500868
vt -4.831264 0.500868
vt -0.008681 0.002326
vt -5.762881 0.502604
vt -4.831264 0.502604
vt -4.835796 0.500868
vt -3.574781 0.500868
vt -0.012868 0.000592
vt -4.835796 0.502604
vt -3.574781 0.502604
vt -3.579314 0.500868
vt -2.074529 0.500868
vt -0.017361 0.000000
vt -3.579314 0.502604
vt -2.074529 0.502604
vt -2.079061 0.500868
vt -0.432746 0.500868
vt -0.021854 0.000592
vt -2.079061 0.502604
vt -0.432746 0.502604
vt -0.437279 0.500868
vt 1.238681 0.500868
vt -0.026042 0.002326
vt -0.437279 0.502604
vt 1.238681 0.502604
vt 1.234149 0.500868
vt 2.825850 0.500868
vt -0.029637 0.005085
vt 1.234149 0.502604
vt 2.825850 0.502604
vt 2.821317 0.502604
vt 4.220595 0.502604
vt 2.821317 0.500868
vt 4.220595 0.500868
vt -0.032396 0.008681
vt 4.216063 0.502604
vt 5.327869 0.502604
vt 4.216063 0.500868
vt 5.327869 0.500868
vt -0.034131 0.012868
vt 5.323337 0.502604
vt 5.746940 0.502604
vt 5.323337 0.500868
vt 5.746940 0.500868
vt -0.034722 0.017361
vt 5.628884 0.502604
vt 5.955166 0.502604
vt 5.628884 0.500868
vt 5.955166 0.500868
vt -0.034722 0.135417
vt 5.950634 0.502604
vt 6.293828 0.502604
vt 5.950634 0.500868
vt 6.293828 0.500868
vt -0.034131 0.139910
vt 6.289296 0.502604
vt 6.203731 0.502604
vt 6.289296 0.500868
vt 6.203731 0.500868
vt -0.032396 0.144097
vt 6.199198 0.502604
vt 5.691014 0.502604
vt 6.199198 0.500868
vt 5.691014 0.500868
vt -0.029637 0.147693
vt 5.686481 0.500868
vt 4.790618 0.500868
vt -0.026042 0.150452
vt 5.686481 0.502604
vt 4.790618 0.502604
vt 4.786086 0.500868
vt 3.563904 0.500868
vt -0.021854 0.152186
vt 4.786086 0.502604
vt 3.563904 0.502604
vt 3.559372 0.500868
vt 2.094471 0.500868
vt -0.017361 0.152778
vt 3.559372 0.502604
vt 2.094471 0.502604
vt 2.089938 0.500868
vt 0.482457 0.500868
vt -0.012868 0.152186
vt 2.089938 0.502604
vt 0.482457 0.502604
vt 0.477924 0.500868
vt -1.162282 0.500868
vt -0.008681 0.150452
vt 0.477924 0.502604
vt -1.162282 0.502604
vt -1.166814 0.500868
vt -2.727658 0.500868
vt -0.005085 0.147693
vt -1.166814 0.502604
vt -2.727658 0.502604
vt -2.732190 0.502604
vt -4.106994 0.502604
vt -2.732190 0.500868
vt -4.106994 0.500868
vt -0.002326 0.144097
vt -4.111526 0.502604
vt -5.206291 0.502604
vt -4.111526 0.500868
vt -5.206291 0.500868
vt -0.000592 0.139910
vt -5.210823 0.502604
vt -5.628884 0.502604
vt -5.210823 0.500868
vt -5.628884 0.500868
vt 0.000000 0.135417
vt -5.694857 0.502604
vt -5.680968 0.502604
s 1
s 0
usemtl Kitchen_Sink
f 1/1/1 2/4/2 3/6/3
f 2/4/2 1/1/1 4/9/4
f 3/7/3 5/11/5 6/13/6
f 5/11/5 3/7/3 2/5/2
f 6/14/6 7/16/7 8/18/8
f 7/16/7 6/14/6 5/12/5
f 7/17/7 9/21/9 8/19/8
f 9/21/9 7/17/7 10/24/10
f 10/25/10 11/26/11 9/22/9
f 11/26/11 10/25/10 12/29/12
f 12/30/12 13/31/13 11/27/11
f 13/31/13 12/30/12 14/34/14
f 14/35/14 15/36/15 13/32/13
f 15/36/15 14/35/14 16/39/16
f 16/40/16 17/41/17 15/37/15
f 17/41/17 16/40/16 18/44/18
f 18/45/18 19/46/19 17/42/17
f 19/46/19 18/45/18 20/49/20
f 21/51/21 19/47/19 20/50/20
f 19/47/19 21/51/21 22/53/22
f 23/56/23 22/54/22 21/52/21
f 22/54/22 23/56/23 24/58/24
f 25/61/25 24/59/24 23/57/23
f 24/59/24 25/61/25 26/63/26
f 27/66/27 26/64/26 25/62/25
f 26/64/26 27/66/27 28/68/28
f 29/71/29 28/69/28 27/67/27
f 28/69/28 29/71/29 30/73/30
f 31/76/31 30/74/30 29/72/29
f 30/74/30 31/76/31 32/78/32
f 33/81/33 32/79/32 31/77/31
f 32/79/32 33/81/33 34/83/34
f 33/82/33 35/86/35 34/84/34
f 35/86/35 33/82/33 36/89/36
f 36/90/36 37/91/37 35/87/35
f 37/91/37 36/90/36 38/94/38
f 38/95/38 39/96/39 37/92/37
f 39/96/39 38/95/38 40/99/40
f 40/100/40 41/101/41 39/97/39
f 41/101/41 40/100/40 42/104/42
f 42/105/42 43/106/43 41/102/41
f 43/106/43 42/105/42 44/109/44
f 44/110/44 45/111/45 43/107/43
f 45/111/45 44/110/44 46/114/46
f 45/112/45 47/116/47 48/118/48
f 47/116/47 45/112/45 46/115/46
f 48/119/48 49/121/49 50/123/50
f 49/121/49 48/119/48 47/117/47
f 50/124/50 51/126/51 52/128/52
f 51/126/51 50/124/50 49/122/49
f 1/2/1 52/129/52 4/10/4
f 4/10/4 52/129/52 53/131/53
f 53/131/53 52/129/52 54/132/53
f 54/132/53 52/129/52 51/127/51
f 50/125/54 1/3/54 52/130/54
f 1/3/54 50/125/54 3/8/54
f 3/8/54 50/125/54 48/120/54
f 3/8/54 48/120/54 6/15/54
f 6/15/54 48/120/54 45/113/54
f 6/15/54 45/113/54 8/20/54
f 8/20/54 45/113/54 43/108/54
f 8/20/54 43/108/54 9/23/54
f 9/23/54 43/108/54 41/103/54
f 9/23/54 41/103/54 11/28/54
f 11/28/54 41/103/54 39/98/54
f 11/28/54 39/98/54 13/33/54
f 13/33/54 39/98/54 37/93/54
f 13/33/54 37/93/54 15/38/54
f 15/38/54 37/93/54 35/88/54
f 15/38/54 35/88/54 17/43/54
f 17/43/54 35/88/54 34/85/54
f 17/43/54 34/85/54 19/48/54
f 19/48/54 34/85/54 32/80/54
f 19/48/54 32/80/54 22/55/54
f 22/55/54 32/80/54 30/75/54
f 22/55/54 30/75/54 24/60/54
f 24/60/54 30/75/54 28/70/54
f 24/60/54 28/70/54 26/65/54
