o G-__555618
v -9.955614 -5.318370 3.362118
v -9.953809 -5.341828 3.612118
v -9.953809 -5.341828 3.362118
v -9.955614 -5.318370 3.612118
v -10.022055 -5.270418 3.312118
v -10.005574 -5.278314 3.362118
v -10.005574 -5.278314 3.312118
v -10.022055 -5.270418 3.362118
v -9.958137 -5.364954 3.362118
v -9.958137 -5.364954 3.612118
v -10.102442 -5.298727 3.362118
v -10.090550 -5.284852 3.312118
v -10.102442 -5.298727 3.312118
v -10.090550 -5.284852 3.362118
v -9.968303 -5.386171 3.362118
v -9.968303 -5.386171 3.612118
v -9.983614 -5.404035 3.362118
v -9.983614 -5.404035 3.612118
v -10.003026 -5.417327 3.362118
v -10.003026 -5.417327 3.612118
v -10.040016 -5.267056 3.312118
v -10.040016 -5.267056 3.362118
v -10.025218 -5.425142 3.362118
v -10.025218 -5.425142 3.612118
v -10.048676 -5.426947 3.362118
v -10.048676 -5.426947 3.612118
v -10.071801 -5.422619 3.612118
v -10.071801 -5.422619 3.362118
v -10.093019 -5.412453 3.612118
v -10.093019 -5.412453 3.362118
v -10.113699 -5.333169 3.362118
v -10.110338 -5.315207 3.312118
v -10.113699 -5.333169 3.312118
v -10.110338 -5.315207 3.362118
v -10.112297 -5.351388 3.312118
v -10.112297 -5.351388 3.362118
v -10.110883 -5.397142 3.612118
v -10.110883 -5.397142 3.362118
v -10.106228 -5.368624 3.362118
v -10.095903 -5.383702 3.312118
v -10.095903 -5.383702 3.362118
v -10.106228 -5.368624 3.312118
v -10.082029 -5.395594 3.312118
v -10.082029 -5.395594 3.362118
v -10.037002 -5.209768 3.276118
v -9.916626 -5.343930 3.312118
v -9.916626 -5.343930 3.276118
v -10.037002 -5.209768 3.312118
v -10.065549 -5.403490 3.362118
v -10.047587 -5.406851 3.362118
v -10.029367 -5.405449 3.362118
v -10.012132 -5.399380 3.362118
v -9.997053 -5.389056 3.362118
v -9.985162 -5.375181 3.362118
v -10.075472 -5.274528 3.362118
v -9.977265 -5.358701 3.362118
v -10.058236 -5.268458 3.362118
v -9.973905 -5.340739 3.362118
v -9.975307 -5.322520 3.362118
v -9.981376 -5.305284 3.362118
v -9.991700 -5.290205 3.362118
v -10.012132 -5.399380 3.312118
v -9.997053 -5.389056 3.312118
v -10.065549 -5.403490 3.312118
v -10.029367 -5.405449 3.312118
v -10.050602 -5.464139 3.312118
v -9.985162 -5.375181 3.312118
v -9.977265 -5.358701 3.312118
v -10.170978 -5.329978 3.312118
v -10.124175 -5.377729 3.612118
v -10.124175 -5.377729 3.362118
v -10.058236 -5.268458 3.312118
v -10.075472 -5.274528 3.312118
v -10.131989 -5.355538 3.612118
v -10.131989 -5.355538 3.362118
v -10.133795 -5.332080 3.612118
v -10.133795 -5.332080 3.362118
v -9.973905 -5.340739 3.312118
v -10.129467 -5.308954 3.362118
v -10.129467 -5.308954 3.612118
v -10.047587 -5.406851 3.312118
v -9.975307 -5.322520 3.312118
v -9.981376 -5.305284 3.312118
v -9.991700 -5.290205 3.312118
v -10.119301 -5.287737 3.362118
v -10.119301 -5.287737 3.612118
v -10.103990 -5.269873 3.362118
v -10.103990 -5.269873 3.612118
v -10.084578 -5.256581 3.362118
v -10.084578 -5.256581 3.612118
v -10.062386 -5.248766 3.362118
v -10.038928 -5.246961 3.362118
v -10.015802 -5.251289 3.362118
v -9.994585 -5.261455 3.362118
v -9.963428 -5.296178 3.362118
v -9.976721 -5.276766 3.362118
v -10.062386 -5.248766 3.612118
v -10.038928 -5.246961 3.612118
v -10.015802 -5.251289 3.612118
v -9.994585 -5.261455 3.612118
v -9.976721 -5.276766 3.612118
v -9.963428 -5.296178 3.612118
vn 0.7185 0.1514 -0.6789
vn 0.7332 -0.0397 0.6789
vn 0.7332 -0.0397 -0.6789
vn 0.7185 0.1514 0.6789
vn 0.2097 0.6417 0.7377
vn 0.5385 0.8261 -0.1658
vn 0.3687 0.5656 0.7377
vn 0.3064 0.9374 -0.1658
vn 0.6979 -0.2281 -0.6789
vn 0.6979 -0.2281 0.6789
vn -0.8261 0.5385 -0.1658
vn -0.4509 0.5025 0.7377
vn -0.5656 0.3687 0.7377
vn -0.6586 0.7340 -0.1658
vn 0.6151 -0.4010 -0.6789
vn 0.6151 -0.4010 0.6789
vn 0.4904 -0.5465 -0.6789
vn 0.4904 -0.5465 0.6789
vn 0.3322 -0.6548 -0.6789
vn 0.3322 -0.6548 0.6789
vn 0.0365 0.6741 0.7377
vn 0.0533 0.9847 -0.1658
vn 0.1514 -0.7185 -0.6789
vn 0.1514 -0.7185 0.6789
vn -0.0397 -0.7332 -0.6789
vn -0.0397 -0.7332 0.6789
vn -0.2281 -0.6979 0.6789
vn -0.2281 -0.6979 -0.6789
vn -0.4010 -0.6151 0.6789
vn -0.4010 -0.6151 -0.6789
vn -0.9847 0.0533 -0.1658
vn -0.6417 0.2097 0.7377
vn -0.6741 0.0365 0.7377
vn -0.9374 0.3064 -0.1658
vn -0.6606 -0.1392 0.7377
vn -0.9650 -0.2034 -0.1658
vn -0.5465 -0.4904 0.6789
vn -0.5465 -0.4904 -0.6789
vn -0.8795 -0.4462 -0.1658
vn -0.5025 -0.4509 0.7377
vn -0.7340 -0.6586 -0.1658
vn -0.6021 -0.3055 0.7377
vn -0.3687 -0.5656 0.7377
vn -0.5385 -0.8261 -0.1658
vn 0.7443 0.6678 -0.0000
vn -0.0000 -0.0000 1.0000
vn 0.6586 -0.7340 -0.1658
vn 0.3055 -0.6021 0.7377
vn 0.4509 -0.5025 0.7377
vn 0.4462 -0.8795 -0.1658
vn -0.2097 -0.6417 0.7377
vn -0.3064 -0.9374 -0.1658
vn 0.1392 -0.6606 0.7377
vn 0.2034 -0.9650 -0.1658
vn 0.6678 -0.7443 -0.0000
vn 0.8261 -0.5385 -0.1658
vn 0.5656 -0.3687 0.7377
vn 0.9374 -0.3064 -0.1658
vn 0.6417 -0.2097 0.7377
vn -0.1460 -0.1310 -0.9806
vn -0.6548 -0.3322 0.6789
vn -0.6548 -0.3322 -0.6789
vn -0.4462 0.8795 -0.1658
vn -0.1392 0.6606 0.7377
vn -0.3055 0.6021 0.7377
vn -0.2034 0.9650 -0.1658
vn -0.7185 -0.1514 0.6789
vn -0.7185 -0.1514 -0.6789
vn -0.7332 0.0397 0.6789
vn -0.7332 0.0397 -0.6789
vn 0.9847 -0.0533 -0.1658
vn 0.6741 -0.0365 0.7377
vn -0.6979 0.2281 -0.6789
vn -0.6979 0.2281 0.6789
vn -0.6151 0.4010 -0.6789
vn -0.6151 0.4010 0.6789
vn -0.4904 0.5465 -0.6789
vn -0.4904 0.5465 0.6789
vn -0.3322 0.6548 -0.6789
vn -0.3322 0.6548 0.6789
vn -0.0000 -0.0000 -1.0000
vn -0.1514 0.7185 -0.6789
vn -0.1514 0.7185 0.6789
vn 0.0397 0.7332 -0.6789
vn 0.0397 0.7332 0.6789
vn 0.2281 0.6979 0.6789
vn 0.2281 0.6979 -0.6789
vn 0.6606 0.1392 0.7377
vn 0.9650 0.2034 -0.1658
vn 0.5025 0.4509 0.7377
vn 0.8795 0.4462 -0.1658
vn 0.6021 0.3055 0.7377
vn 0.7340 0.6586 -0.1658
vn -0.0365 -0.6741 0.7377
vn -0.0533 -0.9847 -0.1658
vn 0.4010 0.6151 0.6789
vn 0.4010 0.6151 -0.6789
vn 0.5465 0.4904 0.6789
vn 0.5465 0.4904 -0.6789
vn 0.6548 0.3322 0.6789
vn 0.6548 0.3322 -0.6789
vn -0.6678 0.7443 -0.0000
s 1
s 0
s 1
s 0
s 1
s 0
s 1
s 0
s 1
s 0
s 1
s 0
s 1
s 0
s 1
usemtl Material
f 1//1 2//2 3//3
f 2//2 1//1 4//4
f 5//5 6//6 7//7
f 6//6 5//5 8//8
f 2//2 9//9 3//3
f 9//9 2//2 10//10
f 11//11 12//12 13//13
f 12//12 11//11 14//14
f 10//10 15//15 9//9
f 15//15 10//10 16//16
f 16//16 17//17 15//15
f 17//17 16//16 18//18
f 18//18 19//19 17//17
f 19//19 18//18 20//20
f 21//21 8//8 5//5
f 8//8 21//21 22//22
f 20//20 23//23 19//19
f 23//23 20//20 24//24
f 24//24 25//25 23//23
f 25//25 24//24 26//26
f 27//27 25//25 26//26
f 25//25 27//27 28//28
f 29//29 28//28 27//27
f 28//28 29//29 30//30
f 31//31 32//32 33//33
f 32//32 31//31 34//34
f 31//31 35//35 36//36
f 35//35 31//31 33//33
f 37//37 30//30 29//29
f 30//30 37//37 38//38
f 39//39 40//40 41//41
f 40//40 39//39 42//42
f 41//41 43//43 44//44
f 43//43 41//41 40//40
f 45//45 46//45 47//45
f 46//45 45//45 48//45
f 44//46 39//46 41//46
f 39//46 44//46 49//46
f 39//46 49//46 36//46
f 36//46 49//46 50//46
f 36//46 50//46 31//46
f 31//46 50//46 51//46
f 31//46 51//46 34//46
f 34//46 51//46 52//46
f 34//46 52//46 11//46
f 11//46 52//46 53//46
f 11//46 53//46 14//46
f 14//46 53//46 54//46
f 14//46 54//46 55//46
f 55//46 54//46 56//46
f 55//46 56//46 57//46
f 57//46 56//46 58//46
f 57//46 58//46 22//46
f 22//46 58//46 59//46
f 22//46 59//46 8//46
f 8//46 59//46 60//46
f 8//46 60//46 6//46
f 6//46 60//46 61//46
f 53//47 62//48 63//49
f 62//48 53//47 52//50
f 44//44 64//51 49//52
f 64//51 44//44 43//43
f 52//50 65//53 62//48
f 65//53 52//50 51//54
f 66//55 47//55 46//55
f 54//56 63//49 67//57
f 63//49 54//56 53//47
f 56//58 67//57 68//59
f 67//57 56//58 54//56
f 45//60 66//60 69//60
f 66//60 45//60 47//60
f 70//61 38//38 37//37
f 38//38 70//61 71//62
f 55//63 72//64 73//65
f 72//64 55//63 57//66
f 74//67 71//62 70//61
f 71//62 74//67 75//68
f 76//69 75//68 74//67
f 75//68 76//69 77//70
f 58//71 68//59 78//72
f 68//59 58//71 56//58
f 76//69 79//73 77//70
f 79//73 76//69 80//74
f 66//46 43//46 69//46
f 43//46 66//46 64//46
f 64//46 66//46 81//46
f 81//46 66//46 65//46
f 65//46 66//46 62//46
f 62//46 66//46 46//46
f 69//46 43//46 40//46
f 62//46 46//46 63//46
f 63//46 46//46 67//46
f 67//46 46//46 68//46
f 68//46 46//46 78//46
f 78//46 46//46 82//46
f 82//46 46//46 83//46
f 83//46 46//46 84//46
f 69//46 13//46 48//46
f 13//46 69//46 32//46
f 32//46 69//46 33//46
f 33//46 69//46 35//46
f 35//46 69//46 42//46
f 42//46 69//46 40//46
f 48//46 13//46 12//46
f 48//46 12//46 73//46
f 48//46 73//46 72//46
f 48//46 72//46 21//46
f 48//46 21//46 5//46
f 48//46 5//46 7//46
f 48//46 7//46 84//46
f 48//46 84//46 46//46
f 80//74 85//75 79//73
f 85//75 80//74 86//76
f 86//76 87//77 85//75
f 87//77 86//76 88//78
f 88//78 89//79 87//77
f 89//79 88//78 90//80
f 71//81 30//81 38//81
f 30//81 71//81 75//81
f 30//81 75//81 28//81
f 28//81 75//81 77//81
f 28//81 77//81 41//81
f 41//81 77//81 39//81
f 39//81 77//81 36//81
f 36//81 77//81 79//81
f 36//81 79//81 31//81
f 31//81 79//81 34//81
f 34//81 79//81 85//81
f 34//81 85//81 11//81
f 11//81 85//81 87//81
f 11//81 87//81 14//81
f 14//81 87//81 89//81
f 14//81 89//81 55//81
f 55//81 89//81 57//81
f 57//81 89//81 91//81
f 57//81 91//81 22//81
f 22//81 91//81 92//81
f 22//81 92//81 8//81
f 8//81 92//81 6//81
f 6//81 92//81 93//81
f 6//81 93//81 61//81
f 41//81 25//81 28//81
f 25//81 41//81 44//81
f 25//81 44//81 49//81
f 25//81 49//81 23//81
f 23//81 49//81 50//81
f 23//81 50//81 51//81
f 23//81 51//81 19//81
f 19//81 51//81 52//81
f 19//81 52//81 17//81
f 17//81 52//81 53//81
f 17//81 53//81 54//81
f 17//81 54//81 15//81
f 15//81 54//81 56//81
f 15//81 56//81 9//81
f 9//81 56//81 58//81
f 9//81 58//81 3//81
f 3//81 58//81 59//81
f 3//81 59//81 60//81
f 1//81 3//81 60//81
f 1//81 60//81 61//81
f 1//81 61//81 93//81
f 1//81 93//81 94//81
f 1//81 94//81 95//81
f 95//81 94//81 96//81
f 90//80 91//82 89//79
f 91//82 90//80 97//83
f 97//83 92//84 91//82
f 92//84 97//83 98//85
f 34//34 13//13 32//32
f 13//13 34//34 11//11
f 14//14 73//65 12//12
f 73//65 14//14 55//63
f 92//84 99//86 93//87
f 99//86 92//84 98//85
f 82//88 58//71 78//72
f 58//71 82//88 59//89
f 84//90 60//91 83//92
f 60//91 84//90 61//93
f 83//92 59//89 82//88
f 59//89 83//92 60//91
f 49//52 81//94 50//95
f 81//94 49//52 64//51
f 93//87 100//96 94//97
f 100//96 93//87 99//86
f 94//97 101//98 96//99
f 101//98 94//97 100//96
f 7//7 61//93 84//90
f 61//93 7//7 6//6
f 96//99 102//100 95//101
f 102//100 96//99 101//98
f 1//1 95//101 4//4
f 4//4 95//101 102//100
f 48//102 45//102 69//102
f 57//66 21//21 72//64
f 21//21 57//66 22//22
f 29//46 70//46 37//46
f 70//46 29//46 27//46
f 70//46 27//46 74//46
f 74//46 27//46 26//46
f 74//46 26//46 76//46
f 76//46 26//46 24//46
f 76//46 24//46 80//46
f 80//46 24//46 20//46
f 80//46 20//46 86//46
f 86//46 20//46 18//46
f 86//46 18//46 88//46
f 88//46 18//46 16//46
f 88//46 16//46 90//46
f 90//46 16//46 10//46
f 90//46 10//46 97//46
f 97//46 10//46 2//46
f 97//46 2//46 98//46
f 98//46 2//46 4//46
f 98//46 4//46 99//46
f 99//46 4//46 102//46
f 99//46 102//46 100//46
f 100//46 102//46 101//46
f 36//36 42//42 39//39
f 42//42 36//36 35//35
f 51//54 81//94 65//53
f 81//94 51//54 50//95
