o G-__555744
v -15.040463 -6.257927 1.245000
v -15.080463 -6.217927 1.245000
v -15.040463 -6.217927 1.245000
v -15.080463 -6.257927 1.245000
v -15.020464 -6.257927 1.085000
v -15.080463 -6.257927 1.125000
v -15.080463 -6.257927 1.085000
v -15.040463 -6.257927 1.125000
v -15.020464 -6.257927 1.285000
v -15.080463 -6.257927 1.285000
v -15.080463 -6.217927 1.085000
v -15.020464 -6.217927 1.085000
v -15.080463 -6.187906 2.250000
v -15.100464 -6.187906 0.120000
v -15.100464 -6.187906 2.250000
v -15.080463 -6.187906 0.120000
v -15.100464 -6.287949 2.149958
v -15.100464 -6.817863 0.220042
v -15.100464 -6.287948 0.220042
v -15.100464 -6.817863 2.149958
v -15.020464 -6.217927 1.285000
v -15.080463 -6.217927 1.285000
v -15.080464 -6.917906 0.120000
v -15.100464 -6.917906 2.250000
v -15.100464 -6.917906 0.120000
v -15.080464 -6.917906 2.250000
v -15.080463 -6.287948 0.220042
v -15.080464 -6.817863 0.220042
v -15.080464 -6.817863 2.149958
v -15.080463 -6.287949 2.149958
v -15.040463 -6.217927 1.125000
v -15.080463 -6.217927 1.125000
vn -0.0000 -0.0000 -1.0000
vn -0.0000 -1.0000 -0.0000
vn -0.0000 1.0000 -0.0000
vn 1.0000 -0.0000 -0.0000
vn -0.0000 -0.0000 1.0000
vn -1.0000 -0.0000 -0.0000
s 0
usemtl [Translucent_Glass_Blue]
f 17//4 18//4 19//4
f 18//4 17//4 20//4
