o G-__555996
v -8.021604 -0.589920 1.225000
v -8.105160 -0.535658 1.324628
v -8.781683 -0.096319 1.225000
v -8.021604 -0.589920 2.350000
v -8.105160 -0.535658 2.250371
v -8.698128 -0.150580 2.250371
v -8.698128 -0.150580 1.324628
v -8.781683 -0.096319 2.350000
v -8.759897 -0.062772 1.225000
v -8.675752 -0.117417 1.325333
v -7.999818 -0.556373 1.225000
v -8.759897 -0.062772 2.350000
v -8.675752 -0.117417 2.249667
v -8.083964 -0.501728 2.249667
v -8.083964 -0.501728 1.325333
v -7.999818 -0.556373 2.350000
v -8.781683 -0.096319 0.943750
v -8.759897 -0.062772 0.100000
v -8.781683 -0.096319 0.100000
v -8.759897 -0.062772 0.943750
v -8.021604 -0.589920 0.100000
v -8.021604 -0.589920 0.943750
v -7.999818 -0.556373 0.100000
v -7.999818 -0.556373 0.943750
v -8.027050 -0.598307 0.943750
v -8.787129 -0.104705 0.943750
v -8.027050 -0.598307 1.225000
v -8.681198 -0.125804 2.249667
v -8.089411 -0.510115 2.249667
v -8.099713 -0.527272 1.324628
v -8.692681 -0.142194 1.324628
v -8.787129 -0.104705 1.225000
v -7.994372 -0.547986 0.943750
v -8.754451 -0.054385 0.943750
v -8.099713 -0.527272 2.250371
v -8.692681 -0.142194 2.250371
v -8.681198 -0.125804 1.325333
v -7.994372 -0.547986 1.225000
v -8.089411 -0.510115 1.325333
v -8.754451 -0.054385 1.225000
vn -0.5446 -0.8387 -0.0000
vn 0.5446 0.8387 -0.0000
vn -0.8387 0.5446 -0.0000
vn 0.8387 -0.5446 -0.0000
vn -0.0000 -0.0000 -1.0000
vn -0.0000 -0.0000 1.0000
s 0
usemtl [Metal_Steel_Textured_White]
f 22//4 27//4 25//4
f 1//4 27//4 22//4
f 27//6 3//6 32//6
f 1//6 3//6 27//6
f 32//3 17//3 26//3
f 17//3 32//3 3//3
f 27//1 26//1 25//1
f 26//1 27//1 32//1
f 33//4 11//4 24//4
f 11//4 33//4 38//4
f 11//6 40//6 9//6
f 40//6 11//6 38//6
f 40//2 33//2 34//2
f 33//2 40//2 38//2
f 40//3 20//3 9//3
f 20//3 40//3 34//3
