o G-__556140
v -6.597626 -3.149761 1.156350
v -6.610326 -2.879400 1.297091
v -6.610326 -3.149761 1.156350
v -6.584926 -2.879400 1.297091
v -6.584926 -3.149761 1.156350
v -6.597626 -2.876468 1.291459
v -6.610326 -3.146829 1.150718
v -6.610326 -2.876468 1.291459
v -6.597626 -3.146829 1.150718
v -6.584926 -2.876468 1.291459
v -6.584926 -3.146829 1.150718
v -6.610326 -2.854000 1.297091
v -6.584926 -2.854000 1.297091
v -6.610326 -2.854000 1.291459
v -6.608360 -2.862358 1.291459
v -6.607250 -2.859678 1.291459
v -6.605484 -2.857376 1.291459
v -6.603182 -2.855610 1.291459
v -6.600502 -2.854500 1.291459
v -6.597626 -2.854000 1.291459
v -6.608738 -2.865234 1.291459
v -6.597626 -2.854121 1.291459
v -6.600502 -2.875968 1.291459
v -6.603182 -2.874857 1.291459
v -6.605484 -2.873091 1.291459
v -6.607250 -2.870790 1.291459
v -6.608360 -2.868110 1.291459
v -6.597626 -2.876346 1.291459
v -6.584926 -2.854000 1.291459
v -6.594749 -2.854500 1.291459
v -6.592070 -2.855610 1.291459
v -6.589768 -2.857376 1.291459
v -6.588002 -2.859678 1.291459
v -6.586892 -2.862358 1.291459
v -6.586514 -2.865234 1.291459
v -6.594749 -2.875968 1.291459
v -6.592070 -2.874857 1.291459
v -6.589768 -2.873091 1.291459
v -6.588002 -2.870790 1.291459
v -6.586892 -2.868110 1.291459
v -6.606813 -2.862772 1.280346
v -6.606813 -2.867696 1.280346
v -6.607137 -2.865234 1.280346
v -6.605863 -2.860478 1.280346
v -6.605863 -2.869989 1.280346
v -6.604352 -2.858508 1.280346
v -6.604352 -2.871959 1.280346
v -6.602381 -2.856997 1.280346
v -6.602381 -2.873471 1.280346
v -6.600088 -2.856047 1.280346
v -6.600088 -2.874421 1.280346
v -6.597626 -2.855722 1.280346
v -6.597626 -2.874745 1.280346
v -6.595164 -2.856047 1.280346
v -6.595164 -2.874421 1.280346
v -6.592870 -2.856997 1.280346
v -6.592870 -2.873471 1.280346
v -6.590900 -2.858508 1.280346
v -6.590900 -2.871959 1.280346
v -6.589389 -2.860478 1.280346
v -6.589389 -2.869989 1.280346
v -6.588439 -2.862772 1.280346
v -6.588439 -2.867696 1.280346
v -6.588114 -2.865234 1.280346
v -6.608360 -2.862358 1.278759
v -6.608360 -2.868110 1.278759
v -6.608738 -2.865234 1.278759
v -6.607250 -2.859678 1.278759
v -6.607250 -2.870790 1.278759
v -6.607137 -2.865234 1.278759
v -6.606813 -2.862772 1.278759
v -6.605484 -2.857376 1.278759
v -6.605863 -2.860478 1.278759
v -6.604352 -2.858508 1.278759
v -6.603182 -2.855610 1.278759
v -6.602381 -2.856997 1.278759
v -6.600502 -2.854500 1.278759
v -6.600088 -2.856047 1.278759
v -6.597626 -2.854121 1.278759
v -6.597626 -2.855722 1.278759
v -6.594749 -2.854500 1.278759
v -6.595164 -2.856047 1.278759
v -6.592870 -2.856997 1.278759
v -6.592070 -2.855610 1.278759
v -6.590900 -2.858508 1.278759
v -6.589768 -2.857376 1.278759
v -6.589389 -2.860478 1.278759
v -6.588002 -2.859678 1.278759
v -6.588439 -2.862772 1.278759
v -6.588114 -2.865234 1.278759
v -6.606813 -2.867696 1.278759
v -6.605484 -2.873091 1.278759
v -6.605863 -2.869989 1.278759
v -6.604352 -2.871959 1.278759
v -6.603182 -2.874857 1.278759
v -6.602381 -2.873471 1.278759
v -6.600502 -2.875968 1.278759
v -6.600088 -2.874421 1.278759
v -6.597626 -2.876346 1.278759
v -6.597626 -2.874745 1.278759
v -6.595164 -2.874421 1.278759
v -6.594749 -2.875968 1.278759
v -6.592870 -2.873471 1.278759
v -6.592070 -2.874857 1.278759
v -6.590900 -2.871959 1.278759
v -6.589768 -2.873091 1.278759
v -6.589389 -2.869989 1.278759
v -6.588002 -2.870790 1.278759
v -6.588439 -2.867696 1.278759
v -6.586892 -2.862358 1.278759
v -6.586892 -2.868110 1.278759
v -6.586514 -2.865234 1.278759
vn -0.0000 -0.9537 0.3007
vn -0.5789 0.1453 0.8024
vn -0.5774 -0.7787 0.2455
vn 0.5789 0.1453 0.8024
vn 0.5774 -0.7787 0.2455
vn -0.0000 0.6873 -0.7263
vn -0.5774 -0.2455 -0.7787
vn -0.7615 0.4455 -0.4708
vn -0.0000 -0.3007 -0.9537
vn 0.7615 0.4455 -0.4708
vn 0.5774 -0.2455 -0.7787
vn -0.0000 0.8870 0.4617
vn -0.0000 0.8870 0.4618
vn -0.0000 -0.8870 -0.4617
vn -0.5774 0.5773 0.5774
vn 0.5774 0.5774 0.5774
vn -0.5774 0.5773 -0.5773
vn -0.6521 0.1747 -0.7377
vn -0.5847 0.3376 -0.7377
vn -0.4774 0.4774 -0.7377
vn -0.3376 0.5847 -0.7377
vn -0.1747 0.6521 -0.7377
vn -0.0000 0.7071 -0.7071
vn -0.6748 -0.0000 -0.7380
vn -0.0000 0.6751 -0.7377
vn -0.1747 -0.6521 -0.7377
vn -0.3376 -0.5847 -0.7377
vn -0.4774 -0.4774 -0.7377
vn -0.5847 -0.3376 -0.7377
vn -0.6521 -0.1747 -0.7377
vn -0.0000 -0.6751 -0.7377
vn 0.5774 0.5773 -0.5773
vn 0.1747 0.6521 -0.7377
vn 0.3376 0.5847 -0.7377
vn 0.4774 0.4774 -0.7377
vn 0.5847 0.3376 -0.7377
vn 0.6521 0.1747 -0.7377
vn 0.6751 -0.0000 -0.7377
vn 0.1747 -0.6521 -0.7377
vn 0.3376 -0.5847 -0.7377
vn 0.4774 -0.4774 -0.7377
vn 0.5847 -0.3376 -0.7377
vn 0.6521 -0.1747 -0.7377
vn -0.0000 -0.0000 -1.0000
vn -0.7092 0.1900 -0.6789
vn -0.7092 -0.1900 -0.6789
vn -0.7343 -0.0000 -0.6789
vn -0.6359 0.3671 -0.6789
vn -0.6359 -0.3671 -0.6789
vn -0.5192 0.5192 -0.6789
vn -0.3671 0.6359 -0.6789
vn -0.1900 0.7092 -0.6789
vn -0.0000 0.7343 -0.6789
vn 0.1900 0.7092 -0.6789
vn 0.3671 0.6359 -0.6789
vn 0.5192 0.5192 -0.6789
vn 0.6359 0.3671 -0.6789
vn -0.6751 -0.0000 -0.7377
vn -0.5192 -0.5192 -0.6789
vn -0.3671 -0.6359 -0.6789
vn -0.1900 -0.7092 -0.6789
vn -0.0000 -0.7343 -0.6789
vn 0.1900 -0.7092 -0.6789
vn 0.3671 -0.6359 -0.6789
vn 0.5192 -0.5192 -0.6789
vn 0.6359 -0.3671 -0.6789
vn 0.7092 0.1900 -0.6789
vn 0.7092 -0.1900 -0.6789
vn 0.7343 -0.0000 -0.6789
s 1
s 0
s 1
s 0
s 1
s 0
usemtl Kitchen_Sink
f 1//1 2//2 3//3
f 2//2 1//1 4//4
f 4//4 1//1 5//5
f 6//6 7//7 8//8
f 7//7 6//6 9//9
f 9//9 6//6 10//10
f 9//9 10//10 11//11
f 2//12 6//12 8//12
f 6//12 2//12 10//12
f 10//13 2//13 4//13
f 5//14 9//14 11//14
f 1//14 9//14 5//14
f 11//11 4//4 5//5
f 4//4 11//11 10//10
f 1//14 7//14 9//14
f 7//14 1//14 3//14
f 2//2 7//7 3//3
f 7//7 2//2 8//8
f 4//4 12//15 2//2
f 12//15 4//4 13//16
f 14//17 15//18 8//8
f 15//18 14//17 16//19
f 16//19 14//17 17//20
f 17//20 14//17 18//21
f 18//21 14//17 19//22
f 19//22 14//17 20//23
f 8//8 15//18 21//24
f 19//22 20//23 22//25
f 8//8 23//26 6//6
f 23//26 8//8 24//27
f 24//27 8//8 25//28
f 25//28 8//8 26//29
f 26//29 8//8 27//30
f 27//30 8//8 21//24
f 6//6 23//26 28//31
f 10//10 13//16 4//4
f 13//16 10//10 29//32
f 12//15 20//23 14//17
f 20//23 12//15 29//32
f 29//32 12//15 13//16
f 12//15 8//8 2//2
f 8//8 12//15 14//17
f 29//32 22//25 20//23
f 22//25 29//32 30//33
f 30//33 29//32 31//34
f 31//34 29//32 32//35
f 32//35 29//32 33//36
f 33//36 29//32 34//37
f 34//37 29//32 35//38
f 36//39 6//6 28//31
f 6//6 36//39 10//10
f 10//10 36//39 37//40
f 10//10 37//40 38//41
f 10//10 38//41 39//42
f 10//10 39//42 40//43
f 10//10 40//43 35//38
f 10//10 35//38 29//32
f 65//45 66//46 67//47
f 66//46 65//45 68//48
f 66//46 68//48 69//49
f 69//49 68//48 70//38
f 70//38 68//48 71//43
f 71//43 68//48 72//50
f 71//43 72//50 73//42
f 73//42 72//50 74//41
f 74//41 72//50 75//51
f 74//41 75//51 76//40
f 76//40 75//51 77//52
f 76//40 77//52 78//39
f 78//39 77//52 79//53
f 78//39 79//53 80//31
f 80//31 79//53 81//54
f 80//31 81//54 82//26
f 82//26 81//54 83//27
f 83//27 81//54 84//55
f 83//27 84//55 85//28
f 85//28 84//55 86//56
f 85//28 86//56 87//29
f 87//29 86//56 88//57
f 87//29 88//57 89//30
f 89//30 88//57 90//58
f 69//49 91//37 92//59
f 91//37 69//49 70//38
f 92//59 91//37 93//36
f 92//59 93//36 94//35
f 92//59 94//35 95//60
f 95//60 94//35 96//34
f 95//60 96//34 97//61
f 97//61 96//34 98//33
f 97//61 98//33 99//62
f 99//62 98//33 100//25
f 99//62 100//25 101//22
f 99//62 101//22 102//63
f 102//63 101//22 103//21
f 102//63 103//21 104//64
f 104//64 103//21 105//20
f 104//64 105//20 106//65
f 106//65 105//20 107//19
f 106//65 107//19 108//66
f 108//66 107//19 109//18
f 108//66 109//18 90//58
f 108//66 90//58 88//57
f 108//66 88//57 110//67
f 108//66 110//67 111//68
f 111//68 110//67 112//69
f 19//22 79//53 77//52
f 79//53 19//22 22//25
f 22//25 81//54 79//53
f 81//54 22//25 30//33
f 30//33 84//55 81//54
f 84//55 30//33 31//34
f 31//34 86//56 84//55
f 86//56 31//34 32//35
f 86//56 33//36 88//57
f 33//36 86//56 32//35
f 88//57 34//37 110//67
f 34//37 88//57 33//36
f 110//67 35//38 112//69
f 35//38 110//67 34//37
f 112//69 40//43 111//68
f 40//43 112//69 35//38
f 111//68 39//42 108//66
f 39//42 111//68 40//43
f 108//66 38//41 106//65
f 38//41 108//66 39//42
f 38//41 104//64 106//65
f 104//64 38//41 37//40
f 37//40 102//63 104//64
f 102//63 37//40 36//39
f 36//39 99//62 102//63
f 99//62 36//39 28//31
f 28//31 97//61 99//62
f 97//61 28//31 23//26
f 23//26 95//60 97//61
f 95//60 23//26 24//27
f 24//27 92//59 95//60
f 92//59 24//27 25//28
f 26//29 92//59 25//28
f 92//59 26//29 69//49
f 27//30 69//49 26//29
f 69//49 27//30 66//46
f 21//24 66//46 27//30
f 66//46 21//24 67//47
f 15//18 67//47 21//24
f 67//47 15//18 65//45
f 16//19 65//45 15//18
f 65//45 16//19 68//48
f 17//20 68//48 16//19
f 68//48 17//20 72//50
f 17//20 75//51 72//50
f 75//51 17//20 18//21
f 18//21 77//52 75//51
f 77//52 18//21 19//22
f 52//62 78//39 80//31
f 78//39 52//62 50//63
f 50//63 76//40 78//39
f 76//40 50//63 48//64
f 48//64 74//41 76//40
f 74//41 48//64 46//65
f 74//41 44//66 73//42
f 44//66 74//41 46//65
f 73//42 41//68 71//43
f 41//68 73//42 44//66
f 71//43 43//69 70//38
f 43//69 71//43 41//68
f 70//38 42//67 91//37
f 42//67 70//38 43//69
f 91//37 45//57 93//36
f 45//57 91//37 42//67
f 93//36 47//56 94//35
f 47//56 93//36 45//57
f 47//56 96//34 94//35
f 96//34 47//56 49//55
f 49//55 98//33 96//34
f 98//33 49//55 51//54
f 51//54 100//25 98//33
f 100//25 51//54 53//53
f 53//53 101//22 100//25
f 101//22 53//53 55//52
f 55//52 103//21 101//22
f 103//21 55//52 57//51
f 57//51 105//20 103//21
f 105//20 57//51 59//50
f 61//48 105//20 59//50
f 105//20 61//48 107//19
f 63//45 107//19 61//48
f 107//19 63//45 109//18
f 64//47 109//18 63//45
f 109//18 64//47 90//58
f 62//46 90//58 64//47
f 90//58 62//46 89//30
f 60//49 89//30 62//46
f 89//30 60//49 87//29
f 58//59 87//29 60//49
f 87//29 58//59 85//28
f 58//59 83//27 85//28
f 83//27 58//59 56//60
f 56//60 82//26 83//27
f 82//26 56//60 54//61
f 54//61 80//31 82//26
f 80//31 54//61 52//62
