o G-__555816
v -12.817943 -6.880406 1.245000
v -12.857943 -6.920406 1.245000
v -12.857943 -6.880406 1.245000
v -12.817943 -6.920406 1.245000
v -12.817943 -6.860406 1.085000
v -12.817943 -6.920406 1.125000
v -12.817943 -6.920406 1.085000
v -12.817943 -6.880406 1.125000
v -12.817943 -6.860406 1.285000
v -12.817943 -6.920406 1.285000
v -12.857943 -6.920406 1.085000
v -12.857943 -6.860406 1.085000
v -12.887964 -6.920406 2.250000
v -12.887964 -6.940406 0.120000
v -12.887964 -6.940406 2.250000
v -12.887964 -6.920406 0.120000
v -12.787922 -6.940406 2.149958
v -12.258007 -6.940406 0.220042
v -12.787922 -6.940406 0.220042
v -12.258007 -6.940406 2.149958
v -12.857943 -6.860406 1.285000
v -12.857943 -6.920406 1.285000
v -12.157965 -6.920406 0.120000
v -12.157964 -6.940406 2.250000
v -12.157965 -6.940406 0.120000
v -12.157964 -6.920406 2.250000
v -12.787922 -6.920406 0.220042
v -12.258007 -6.920406 0.220042
v -12.258007 -6.920406 2.149958
v -12.787922 -6.920406 2.149958
v -12.857943 -6.880406 1.125000
v -12.857943 -6.920406 1.125000
vn -0.0000 -0.0000 -1.0000
vn 1.0000 -0.0000 -0.0000
vn -1.0000 -0.0000 -0.0000
vn -0.0000 1.0000 -0.0000
vn -0.0000 -0.0000 1.0000
vn -0.0000 -1.0000 -0.0000
s 0
usemtl [Translucent_Glass_Blue]
f 17//4 18//4 19//4
f 18//4 17//4 20//4
