o G-__555987
v -7.999818 -2.368954 1.225000
v -8.086099 -2.418768 1.324628
v -8.784689 -2.822099 1.225000
v -7.999818 -2.368953 2.350000
v -8.086099 -2.418768 2.250371
v -8.698408 -2.772285 2.250371
v -8.698408 -2.772285 1.324628
v -8.784689 -2.822099 2.350000
v -8.804688 -2.787458 1.225000
v -8.717798 -2.737291 1.325333
v -8.019818 -2.334312 1.225000
v -8.804688 -2.787458 2.350000
v -8.717798 -2.737291 2.249667
v -8.106709 -2.384479 2.249667
v -8.106709 -2.384479 1.325333
v -8.019818 -2.334312 2.350000
v -8.784689 -2.822099 0.943750
v -8.804688 -2.787458 0.100000
v -8.784689 -2.822099 0.100000
v -8.804688 -2.787458 0.943750
v -7.999818 -2.368954 0.100000
v -7.999818 -2.368954 0.943750
v -8.019818 -2.334313 0.100000
v -8.019818 -2.334313 0.943750
v -7.994818 -2.377614 0.943750
v -8.779689 -2.830759 0.943750
v -7.994818 -2.377614 1.225000
v -8.712798 -2.745952 2.249667
v -8.101708 -2.393139 2.249667
v -8.091099 -2.410108 1.324628
v -8.703408 -2.763624 1.324628
v -8.779689 -2.830759 1.225000
v -8.024818 -2.325652 0.943750
v -8.809689 -2.778797 0.943750
v -8.091099 -2.410107 2.250371
v -8.703408 -2.763624 2.250371
v -8.712798 -2.745952 1.325333
v -8.024818 -2.325652 1.225000
v -8.101708 -2.393139 1.325333
v -8.809689 -2.778797 1.225000
vn 0.5000 -0.8660 -0.0000
vn -0.5000 0.8660 -0.0000
vn -0.8660 -0.5000 -0.0000
vn 0.8660 0.5000 -0.0000
vn -0.0000 -0.0000 -1.0000
vn -0.0000 -0.0000 1.0000
s 0
usemtl [Metal_Steel_Textured_White]
f 22//4 27//4 25//4
f 1//4 27//4 22//4
f 27//6 3//6 32//6
f 1//6 3//6 27//6
f 32//3 17//3 26//3
f 17//3 32//3 3//3
f 27//1 26//1 25//1
f 26//1 27//1 32//1
f 33//4 11//4 24//4
f 11//4 33//4 38//4
f 11//6 40//6 9//6
f 40//6 11//6 38//6
f 40//2 33//2 34//2
f 33//2 40//2 38//2
f 40//3 20//3 9//3
f 20//3 40//3 34//3
