o Monitor
v -15.230249 -3.570119 1.569287
v -15.230249 -3.575295 1.569287
v -15.230109 -3.572707 1.568821
v -15.230659 -3.567707 1.570654
v -15.230659 -3.577707 1.570654
v -15.231312 -3.579778 1.572828
v -15.231312 -3.565636 1.572828
v -15.232162 -3.564047 1.575661
v -15.232162 -3.581367 1.575661
v -15.233151 -3.563048 1.578960
v -15.233151 -3.582366 1.578960
v -15.234213 -3.582707 1.582500
v -15.234213 -3.562707 1.582500
v -15.235275 -3.563048 1.586040
v -15.235275 -3.582366 1.586040
v -15.236265 -3.581367 1.589339
v -15.236265 -3.564047 1.589339
v -15.237115 -3.565636 1.592172
v -15.237115 -3.579778 1.592172
v -15.237767 -3.567707 1.594346
v -15.237767 -3.577707 1.594346
v -15.238177 -3.575295 1.595713
v -15.238177 -3.570119 1.595713
v -15.238317 -3.572707 1.596179
v -15.196500 -3.570119 1.456787
v -15.196500 -3.575295 1.456787
v -15.196360 -3.572707 1.456321
v -15.196909 -3.567707 1.458154
v -15.196909 -3.577707 1.458154
v -15.197561 -3.579778 1.460328
v -15.197561 -3.565636 1.460328
v -15.198411 -3.581367 1.463161
v -15.198411 -3.564047 1.463161
v -15.199401 -3.563048 1.466460
v -15.199401 -3.582366 1.466460
v -15.200463 -3.582707 1.470000
v -15.200463 -3.562707 1.470000
v -15.201526 -3.563048 1.473540
v -15.201526 -3.582366 1.473540
v -15.202515 -3.581367 1.476839
v -15.202515 -3.564047 1.476839
v -15.203365 -3.565636 1.479672
v -15.203365 -3.579778 1.479672
v -15.204017 -3.577707 1.481846
v -15.204017 -3.567707 1.481846
v -15.204427 -3.575295 1.483213
v -15.204427 -3.570119 1.483213
v -15.204567 -3.572707 1.483679
v -15.185249 -3.570119 1.419287
v -15.185249 -3.575295 1.419287
v -15.185109 -3.572707 1.418821
v -15.185659 -3.567707 1.420654
v -15.185659 -3.577707 1.420654
v -15.186312 -3.579778 1.422828
v -15.186312 -3.565636 1.422828
v -15.187161 -3.564047 1.425661
v -15.187161 -3.581367 1.425661
v -15.188151 -3.563048 1.428960
v -15.188151 -3.582366 1.428960
v -15.189213 -3.582707 1.432500
v -15.189213 -3.562707 1.432500
v -15.190275 -3.563048 1.436040
v -15.190275 -3.582366 1.436040
v -15.191265 -3.581367 1.439339
v -15.191265 -3.564047 1.439339
v -15.192115 -3.565636 1.442172
v -15.192115 -3.579778 1.442172
v -15.192767 -3.567707 1.444346
v -15.192767 -3.577707 1.444346
v -15.193177 -3.575295 1.445713
v -15.193177 -3.570119 1.445713
v -15.193316 -3.572707 1.446179
v -15.218999 -3.570119 1.531787
v -15.218999 -3.575295 1.531787
v -15.218860 -3.572707 1.531321
v -15.219409 -3.567707 1.533154
v -15.219409 -3.577707 1.533154
v -15.220061 -3.579778 1.535328
v -15.220061 -3.565636 1.535328
v -15.220911 -3.564047 1.538161
v -15.220911 -3.581367 1.538161
v -15.221901 -3.563048 1.541460
v -15.221901 -3.582366 1.541460
v -15.222963 -3.582707 1.545000
v -15.222963 -3.562707 1.545000
v -15.224026 -3.563048 1.548540
v -15.224026 -3.582366 1.548540
v -15.225015 -3.581367 1.551839
v -15.225015 -3.564047 1.551839
v -15.225865 -3.565636 1.554672
v -15.225865 -3.579778 1.554672
v -15.226517 -3.567707 1.556846
v -15.226517 -3.577707 1.556846
v -15.226927 -3.575295 1.558213
v -15.226927 -3.570119 1.558213
v -15.227067 -3.572707 1.558679
v -15.207749 -3.570119 1.494287
v -15.207749 -3.575295 1.494287
v -15.207609 -3.572707 1.493821
v -15.208159 -3.567707 1.495654
v -15.208159 -3.577707 1.495654
v -15.208812 -3.579778 1.497828
v -15.208812 -3.565636 1.497828
v -15.209661 -3.564047 1.500661
v -15.209661 -3.581367 1.500661
v -15.210651 -3.563048 1.503960
v -15.210651 -3.582366 1.503960
v -15.211713 -3.582707 1.507500
v -15.211713 -3.562707 1.507500
v -15.212775 -3.563048 1.511040
v -15.212775 -3.582366 1.511040
v -15.213765 -3.581367 1.514339
v -15.213765 -3.564047 1.514339
v -15.214615 -3.565636 1.517172
v -15.214615 -3.579778 1.517172
v -15.215267 -3.567707 1.519346
v -15.215267 -3.577707 1.519346
v -15.215677 -3.575295 1.520713
v -15.215677 -3.570119 1.520713
v -15.215816 -3.572707 1.521179
v -15.304214 -3.542717 1.695000
v -15.510464 -3.925535 1.695000
v -15.304214 -3.925535 1.695000
v -15.510463 -3.542717 1.695000
v -15.251149 -3.572707 1.638954
v -15.246647 -3.583674 1.623945
v -15.246647 -3.572707 1.623945
v -15.251149 -3.583674 1.638954
v -15.246647 -3.594642 1.623945
v -15.251149 -3.594642 1.638954
v -15.251149 -3.561740 1.638954
v -15.246647 -3.561740 1.623945
v -15.260155 -3.583674 1.668973
v -15.255652 -3.594642 1.653964
v -15.255652 -3.583674 1.653964
v -15.260155 -3.594642 1.668973
v -15.255652 -3.572707 1.653964
v -15.243341 -3.542717 1.612927
v -15.246647 -3.550772 1.623945
v -15.243341 -3.602697 1.612927
v -15.267963 -3.542717 1.695000
v -15.251149 -3.550772 1.638954
v -15.255652 -3.550772 1.653964
v -15.260155 -3.550772 1.668973
v -15.264658 -3.550772 1.683982
v -15.264658 -3.561740 1.683982
v -15.264658 -3.572707 1.683982
v -15.264658 -3.583674 1.683982
v -15.264658 -3.594642 1.683982
v -15.267963 -3.602697 1.695000
v -15.304214 -3.925535 1.335000
v -15.179389 -3.542717 1.369752
v -15.179389 -3.925535 1.369752
v -15.304214 -3.542717 1.335000
v -15.179389 -3.542717 1.399752
v -15.179389 -3.602697 1.399752
v -15.179389 -3.925535 1.399752
v -15.510463 -3.542717 1.335000
v -15.190266 -3.622697 1.436008
v -15.255661 -3.622697 1.653992
v -15.255661 -3.895556 1.653992
v -15.190266 -3.895556 1.436008
v -15.267963 -3.925535 1.695000
v -15.260155 -3.561740 1.668973
v -15.260155 -3.572707 1.668973
v -15.255652 -3.561740 1.653964
v -15.510464 -3.925535 1.335000
v -15.264780 -3.622697 1.647837
v -15.199385 -3.895556 1.429852
v -15.199385 -3.622697 1.429852
v -15.264780 -3.895556 1.647837
vn 0.9578 -0.0000 0.2873
vn 0.9578 -0.0000 0.2874
vn -0.0000 -0.0000 1.0000
vn -0.0000 -0.0000 -1.0000
vn 0.2682 -0.0000 -0.9634
vn 1.0000 -0.0000 -0.0000
vn -0.0000 1.0000 -0.0000
vn 0.9580 -0.0000 0.2869
vn 0.9579 -0.0000 0.2872
vn 0.9578 -0.0001 0.2874
vn 0.9578 0.0003 0.2875
vn 0.9578 -0.0001 0.2875
vn 0.9577 -0.0003 0.2877
vn -1.0000 -0.0000 -0.0000
vn -0.0000 -1.0000 -0.0000
vn -0.5595 -0.0000 0.8288
vn 0.5595 -0.0000 -0.8288
s 0
usemtl Material
f 1//1 2//1 3//1
f 2//1 1//1 4//1
f 2//1 4//1 5//1
f 5//2 4//2 6//2
f 6//1 4//1 7//1
f 6//1 7//1 8//1
f 6//1 8//1 9//1
f 9//1 8//1 10//1
f 9//2 10//2 11//2
f 11//1 10//1 12//1
f 12//1 10//1 13//1
f 12//1 13//1 14//1
f 12//1 14//1 15//1
f 15//1 14//1 16//1
f 16//2 14//2 17//2
f 16//1 17//1 18//1
f 16//1 18//1 19//1
f 19//1 18//1 20//1
f 19//1 20//1 21//1
f 21//2 20//2 22//2
f 22//1 20//1 23//1
f 22//1 23//1 24//1
f 25//1 26//1 27//1
f 26//1 25//1 28//1
f 26//1 28//1 29//1
f 29//1 28//1 30//1
f 30//1 28//1 31//1
f 30//1 31//1 32//1
f 32//1 31//1 33//1
f 32//1 33//1 34//1
f 32//1 34//1 35//1
f 35//1 34//1 36//1
f 36//1 34//1 37//1
f 36//1 37//1 38//1
f 36//1 38//1 39//1
f 39//1 38//1 40//1
f 40//1 38//1 41//1
f 40//1 41//1 42//1
f 40//1 42//1 43//1
f 43//1 42//1 44//1
f 44//1 42//1 45//1
f 44//1 45//1 46//1
f 46//1 45//1 47//1
f 46//1 47//1 48//1
f 49//1 50//1 51//1
f 50//1 49//1 52//1
f 50//1 52//1 53//1
f 53//1 52//1 54//1
f 54//1 52//1 55//1
f 54//1 55//1 56//1
f 54//1 56//1 57//1
f 57//1 56//1 58//1
f 57//1 58//1 59//1
f 59//1 58//1 60//1
f 60//1 58//1 61//1
f 60//1 61//1 62//1
f 60//1 62//1 63//1
f 63//1 62//1 64//1
f 64//1 62//1 65//1
f 64//1 65//1 66//1
f 64//1 66//1 67//1
f 67//1 66//1 68//1
f 67//1 68//1 69//1
f 69//1 68//1 70//1
f 70//1 68//1 71//1
f 70//1 71//1 72//1
f 73//1 74//1 75//1
f 74//2 73//2 76//2
f 74//1 76//1 77//1
f 77//1 76//1 78//1
f 78//1 76//1 79//1
f 78//1 79//1 80//1
f 78//2 80//2 81//2
f 81//2 80//2 82//2
f 81//1 82//1 83//1
f 83//1 82//1 84//1
f 84//1 82//1 85//1
f 84//1 85//1 86//1
f 84//1 86//1 87//1
f 87//2 86//2 88//2
f 88//1 86//1 89//1
f 88//1 89//1 90//1
f 88//1 90//1 91//1
f 91//1 90//1 92//1
f 91//2 92//2 93//2
f 93//1 92//1 94//1
f 94//1 92//1 95//1
f 94//1 95//1 96//1
f 97//1 98//1 99//1
f 98//1 97//1 100//1
f 98//1 100//1 101//1
f 101//1 100//1 102//1
f 102//1 100//1 103//1
f 102//1 103//1 104//1
f 102//1 104//1 105//1
f 105//1 104//1 106//1
f 105//2 106//2 107//2
f 107//1 106//1 108//1
f 108//1 106//1 109//1
f 108//1 109//1 110//1
f 108//1 110//1 111//1
f 111//1 110//1 112//1
f 112//1 110//1 113//1
f 112//1 113//1 114//1
f 112//1 114//1 115//1
f 115//1 114//1 116//1
f 115//1 116//1 117//1
f 117//1 116//1 118//1
f 118//1 116//1 119//1
f 118//2 119//2 120//2
f 121//3 122//3 123//3
f 122//3 121//3 124//3
f 125//1 126//1 127//1
f 126//1 125//1 128//1
f 128//1 129//1 126//1
f 129//1 128//1 130//1
f 131//1 127//1 132//1
f 127//1 131//1 125//1
f 133//1 134//1 135//1
f 134//1 133//1 136//1
f 137//1 128//1 125//1
f 128//1 137//1 135//1
f 138//1 139//1 140//1
f 139//1 138//1 141//1
f 139//1 141//1 142//1
f 142//2 141//2 143//2
f 143//1 141//1 144//1
f 144//1 141//1 145//1
f 145//1 141//1 146//1
f 146//1 141//1 147//1
f 147//1 141//1 148//1
f 148//1 141//1 149//1
f 140//1 129//1 150//1
f 129//1 140//1 139//1
f 129//4 139//4 132//4
f 129//3 132//3 127//3
f 129//4 127//4 126//4
f 150//1 129//1 130//1
f 150//1 130//1 134//1
f 150//1 134//1 136//1
f 150//1 136//1 149//1
f 150//1 149//1 141//1
f 148//1 136//1 133//1
f 136//1 148//1 149//1
f 151//5 152//5 153//5
f 152//5 151//5 154//5
f 155//6 153//6 152//6
f 153//6 155//6 156//6
f 157//6 153//6 156//6
f 158//7 121//7 154//7
f 121//7 158//7 124//7
f 156//1 159//1 157//1
f 159//1 156//1 140//1
f 159//1 140//1 160//1
f 160//1 140//1 150//1
f 160//1 150//1 161//1
f 157//1 162//1 163//1
f 162//1 157//1 159//1
f 163//1 162//1 161//1
f 163//1 161//1 150//1
f 145//1 164//1 144//1
f 164//1 145//1 146//1
f 142//1 132//1 139//1
f 132//1 142//1 131//1
f 165//1 135//1 137//1
f 135//1 165//1 133//1
f 135//1 130//1 128//1
f 130//1 135//1 134//1
f 147//1 133//1 165//1
f 133//1 147//1 148//1
f 166//1 125//1 131//1
f 125//1 166//1 137//1
f 155//1 49//1 51//1
f 49//2 155//2 52//2
f 52//1 155//1 55//1
f 55//1 155//1 56//1
f 56//1 155//1 58//1
f 58//1 155//1 138//1
f 58//8 138//8 61//8
f 61//2 138//2 62//2
f 62//2 138//2 65//2
f 65//1 138//1 66//1
f 66//1 138//1 34//1
f 66//1 34//1 68//1
f 68//2 34//2 33//2
f 68//2 33//2 71//2
f 71//1 33//1 72//1
f 72//2 33//2 31//2
f 72//1 31//1 28//1
f 72//2 28//2 25//2
f 72//1 25//1 27//1
f 34//9 138//9 37//9
f 37//1 138//1 38//1
f 38//2 138//2 41//2
f 41//1 138//1 42//1
f 42//1 138//1 106//1
f 42//1 106//1 45//1
f 45//2 106//2 104//2
f 45//2 104//2 47//2
f 47//1 104//1 48//1
f 48//10 104//10 103//10
f 48//1 103//1 100//1
f 48//2 100//2 97//2
f 48//1 97//1 99//1
f 106//1 138//1 109//1
f 109//2 138//2 110//2
f 110//2 138//2 113//2
f 113//1 138//1 114//1
f 114//1 138//1 116//1
f 116//2 138//2 82//2
f 116//2 82//2 80//2
f 116//1 80//1 119//1
f 119//2 80//2 120//2
f 120//1 80//1 79//1
f 120//2 79//2 76//2
f 120//2 76//2 73//2
f 120//1 73//1 75//1
f 82//1 138//1 85//1
f 85//1 138//1 86//1
f 86//2 138//2 89//2
f 89//1 138//1 90//1
f 90//1 138//1 92//1
f 92//2 138//2 95//2
f 95//1 138//1 96//1
f 96//2 138//2 7//2
f 96//1 7//1 4//1
f 1//2 96//2 4//2
f 96//1 1//1 3//1
f 7//11 138//11 8//11
f 8//2 138//2 10//2
f 10//1 138//1 13//1
f 13//2 138//2 14//2
f 14//2 138//2 17//2
f 17//1 138//1 18//1
f 18//1 138//1 20//1
f 20//1 138//1 23//1
f 23//2 138//2 24//2
f 156//1 59//1 140//1
f 59//2 156//2 57//2
f 57//1 156//1 54//1
f 54//1 156//1 53//1
f 53//1 156//1 155//1
f 53//1 155//1 50//1
f 50//1 155//1 51//1
f 140//12 59//12 60//12
f 140//1 60//1 63//1
f 140//1 63//1 64//1
f 140//2 64//2 67//2
f 140//1 67//1 35//1
f 35//1 67//1 69//1
f 35//1 69//1 32//1
f 32//2 69//2 70//2
f 32//1 70//1 72//1
f 32//1 72//1 30//1
f 30//2 72//2 29//2
f 29//2 72//2 26//2
f 26//1 72//1 27//1
f 140//2 35//2 36//2
f 140//1 36//1 39//1
f 140//2 39//2 40//2
f 140//1 40//1 43//1
f 140//1 43//1 107//1
f 107//1 43//1 44//1
f 107//2 44//2 105//2
f 105//1 44//1 46//1
f 105//1 46//1 48//1
f 105//2 48//2 102//2
f 102//2 48//2 101//2
f 101//1 48//1 98//1
f 98//1 48//1 99//1
f 140//2 107//2 108//2
f 140//1 108//1 111//1
f 140//2 111//2 112//2
f 140//1 112//1 115//1
f 140//1 115//1 117//1
f 140//1 117//1 83//1
f 83//2 117//2 81//2
f 81//1 117//1 118//1
f 81//1 118//1 120//1
f 81//2 120//2 78//2
f 78//1 120//1 77//1
f 77//2 120//2 74//2
f 74//1 120//1 75//1
f 140//1 83//1 84//1
f 140//1 84//1 87//1
f 140//2 87//2 88//2
f 140//1 88//1 91//1
f 140//1 91//1 93//1
f 140//2 93//2 94//2
f 140//1 94//1 96//1
f 140//1 96//1 6//1
f 6//2 96//2 5//2
f 5//1 96//1 2//1
f 2//1 96//1 3//1
f 140//13 6//13 9//13
f 140//1 9//1 11//1
f 140//1 11//1 12//1
f 140//1 12//1 15//1
f 140//1 15//1 16//1
f 140//1 16//1 19//1
f 140//1 19//1 21//1
f 140//1 21//1 22//1
f 140//1 22//1 24//1
f 140//1 24//1 138//1
f 143//1 131//1 142//1
f 131//1 143//1 166//1
f 146//1 165//1 164//1
f 165//1 146//1 147//1
f 164//1 137//1 166//1
f 137//1 164//1 165//1
f 144//1 166//1 143//1
f 166//1 144//1 164//1
f 122//14 158//14 167//14
f 158//14 122//14 124//14
f 158//4 151//4 167//4
f 151//4 158//4 154//4
f 122//15 151//15 123//15
f 151//15 122//15 167//15
f 169//7 161//7 162//7
f 161//7 169//7 171//7
f 159//16 169//16 162//16
f 169//16 159//16 170//16
f 160//15 170//15 159//15
f 170//15 160//15 168//15
f 168//17 161//17 171//17
f 161//17 168//17 160//17
f 163//15 153//15 157//15
f 153//15 163//15 151//15
f 151//15 163//15 123//15
f 150//3 123//3 163//3
f 123//3 150//3 121//3
f 121//3 150//3 141//3
f 154//7 155//7 152//7
f 155//7 154//7 138//7
f 138//7 154//7 141//7
f 141//7 154//7 121//7
f 121//6 151//6 154//6
f 151//6 121//6 123//6
