o Monitor.001
v -13.436082 -3.762226 1.239276
v -13.436082 -3.767868 1.239276
v -13.435902 -3.765047 1.238810
v -13.436610 -3.759597 1.240643
v -13.436610 -3.770497 1.240643
v -13.437450 -3.772755 1.242817
v -13.437450 -3.757340 1.242817
v -13.438545 -3.755608 1.245650
v -13.438545 -3.774487 1.245650
v -13.439819 -3.754519 1.248949
v -13.439819 -3.775576 1.248949
v -13.441188 -3.775947 1.252489
v -13.441188 -3.754147 1.252489
v -13.442555 -3.754519 1.256029
v -13.442555 -3.775576 1.256029
v -13.443830 -3.774487 1.259328
v -13.443830 -3.755608 1.259328
v -13.444925 -3.757340 1.262161
v -13.444925 -3.772755 1.262161
v -13.445765 -3.759597 1.264335
v -13.445765 -3.770497 1.264335
v -13.446293 -3.767868 1.265702
v -13.446293 -3.762226 1.265702
v -13.446473 -3.765047 1.266168
v -13.392611 -3.762226 1.126776
v -13.392611 -3.767868 1.126776
v -13.392430 -3.765047 1.126310
v -13.393139 -3.759597 1.128143
v -13.393139 -3.770497 1.128143
v -13.393979 -3.772755 1.130317
v -13.393979 -3.757340 1.130317
v -13.395073 -3.774487 1.133150
v -13.395073 -3.755608 1.133150
v -13.396348 -3.754519 1.136449
v -13.396348 -3.775576 1.136449
v -13.397717 -3.775947 1.139989
v -13.397717 -3.754147 1.139989
v -13.399084 -3.754519 1.143529
v -13.399084 -3.775576 1.143529
v -13.400359 -3.774487 1.146828
v -13.400359 -3.755608 1.146828
v -13.401454 -3.757340 1.149661
v -13.401454 -3.772755 1.149661
v -13.402294 -3.770497 1.151835
v -13.402294 -3.759597 1.151835
v -13.402822 -3.767868 1.153202
v -13.402822 -3.762226 1.153202
v -13.403002 -3.765047 1.153668
v -13.378120 -3.762226 1.089276
v -13.378120 -3.767868 1.089276
v -13.377940 -3.765047 1.088810
v -13.378648 -3.759597 1.090643
v -13.378648 -3.770497 1.090643
v -13.379488 -3.772755 1.092817
v -13.379488 -3.757340 1.092817
v -13.380583 -3.755608 1.095650
v -13.380583 -3.774487 1.095650
v -13.381858 -3.754519 1.098949
v -13.381858 -3.775576 1.098949
v -13.383225 -3.775947 1.102489
v -13.383225 -3.754147 1.102489
v -13.384594 -3.754519 1.106029
v -13.384594 -3.775576 1.106029
v -13.385869 -3.774487 1.109328
v -13.385869 -3.755608 1.109328
v -13.386963 -3.757340 1.112161
v -13.386963 -3.772755 1.112161
v -13.387803 -3.759597 1.114335
v -13.387803 -3.770497 1.114335
v -13.388331 -3.767868 1.115702
v -13.388331 -3.762226 1.115702
v -13.388512 -3.765047 1.116168
v -13.421592 -3.762226 1.201776
v -13.421592 -3.767868 1.201776
v -13.421412 -3.765047 1.201310
v -13.422120 -3.759597 1.203143
v -13.422120 -3.770497 1.203143
v -13.422959 -3.772755 1.205317
v -13.422959 -3.757340 1.205317
v -13.424054 -3.755608 1.208150
v -13.424054 -3.774487 1.208150
v -13.425329 -3.754519 1.211449
v -13.425329 -3.775576 1.211449
v -13.426697 -3.775947 1.214989
v -13.426697 -3.754147 1.214989
v -13.428065 -3.754519 1.218529
v -13.428065 -3.775576 1.218529
v -13.429340 -3.774487 1.221828
v -13.429340 -3.755608 1.221828
v -13.430435 -3.757340 1.224661
v -13.430435 -3.772755 1.224661
v -13.431274 -3.759597 1.226835
v -13.431274 -3.770497 1.226835
v -13.431803 -3.767868 1.228202
v -13.431803 -3.762226 1.228202
v -13.431983 -3.765047 1.228668
v -13.407101 -3.762226 1.164276
v -13.407101 -3.767868 1.164276
v -13.406921 -3.765047 1.163810
v -13.407629 -3.759597 1.165643
v -13.407629 -3.770497 1.165643
v -13.408469 -3.772755 1.167817
v -13.408469 -3.757340 1.167817
v -13.409564 -3.755608 1.170650
v -13.409564 -3.774487 1.170650
v -13.410839 -3.754519 1.173949
v -13.410839 -3.775576 1.173949
v -13.412207 -3.775947 1.177489
v -13.412207 -3.754147 1.177489
v -13.413575 -3.754519 1.181029
v -13.413575 -3.775576 1.181029
v -13.414849 -3.774487 1.184328
v -13.414849 -3.755608 1.184328
v -13.415944 -3.757340 1.187161
v -13.415944 -3.772755 1.187161
v -13.416784 -3.759597 1.189335
v -13.416784 -3.770497 1.189335
v -13.417313 -3.767868 1.190702
v -13.417313 -3.762226 1.190702
v -13.417493 -3.765047 1.191168
v -13.531351 -3.732358 1.364989
v -13.797009 -4.149630 1.364989
v -13.531351 -4.149630 1.364989
v -13.797009 -3.732358 1.364989
v -13.463002 -3.765047 1.308943
v -13.457203 -3.777002 1.293934
v -13.457203 -3.765047 1.293934
v -13.463002 -3.777002 1.308943
v -13.457203 -3.788956 1.293934
v -13.463002 -3.788956 1.308943
v -13.463002 -3.753093 1.308943
v -13.457203 -3.753093 1.293934
v -13.474602 -3.777002 1.338962
v -13.468802 -3.788956 1.323953
v -13.468802 -3.777002 1.323953
v -13.474602 -3.788956 1.338962
v -13.468802 -3.765047 1.323953
v -13.452945 -3.732358 1.282916
v -13.457203 -3.741138 1.293934
v -13.452945 -3.797736 1.282916
v -13.484659 -3.732358 1.364989
v -13.463002 -3.741138 1.308943
v -13.468802 -3.741138 1.323953
v -13.474602 -3.741138 1.338962
v -13.480402 -3.741138 1.353971
v -13.480402 -3.753093 1.353971
v -13.480402 -3.765047 1.353971
v -13.480402 -3.777002 1.353971
v -13.480402 -3.788956 1.353971
v -13.484659 -3.797736 1.364989
v -13.531351 -4.149630 1.004989
v -13.370571 -3.732358 1.039741
v -13.370571 -4.149630 1.039741
v -13.531351 -3.732358 1.004989
v -13.370571 -3.732358 1.069741
v -13.370571 -3.797736 1.069741
v -13.370571 -4.149630 1.069741
v -13.797009 -3.732358 1.004989
v -13.384582 -3.819536 1.105997
v -13.468813 -3.819536 1.323981
v -13.468813 -4.116953 1.323981
v -13.384582 -4.116953 1.105997
v -13.484659 -4.149630 1.364989
v -13.474602 -3.753093 1.338962
v -13.474602 -3.765047 1.338962
v -13.468802 -3.753093 1.323953
v -13.797009 -4.149630 1.004989
v -13.480559 -3.819536 1.317826
v -13.396327 -4.116953 1.099842
v -13.396327 -3.819536 1.099842
v -13.480559 -4.116953 1.317826
vn 0.9328 -0.0000 0.3604
vn -0.0000 -0.0000 1.0000
vn -0.0000 -0.0000 -1.0000
vn 0.2113 -0.0000 -0.9774
vn 1.0000 -0.0000 -0.0000
vn -0.0000 1.0000 -0.0000
vn 0.9330 -0.0000 0.3599
vn 0.9328 -0.0000 0.3605
vn 0.9329 -0.0000 0.3603
vn 0.9328 -0.0001 0.3605
vn 0.9327 0.0003 0.3606
vn 0.9328 -0.0000 0.3603
vn 0.9327 -0.0001 0.3606
vn 0.9326 -0.0003 0.3609
vn -1.0000 -0.0000 -0.0000
vn -0.0000 -1.0000 -0.0000
vn -0.4642 -0.0000 0.8857
vn 0.4642 -0.0000 -0.8857
s 0
usemtl [Color_009]4
f 168//1 169//1 170//1
f 169//1 168//1 171//1
