o Monitor_2.001
v -11.688474 -5.313153 1.507623
v -11.608117 -5.342882 1.507623
v -11.605765 -5.333162 1.507623
v -11.690825 -5.322872 1.507623
v -11.605765 -5.333162 1.495064
v -11.688474 -5.313153 1.495064
v -11.525409 -5.362891 1.507623
v -11.523058 -5.353171 1.507623
v -11.690825 -5.322872 1.495064
v -11.348217 -5.405758 1.519738
v -11.359993 -5.402909 1.507623
v -11.702601 -5.320024 1.519738
v -11.348217 -5.405758 1.482949
v -11.359993 -5.402909 1.495064
v -11.442701 -5.382900 1.495064
v -11.525409 -5.362891 1.495064
v -11.608117 -5.342882 1.495064
v -11.702601 -5.320024 1.482949
v -11.442701 -5.382900 1.507623
v -11.523058 -5.353171 1.495064
v -11.535129 -5.360539 1.604488
v -11.616357 -5.351177 1.604488
v -11.537480 -5.370259 1.604488
v -11.614005 -5.341457 1.604488
v -11.436813 -5.384325 1.595416
v -11.514570 -5.365513 1.604488
v -11.436813 -5.384325 1.604488
v -11.514570 -5.365513 1.595416
v -11.616357 -5.351177 1.595416
v -11.535129 -5.360539 1.595416
v -11.537480 -5.370259 1.595416
v -11.614005 -5.341457 1.595416
v -11.623967 -5.339047 1.576343
v -11.626319 -5.348767 1.590416
v -11.626319 -5.348767 1.576343
v -11.623967 -5.339047 1.590416
v -11.364804 -5.401745 1.599952
v -11.367400 -5.411406 1.601866
v -11.367155 -5.411465 1.599952
v -11.365048 -5.401686 1.601866
v -11.641135 -5.334894 1.576343
v -11.658303 -5.330740 1.590416
v -11.641135 -5.334894 1.590416
v -11.658303 -5.330740 1.576343
v -11.439164 -5.394044 1.604488
v -11.439164 -5.394044 1.595416
v -11.759949 -5.518349 1.473843
v -11.387865 -5.608366 1.623843
v -11.759949 -5.518349 1.623843
v -11.387865 -5.608366 1.473843
v -11.436813 -5.384325 1.576343
v -11.439164 -5.394044 1.586343
v -11.439164 -5.394044 1.576343
v -11.436813 -5.384325 1.586343
v -11.675471 -5.326587 1.604488
v -11.660654 -5.340460 1.604488
v -11.658303 -5.330740 1.604488
v -11.677822 -5.336307 1.604488
v -11.704952 -5.329743 1.614738
v -11.345865 -5.396039 1.614738
v -11.350569 -5.415478 1.614738
v -11.700250 -5.310304 1.614738
v -11.380564 -5.408221 1.603649
v -11.379422 -5.408497 1.605180
v -11.381282 -5.408047 1.601866
v -11.381527 -5.407988 1.599952
v -11.381282 -5.408047 1.598039
v -11.380564 -5.408221 1.596256
v -11.379422 -5.408497 1.594725
v -11.516921 -5.375233 1.595416
v -11.626319 -5.348767 1.604488
v -11.377934 -5.408857 1.593550
v -11.376201 -5.409276 1.592811
v -11.374341 -5.409727 1.592559
v -11.516921 -5.375233 1.604488
v -11.374341 -5.409727 1.607345
v -11.372481 -5.410176 1.607093
v -11.370749 -5.410595 1.606355
v -11.369260 -5.410955 1.605180
v -11.368118 -5.411232 1.603649
v -11.350569 -5.415478 1.537949
v -11.367400 -5.411406 1.598039
v -11.368118 -5.411232 1.596256
v -11.369260 -5.410955 1.594725
v -11.370749 -5.410595 1.593550
v -11.372481 -5.410176 1.592811
v -11.516921 -5.375233 1.576343
v -11.537480 -5.370259 1.576343
v -11.565519 -5.363475 1.576343
v -11.616357 -5.351177 1.576343
v -11.626319 -5.348767 1.562271
v -11.626319 -5.348767 1.548198
v -11.643487 -5.344613 1.548198
v -11.660654 -5.340460 1.548198
v -11.677822 -5.336307 1.548198
v -11.694990 -5.332153 1.548198
v -11.694990 -5.332153 1.604488
v -11.704952 -5.329743 1.537949
v -11.376201 -5.409276 1.607093
v -11.377934 -5.408857 1.606355
v -11.643487 -5.344613 1.604488
v -11.694990 -5.332153 1.590416
v -11.694990 -5.332153 1.576343
v -11.694990 -5.332153 1.562271
v -11.616357 -5.351177 1.586343
v -11.516921 -5.375233 1.586343
v -11.537480 -5.370259 1.586343
v -11.675471 -5.326587 1.548198
v -11.692638 -5.322433 1.548198
v -11.337015 -5.398180 1.623843
v -11.709100 -5.308163 1.623843
v -11.337015 -5.398180 1.528843
v -11.345865 -5.396039 1.537949
v -11.700250 -5.310304 1.537949
v -11.709100 -5.308163 1.528843
v -11.641135 -5.334894 1.604488
v -11.345865 -5.396039 1.519738
v -11.345865 -5.396039 1.482949
v -11.337015 -5.398180 1.473843
v -11.370130 -5.400457 1.607093
v -11.368397 -5.400876 1.606355
v -11.366909 -5.401236 1.605180
v -11.357641 -5.393189 1.495064
v -11.357641 -5.393189 1.507623
v -11.658303 -5.330740 1.562271
v -11.675471 -5.326587 1.576343
v -11.675471 -5.326587 1.562271
v -11.623967 -5.339047 1.604488
v -11.692638 -5.322433 1.590416
v -11.675471 -5.326587 1.590416
v -11.692638 -5.322433 1.576343
v -11.692638 -5.322433 1.562271
v -11.641135 -5.334894 1.548198
v -11.641135 -5.334894 1.562271
v -11.658303 -5.330740 1.548198
v -11.709100 -5.308163 1.473843
v -11.440350 -5.373180 1.495064
v -11.373850 -5.399557 1.607093
v -11.371989 -5.400007 1.607345
v -11.375583 -5.399137 1.606355
v -11.377070 -5.398777 1.605180
v -11.365767 -5.401512 1.603649
v -11.378213 -5.398501 1.603649
v -11.378930 -5.398328 1.601866
v -11.379175 -5.398268 1.599952
v -11.365048 -5.401686 1.598039
v -11.378930 -5.398328 1.598039
v -11.365767 -5.401512 1.596256
v -11.378213 -5.398501 1.596256
v -11.366909 -5.401236 1.594725
v -11.377070 -5.398777 1.594725
v -11.368397 -5.400876 1.593550
v -11.375583 -5.399137 1.593550
v -11.370130 -5.400457 1.592811
v -11.373850 -5.399557 1.592811
v -11.371989 -5.400007 1.592559
v -11.614005 -5.341457 1.576343
v -11.614005 -5.341457 1.586343
v -11.535129 -5.360539 1.586343
v -11.563168 -5.353756 1.576343
v -11.440350 -5.373180 1.507623
v -11.700250 -5.310304 1.482949
v -11.535129 -5.360539 1.576343
v -11.692638 -5.322433 1.604488
v -11.623967 -5.339047 1.562271
v -11.700250 -5.310304 1.519738
v -11.514570 -5.365513 1.586343
v -11.514570 -5.365513 1.576343
v -11.623967 -5.339047 1.548198
vn -0.0000 -0.0000 1.0000
vn 0.2351 0.9720 -0.0000
vn -0.9720 0.2351 -0.0000
vn -0.0000 -0.0000 -1.0000
vn 0.9720 -0.2351 -0.0000
vn 0.8733 0.4872 -0.0000
vn 0.8073 0.5637 0.1747
vn 0.8297 0.5583 -0.0000
vn 0.8490 0.4931 0.1900
vn -0.2351 -0.9720 -0.0000
vn 0.2351 0.9720 -0.0001
vn 0.2351 0.9720 0.0001
vn 0.2351 0.9720 0.0002
vn 0.3443 0.6152 0.7092
vn 0.5016 0.6376 0.5847
vn 0.5165 0.5735 0.6359
vn 0.3433 0.6759 0.6521
vn 0.6375 0.6048 0.4774
vn 0.6643 0.5378 0.5192
vn -0.2905 0.8293 -0.4774
vn -0.1972 0.7462 -0.6359
vn -0.1546 0.7964 -0.5847
vn -0.3450 0.7819 -0.5192
vn 0.8073 0.5637 -0.1747
vn 0.8490 0.4931 -0.1900
vn 0.0036 0.7582 -0.6521
vn 0.1596 0.6598 -0.7343
vn 0.1735 0.7170 -0.6751
vn -0.0251 0.7045 -0.7092
vn 0.3433 0.6759 -0.6521
vn 0.5165 0.5735 -0.6359
vn 0.5016 0.6376 -0.5847
vn 0.3443 0.6152 -0.7092
vn 0.6375 0.6048 -0.4774
vn 0.6643 0.5378 -0.5192
vn 0.7777 0.5103 0.3671
vn 0.7417 0.5795 0.3376
vn -0.4584 0.8094 0.3671
vn -0.4604 0.8704 0.1747
vn -0.3948 0.8545 0.3376
vn -0.5297 0.8266 0.1900
vn 0.7777 0.5103 -0.3671
vn 0.7417 0.5795 -0.3376
vn -0.5297 0.8266 -0.1900
vn -0.3948 0.8545 -0.3376
vn -0.4604 0.8704 -0.1747
vn -0.4584 0.8094 -0.3671
vn -0.5540 0.8325 -0.0000
vn -0.4827 0.8758 -0.0000
vn -0.3450 0.7819 0.5192
vn -0.2905 0.8293 0.4774
vn -0.1972 0.7462 0.6359
vn -0.1546 0.7964 0.5847
vn -0.0251 0.7045 0.7092
vn 0.0036 0.7582 0.6521
vn 0.1596 0.6598 0.7343
vn 0.1735 0.7170 0.6751
s 0
s 1
s 0
s 1
s 0
usemtl [Color_A01]1
f 37//6 38//7 39//8
f 38//7 37//6 40//9
f 120//14 78//15 121//16
f 78//15 120//14 77//17
f 121//16 79//18 122//19
f 79//18 121//16 78//15
f 120//2 138//2 139//2
f 138//2 120//2 121//2
f 138//2 121//2 140//2
f 140//2 121//2 122//2
f 140//2 122//2 141//2
f 141//2 122//2 142//2
f 141//2 142//2 143//2
f 143//2 142//2 40//2
f 143//2 40//2 144//2
f 144//2 40//2 37//2
f 144//2 37//2 145//2
f 145//2 37//2 146//2
f 145//2 146//2 147//2
f 147//2 146//2 148//2
f 147//2 148//2 149//2
f 149//2 148//2 150//2
f 149//2 150//2 151//2
f 151//2 150//2 152//2
f 151//2 152//2 153//2
f 153//2 152//2 154//2
f 153//2 154//2 155//2
f 155//2 154//2 156//2
f 69//20 153//21 72//22
f 153//21 69//20 151//23
f 82//24 37//6 39//8
f 37//6 82//24 146//25
f 73//26 156//27 74//28
f 156//27 73//26 155//29
f 86//30 152//31 85//32
f 152//31 86//30 154//33
f 84//34 152//31 150//35
f 152//31 84//34 85//32
f 38//7 142//36 80//37
f 142//36 38//7 40//9
f 72//22 155//29 73//26
f 155//29 72//22 153//21
f 86//30 156//27 154//33
f 156//27 86//30 74//28
f 143//38 65//39 63//40
f 65//39 143//38 144//41
f 84//34 148//42 83//43
f 148//42 84//34 150//35
f 147//44 68//45 67//46
f 68//45 147//44 149//47
f 65//39 145//48 66//49
f 145//48 65//39 144//41
f 145//48 67//46 66//49
f 67//46 145//48 147//44
f 148//42 82//24 83//43
f 82//24 148//42 146//25
f 149//47 69//20 68//45
f 69//20 149//47 151//23
f 141//50 63//40 64//51
f 63//40 141//50 143//38
f 140//52 64//51 100//53
f 64//51 140//52 141//50
f 142//36 79//18 80//37
f 79//18 142//36 122//19
f 138//54 100//53 99//55
f 100//53 138//54 140//52
f 139//56 99//55 76//57
f 99//55 139//56 138//54
f 139//56 77//17 120//14
f 77//17 139//56 76//57
