o Monitor.001
v -13.436082 -3.762226 1.239276
v -13.436082 -3.767868 1.239276
v -13.435902 -3.765047 1.238810
v -13.436610 -3.759597 1.240643
v -13.436610 -3.770497 1.240643
v -13.437450 -3.772755 1.242817
v -13.437450 -3.757340 1.242817
v -13.438545 -3.755608 1.245650
v -13.438545 -3.774487 1.245650
v -13.439819 -3.754519 1.248949
v -13.439819 -3.775576 1.248949
v -13.441188 -3.775947 1.252489
v -13.441188 -3.754147 1.252489
v -13.442555 -3.754519 1.256029
v -13.442555 -3.775576 1.256029
v -13.443830 -3.774487 1.259328
v -13.443830 -3.755608 1.259328
v -13.444925 -3.757340 1.262161
v -13.444925 -3.772755 1.262161
v -13.445765 -3.759597 1.264335
v -13.445765 -3.770497 1.264335
v -13.446293 -3.767868 1.265702
v -13.446293 -3.762226 1.265702
v -13.446473 -3.765047 1.266168
v -13.392611 -3.762226 1.126776
v -13.392611 -3.767868 1.126776
v -13.392430 -3.765047 1.126310
v -13.393139 -3.759597 1.128143
v -13.393139 -3.770497 1.128143
v -13.393979 -3.772755 1.130317
v -13.393979 -3.757340 1.130317
v -13.395073 -3.774487 1.133150
v -13.395073 -3.755608 1.133150
v -13.396348 -3.754519 1.136449
v -13.396348 -3.775576 1.136449
v -13.397717 -3.775947 1.139989
v -13.397717 -3.754147 1.139989
v -13.399084 -3.754519 1.143529
v -13.399084 -3.775576 1.143529
v -13.400359 -3.774487 1.146828
v -13.400359 -3.755608 1.146828
v -13.401454 -3.757340 1.149661
v -13.401454 -3.772755 1.149661
v -13.402294 -3.770497 1.151835
v -13.402294 -3.759597 1.151835
v -13.402822 -3.767868 1.153202
v -13.402822 -3.762226 1.153202
v -13.403002 -3.765047 1.153668
v -13.378120 -3.762226 1.089276
v -13.378120 -3.767868 1.089276
v -13.377940 -3.765047 1.088810
v -13.378648 -3.759597 1.090643
v -13.378648 -3.770497 1.090643
v -13.379488 -3.772755 1.092817
v -13.379488 -3.757340 1.092817
v -13.380583 -3.755608 1.095650
v -13.380583 -3.774487 1.095650
v -13.381858 -3.754519 1.098949
v -13.381858 -3.775576 1.098949
v -13.383225 -3.775947 1.102489
v -13.383225 -3.754147 1.102489
v -13.384594 -3.754519 1.106029
v -13.384594 -3.775576 1.106029
v -13.385869 -3.774487 1.109328
v -13.385869 -3.755608 1.109328
v -13.386963 -3.757340 1.112161
v -13.386963 -3.772755 1.112161
v -13.387803 -3.759597 1.114335
v -13.387803 -3.770497 1.114335
v -13.388331 -3.767868 1.115702
v -13.388331 -3.762226 1.115702
v -13.388512 -3.765047 1.116168
v -13.421592 -3.762226 1.201776
v -13.421592 -3.767868 1.201776
v -13.421412 -3.765047 1.201310
v -13.422120 -3.759597 1.203143
v -13.422120 -3.770497 1.203143
v -13.422959 -3.772755 1.205317
v -13.422959 -3.757340 1.205317
v -13.424054 -3.755608 1.208150
v -13.424054 -3.774487 1.208150
v -13.425329 -3.754519 1.211449
v -13.425329 -3.775576 1.211449
v -13.426697 -3.775947 1.214989
v -13.426697 -3.754147 1.214989
v -13.428065 -3.754519 1.218529
v -13.428065 -3.775576 1.218529
v -13.429340 -3.774487 1.221828
v -13.429340 -3.755608 1.221828
v -13.430435 -3.757340 1.224661
v -13.430435 -3.772755 1.224661
v -13.431274 -3.759597 1.226835
v -13.431274 -3.770497 1.226835
v -13.431803 -3.767868 1.228202
v -13.431803 -3.762226 1.228202
v -13.431983 -3.765047 1.228668
v -13.407101 -3.762226 1.164276
v -13.407101 -3.767868 1.164276
v -13.406921 -3.765047 1.163810
v -13.407629 -3.759597 1.165643
v -13.407629 -3.770497 1.165643
v -13.408469 -3.772755 1.167817
v -13.408469 -3.757340 1.167817
v -13.409564 -3.755608 1.170650
v -13.409564 -3.774487 1.170650
v -13.410839 -3.754519 1.173949
v -13.410839 -3.775576 1.173949
v -13.412207 -3.775947 1.177489
v -13.412207 -3.754147 1.177489
v -13.413575 -3.754519 1.181029
v -13.413575 -3.775576 1.181029
v -13.414849 -3.774487 1.184328
v -13.414849 -3.755608 1.184328
v -13.415944 -3.757340 1.187161
v -13.415944 -3.772755 1.187161
v -13.416784 -3.759597 1.189335
v -13.416784 -3.770497 1.189335
v -13.417313 -3.767868 1.190702
v -13.417313 -3.762226 1.190702
v -13.417493 -3.765047 1.191168
v -13.531351 -3.732358 1.364989
v -13.797009 -4.149630 1.364989
v -13.531351 -4.149630 1.364989
v -13.797009 -3.732358 1.364989
v -13.463002 -3.765047 1.308943
v -13.457203 -3.777002 1.293934
v -13.457203 -3.765047 1.293934
v -13.463002 -3.777002 1.308943
v -13.457203 -3.788956 1.293934
v -13.463002 -3.788956 1.308943
v -13.463002 -3.753093 1.308943
v -13.457203 -3.753093 1.293934
v -13.474602 -3.777002 1.338962
v -13.468802 -3.788956 1.323953
v -13.468802 -3.777002 1.323953
v -13.474602 -3.788956 1.338962
v -13.468802 -3.765047 1.323953
v -13.452945 -3.732358 1.282916
v -13.457203 -3.741138 1.293934
v -13.452945 -3.797736 1.282916
v -13.484659 -3.732358 1.364989
v -13.463002 -3.741138 1.308943
v -13.468802 -3.741138 1.323953
v -13.474602 -3.741138 1.338962
v -13.480402 -3.741138 1.353971
v -13.480402 -3.753093 1.353971
v -13.480402 -3.765047 1.353971
v -13.480402 -3.777002 1.353971
v -13.480402 -3.788956 1.353971
v -13.484659 -3.797736 1.364989
v -13.531351 -4.149630 1.004989
v -13.370571 -3.732358 1.039741
v -13.370571 -4.149630 1.039741
v -13.531351 -3.732358 1.004989
v -13.370571 -3.732358 1.069741
v -13.370571 -3.797736 1.069741
v -13.370571 -4.149630 1.069741
v -13.797009 -3.732358 1.004989
v -13.384582 -3.819536 1.105997
v -13.468813 -3.819536 1.323981
v -13.468813 -4.116953 1.323981
v -13.384582 -4.116953 1.105997
v -13.484659 -4.149630 1.364989
v -13.474602 -3.753093 1.338962
v -13.474602 -3.765047 1.338962
v -13.468802 -3.753093 1.323953
v -13.797009 -4.149630 1.004989
v -13.480559 -3.819536 1.317826
v -13.396327 -4.116953 1.099842
v -13.396327 -3.819536 1.099842
v -13.480559 -4.116953 1.317826
vn 0.9328 -0.0000 0.3604
vn -0.0000 -0.0000 1.0000
vn -0.0000 -0.0000 -1.0000
vn 0.2113 -0.0000 -0.9774
vn 1.0000 -0.0000 -0.0000
vn -0.0000 1.0000 -0.0000
vn 0.9330 -0.0000 0.3599
vn 0.9328 -0.0000 0.3605
vn 0.9329 -0.0000 0.3603
vn 0.9328 -0.0001 0.3605
vn 0.9327 0.0003 0.3606
vn 0.9328 -0.0000 0.3603
vn 0.9327 -0.0001 0.3606
vn 0.9326 -0.0003 0.3609
vn -1.0000 -0.0000 -0.0000
vn -0.0000 -1.0000 -0.0000
vn -0.4642 -0.0000 0.8857
vn 0.4642 -0.0000 -0.8857
s 0
usemtl Material
f 1//1 2//1 3//1
f 2//1 1//1 4//1
f 2//1 4//1 5//1
f 5//1 4//1 6//1
f 6//1 4//1 7//1
f 6//1 7//1 8//1
f 6//1 8//1 9//1
f 9//1 8//1 10//1
f 9//1 10//1 11//1
f 11//1 10//1 12//1
f 12//1 10//1 13//1
f 12//1 13//1 14//1
f 12//1 14//1 15//1
f 15//1 14//1 16//1
f 16//1 14//1 17//1
f 16//1 17//1 18//1
f 16//1 18//1 19//1
f 19//1 18//1 20//1
f 19//1 20//1 21//1
f 21//1 20//1 22//1
f 22//1 20//1 23//1
f 22//1 23//1 24//1
f 25//1 26//1 27//1
f 26//1 25//1 28//1
f 26//1 28//1 29//1
f 29//1 28//1 30//1
f 30//1 28//1 31//1
f 30//1 31//1 32//1
f 32//1 31//1 33//1
f 32//1 33//1 34//1
f 32//1 34//1 35//1
f 35//1 34//1 36//1
f 36//1 34//1 37//1
f 36//1 37//1 38//1
f 36//1 38//1 39//1
f 39//1 38//1 40//1
f 40//1 38//1 41//1
f 40//1 41//1 42//1
f 40//1 42//1 43//1
f 43//1 42//1 44//1
f 44//1 42//1 45//1
f 44//1 45//1 46//1
f 46//1 45//1 47//1
f 46//1 47//1 48//1
f 49//1 50//1 51//1
f 50//1 49//1 52//1
f 50//1 52//1 53//1
f 53//1 52//1 54//1
f 54//1 52//1 55//1
f 54//1 55//1 56//1
f 54//1 56//1 57//1
f 57//1 56//1 58//1
f 57//1 58//1 59//1
f 59//1 58//1 60//1
f 60//1 58//1 61//1
f 60//1 61//1 62//1
f 60//1 62//1 63//1
f 63//1 62//1 64//1
f 64//1 62//1 65//1
f 64//1 65//1 66//1
f 64//1 66//1 67//1
f 67//1 66//1 68//1
f 67//1 68//1 69//1
f 69//1 68//1 70//1
f 70//1 68//1 71//1
f 70//1 71//1 72//1
f 73//1 74//1 75//1
f 74//1 73//1 76//1
f 74//1 76//1 77//1
f 77//1 76//1 78//1
f 78//1 76//1 79//1
f 78//1 79//1 80//1
f 78//1 80//1 81//1
f 81//1 80//1 82//1
f 81//1 82//1 83//1
f 83//1 82//1 84//1
f 84//1 82//1 85//1
f 84//1 85//1 86//1
f 84//1 86//1 87//1
f 87//1 86//1 88//1
f 88//1 86//1 89//1
f 88//1 89//1 90//1
f 88//1 90//1 91//1
f 91//1 90//1 92//1
f 91//1 92//1 93//1
f 93//1 92//1 94//1
f 94//1 92//1 95//1
f 94//1 95//1 96//1
f 97//1 98//1 99//1
f 98//1 97//1 100//1
f 98//1 100//1 101//1
f 101//1 100//1 102//1
f 102//1 100//1 103//1
f 102//1 103//1 104//1
f 102//1 104//1 105//1
f 105//1 104//1 106//1
f 105//1 106//1 107//1
f 107//1 106//1 108//1
f 108//1 106//1 109//1
f 108//1 109//1 110//1
f 108//1 110//1 111//1
f 111//1 110//1 112//1
f 112//1 110//1 113//1
f 112//1 113//1 114//1
f 112//1 114//1 115//1
f 115//1 114//1 116//1
f 115//1 116//1 117//1
f 117//1 116//1 118//1
f 118//1 116//1 119//1
f 118//1 119//1 120//1
f 121//2 122//2 123//2
f 122//2 121//2 124//2
f 125//1 126//1 127//1
f 126//1 125//1 128//1
f 128//1 129//1 126//1
f 129//1 128//1 130//1
f 131//1 127//1 132//1
f 127//1 131//1 125//1
f 133//1 134//1 135//1
f 134//1 133//1 136//1
f 137//1 128//1 125//1
f 128//1 137//1 135//1
f 138//1 139//1 140//1
f 139//1 138//1 141//1
f 139//1 141//1 142//1
f 142//1 141//1 143//1
f 143//1 141//1 144//1
f 144//1 141//1 145//1
f 145//1 141//1 146//1
f 146//1 141//1 147//1
f 147//1 141//1 148//1
f 148//1 141//1 149//1
f 140//1 129//1 150//1
f 129//1 140//1 139//1
f 129//3 139//3 132//3
f 129//2 132//2 127//2
f 129//3 127//3 126//3
f 150//1 129//1 130//1
f 150//1 130//1 134//1
f 150//1 134//1 136//1
f 150//1 136//1 149//1
f 150//1 149//1 141//1
f 148//1 136//1 133//1
f 136//1 148//1 149//1
f 151//4 152//4 153//4
f 152//4 151//4 154//4
f 155//5 153//5 152//5
f 153//5 155//5 156//5
f 157//5 153//5 156//5
f 158//6 121//6 154//6
f 121//6 158//6 124//6
f 156//1 159//1 157//1
f 159//1 156//1 140//1
f 159//1 140//1 160//1
f 160//1 140//1 150//1
f 160//1 150//1 161//1
f 157//1 162//1 163//1
f 162//1 157//1 159//1
f 163//1 162//1 161//1
f 163//1 161//1 150//1
f 145//1 164//1 144//1
f 164//1 145//1 146//1
f 142//1 132//1 139//1
f 132//1 142//1 131//1
f 165//1 135//1 137//1
f 135//1 165//1 133//1
f 135//1 130//1 128//1
f 130//1 135//1 134//1
f 147//1 133//1 165//1
f 133//1 147//1 148//1
f 166//1 125//1 131//1
f 125//1 166//1 137//1
f 155//1 49//1 51//1
f 49//1 155//1 52//1
f 52//1 155//1 55//1
f 55//1 155//1 56//1
f 56//1 155//1 58//1
f 58//1 155//1 138//1
f 58//7 138//7 61//7
f 61//1 138//1 62//1
f 62//8 138//8 65//8
f 65//1 138//1 66//1
f 66//1 138//1 34//1
f 66//1 34//1 68//1
f 68//8 34//8 33//8
f 68//1 33//1 71//1
f 71//1 33//1 72//1
f 72//8 33//8 31//8
f 72//1 31//1 28//1
f 72//8 28//8 25//8
f 72//1 25//1 27//1
f 34//9 138//9 37//9
f 37//1 138//1 38//1
f 38//8 138//8 41//8
f 41//1 138//1 42//1
f 42//1 138//1 106//1
f 42//1 106//1 45//1
f 45//8 106//8 104//8
f 45//1 104//1 47//1
f 47//1 104//1 48//1
f 48//10 104//10 103//10
f 48//1 103//1 100//1
f 48//8 100//8 97//8
f 48//1 97//1 99//1
f 106//1 138//1 109//1
f 109//8 138//8 110//8
f 110//8 138//8 113//8
f 113//1 138//1 114//1
f 114//1 138//1 116//1
f 116//1 138//1 82//1
f 116//8 82//8 80//8
f 116//1 80//1 119//1
f 119//1 80//1 120//1
f 120//1 80//1 79//1
f 120//8 79//8 76//8
f 120//1 76//1 73//1
f 120//1 73//1 75//1
f 82//1 138//1 85//1
f 85//1 138//1 86//1
f 86//8 138//8 89//8
f 89//1 138//1 90//1
f 90//1 138//1 92//1
f 92//1 138//1 95//1
f 95//1 138//1 96//1
f 96//8 138//8 7//8
f 96//1 7//1 4//1
f 1//8 96//8 4//8
f 96//1 1//1 3//1
f 7//11 138//11 8//11
f 8//8 138//8 10//8
f 10//1 138//1 13//1
f 13//1 138//1 14//1
f 14//1 138//1 17//1
f 17//1 138//1 18//1
f 18//1 138//1 20//1
f 20//1 138//1 23//1
f 23//1 138//1 24//1
f 156//1 59//1 140//1
f 59//1 156//1 57//1
f 57//1 156//1 54//1
f 54//1 156//1 53//1
f 53//1 156//1 155//1
f 53//12 155//12 50//12
f 50//1 155//1 51//1
f 140//13 59//13 60//13
f 140//1 60//1 63//1
f 140//1 63//1 64//1
f 140//1 64//1 67//1
f 140//1 67//1 35//1
f 35//1 67//1 69//1
f 35//1 69//1 32//1
f 32//1 69//1 70//1
f 32//1 70//1 72//1
f 32//1 72//1 30//1
f 30//8 72//8 29//8
f 29//1 72//1 26//1
f 26//1 72//1 27//1
f 140//8 35//8 36//8
f 140//1 36//1 39//1
f 140//1 39//1 40//1
f 140//1 40//1 43//1
f 140//1 43//1 107//1
f 107//1 43//1 44//1
f 107//8 44//8 105//8
f 105//1 44//1 46//1
f 105//1 46//1 48//1
f 105//8 48//8 102//8
f 102//8 48//8 101//8
f 101//1 48//1 98//1
f 98//1 48//1 99//1
f 140//8 107//8 108//8
f 140//1 108//1 111//1
f 140//1 111//1 112//1
f 140//1 112//1 115//1
f 140//1 115//1 117//1
f 140//1 117//1 83//1
f 83//8 117//8 81//8
f 81//1 117//1 118//1
f 81//1 118//1 120//1
f 81//8 120//8 78//8
f 78//1 120//1 77//1
f 77//1 120//1 74//1
f 74//1 120//1 75//1
f 140//1 83//1 84//1
f 140//1 84//1 87//1
f 140//1 87//1 88//1
f 140//1 88//1 91//1
f 140//1 91//1 93//1
f 140//1 93//1 94//1
f 140//1 94//1 96//1
f 140//1 96//1 6//1
f 6//8 96//8 5//8
f 5//1 96//1 2//1
f 2//1 96//1 3//1
f 140//14 6//14 9//14
f 140//1 9//1 11//1
f 140//1 11//1 12//1
f 140//1 12//1 15//1
f 140//1 15//1 16//1
f 140//1 16//1 19//1
f 140//1 19//1 21//1
f 140//1 21//1 22//1
f 140//1 22//1 24//1
f 140//1 24//1 138//1
f 143//1 131//1 142//1
f 131//1 143//1 166//1
f 146//1 165//1 164//1
f 165//1 146//1 147//1
f 164//1 137//1 166//1
f 137//1 164//1 165//1
f 144//1 166//1 143//1
f 166//1 144//1 164//1
f 122//15 158//15 167//15
f 158//15 122//15 124//15
f 158//3 151//3 167//3
f 151//3 158//3 154//3
f 122//16 151//16 123//16
f 151//16 122//16 167//16
f 169//6 161//6 162//6
f 161//6 169//6 171//6
f 159//17 169//17 162//17
f 169//17 159//17 170//17
f 160//16 170//16 159//16
f 170//16 160//16 168//16
f 168//18 161//18 171//18
f 161//18 168//18 160//18
f 163//16 153//16 157//16
f 153//16 163//16 151//16
f 151//16 163//16 123//16
f 150//2 123//2 163//2
f 123//2 150//2 121//2
f 121//2 150//2 141//2
f 154//6 155//6 152//6
f 155//6 154//6 138//6
f 138//6 154//6 141//6
f 141//6 154//6 121//6
f 121//5 151//5 154//5
f 151//5 121//5 123//5
