o Monitor.002
v -11.667426 -5.252436 1.353159
v -11.662395 -5.253653 1.353159
v -11.664877 -5.252909 1.352712
v -11.669867 -5.252267 1.354471
v -11.660147 -5.254619 1.354471
v -11.658287 -5.255740 1.356558
v -11.672032 -5.252414 1.356558
v -11.673777 -5.252866 1.359278
v -11.656942 -5.256939 1.359278
v -11.674981 -5.253593 1.362445
v -11.656204 -5.258136 1.362445
v -11.656122 -5.259249 1.365843
v -11.675562 -5.254546 1.365843
v -11.675480 -5.255658 1.369242
v -11.656703 -5.260201 1.369242
v -11.657907 -5.260928 1.372409
v -11.674742 -5.256855 1.372409
v -11.673397 -5.258055 1.375129
v -11.659652 -5.261380 1.375129
v -11.671537 -5.259176 1.377216
v -11.661818 -5.261527 1.377216
v -11.664259 -5.261358 1.378528
v -11.669290 -5.260141 1.378528
v -11.666807 -5.260886 1.378975
v -11.659490 -5.219632 1.245159
v -11.654458 -5.220850 1.245159
v -11.656941 -5.220105 1.244712
v -11.661930 -5.219463 1.246471
v -11.652210 -5.221815 1.246471
v -11.650351 -5.222936 1.248558
v -11.664097 -5.219610 1.248558
v -11.649006 -5.224135 1.251278
v -11.665841 -5.220063 1.251278
v -11.667045 -5.220790 1.254445
v -11.648268 -5.225332 1.254445
v -11.648187 -5.226445 1.257843
v -11.667625 -5.221742 1.257843
v -11.667544 -5.222855 1.261242
v -11.648767 -5.227397 1.261242
v -11.649971 -5.228124 1.264409
v -11.666806 -5.224051 1.264409
v -11.665462 -5.225251 1.267129
v -11.651715 -5.228577 1.267129
v -11.653882 -5.228724 1.269216
v -11.663602 -5.226372 1.269216
v -11.656322 -5.228555 1.270528
v -11.661354 -5.227337 1.270528
v -11.658871 -5.228082 1.270975
v -11.656844 -5.208698 1.209159
v -11.651814 -5.209915 1.209159
v -11.654296 -5.209170 1.208712
v -11.659285 -5.208529 1.210471
v -11.649566 -5.210880 1.210471
v -11.647706 -5.212001 1.212558
v -11.661451 -5.208676 1.212558
v -11.663196 -5.209128 1.215278
v -11.646360 -5.213201 1.215278
v -11.664399 -5.209855 1.218445
v -11.645622 -5.214398 1.218445
v -11.645541 -5.215510 1.221843
v -11.664980 -5.210807 1.221843
v -11.664899 -5.211920 1.225242
v -11.646122 -5.216463 1.225242
v -11.647326 -5.217190 1.228409
v -11.664161 -5.213117 1.228409
v -11.662816 -5.214316 1.231129
v -11.649070 -5.217642 1.231129
v -11.660956 -5.215437 1.233216
v -11.651237 -5.217789 1.233216
v -11.653677 -5.217620 1.234528
v -11.658709 -5.216403 1.234528
v -11.656225 -5.217147 1.234975
v -11.664781 -5.241501 1.317159
v -11.659749 -5.242719 1.317159
v -11.662231 -5.241974 1.316712
v -11.667221 -5.241333 1.318471
v -11.657501 -5.243684 1.318471
v -11.655642 -5.244805 1.320558
v -11.669387 -5.241479 1.320558
v -11.671132 -5.241932 1.323278
v -11.654297 -5.246005 1.323278
v -11.672336 -5.242659 1.326445
v -11.653559 -5.247201 1.326445
v -11.653477 -5.248314 1.329844
v -11.672916 -5.243611 1.329844
v -11.672835 -5.244724 1.333242
v -11.654058 -5.249266 1.333242
v -11.655262 -5.249993 1.336409
v -11.672096 -5.245921 1.336409
v -11.670752 -5.247120 1.339129
v -11.657006 -5.250446 1.339129
v -11.668892 -5.248241 1.341216
v -11.659173 -5.250593 1.341216
v -11.661613 -5.250424 1.342528
v -11.666644 -5.249207 1.342528
v -11.664162 -5.249951 1.342975
v -11.662135 -5.230567 1.281159
v -11.657104 -5.231784 1.281159
v -11.659587 -5.231040 1.280712
v -11.664576 -5.230398 1.282471
v -11.654856 -5.232749 1.282471
v -11.652996 -5.233871 1.284558
v -11.666742 -5.230545 1.284558
v -11.668487 -5.230997 1.287278
v -11.651651 -5.235070 1.287278
v -11.669690 -5.231724 1.290445
v -11.650913 -5.236267 1.290445
v -11.650832 -5.237380 1.293844
v -11.670271 -5.232677 1.293844
v -11.670190 -5.233789 1.297242
v -11.651413 -5.238332 1.297242
v -11.652617 -5.239058 1.300409
v -11.669452 -5.234986 1.300409
v -11.668106 -5.236186 1.303129
v -11.654361 -5.239511 1.303129
v -11.666246 -5.237307 1.305216
v -11.656528 -5.239658 1.305216
v -11.658968 -5.239489 1.306528
v -11.664000 -5.238272 1.306528
v -11.661516 -5.239017 1.306975
v -11.711451 -5.317883 1.473843
v -11.387865 -5.608366 1.473843
v -11.339367 -5.407899 1.473843
v -11.759949 -5.518350 1.473843
v -11.669825 -5.273358 1.420040
v -11.658106 -5.271561 1.405631
v -11.668766 -5.268982 1.405631
v -11.659164 -5.275938 1.420040
v -11.647446 -5.274140 1.405631
v -11.648505 -5.278516 1.420040
v -11.680485 -5.270780 1.420040
v -11.679425 -5.266403 1.405631
v -11.661283 -5.284690 1.448857
v -11.649564 -5.282893 1.434448
v -11.660223 -5.280314 1.434448
v -11.650622 -5.287270 1.448857
v -11.670883 -5.277735 1.434448
v -11.697137 -5.258718 1.395053
v -11.690085 -5.263824 1.405631
v -11.638840 -5.272821 1.395053
v -11.702927 -5.282649 1.473843
v -11.691144 -5.268201 1.420040
v -11.692204 -5.272577 1.434448
v -11.693262 -5.276954 1.448857
v -11.694321 -5.281330 1.463266
v -11.683661 -5.283909 1.463266
v -11.673001 -5.286488 1.463266
v -11.662341 -5.289067 1.463266
v -11.651681 -5.291646 1.463266
v -11.644629 -5.296752 1.473843
v -11.339367 -5.407899 1.128243
v -11.682099 -5.196558 1.161605
v -11.310015 -5.286575 1.161605
v -11.711451 -5.317883 1.128243
v -11.682099 -5.196558 1.190405
v -11.623802 -5.210662 1.190405
v -11.310015 -5.286575 1.190405
v -11.759949 -5.518350 1.128243
v -11.606920 -5.225936 1.225211
v -11.622297 -5.289498 1.434476
v -11.357088 -5.353659 1.434476
v -11.341711 -5.290097 1.225211
v -11.330843 -5.372665 1.473843
v -11.682602 -5.279533 1.448857
v -11.671942 -5.282112 1.448857
v -11.681543 -5.275156 1.434448
v -11.387865 -5.608366 1.128243
v -11.624442 -5.298362 1.428567
v -11.343856 -5.298961 1.219302
v -11.609064 -5.234800 1.219302
v -11.359233 -5.362522 1.428567
vn 0.2244 0.9277 0.2983
vn -0.0000 -0.0000 1.0000
vn -0.0000 -0.0000 -1.0000
vn 0.0607 0.2510 -0.9661
vn 0.2351 0.9720 -0.0000
vn -0.9720 0.2351 -0.0000
vn 0.2245 0.9279 0.2978
vn 0.2244 0.9278 0.2981
vn 0.2245 0.9277 0.2983
vn 0.2244 0.9277 0.2982
vn 0.2242 0.9277 0.2985
vn 0.2245 0.9277 0.2984
vn 0.2245 0.9277 0.2982
vn 0.2247 0.9275 0.2987
vn -0.2351 -0.9720 -0.0000
vn 0.9720 -0.2351 -0.0000
vn -0.1279 -0.5286 0.8392
vn 0.1279 0.5286 -0.8392
s 0
usemtl [Color_009]4
f 168//1 169//1 170//1
f 169//1 168//1 171//1
