o Monitor
v -15.230249 -3.570119 1.569287
v -15.230249 -3.575295 1.569287
v -15.230109 -3.572707 1.568821
v -15.230659 -3.567707 1.570654
v -15.230659 -3.577707 1.570654
v -15.231312 -3.579778 1.572828
v -15.231312 -3.565636 1.572828
v -15.232162 -3.564047 1.575661
v -15.232162 -3.581367 1.575661
v -15.233151 -3.563048 1.578960
v -15.233151 -3.582366 1.578960
v -15.234213 -3.582707 1.582500
v -15.234213 -3.562707 1.582500
v -15.235275 -3.563048 1.586040
v -15.235275 -3.582366 1.586040
v -15.236265 -3.581367 1.589339
v -15.236265 -3.564047 1.589339
v -15.237115 -3.565636 1.592172
v -15.237115 -3.579778 1.592172
v -15.237767 -3.567707 1.594346
v -15.237767 -3.577707 1.594346
v -15.238177 -3.575295 1.595713
v -15.238177 -3.570119 1.595713
v -15.238317 -3.572707 1.596179
v -15.196500 -3.570119 1.456787
v -15.196500 -3.575295 1.456787
v -15.196360 -3.572707 1.456321
v -15.196909 -3.567707 1.458154
v -15.196909 -3.577707 1.458154
v -15.197561 -3.579778 1.460328
v -15.197561 -3.565636 1.460328
v -15.198411 -3.581367 1.463161
v -15.198411 -3.564047 1.463161
v -15.199401 -3.563048 1.466460
v -15.199401 -3.582366 1.466460
v -15.200463 -3.582707 1.470000
v -15.200463 -3.562707 1.470000
v -15.201526 -3.563048 1.473540
v -15.201526 -3.582366 1.473540
v -15.202515 -3.581367 1.476839
v -15.202515 -3.564047 1.476839
v -15.203365 -3.565636 1.479672
v -15.203365 -3.579778 1.479672
v -15.204017 -3.577707 1.481846
v -15.204017 -3.567707 1.481846
v -15.204427 -3.575295 1.483213
v -15.204427 -3.570119 1.483213
v -15.204567 -3.572707 1.483679
v -15.185249 -3.570119 1.419287
v -15.185249 -3.575295 1.419287
v -15.185109 -3.572707 1.418821
v -15.185659 -3.567707 1.420654
v -15.185659 -3.577707 1.420654
v -15.186312 -3.579778 1.422828
v -15.186312 -3.565636 1.422828
v -15.187161 -3.564047 1.425661
v -15.187161 -3.581367 1.425661
v -15.188151 -3.563048 1.428960
v -15.188151 -3.582366 1.428960
v -15.189213 -3.582707 1.432500
v -15.189213 -3.562707 1.432500
v -15.190275 -3.563048 1.436040
v -15.190275 -3.582366 1.436040
v -15.191265 -3.581367 1.439339
v -15.191265 -3.564047 1.439339
v -15.192115 -3.565636 1.442172
v -15.192115 -3.579778 1.442172
v -15.192767 -3.567707 1.444346
v -15.192767 -3.577707 1.444346
v -15.193177 -3.575295 1.445713
v -15.193177 -3.570119 1.445713
v -15.193316 -3.572707 1.446179
v -15.218999 -3.570119 1.531787
v -15.218999 -3.575295 1.531787
v -15.218860 -3.572707 1.531321
v -15.219409 -3.567707 1.533154
v -15.219409 -3.577707 1.533154
v -15.220061 -3.579778 1.535328
v -15.220061 -3.565636 1.535328
v -15.220911 -3.564047 1.538161
v -15.220911 -3.581367 1.538161
v -15.221901 -3.563048 1.541460
v -15.221901 -3.582366 1.541460
v -15.222963 -3.582707 1.545000
v -15.222963 -3.562707 1.545000
v -15.224026 -3.563048 1.548540
v -15.224026 -3.582366 1.548540
v -15.225015 -3.581367 1.551839
v -15.225015 -3.564047 1.551839
v -15.225865 -3.565636 1.554672
v -15.225865 -3.579778 1.554672
v -15.226517 -3.567707 1.556846
v -15.226517 -3.577707 1.556846
v -15.226927 -3.575295 1.558213
v -15.226927 -3.570119 1.558213
v -15.227067 -3.572707 1.558679
v -15.207749 -3.570119 1.494287
v -15.207749 -3.575295 1.494287
v -15.207609 -3.572707 1.493821
v -15.208159 -3.567707 1.495654
v -15.208159 -3.577707 1.495654
v -15.208812 -3.579778 1.497828
v -15.208812 -3.565636 1.497828
v -15.209661 -3.564047 1.500661
v -15.209661 -3.581367 1.500661
v -15.210651 -3.563048 1.503960
v -15.210651 -3.582366 1.503960
v -15.211713 -3.582707 1.507500
v -15.211713 -3.562707 1.507500
v -15.212775 -3.563048 1.511040
v -15.212775 -3.582366 1.511040
v -15.213765 -3.581367 1.514339
v -15.213765 -3.564047 1.514339
v -15.214615 -3.565636 1.517172
v -15.214615 -3.579778 1.517172
v -15.215267 -3.567707 1.519346
v -15.215267 -3.577707 1.519346
v -15.215677 -3.575295 1.520713
v -15.215677 -3.570119 1.520713
v -15.215816 -3.572707 1.521179
v -15.304214 -3.542717 1.695000
v -15.510464 -3.925535 1.695000
v -15.304214 -3.925535 1.695000
v -15.510463 -3.542717 1.695000
v -15.251149 -3.572707 1.638954
v -15.246647 -3.583674 1.623945
v -15.246647 -3.572707 1.623945
v -15.251149 -3.583674 1.638954
v -15.246647 -3.594642 1.623945
v -15.251149 -3.594642 1.638954
v -15.251149 -3.561740 1.638954
v -15.246647 -3.561740 1.623945
v -15.260155 -3.583674 1.668973
v -15.255652 -3.594642 1.653964
v -15.255652 -3.583674 1.653964
v -15.260155 -3.594642 1.668973
v -15.255652 -3.572707 1.653964
v -15.243341 -3.542717 1.612927
v -15.246647 -3.550772 1.623945
v -15.243341 -3.602697 1.612927
v -15.267963 -3.542717 1.695000
v -15.251149 -3.550772 1.638954
v -15.255652 -3.550772 1.653964
v -15.260155 -3.550772 1.668973
v -15.264658 -3.550772 1.683982
v -15.264658 -3.561740 1.683982
v -15.264658 -3.572707 1.683982
v -15.264658 -3.583674 1.683982
v -15.264658 -3.594642 1.683982
v -15.267963 -3.602697 1.695000
v -15.304214 -3.925535 1.335000
v -15.179389 -3.542717 1.369752
v -15.179389 -3.925535 1.369752
v -15.304214 -3.542717 1.335000
v -15.179389 -3.542717 1.399752
v -15.179389 -3.602697 1.399752
v -15.179389 -3.925535 1.399752
v -15.510463 -3.542717 1.335000
v -15.190266 -3.622697 1.436008
v -15.255661 -3.622697 1.653992
v -15.255661 -3.895556 1.653992
v -15.190266 -3.895556 1.436008
v -15.267963 -3.925535 1.695000
v -15.260155 -3.561740 1.668973
v -15.260155 -3.572707 1.668973
v -15.255652 -3.561740 1.653964
v -15.510464 -3.925535 1.335000
v -15.264780 -3.622697 1.647837
v -15.199385 -3.895556 1.429852
v -15.199385 -3.622697 1.429852
v -15.264780 -3.895556 1.647837
vn 0.9578 -0.0000 0.2873
vn 0.9578 -0.0000 0.2874
vn -0.0000 -0.0000 1.0000
vn -0.0000 -0.0000 -1.0000
vn 0.2682 -0.0000 -0.9634
vn 1.0000 -0.0000 -0.0000
vn -0.0000 1.0000 -0.0000
vn 0.9580 -0.0000 0.2869
vn 0.9579 -0.0000 0.2872
vn 0.9578 -0.0001 0.2874
vn 0.9578 0.0003 0.2875
vn 0.9578 -0.0001 0.2875
vn 0.9577 -0.0003 0.2877
vn -1.0000 -0.0000 -0.0000
vn -0.0000 -1.0000 -0.0000
vn -0.5595 -0.0000 0.8288
vn 0.5595 -0.0000 -0.8288
s 0
usemtl [Color_009]4
f 168//1 169//1 170//1
f 169//1 168//1 171//1
