o Monitor_2.001
v -11.688474 -5.313153 1.507623
v -11.608117 -5.342882 1.507623
v -11.605765 -5.333162 1.507623
v -11.690825 -5.322872 1.507623
v -11.605765 -5.333162 1.495064
v -11.688474 -5.313153 1.495064
v -11.525409 -5.362891 1.507623
v -11.523058 -5.353171 1.507623
v -11.690825 -5.322872 1.495064
v -11.348217 -5.405758 1.519738
v -11.359993 -5.402909 1.507623
v -11.702601 -5.320024 1.519738
v -11.348217 -5.405758 1.482949
v -11.359993 -5.402909 1.495064
v -11.442701 -5.382900 1.495064
v -11.525409 -5.362891 1.495064
v -11.608117 -5.342882 1.495064
v -11.702601 -5.320024 1.482949
v -11.442701 -5.382900 1.507623
v -11.523058 -5.353171 1.495064
v -11.535129 -5.360539 1.604488
v -11.616357 -5.351177 1.604488
v -11.537480 -5.370259 1.604488
v -11.614005 -5.341457 1.604488
v -11.436813 -5.384325 1.595416
v -11.514570 -5.365513 1.604488
v -11.436813 -5.384325 1.604488
v -11.514570 -5.365513 1.595416
v -11.616357 -5.351177 1.595416
v -11.535129 -5.360539 1.595416
v -11.537480 -5.370259 1.595416
v -11.614005 -5.341457 1.595416
v -11.623967 -5.339047 1.576343
v -11.626319 -5.348767 1.590416
v -11.626319 -5.348767 1.576343
v -11.623967 -5.339047 1.590416
v -11.364804 -5.401745 1.599952
v -11.367400 -5.411406 1.601866
v -11.367155 -5.411465 1.599952
v -11.365048 -5.401686 1.601866
v -11.641135 -5.334894 1.576343
v -11.658303 -5.330740 1.590416
v -11.641135 -5.334894 1.590416
v -11.658303 -5.330740 1.576343
v -11.439164 -5.394044 1.604488
v -11.439164 -5.394044 1.595416
v -11.759949 -5.518349 1.473843
v -11.387865 -5.608366 1.623843
v -11.759949 -5.518349 1.623843
v -11.387865 -5.608366 1.473843
v -11.436813 -5.384325 1.576343
v -11.439164 -5.394044 1.586343
v -11.439164 -5.394044 1.576343
v -11.436813 -5.384325 1.586343
v -11.675471 -5.326587 1.604488
v -11.660654 -5.340460 1.604488
v -11.658303 -5.330740 1.604488
v -11.677822 -5.336307 1.604488
v -11.704952 -5.329743 1.614738
v -11.345865 -5.396039 1.614738
v -11.350569 -5.415478 1.614738
v -11.700250 -5.310304 1.614738
v -11.380564 -5.408221 1.603649
v -11.379422 -5.408497 1.605180
v -11.381282 -5.408047 1.601866
v -11.381527 -5.407988 1.599952
v -11.381282 -5.408047 1.598039
v -11.380564 -5.408221 1.596256
v -11.379422 -5.408497 1.594725
v -11.516921 -5.375233 1.595416
v -11.626319 -5.348767 1.604488
v -11.377934 -5.408857 1.593550
v -11.376201 -5.409276 1.592811
v -11.374341 -5.409727 1.592559
v -11.516921 -5.375233 1.604488
v -11.374341 -5.409727 1.607345
v -11.372481 -5.410176 1.607093
v -11.370749 -5.410595 1.606355
v -11.369260 -5.410955 1.605180
v -11.368118 -5.411232 1.603649
v -11.350569 -5.415478 1.537949
v -11.367400 -5.411406 1.598039
v -11.368118 -5.411232 1.596256
v -11.369260 -5.410955 1.594725
v -11.370749 -5.410595 1.593550
v -11.372481 -5.410176 1.592811
v -11.516921 -5.375233 1.576343
v -11.537480 -5.370259 1.576343
v -11.565519 -5.363475 1.576343
v -11.616357 -5.351177 1.576343
v -11.626319 -5.348767 1.562271
v -11.626319 -5.348767 1.548198
v -11.643487 -5.344613 1.548198
v -11.660654 -5.340460 1.548198
v -11.677822 -5.336307 1.548198
v -11.694990 -5.332153 1.548198
v -11.694990 -5.332153 1.604488
v -11.704952 -5.329743 1.537949
v -11.376201 -5.409276 1.607093
v -11.377934 -5.408857 1.606355
v -11.643487 -5.344613 1.604488
v -11.694990 -5.332153 1.590416
v -11.694990 -5.332153 1.576343
v -11.694990 -5.332153 1.562271
v -11.616357 -5.351177 1.586343
v -11.516921 -5.375233 1.586343
v -11.537480 -5.370259 1.586343
v -11.675471 -5.326587 1.548198
v -11.692638 -5.322433 1.548198
v -11.337015 -5.398180 1.623843
v -11.709100 -5.308163 1.623843
v -11.337015 -5.398180 1.528843
v -11.345865 -5.396039 1.537949
v -11.700250 -5.310304 1.537949
v -11.709100 -5.308163 1.528843
v -11.641135 -5.334894 1.604488
v -11.345865 -5.396039 1.519738
v -11.345865 -5.396039 1.482949
v -11.337015 -5.398180 1.473843
v -11.370130 -5.400457 1.607093
v -11.368397 -5.400876 1.606355
v -11.366909 -5.401236 1.605180
v -11.357641 -5.393189 1.495064
v -11.357641 -5.393189 1.507623
v -11.658303 -5.330740 1.562271
v -11.675471 -5.326587 1.576343
v -11.675471 -5.326587 1.562271
v -11.623967 -5.339047 1.604488
v -11.692638 -5.322433 1.590416
v -11.675471 -5.326587 1.590416
v -11.692638 -5.322433 1.576343
v -11.692638 -5.322433 1.562271
v -11.641135 -5.334894 1.548198
v -11.641135 -5.334894 1.562271
v -11.658303 -5.330740 1.548198
v -11.709100 -5.308163 1.473843
v -11.440350 -5.373180 1.495064
v -11.373850 -5.399557 1.607093
v -11.371989 -5.400007 1.607345
v -11.375583 -5.399137 1.606355
v -11.377070 -5.398777 1.605180
v -11.365767 -5.401512 1.603649
v -11.378213 -5.398501 1.603649
v -11.378930 -5.398328 1.601866
v -11.379175 -5.398268 1.599952
v -11.365048 -5.401686 1.598039
v -11.378930 -5.398328 1.598039
v -11.365767 -5.401512 1.596256
v -11.378213 -5.398501 1.596256
v -11.366909 -5.401236 1.594725
v -11.377070 -5.398777 1.594725
v -11.368397 -5.400876 1.593550
v -11.375583 -5.399137 1.593550
v -11.370130 -5.400457 1.592811
v -11.373850 -5.399557 1.592811
v -11.371989 -5.400007 1.592559
v -11.614005 -5.341457 1.576343
v -11.614005 -5.341457 1.586343
v -11.535129 -5.360539 1.586343
v -11.563168 -5.353756 1.576343
v -11.440350 -5.373180 1.507623
v -11.700250 -5.310304 1.482949
v -11.535129 -5.360539 1.576343
v -11.692638 -5.322433 1.604488
v -11.623967 -5.339047 1.562271
v -11.700250 -5.310304 1.519738
v -11.514570 -5.365513 1.586343
v -11.514570 -5.365513 1.576343
v -11.623967 -5.339047 1.548198
vn -0.0000 -0.0000 1.0000
vn 0.2351 0.9720 -0.0000
vn -0.9720 0.2351 -0.0000
vn -0.0000 -0.0000 -1.0000
vn 0.9720 -0.2351 -0.0000
vn 0.8733 0.4872 -0.0000
vn 0.8073 0.5637 0.1747
vn 0.8297 0.5583 -0.0000
vn 0.8490 0.4931 0.1900
vn -0.2351 -0.9720 -0.0000
vn 0.2351 0.9720 -0.0001
vn 0.2351 0.9720 0.0001
vn 0.2351 0.9720 0.0002
vn 0.3443 0.6152 0.7092
vn 0.5016 0.6376 0.5847
vn 0.5165 0.5735 0.6359
vn 0.3433 0.6759 0.6521
vn 0.6375 0.6048 0.4774
vn 0.6643 0.5378 0.5192
vn -0.2905 0.8293 -0.4774
vn -0.1972 0.7462 -0.6359
vn -0.1546 0.7964 -0.5847
vn -0.3450 0.7819 -0.5192
vn 0.8073 0.5637 -0.1747
vn 0.8490 0.4931 -0.1900
vn 0.0036 0.7582 -0.6521
vn 0.1596 0.6598 -0.7343
vn 0.1735 0.7170 -0.6751
vn -0.0251 0.7045 -0.7092
vn 0.3433 0.6759 -0.6521
vn 0.5165 0.5735 -0.6359
vn 0.5016 0.6376 -0.5847
vn 0.3443 0.6152 -0.7092
vn 0.6375 0.6048 -0.4774
vn 0.6643 0.5378 -0.5192
vn 0.7777 0.5103 0.3671
vn 0.7417 0.5795 0.3376
vn -0.4584 0.8094 0.3671
vn -0.4604 0.8704 0.1747
vn -0.3948 0.8545 0.3376
vn -0.5297 0.8266 0.1900
vn 0.7777 0.5103 -0.3671
vn 0.7417 0.5795 -0.3376
vn -0.5297 0.8266 -0.1900
vn -0.3948 0.8545 -0.3376
vn -0.4604 0.8704 -0.1747
vn -0.4584 0.8094 -0.3671
vn -0.5540 0.8325 -0.0000
vn -0.4827 0.8758 -0.0000
vn -0.3450 0.7819 0.5192
vn -0.2905 0.8293 0.4774
vn -0.1972 0.7462 0.6359
vn -0.1546 0.7964 0.5847
vn -0.0251 0.7045 0.7092
vn 0.0036 0.7582 0.6521
vn 0.1596 0.6598 0.7343
vn 0.1735 0.7170 0.6751
s 0
s 1
s 0
s 1
s 0
usemtl [Color_I02]
f 21//1 22//1 23//1
f 22//1 21//1 24//1
f 25//2 26//2 27//2
f 26//2 25//2 28//2
f 30//2 24//2 21//2
f 24//2 30//2 32//2
f 105//3 157//3 90//3
f 157//3 105//3 158//3
f 159//1 105//1 107//1
f 105//1 159//1 158//1
f 26//3 70//3 75//3
f 70//3 26//3 28//3
f 163//2 158//2 159//2
f 158//2 163//2 157//2
f 157//1 163//1 160//1
f 51//2 167//2 54//2
f 167//2 51//2 168//2
f 163//5 107//5 88//5
f 107//5 163//5 159//5
f 27//1 75//1 45//1
f 75//1 27//1 26//1
f 30//5 23//5 31//5
f 23//5 30//5 21//5
f 54//1 106//1 52//1
f 106//1 54//1 167//1
f 167//3 87//3 106//3
f 87//3 167//3 168//3
f 24//3 29//3 22//3
f 29//3 24//3 32//3
