o Sketchup
v -10.516878 -5.211632 2.169422
v -10.466878 -5.291632 2.169422
v -10.466878 -5.211632 2.169422
v -10.516878 -5.291632 2.169422
v -10.266878 -5.291632 2.099422
v -10.316878 -5.211632 2.099422
v -10.266878 -5.121254 2.099422
v -10.716878 -5.291632 2.099422
v -10.666879 -5.211632 2.099422
v -10.666879 -5.101632 2.099422
v -10.716878 -5.101632 2.099422
v -10.316878 -5.121254 2.099422
v -10.516878 -5.291632 2.134422
v -10.516878 -5.211632 2.134422
v -10.466878 -5.291632 2.134422
v -10.266878 -5.291632 2.134422
v -10.716878 -5.291632 2.134422
v -10.466878 -5.211632 2.134422
v -10.716878 -5.101632 2.134422
v -10.666879 -5.211632 2.134422
v -10.666879 -5.101632 2.134422
v -10.266878 -5.121254 2.134422
v -10.316878 -5.121254 2.134422
v -10.316878 -5.211632 2.134422
v -5.890269 -3.275244 2.316746
v -7.729367 -3.275244 1.567648
v -5.890269 -3.275244 1.567648
v -7.729367 -3.275244 2.316746
v -5.890269 -3.235244 1.567648
v -7.729367 -3.235244 1.567648
v -7.729367 -3.235244 2.316746
v -5.890269 -3.235244 2.316746
v -7.690288 -3.235244 1.606727
v -7.690288 -3.235244 2.277667
v -5.929348 -3.235244 2.277667
v -5.929348 -3.235244 1.606727
v -7.690288 -3.255244 2.277667
v -5.929348 -3.255244 1.606727
v -7.690288 -3.255244 1.606727
v -5.929348 -3.255244 2.277667
vn -0.0000 -0.0000 1.0000
vn -0.0000 -0.0000 -1.0000
vn -1.0000 -0.0000 -0.0000
vn -0.0000 -1.0000 -0.0000
vn 1.0000 -0.0000 -0.0000
vn -0.0000 1.0000 -0.0000
vt 414.050323 205.182358
vt 205.182358 85.410324
vt 414.050323 85.410324
vt 412.081818 208.331970
vt -412.081818 85.410324
vt -208.331970 85.410324
vt 412.081818 205.182358
vt -205.182358 85.410324
vt 412.081818 85.410324
vt 414.050323 208.331970
vt 208.331970 85.410324
vt -414.050323 85.410324
vt -404.207794 208.331970
vt -404.207794 82.654419
vt -208.331970 82.654419
vt -406.176300 205.182358
vt 406.176300 82.654419
vt 205.182358 82.654419
vt -404.207794 201.624176
vt -201.624176 82.654419
vt 404.207794 82.654419
vt -421.924347 208.331970
vt -421.924347 82.654419
vt 208.331970 82.654419
vt -419.955841 205.182358
vt 419.955841 82.654419
vt -205.182358 82.654419
vt -419.955841 200.851654
vt 419.955841 82.654419
vt -200.851654 82.654419
vt -421.924347 200.851654
vt 200.851654 82.654419
vt 421.924347 82.654419
vt -406.176300 201.624176
vt 406.176300 82.654419
vt 201.624176 82.654419
vt 208.331970 84.032372
vt -414.050323 84.032372
vt 414.050323 208.331970
vt 205.182358 84.032372
vt 414.050323 205.182358
vt 414.050323 84.032372
vt -412.081818 84.032372
vt -208.331970 84.032372
vt 412.081818 208.331970
vt -404.207794 84.032372
vt -208.331970 84.032372
vt 404.207794 208.331970
vt -421.924347 84.032372
vt 208.331970 84.032372
vt 421.924347 208.331970
vt -205.182358 84.032372
vt 412.081818 205.182358
vt 412.081818 84.032372
vt 200.851654 84.032372
vt 421.924347 200.851654
vt 421.924347 84.032372
vt 419.955841 205.182358
vt 419.955841 84.032372
vt -205.182358 84.032372
vt 419.955841 200.851654
vt 419.955841 84.032372
vt -200.851654 84.032372
vt -201.624176 84.032372
vt 404.207794 201.624176
vt 404.207794 84.032372
vt 406.176300 201.624176
vt 406.176300 84.032372
vt 201.624176 84.032372
vt 406.176300 205.182358
vt 406.176300 84.032372
vt 205.182358 84.032372
vt -231.900345 91.210472
vt 231.900345 128.946625
vt -128.946625 91.210472
vt -304.305786 61.718426
vt -304.305786 128.946625
vt 128.946625 61.718426
vt -231.900345 61.718426
vt -231.900345 128.946625
vt -128.946625 61.718426
vt -304.305786 91.210472
vt 128.946625 91.210472
vt 304.305786 128.946625
vt -231.900345 127.371811
vt -127.371811 61.718426
vt 231.900345 61.718426
vt -304.305786 127.371811
vt 127.371811 61.718426
vt 304.305786 61.718426
vt 127.371811 91.210472
vt 304.305786 127.371811
vt 304.305786 91.210472
vt 231.900345 127.371811
vt -127.371811 91.210472
vt 231.900345 91.210472
vt 302.767242 63.256977
vt 302.767242 127.371811
vt -127.371811 63.256977
vt 302.767242 89.671921
vt -127.371811 89.671921
vt -302.767242 127.371811
vt 233.438904 89.671921
vt 127.371811 89.671921
vt -233.438904 127.371811
vt 233.438904 63.256977
vt 127.371811 63.256977
vt 233.438904 127.371811
vt 4.205101 1.245443
vt -128.159210 89.671921
vt -302.767242 128.159210
vt 3.242207 0.878569
vt 128.159210 63.256977
vt 233.438904 128.159210
vt 4.205101 0.878569
vt 302.767242 128.159210
vt -128.159210 63.256977
vt 3.242207 1.245443
vt 128.159210 89.671921
vt -233.438904 128.159210
s 0
usemtl [Translucent_Glass_Sky_Reflection]1
f 37/109/6 38/112/6 39/115/6
f 38/112/6 37/109/6 40/118/6
