o Vaporizer_2
v -13.619808 -4.507962 1.296105
v -13.562584 -4.467893 1.367139
v -13.562584 -4.467893 1.296105
v -13.566274 -4.470476 1.393777
v -13.619808 -4.507962 1.393777
v -13.577887 -4.499512 1.225071
v -13.574890 -4.488316 1.296105
v -13.574890 -4.488316 1.225071
v -13.577887 -4.499512 1.296105
v -13.569098 -4.478278 1.296105
v -13.569098 -4.478278 1.225071
v -13.574883 -4.522295 1.296105
v -13.577885 -4.511101 1.225071
v -13.574883 -4.522295 1.225071
v -13.577885 -4.511101 1.296105
v -13.504184 -4.481986 1.393777
v -13.490308 -4.487241 1.367139
v -13.496466 -4.476582 1.367139
v -13.534193 -4.463073 1.393777
v -13.515834 -4.461727 1.367139
v -13.527725 -4.458544 1.367139
v -13.528065 -4.549311 1.296105
v -13.516870 -4.546309 1.225071
v -13.516870 -4.546309 1.296105
v -13.528065 -4.549311 1.225071
v -13.512714 -4.473161 1.393777
v -13.498653 -4.478261 1.306464
v -13.492857 -4.488297 1.225071
v -13.498653 -4.478261 1.225071
v -13.492857 -4.488297 1.306464
v -13.497938 -4.492584 1.393777
v -13.506835 -4.540512 1.306464
v -13.498641 -4.532315 1.225071
v -13.498641 -4.532315 1.306464
v -13.506835 -4.540512 1.225071
v -13.506835 -4.540512 1.296105
v -13.493824 -4.516137 1.393777
v -13.487117 -4.511441 1.367139
v -13.494405 -4.504232 1.393777
v -13.487120 -4.499131 1.367139
v -13.506835 -4.540512 1.316823
v -13.498641 -4.532315 1.316823
v -13.577885 -4.511101 1.367139
v -13.574883 -4.522295 1.367139
v -13.539674 -4.461281 1.306464
v -13.528085 -4.461279 1.316823
v -13.528085 -4.461279 1.306464
v -13.539674 -4.461281 1.316823
v -13.539674 -4.461281 1.225071
v -13.528085 -4.461279 1.225071
v -13.509183 -4.545521 1.393777
v -13.505155 -4.542700 1.296105
v -13.505155 -4.542700 1.367139
v -13.565766 -4.585141 1.296105
v -13.565766 -4.585141 1.393777
v -13.498653 -4.478261 1.316823
v -13.492857 -4.488297 1.316823
v -13.505172 -4.467879 1.367139
v -13.522950 -4.466710 1.393777
v -13.516889 -4.464276 1.367139
v -13.506850 -4.470068 1.316823
v -13.516889 -4.464276 1.316823
v -13.506850 -4.470068 1.367139
v -13.560888 -4.540524 1.296105
v -13.569085 -4.532331 1.225071
v -13.560888 -4.540524 1.225071
v -13.569085 -4.532331 1.296105
v -13.577887 -4.499512 1.367139
v -13.560904 -4.470081 1.296105
v -13.560904 -4.470081 1.306464
v -13.560904 -4.470081 1.316823
v -13.560904 -4.470081 1.367139
v -13.501473 -4.537510 1.393777
v -13.490300 -4.523332 1.367139
v -13.496235 -4.527487 1.393777
v -13.556619 -4.465022 1.393777
v -13.506835 -4.540512 1.367139
v -13.539654 -4.549314 1.296105
v -13.550850 -4.546317 1.225071
v -13.539654 -4.549314 1.225071
v -13.550850 -4.546317 1.296105
v -13.492848 -4.522276 1.225071
v -13.492848 -4.522276 1.306464
v -13.551925 -4.461735 1.367139
v -13.496452 -4.533994 1.367139
v -13.550868 -4.464283 1.316823
v -13.550868 -4.464283 1.306464
v -13.492848 -4.522276 1.316823
v -13.489852 -4.511081 1.306464
v -13.489852 -4.511081 1.316823
v -13.489854 -4.499491 1.225071
v -13.489854 -4.499491 1.306464
v -13.550868 -4.464283 1.225071
v -13.498653 -4.478261 1.367139
v -13.560904 -4.470081 1.225071
v -13.528085 -4.461279 1.367139
v -13.550868 -4.464283 1.367139
v -13.489854 -4.499491 1.367139
v -13.489854 -4.499491 1.316823
v -13.489852 -4.511081 1.367139
v -13.492857 -4.488297 1.367139
v -13.506850 -4.470068 1.306464
v -13.506850 -4.470068 1.225071
v -13.489852 -4.511081 1.225071
v -13.516889 -4.464276 1.225071
v -13.498641 -4.532315 1.367139
v -13.492848 -4.522276 1.367139
v -13.516889 -4.464276 1.306464
v -13.545676 -4.462497 1.393777
v -13.540035 -4.458547 1.367139
v -13.539674 -4.461281 1.367139
vn -0.5736 0.8192 -0.0000
vn -0.7280 0.0957 -0.6789
vn -0.6238 0.2582 -0.7377
vn -0.6784 0.2808 -0.6789
vn -0.4048 0.1084 -0.9080
vn -0.5357 0.4109 -0.7377
vn -0.5826 0.4469 -0.6789
vn -0.3629 -0.2096 -0.9080
vn -0.7280 -0.0960 -0.6789
vn -0.6783 -0.2811 -0.6789
vn -0.0000 -0.0000 -1.0000
vn 0.4818 0.3666 0.7959
vn 0.7687 0.3248 -0.5511
vn 0.6649 0.5070 -0.5485
vn 0.0995 0.6554 0.7487
vn 0.3268 0.7481 -0.5776
vn 0.1175 0.7893 -0.6027
vn 0.0883 -0.6693 -0.7377
vn 0.2811 -0.6783 -0.6789
vn 0.2585 -0.6237 -0.7377
vn 0.0960 -0.7280 -0.6789
vn 0.3817 0.4788 0.7906
vn 0.7932 0.6089 -0.0000
vn 0.6783 0.2811 -0.6789
vn 0.5824 0.4471 -0.6789
vn 0.9238 0.3829 -0.0000
vn 0.5621 0.2402 0.7914
vn 0.9979 -0.0652 -0.0000
vn 0.5826 -0.4469 -0.6789
vn 0.7935 -0.6086 -0.0000
vn 0.4471 -0.5824 -0.6789
vn 0.8054 -0.1600 0.5708
vn 0.6479 -0.0625 0.7592
vn 0.8023 -0.0823 -0.5913
vn 0.6214 0.0963 0.7775
vn 0.8160 0.1210 -0.5652
vn 0.9914 0.1308 -0.0000
vn 0.9659 0.2590 -0.0000
vn -0.1308 0.9914 -0.0000
vn 0.1303 0.9915 -0.0000
vn -0.0960 0.7280 -0.6789
vn 0.0957 0.7280 -0.6789
vn 0.5736 -0.8192 -0.0000
vn 0.5134 0.6522 -0.5578
vn 0.2573 0.5762 0.7757
vn 0.2582 0.6238 -0.7377
vn 0.6086 0.7935 -0.0000
vn 0.3825 0.9240 -0.0000
vn 0.4109 0.5357 -0.7377
vn -0.4109 -0.5357 -0.7377
vn -0.5824 -0.4471 -0.6789
vn -0.4469 -0.5826 -0.6789
vn -0.5355 -0.4111 -0.7377
vn 1.0000 0.0002 -0.0000
vn 0.5660 -0.4289 0.7040
vn 0.7283 -0.2822 -0.6245
vn 0.6335 -0.2464 0.7335
vn -0.3845 0.6030 0.6990
vn -0.2748 0.6670 0.6926
vn -0.2517 0.9301 -0.2674
vn -0.0880 -0.6694 -0.7377
vn -0.2808 -0.6784 -0.6789
vn -0.0957 -0.7280 -0.6789
vn -0.2582 -0.6238 -0.7377
vn 0.6784 -0.2808 -0.6789
vn 0.9240 -0.3825 -0.0000
vn -0.2733 0.7020 -0.6577
vn 0.4615 -0.5545 0.6925
vn 0.8090 -0.5233 -0.2678
vn 0.6103 -0.4491 -0.6526
vn 0.1949 0.9808 -0.0000
vn -0.3829 0.9238 -0.0000
vn 0.9915 -0.1303 -0.0000
vn 0.7280 0.0960 -0.6789
vn -0.2811 0.6783 -0.6789
vn 0.5355 0.4111 -0.7377
vn -0.4471 0.5824 -0.6789
vn 0.0535 0.8194 0.5708
vn 0.0880 0.6694 -0.7377
vn -0.2585 0.6237 -0.7377
vn 0.1581 0.7958 -0.5845
vn 0.6693 0.0883 -0.7377
vn 0.6694 -0.0880 -0.7377
vn 0.6237 0.2585 -0.7377
vn -0.8192 -0.5736 -0.0000
vn 0.4469 0.5826 -0.6789
vn 0.7280 -0.0957 -0.6789
vn 0.8096 -0.0529 -0.5845
vn 0.5357 -0.4109 -0.7377
vn 0.6238 -0.2582 -0.7377
vn 0.2808 0.6784 -0.6789
vn -0.0784 0.6908 0.7188
vn -0.0824 0.7732 -0.6288
vn -0.0883 0.6693 -0.7377
vn -0.0000 -0.0000 1.0000
s 0
s 1
s 0
s 1
s 0
s 1
s 0
s 1
s 0
s 1
s 0
s 1
s 0
s 1
s 0
s 1
s 0
s 1
usemtl [Color_008]1
f 1//1 2//1 3//1
f 2//1 1//1 4//1
f 4//1 1//1 5//1
f 16//12 17//13 18//14
f 19//15 20//16 21//17
f 16//12 18//14 26//22
f 31//27 17//13 16//12
f 37//33 38//34 39//35
f 39//35 38//34 40//36
f 51//43 52//43 53//43
f 52//43 51//43 54//43
f 54//43 51//43 55//43
f 26//22 58//44 59//45
f 2//23 69//23 3//23
f 69//23 2//23 70//23
f 70//23 2//23 71//23
f 71//23 2//23 72//23
f 59//45 20//16 19//15
f 73//55 74//56 75//57
f 4//58 76//59 2//60
f 32//23 52//23 36//23
f 52//23 32//23 53//23
f 53//23 32//23 41//23
f 53//23 41//23 77//23
f 2//60 76//59 84//67
f 51//68 53//69 85//70
f 55//85 1//85 54//85
f 1//85 55//85 5//85
f 75//57 74//56 38//34
f 73//55 85//70 74//56
f 26//22 18//14 58//44
f 51//68 85//70 73//55
f 76//59 109//92 84//67
f 109//92 19//15 110//93
f 77//11 85//11 53//11
f 85//11 77//11 106//11
f 85//11 106//11 74//11
f 74//11 106//11 107//11
f 74//11 107//11 38//11
f 38//11 107//11 100//11
f 38//11 100//11 40//11
f 40//11 100//11 98//11
f 40//11 98//11 17//11
f 17//11 98//11 101//11
f 17//11 101//11 18//11
f 18//11 101//11 94//11
f 18//11 94//11 63//11
f 18//11 63//11 58//11
f 58//11 63//11 60//11
f 58//11 60//11 20//11
f 20//11 60//11 96//11
f 20//11 96//11 21//11
f 21//11 96//11 111//11
f 21//11 111//11 110//11
f 110//11 111//11 97//11
f 110//11 97//11 84//11
f 84//11 97//11 72//11
f 84//11 72//11 2//11
f 84//67 109//92 110//93
f 39//35 40//36 31//27
f 54//11 24//11 52//11
f 24//11 54//11 22//11
f 22//11 54//11 78//11
f 78//11 54//11 81//11
f 1//11 81//11 54//11
f 52//11 24//11 36//11
f 81//11 1//11 64//11
f 64//11 1//11 67//11
f 67//11 1//11 12//11
f 12//11 1//11 15//11
f 15//11 1//11 9//11
f 9//11 1//11 7//11
f 7//11 1//11 10//11
f 10//11 1//11 69//11
f 69//11 1//11 3//11
f 31//27 40//36 17//13
f 75//57 38//34 37//33
f 73//95 55//95 51//95
f 55//95 73//95 5//95
f 5//95 73//95 75//95
f 5//95 75//95 37//95
f 5//95 37//95 39//95
f 5//95 39//95 31//95
f 5//95 31//95 16//95
f 5//95 16//95 26//95
f 5//95 26//95 59//95
f 5//95 59//95 19//95
f 5//95 19//95 109//95
f 5//95 109//95 76//95
f 5//95 76//95 4//95
f 110//93 19//15 21//17
f 59//45 58//44 20//16
