o Vaporizer_2
v -13.619808 -4.507962 1.296105
v -13.562584 -4.467893 1.367139
v -13.562584 -4.467893 1.296105
v -13.566274 -4.470476 1.393777
v -13.619808 -4.507962 1.393777
v -13.577887 -4.499512 1.225071
v -13.574890 -4.488316 1.296105
v -13.574890 -4.488316 1.225071
v -13.577887 -4.499512 1.296105
v -13.569098 -4.478278 1.296105
v -13.569098 -4.478278 1.225071
v -13.574883 -4.522295 1.296105
v -13.577885 -4.511101 1.225071
v -13.574883 -4.522295 1.225071
v -13.577885 -4.511101 1.296105
v -13.504184 -4.481986 1.393777
v -13.490308 -4.487241 1.367139
v -13.496466 -4.476582 1.367139
v -13.534193 -4.463073 1.393777
v -13.515834 -4.461727 1.367139
v -13.527725 -4.458544 1.367139
v -13.528065 -4.549311 1.296105
v -13.516870 -4.546309 1.225071
v -13.516870 -4.546309 1.296105
v -13.528065 -4.549311 1.225071
v -13.512714 -4.473161 1.393777
v -13.498653 -4.478261 1.306464
v -13.492857 -4.488297 1.225071
v -13.498653 -4.478261 1.225071
v -13.492857 -4.488297 1.306464
v -13.497938 -4.492584 1.393777
v -13.506835 -4.540512 1.306464
v -13.498641 -4.532315 1.225071
v -13.498641 -4.532315 1.306464
v -13.506835 -4.540512 1.225071
v -13.506835 -4.540512 1.296105
v -13.493824 -4.516137 1.393777
v -13.487117 -4.511441 1.367139
v -13.494405 -4.504232 1.393777
v -13.487120 -4.499131 1.367139
v -13.506835 -4.540512 1.316823
v -13.498641 -4.532315 1.316823
v -13.577885 -4.511101 1.367139
v -13.574883 -4.522295 1.367139
v -13.539674 -4.461281 1.306464
v -13.528085 -4.461279 1.316823
v -13.528085 -4.461279 1.306464
v -13.539674 -4.461281 1.316823
v -13.539674 -4.461281 1.225071
v -13.528085 -4.461279 1.225071
v -13.509183 -4.545521 1.393777
v -13.505155 -4.542700 1.296105
v -13.505155 -4.542700 1.367139
v -13.565766 -4.585141 1.296105
v -13.565766 -4.585141 1.393777
v -13.498653 -4.478261 1.316823
v -13.492857 -4.488297 1.316823
v -13.505172 -4.467879 1.367139
v -13.522950 -4.466710 1.393777
v -13.516889 -4.464276 1.367139
v -13.506850 -4.470068 1.316823
v -13.516889 -4.464276 1.316823
v -13.506850 -4.470068 1.367139
v -13.560888 -4.540524 1.296105
v -13.569085 -4.532331 1.225071
v -13.560888 -4.540524 1.225071
v -13.569085 -4.532331 1.296105
v -13.577887 -4.499512 1.367139
v -13.560904 -4.470081 1.296105
v -13.560904 -4.470081 1.306464
v -13.560904 -4.470081 1.316823
v -13.560904 -4.470081 1.367139
v -13.501473 -4.537510 1.393777
v -13.490300 -4.523332 1.367139
v -13.496235 -4.527487 1.393777
v -13.556619 -4.465022 1.393777
v -13.506835 -4.540512 1.367139
v -13.539654 -4.549314 1.296105
v -13.550850 -4.546317 1.225071
v -13.539654 -4.549314 1.225071
v -13.550850 -4.546317 1.296105
v -13.492848 -4.522276 1.225071
v -13.492848 -4.522276 1.306464
v -13.551925 -4.461735 1.367139
v -13.496452 -4.533994 1.367139
v -13.550868 -4.464283 1.316823
v -13.550868 -4.464283 1.306464
v -13.492848 -4.522276 1.316823
v -13.489852 -4.511081 1.306464
v -13.489852 -4.511081 1.316823
v -13.489854 -4.499491 1.225071
v -13.489854 -4.499491 1.306464
v -13.550868 -4.464283 1.225071
v -13.498653 -4.478261 1.367139
v -13.560904 -4.470081 1.225071
v -13.528085 -4.461279 1.367139
v -13.550868 -4.464283 1.367139
v -13.489854 -4.499491 1.367139
v -13.489854 -4.499491 1.316823
v -13.489852 -4.511081 1.367139
v -13.492857 -4.488297 1.367139
v -13.506850 -4.470068 1.306464
v -13.506850 -4.470068 1.225071
v -13.489852 -4.511081 1.225071
v -13.516889 -4.464276 1.225071
v -13.498641 -4.532315 1.367139
v -13.492848 -4.522276 1.367139
v -13.516889 -4.464276 1.306464
v -13.545676 -4.462497 1.393777
v -13.540035 -4.458547 1.367139
v -13.539674 -4.461281 1.367139
vn -0.5736 0.8192 -0.0000
vn -0.7280 0.0957 -0.6789
vn -0.6238 0.2582 -0.7377
vn -0.6784 0.2808 -0.6789
vn -0.4048 0.1084 -0.9080
vn -0.5357 0.4109 -0.7377
vn -0.5826 0.4469 -0.6789
vn -0.3629 -0.2096 -0.9080
vn -0.7280 -0.0960 -0.6789
vn -0.6783 -0.2811 -0.6789
vn -0.0000 -0.0000 -1.0000
vn 0.4818 0.3666 0.7959
vn 0.7687 0.3248 -0.5511
vn 0.6649 0.5070 -0.5485
vn 0.0995 0.6554 0.7487
vn 0.3268 0.7481 -0.5776
vn 0.1175 0.7893 -0.6027
vn 0.0883 -0.6693 -0.7377
vn 0.2811 -0.6783 -0.6789
vn 0.2585 -0.6237 -0.7377
vn 0.0960 -0.7280 -0.6789
vn 0.3817 0.4788 0.7906
vn 0.7932 0.6089 -0.0000
vn 0.6783 0.2811 -0.6789
vn 0.5824 0.4471 -0.6789
vn 0.9238 0.3829 -0.0000
vn 0.5621 0.2402 0.7914
vn 0.9979 -0.0652 -0.0000
vn 0.5826 -0.4469 -0.6789
vn 0.7935 -0.6086 -0.0000
vn 0.4471 -0.5824 -0.6789
vn 0.8054 -0.1600 0.5708
vn 0.6479 -0.0625 0.7592
vn 0.8023 -0.0823 -0.5913
vn 0.6214 0.0963 0.7775
vn 0.8160 0.1210 -0.5652
vn 0.9914 0.1308 -0.0000
vn 0.9659 0.2590 -0.0000
vn -0.1308 0.9914 -0.0000
vn 0.1303 0.9915 -0.0000
vn -0.0960 0.7280 -0.6789
vn 0.0957 0.7280 -0.6789
vn 0.5736 -0.8192 -0.0000
vn 0.5134 0.6522 -0.5578
vn 0.2573 0.5762 0.7757
vn 0.2582 0.6238 -0.7377
vn 0.6086 0.7935 -0.0000
vn 0.3825 0.9240 -0.0000
vn 0.4109 0.5357 -0.7377
vn -0.4109 -0.5357 -0.7377
vn -0.5824 -0.4471 -0.6789
vn -0.4469 -0.5826 -0.6789
vn -0.5355 -0.4111 -0.7377
vn 1.0000 0.0002 -0.0000
vn 0.5660 -0.4289 0.7040
vn 0.7283 -0.2822 -0.6245
vn 0.6335 -0.2464 0.7335
vn -0.3845 0.6030 0.6990
vn -0.2748 0.6670 0.6926
vn -0.2517 0.9301 -0.2674
vn -0.0880 -0.6694 -0.7377
vn -0.2808 -0.6784 -0.6789
vn -0.0957 -0.7280 -0.6789
vn -0.2582 -0.6238 -0.7377
vn 0.6784 -0.2808 -0.6789
vn 0.9240 -0.3825 -0.0000
vn -0.2733 0.7020 -0.6577
vn 0.4615 -0.5545 0.6925
vn 0.8090 -0.5233 -0.2678
vn 0.6103 -0.4491 -0.6526
vn 0.1949 0.9808 -0.0000
vn -0.3829 0.9238 -0.0000
vn 0.9915 -0.1303 -0.0000
vn 0.7280 0.0960 -0.6789
vn -0.2811 0.6783 -0.6789
vn 0.5355 0.4111 -0.7377
vn -0.4471 0.5824 -0.6789
vn 0.0535 0.8194 0.5708
vn 0.0880 0.6694 -0.7377
vn -0.2585 0.6237 -0.7377
vn 0.1581 0.7958 -0.5845
vn 0.6693 0.0883 -0.7377
vn 0.6694 -0.0880 -0.7377
vn 0.6237 0.2585 -0.7377
vn -0.8192 -0.5736 -0.0000
vn 0.4469 0.5826 -0.6789
vn 0.7280 -0.0957 -0.6789
vn 0.8096 -0.0529 -0.5845
vn 0.5357 -0.4109 -0.7377
vn 0.6238 -0.2582 -0.7377
vn 0.2808 0.6784 -0.6789
vn -0.0784 0.6908 0.7188
vn -0.0824 0.7732 -0.6288
vn -0.0883 0.6693 -0.7377
vn -0.0000 -0.0000 1.0000
s 0
s 1
s 0
s 1
s 0
s 1
s 0
s 1
s 0
s 1
s 0
s 1
s 0
s 1
s 0
s 1
s 0
s 1
usemtl [Color_A01]
f 41//28 34//30 42//30
f 34//30 41//28 32//28
f 45//39 46//40 47//40
f 46//40 45//39 48//39
f 56//23 30//26 27//23
f 30//26 56//23 57//26
f 70//71 86//72 87//72
f 86//72 70//71 71//71
f 88//66 89//73 90//73
f 89//73 88//66 83//66
f 57//26 92//37 30//26
f 92//37 57//26 99//37
f 61//47 27//23 102//47
f 27//23 61//47 56//23
f 87//72 48//39 45//39
f 48//39 87//72 86//72
f 62//48 102//47 108//48
f 102//47 62//48 61//47
f 46//40 108//48 47//40
f 108//48 46//40 62//48
f 99//37 89//73 92//37
f 89//73 99//37 90//73
f 42//30 83//66 88//66
f 83//66 42//30 34//30
