o DoorFrame.001
v -0.026808 -0.135172 0.000000
v 0.053192 -0.135256 0.000000
v 0.053122 -0.201656 0.000000
v -0.026808 -0.135172 2.100000
v 0.053192 -0.135256 2.100000
v 0.052219 -1.064855 2.100000
v -0.027781 -1.064772 2.100000
v -0.027712 -0.998372 2.020000
v 0.053122 -0.201656 2.020000
v -0.027712 -0.998372 0.000000
v -0.027781 -1.064772 0.000000
v 0.052219 -1.064855 0.000000
v 0.012288 -0.998413 2.020000
v 0.013122 -0.201614 2.020000
v 0.013122 -0.201614 0.000000
v 0.013105 -0.218214 2.020000
v 0.013105 -0.218214 0.000000
v 0.053105 -0.218256 2.020000
v 0.053105 -0.218256 0.000000
v 0.012288 -0.998413 0.000000
v -0.026878 -0.201572 2.020000
v -0.026878 -0.201572 0.000000
v 0.052288 -0.998455 2.020000
v 0.052288 -0.998455 0.000000
v 0.052306 -0.981855 0.000000
v 0.012306 -0.981813 0.000000
v 0.052306 -0.981855 2.020000
v 0.012306 -0.981813 2.000000
v 0.012306 -0.981813 2.020000
v 0.053105 -0.218256 2.000000
v 0.013105 -0.218214 2.000000
v 0.052306 -0.981855 2.000000
vn 0.0010 1.0000 -0.0000
vn -0.0000 -0.0000 1.0000
vn -0.0010 -1.0000 -0.0000
vn 1.0000 -0.0010 -0.0000
vn -0.0000 -0.0000 -1.0000
vn -1.0000 0.0010 -0.0000
s 0
usemtl Door_material
f 5//1 1//1 4//1
f 13//1 10//1 8//1
f 4//2 6//2 5//2
f 12//3 7//3 11//3
f 21//3 15//3 14//3
f 16//3 19//3 18//3
f 12//4 23//4 6//4
f 14//5 8//5 21//5
f 21//6 1//6 22//6
f 11//6 8//6 10//6
f 15//6 16//6 14//6
f 9//4 2//4 5//4
f 32//5 31//5 30//5
f 7//6 21//6 8//6
f 5//4 23//4 9//4
f 3//5 17//5 15//5
f 19//4 9//4 18//4
f 26//6 13//6 29//6
f 27//1 26//1 29//1
f 25//5 20//5 26//5
f 24//4 27//4 23//4
f 18//4 32//4 30//4
f 31//6 29//6 16//6
f 9//2 23//2 27//2
f 5//1 2//1 1//1
f 13//1 20//1 10//1
f 4//2 7//2 6//2
f 12//3 6//3 7//3
f 21//3 22//3 15//3
f 16//3 17//3 19//3
f 12//4 24//4 23//4
f 14//5 13//5 8//5
f 21//6 4//6 1//6
f 11//6 7//6 8//6
f 15//6 17//6 16//6
f 9//4 3//4 2//4
f 32//5 28//5 31//5
f 7//6 4//6 21//6
f 5//4 6//4 23//4
f 3//5 19//5 17//5
f 19//4 3//4 9//4
f 26//6 20//6 13//6
f 27//1 25//1 26//1
f 25//5 24//5 20//5
f 24//4 25//4 27//4
f 18//4 27//4 32//4
f 31//6 28//6 29//6
