o SM_Prop_Television_Flat_Wall_01_-_Copy.003
v -0.145032 -1.092743 1.004438
v -0.192810 -1.098195 1.004438
v -0.145032 -1.092743 1.384542
v -0.192810 -1.098195 1.384542
v -0.083761 -1.629678 1.384542
v -0.131538 -1.635130 1.384542
v -0.083761 -1.629678 1.004438
v -0.131538 -1.635130 1.004438
v -0.144426 -1.098058 1.391577
v -0.192203 -1.103510 1.391577
v -0.132145 -1.629814 1.391577
v -0.084367 -1.624362 1.391577
v -0.084368 -1.624362 0.997403
v -0.132145 -1.629814 0.997403
v -0.192203 -1.103510 0.997403
v -0.144426 -1.098058 0.997403
v -0.132434 -1.627282 1.011788
v -0.191914 -1.106042 1.011788
v -0.132434 -1.627282 1.377192
v -0.191914 -1.106042 1.377192
v -0.133023 -1.622121 1.383955
v -0.191325 -1.111203 1.383955
v -0.191325 -1.111203 1.005025
v -0.133023 -1.622121 1.005025
v -0.121390 -1.621599 1.017663
v -0.179874 -1.109091 1.017663
v -0.121390 -1.621599 1.371317
v -0.179874 -1.109091 1.371317
v -0.121969 -1.616525 1.377862
v -0.179295 -1.114165 1.377862
v -0.179295 -1.114165 1.011118
v -0.121969 -1.616525 1.011118
v -0.102704 -1.463676 1.199221
v -0.126089 -1.258744 1.199221
v -0.126089 -1.258744 1.320832
v -0.102704 -1.463676 1.320832
v -0.123241 -1.283703 1.350236
v -0.105552 -1.438717 1.350236
v -0.105552 -1.438717 1.169817
v -0.123241 -1.283703 1.169817
v -0.009573 -1.446512 1.203051
v -0.031486 -1.254485 1.203051
v -0.031486 -1.254485 1.317003
v -0.009573 -1.446512 1.317003
v -0.028817 -1.277873 1.344555
v -0.012242 -1.423124 1.344555
v -0.012242 -1.423124 1.175498
v -0.028817 -1.277873 1.175498
v -0.014732 -1.401300 1.220313
v -0.026327 -1.299697 1.220313
v -0.026327 -1.299697 1.299740
v -0.014732 -1.401300 1.299740
vn -0.1134 0.9936 -0.0000
vn -0.0000 -0.0000 1.0000
vn 0.1134 -0.9936 -0.0000
vn -0.0000 -0.0000 -1.0000
vn -0.9936 -0.1134 -0.0000
vn 0.9936 0.1134 -0.0000
vn -0.0902 0.7908 0.6053
vn 0.0902 -0.7908 0.6053
vn 0.0902 -0.7908 -0.6053
vn -0.0902 0.7908 -0.6053
vn -0.4575 0.8892 -0.0000
vn -0.2455 -0.9694 -0.0000
vn -0.5933 0.6099 -0.5253
vn -0.4615 -0.0527 -0.8856
vn -0.4429 -0.7310 -0.5192
vn -0.4406 -0.7279 0.5253
vn -0.4615 -0.0527 0.8856
vn -0.5962 0.6124 0.5192
vn -0.0450 0.9990 -0.0000
vn 0.1813 -0.9834 -0.0000
vn -0.0081 0.7620 0.6476
vn 0.0596 0.0068 0.9982
vn 0.1638 -0.7442 0.6476
vn 0.1638 -0.7442 -0.6476
vn 0.0596 0.0068 -0.9982
vn -0.0081 0.7620 -0.6476
vn -0.5962 0.6124 -0.5192
vn -0.4406 -0.7279 -0.5253
vn -0.4429 -0.7310 0.5192
vn -0.5933 0.6099 0.5253
vt 0.080676 0.228912
vt 1.000000 0.017847
vt 0.000000 0.982153
vt 0.000000 0.017847
vt 0.101440 0.230583
vt 0.990100 1.000000
vt 0.009899 1.000000
vt 0.990100 0.000000
vt 1.000000 0.982153
vt 0.009899 0.000000
s 0
usemtl Leather
f 2/1/1 3/1/1 1/1/1
f 10/1/2 12/1/2 9/1/2
f 6/1/3 7/1/3 5/1/3
f 14/1/4 16/1/4 13/1/4
f 25/2/5 28/3/5 26/4/5
f 50/5/6 52/5/6 49/5/6
f 4/1/7 9/1/7 3/1/7
f 28/3/5 29/6/5 30/7/5
f 5/1/8 11/1/8 6/1/8
f 44/1/6 45/1/6 46/1/6
f 8/1/9 13/1/9 7/1/9
f 26/4/5 32/8/5 25/2/5
f 1/1/10 15/1/10 2/1/10
f 41/1/6 48/1/6 42/1/6
f 6/1/5 17/1/5 8/1/5
f 4/1/5 18/1/5 20/1/5
f 11/1/5 19/1/5 6/1/5
f 10/1/5 21/1/5 11/1/5
f 10/1/5 20/1/5 22/1/5
f 15/1/5 18/1/5 2/1/5
f 15/1/5 24/1/5 23/1/5
f 14/1/5 17/1/5 24/1/5
f 19/1/11 25/1/11 17/1/11
f 20/1/12 26/1/12 28/1/12
f 19/1/13 29/1/13 27/1/13
f 22/1/14 29/1/14 21/1/14
f 20/1/15 30/1/15 22/1/15
f 18/1/16 31/1/16 26/1/16
f 23/1/17 32/1/17 31/1/17
f 17/1/18 32/1/18 24/1/18
f 3/1/6 34/1/6 1/1/6
f 5/1/6 33/1/6 36/1/6
f 9/1/6 35/1/6 3/1/6
f 12/1/6 37/1/6 9/1/6
f 12/1/6 36/1/6 38/1/6
f 13/1/6 33/1/6 7/1/6
f 13/1/6 40/1/6 39/1/6
f 16/1/6 34/1/6 40/1/6
f 34/1/19 43/1/19 42/1/19
f 33/1/20 44/1/20 36/1/20
f 37/1/21 43/1/21 35/1/21
f 37/1/22 46/1/22 45/1/22
f 38/1/23 44/1/23 46/1/23
f 39/1/24 41/1/24 33/1/24
f 40/1/25 47/1/25 39/1/25
f 40/1/26 42/1/26 48/1/26
f 42/1/6 49/1/6 41/1/6
f 42/1/6 51/1/6 50/1/6
f 43/1/6 52/1/6 51/1/6
f 41/1/6 52/1/6 44/1/6
f 2/1/1 4/1/1 3/1/1
f 10/1/2 11/1/2 12/1/2
f 6/1/3 8/1/3 7/1/3
f 14/1/4 15/1/4 16/1/4
f 25/2/5 27/9/5 28/3/5
f 50/5/6 51/5/6 52/5/6
f 4/1/7 10/1/7 9/1/7
f 28/3/5 27/9/5 29/6/5
f 5/1/8 12/1/8 11/1/8
f 44/1/6 43/1/6 45/1/6
f 8/1/9 14/1/9 13/1/9
f 26/4/5 31/10/5 32/8/5
f 1/1/10 16/1/10 15/1/10
f 41/1/6 47/1/6 48/1/6
f 6/1/5 19/1/5 17/1/5
f 4/1/5 2/1/5 18/1/5
f 11/1/5 21/1/5 19/1/5
f 10/1/5 22/1/5 21/1/5
f 10/1/5 4/1/5 20/1/5
f 15/1/5 23/1/5 18/1/5
f 15/1/5 14/1/5 24/1/5
f 14/1/5 8/1/5 17/1/5
f 19/1/11 27/1/11 25/1/11
f 20/1/12 18/1/12 26/1/12
f 19/1/27 21/1/27 29/1/27
f 22/1/14 30/1/14 29/1/14
f 20/1/28 28/1/28 30/1/28
f 18/1/29 23/1/29 31/1/29
f 23/1/17 24/1/17 32/1/17
f 17/1/30 25/1/30 32/1/30
f 3/1/6 35/1/6 34/1/6
f 5/1/6 7/1/6 33/1/6
f 9/1/6 37/1/6 35/1/6
f 12/1/6 38/1/6 37/1/6
f 12/1/6 5/1/6 36/1/6
f 13/1/6 39/1/6 33/1/6
f 13/1/6 16/1/6 40/1/6
f 16/1/6 1/1/6 34/1/6
f 34/1/19 35/1/19 43/1/19
f 33/1/20 41/1/20 44/1/20
f 37/1/21 45/1/21 43/1/21
f 37/1/22 38/1/22 46/1/22
f 38/1/23 36/1/23 44/1/23
f 39/1/24 47/1/24 41/1/24
f 40/1/25 48/1/25 47/1/25
f 40/1/26 34/1/26 42/1/26
f 42/1/6 50/1/6 49/1/6
f 42/1/6 43/1/6 51/1/6
f 43/1/6 44/1/6 52/1/6
f 41/1/6 49/1/6 52/1/6
