o SM_Prop_Television_Flat_Wall_01_-_Copy.002
v -2.927868 -0.230603 1.246682
v -2.926560 -0.278673 1.246682
v -2.927868 -0.230603 1.626786
v -2.926560 -0.278673 1.626786
v -2.387649 -0.215904 1.626786
v -2.386341 -0.263974 1.626786
v -2.387649 -0.215904 1.246682
v -2.386341 -0.263974 1.246682
v -2.922520 -0.230457 1.633821
v -2.921212 -0.278527 1.633821
v -2.391689 -0.264119 1.633821
v -2.392997 -0.216049 1.633821
v -2.392997 -0.216049 1.239647
v -2.391689 -0.264119 1.239647
v -2.921212 -0.278527 1.239647
v -2.922520 -0.230457 1.239647
v -2.394237 -0.264189 1.254031
v -2.918665 -0.278458 1.254031
v -2.394237 -0.264189 1.619436
v -2.918665 -0.278458 1.619436
v -2.399429 -0.264330 1.626199
v -2.913473 -0.278317 1.626199
v -2.913473 -0.278317 1.247269
v -2.399429 -0.264330 1.247269
v -2.398945 -0.252695 1.259907
v -2.914588 -0.266726 1.259907
v -2.398945 -0.252695 1.613561
v -2.914588 -0.266726 1.613561
v -2.404050 -0.252834 1.620106
v -2.909483 -0.266587 1.620106
v -2.909483 -0.266587 1.253361
v -2.404050 -0.252834 1.253361
v -2.554666 -0.220448 1.441465
v -2.760851 -0.226059 1.441465
v -2.760851 -0.226058 1.563076
v -2.554666 -0.220448 1.563076
v -2.735739 -0.225375 1.592480
v -2.579777 -0.221132 1.592480
v -2.579777 -0.221132 1.412060
v -2.735739 -0.225375 1.412060
v -2.563728 -0.126183 1.445294
v -2.756929 -0.131440 1.445294
v -2.756929 -0.131440 1.559246
v -2.563728 -0.126183 1.559246
v -2.733398 -0.130800 1.586799
v -2.587258 -0.126824 1.586799
v -2.587258 -0.126824 1.417742
v -2.733398 -0.130800 1.417742
v -2.609216 -0.127421 1.462557
v -2.711441 -0.130203 1.462557
v -2.711441 -0.130203 1.541983
v -2.609216 -0.127421 1.541983
vn -0.9996 -0.0272 -0.0000
vn -0.0000 -0.0000 1.0000
vn 0.9996 0.0272 -0.0000
vn -0.0000 -0.0000 -1.0000
vn 0.0272 -0.9996 -0.0000
vn -0.0272 0.9996 -0.0000
vn -0.7957 -0.0216 0.6053
vn 0.7957 0.0216 0.6053
vn 0.7957 0.0216 -0.6053
vn -0.7957 -0.0216 -0.6053
vn -0.9254 -0.3791 -0.0000
vn 0.9446 -0.3282 -0.0000
vn -0.6589 -0.5385 -0.5253
vn 0.0126 -0.4643 -0.8856
vn 0.6900 -0.5043 -0.5192
vn 0.6872 -0.5018 0.5253
vn 0.0126 -0.4643 0.8856
vn -0.6615 -0.5411 0.5192
vn -0.9991 0.0414 -0.0000
vn 0.9954 0.0957 -0.0000
vn -0.7598 0.0577 0.6476
vn -0.0016 0.0600 0.9982
vn 0.7556 0.0989 0.6476
vn 0.7556 0.0989 -0.6476
vn -0.0016 0.0600 -0.9982
vn -0.7598 0.0577 -0.6476
vn -0.6616 -0.5411 -0.5192
vn 0.6872 -0.5018 -0.5253
vn 0.6900 -0.5043 0.5192
vn -0.6589 -0.5385 0.5253
vt 0.080676 0.228912
vt 1.000000 0.017847
vt 0.000000 0.982153
vt 0.000000 0.017847
vt 0.101440 0.230583
vt 0.990100 1.000000
vt 0.009899 1.000000
vt 0.990100 0.000000
vt 1.000000 0.982153
vt 0.009899 0.000000
s 0
usemtl Leather
f 2/1/1 3/1/1 1/1/1
f 10/1/2 12/1/2 9/1/2
f 6/1/3 7/1/3 5/1/3
f 14/1/4 16/1/4 13/1/4
f 25/2/5 28/3/5 26/4/5
f 50/5/6 52/5/6 49/5/6
f 4/1/7 9/1/7 3/1/7
f 28/3/5 29/6/5 30/7/5
f 5/1/8 11/1/8 6/1/8
f 44/1/6 45/1/6 46/1/6
f 8/1/9 13/1/9 7/1/9
f 26/4/5 32/8/5 25/2/5
f 1/1/10 15/1/10 2/1/10
f 41/1/6 48/1/6 42/1/6
f 6/1/5 17/1/5 8/1/5
f 4/1/5 18/1/5 20/1/5
f 11/1/5 19/1/5 6/1/5
f 10/1/5 21/1/5 11/1/5
f 10/1/5 20/1/5 22/1/5
f 15/1/5 18/1/5 2/1/5
f 15/1/5 24/1/5 23/1/5
f 14/1/5 17/1/5 24/1/5
f 19/1/11 25/1/11 17/1/11
f 20/1/12 26/1/12 28/1/12
f 19/1/13 29/1/13 27/1/13
f 22/1/14 29/1/14 21/1/14
f 20/1/15 30/1/15 22/1/15
f 18/1/16 31/1/16 26/1/16
f 23/1/17 32/1/17 31/1/17
f 17/1/18 32/1/18 24/1/18
f 3/1/6 34/1/6 1/1/6
f 5/1/6 33/1/6 36/1/6
f 9/1/6 35/1/6 3/1/6
f 12/1/6 37/1/6 9/1/6
f 12/1/6 36/1/6 38/1/6
f 13/1/6 33/1/6 7/1/6
f 13/1/6 40/1/6 39/1/6
f 16/1/6 34/1/6 40/1/6
f 34/1/19 43/1/19 42/1/19
f 33/1/20 44/1/20 36/1/20
f 37/1/21 43/1/21 35/1/21
f 37/1/22 46/1/22 45/1/22
f 38/1/23 44/1/23 46/1/23
f 39/1/24 41/1/24 33/1/24
f 40/1/25 47/1/25 39/1/25
f 40/1/26 42/1/26 48/1/26
f 42/1/6 49/1/6 41/1/6
f 42/1/6 51/1/6 50/1/6
f 43/1/6 52/1/6 51/1/6
f 41/1/6 52/1/6 44/1/6
f 2/1/1 4/1/1 3/1/1
f 10/1/2 11/1/2 12/1/2
f 6/1/3 8/1/3 7/1/3
f 14/1/4 15/1/4 16/1/4
f 25/2/5 27/9/5 28/3/5
f 50/5/6 51/5/6 52/5/6
f 4/1/7 10/1/7 9/1/7
f 28/3/5 27/9/5 29/6/5
f 5/1/8 12/1/8 11/1/8
f 44/1/6 43/1/6 45/1/6
f 8/1/9 14/1/9 13/1/9
f 26/4/5 31/10/5 32/8/5
f 1/1/10 16/1/10 15/1/10
f 41/1/6 47/1/6 48/1/6
f 6/1/5 19/1/5 17/1/5
f 4/1/5 2/1/5 18/1/5
f 11/1/5 21/1/5 19/1/5
f 10/1/5 22/1/5 21/1/5
f 10/1/5 4/1/5 20/1/5
f 15/1/5 23/1/5 18/1/5
f 15/1/5 14/1/5 24/1/5
f 14/1/5 8/1/5 17/1/5
f 19/1/11 27/1/11 25/1/11
f 20/1/12 18/1/12 26/1/12
f 19/1/27 21/1/27 29/1/27
f 22/1/14 30/1/14 29/1/14
f 20/1/28 28/1/28 30/1/28
f 18/1/29 23/1/29 31/1/29
f 23/1/17 24/1/17 32/1/17
f 17/1/30 25/1/30 32/1/30
f 3/1/6 35/1/6 34/1/6
f 5/1/6 7/1/6 33/1/6
f 9/1/6 37/1/6 35/1/6
f 12/1/6 38/1/6 37/1/6
f 12/1/6 5/1/6 36/1/6
f 13/1/6 39/1/6 33/1/6
f 13/1/6 16/1/6 40/1/6
f 16/1/6 1/1/6 34/1/6
f 34/1/19 35/1/19 43/1/19
f 33/1/20 41/1/20 44/1/20
f 37/1/21 45/1/21 43/1/21
f 37/1/22 38/1/22 46/1/22
f 38/1/23 36/1/23 44/1/23
f 39/1/24 47/1/24 41/1/24
f 40/1/25 48/1/25 47/1/25
f 40/1/26 34/1/26 42/1/26
f 42/1/6 50/1/6 49/1/6
f 42/1/6 43/1/6 51/1/6
f 43/1/6 44/1/6 52/1/6
f 41/1/6 49/1/6 52/1/6
