o SM_Prop_Computer_Keyboard_01.003
v -0.690066 -1.124032 0.860585
v -0.689798 -1.579082 0.860642
v -0.694396 -1.124032 0.880698
v -0.694128 -1.579082 0.880755
v -0.526203 -1.123926 0.933629
v -0.525935 -1.578976 0.933687
v -0.518433 -1.123926 0.897532
v -0.518165 -1.578976 0.897590
v -0.512002 -1.131773 0.936686
v -0.708588 -1.131896 0.877642
v -0.704258 -1.131896 0.857530
v -0.504232 -1.131773 0.900590
v -0.703999 -1.571235 0.857585
v -0.708329 -1.571235 0.877698
v -0.511743 -1.571111 0.936742
v -0.503973 -1.571111 0.900645
vn -0.9771 -0.0330 -0.2101
vn -0.9813 0.0162 -0.1916
vn -0.9771 -0.0330 -0.2103
vn -0.2877 -0.0000 0.9577
vn 0.9772 -0.0318 0.2099
vn 0.9813 0.0179 0.1917
vn 0.9771 -0.0318 0.2103
vn 0.2105 -0.0000 -0.9776
vn 0.0006 -1.0000 0.0001
vn -0.0006 1.0000 -0.0001
vn -0.2958 -0.1690 0.9402
vn -0.2899 -0.1692 0.9420
vn -0.9811 0.1111 0.1583
vn -0.4657 0.8793 -0.1002
vn 0.9975 0.0653 -0.0256
vn 0.4646 0.8798 0.1000
vn -0.9081 -0.0597 -0.4145
vn -0.4646 -0.8798 -0.1000
vn -0.9771 -0.0330 -0.2104
vn -0.2901 0.1691 0.9419
vn -0.2960 0.1689 0.9401
vn 0.8768 -0.0780 0.4745
vn 0.4657 -0.8793 0.1002
vn 0.9771 -0.0319 0.2104
vn -0.9732 -0.0174 -0.2292
vn -0.9771 0.0318 -0.2103
vn -0.9771 0.0318 -0.2106
vn 0.9733 -0.0167 0.2290
vn 0.9771 0.0330 0.2103
vn 0.9770 0.0330 0.2108
vn -0.2847 0.1456 0.9475
vn -0.2790 0.1456 0.9492
vn -0.2790 0.1485 0.9487
vn -0.9081 0.0585 -0.4146
vn -0.9771 0.0318 -0.2104
vn 0.8767 0.0792 0.4745
vn 0.9771 0.0331 0.2104
vn -0.9810 -0.1122 0.1583
vn -0.2788 -0.1486 0.9488
vn -0.2789 -0.1457 0.9492
vn -0.2845 -0.1457 0.9475
vn 0.9976 -0.0642 -0.0255
vt 0.973185 0.231311
vt 0.996382 0.240407
vt 0.753500 0.158412
vt 0.996382 0.158412
vt 0.753500 0.240407
s 0
usemtl Leather
f 14/1/1 11/1/2 13/1/3
f 15/2/4 10/3/4 14/4/4
f 16/1/5 9/1/6 15/1/7
f 13/1/8 12/1/8 16/1/8
f 8/1/9 4/1/9 2/1/9
f 7/1/10 3/1/10 5/1/10
f 3/1/11 9/1/12 5/1/11
f 11/1/13 3/1/14 1/1/14
f 12/1/8 1/1/8 7/1/8
f 9/1/15 7/1/16 5/1/16
f 13/1/17 4/1/18 14/1/19
f 15/1/20 4/1/21 6/1/21
f 15/1/22 8/1/23 16/1/24
f 16/1/8 2/1/8 13/1/8
f 14/1/25 10/1/26 11/1/27
f 15/2/4 9/5/4 10/3/4
f 16/1/28 12/1/29 9/1/30
f 13/1/8 11/1/8 12/1/8
f 8/1/9 6/1/9 4/1/9
f 7/1/10 1/1/10 3/1/10
f 3/1/31 10/1/32 9/1/33
f 11/1/34 10/1/35 3/1/14
f 12/1/8 11/1/8 1/1/8
f 9/1/36 12/1/37 7/1/16
f 13/1/38 2/1/18 4/1/18
f 15/1/39 14/1/40 4/1/41
f 15/1/42 6/1/23 8/1/23
f 16/1/8 8/1/8 2/1/8
