o SM_Prop_Clock_01
v -3.657106 -5.464152 1.644030
v -3.744670 -5.464152 1.731592
v -3.776721 -5.464152 1.851205
v -3.744670 -5.464152 1.970817
v -3.657106 -5.464152 2.058380
v -3.537495 -5.464152 2.090430
v -3.417883 -5.464152 2.058380
v -3.330318 -5.464152 1.970817
v -3.298269 -5.464152 1.851205
v -3.330318 -5.464152 1.731592
v -3.417883 -5.464152 1.644030
v -3.537495 -5.464152 1.611979
v -3.657106 -5.410601 1.644030
v -3.744670 -5.410601 1.731592
v -3.776721 -5.410601 1.851205
v -3.744670 -5.410601 1.970817
v -3.657106 -5.410601 2.058380
v -3.537495 -5.410601 2.090430
v -3.417883 -5.410601 2.058380
v -3.330318 -5.410601 1.970817
v -3.298269 -5.410601 1.851205
v -3.330318 -5.410601 1.731592
v -3.417883 -5.410601 1.644030
v -3.537495 -5.410601 1.611979
v -3.537495 -5.464152 1.851205
v -3.646682 -5.410601 1.662087
v -3.726613 -5.410601 1.742017
v -3.755869 -5.410601 1.851205
v -3.726613 -5.410601 1.960392
v -3.646682 -5.410601 2.040323
v -3.537495 -5.410601 2.069579
v -3.428308 -5.410601 2.040323
v -3.348377 -5.410601 1.960392
v -3.319121 -5.410601 1.851205
v -3.348377 -5.410601 1.742017
v -3.428308 -5.410601 1.662087
v -3.537495 -5.410601 1.632830
v -3.640866 -5.423377 1.672161
v -3.716537 -5.423377 1.747834
v -3.537495 -5.423377 1.851205
v -3.744235 -5.423377 1.851205
v -3.716537 -5.423377 1.954576
v -3.640866 -5.423377 2.030248
v -3.537495 -5.423377 2.057946
v -3.434124 -5.423377 2.030248
v -3.358450 -5.423377 1.954576
v -3.330753 -5.423377 1.851205
v -3.358450 -5.423377 1.747834
v -3.434124 -5.423377 1.672161
v -3.537495 -5.423377 1.644463
vn -0.7071 -0.0000 -0.7071
vn -0.9659 -0.0000 -0.2588
vn -0.9659 -0.0000 0.2588
vn -0.7071 -0.0000 0.7071
vn -0.2588 -0.0000 0.9659
vn 0.2588 -0.0000 0.9659
vn 0.7071 -0.0000 0.7071
vn 0.9659 -0.0000 0.2588
vn 0.9659 -0.0000 -0.2588
vn 0.7071 -0.0000 -0.7071
vn 0.2588 -0.0000 -0.9659
vn -0.2588 -0.0000 -0.9659
vn -0.0000 -1.0000 -0.0000
vn -0.0000 1.0000 -0.0000
vn 0.5310 0.6604 0.5310
vn 0.7253 0.6605 0.1943
vn 0.7253 0.6604 -0.1943
vn 0.5309 0.6604 -0.5309
vn 0.1943 0.6604 -0.7253
vn -0.1943 0.6604 -0.7253
vn -0.5310 0.6604 -0.5310
vn -0.7253 0.6604 -0.1944
vn -0.7253 0.6604 0.1943
vn -0.5310 0.6604 0.5310
vn -0.1943 0.6604 0.7253
vn 0.1943 0.6604 0.7253
vn 0.5309 0.6604 0.5310
vn 0.7253 0.6604 0.1943
vn 0.7253 0.6605 -0.1943
vn 0.5310 0.6604 -0.5310
vn -0.7253 0.6604 -0.1943
vn -0.7253 0.6604 0.1944
vt 0.101777 0.229019
vt 0.101776 0.229019
vt 0.469974 0.123805
vt 0.489462 0.143293
vt 0.443353 0.169915
vt 0.496595 0.169915
vt 0.489462 0.196536
vt 0.469974 0.216024
vt 0.443353 0.223157
vt 0.416732 0.216024
vt 0.397244 0.196536
vt 0.390110 0.169915
vt 0.397244 0.143293
vt 0.416732 0.123805
vt 0.443353 0.116672
s 0
usemtl Material.003
f 2/1/1 13/1/1 1/1/1
f 3/2/2 14/1/2 2/1/2
f 4/1/3 15/2/3 3/2/3
f 5/1/4 16/1/4 4/1/4
f 6/1/5 17/1/5 5/1/5
f 7/2/6 18/1/6 6/1/6
f 8/2/7 19/2/7 7/2/7
f 9/2/8 20/2/8 8/2/8
f 10/2/9 21/2/9 9/2/9
f 11/2/10 22/2/10 10/2/10
f 12/2/11 23/2/11 11/2/11
f 1/2/12 24/2/12 12/2/12
f 2/2/13 1/2/13 25/1/13
f 3/1/13 2/2/13 25/1/13
f 4/1/13 3/1/13 25/1/13
f 5/1/13 4/1/13 25/1/13
f 6/1/13 5/1/13 25/1/13
f 7/1/13 6/1/13 25/1/13
f 8/1/13 7/1/13 25/1/13
f 9/1/13 8/1/13 25/1/13
f 10/2/13 9/1/13 25/1/13
f 11/2/13 10/2/13 25/1/13
f 12/2/13 11/2/13 25/1/13
f 1/2/13 12/2/13 25/1/13
f 38/3/14 39/4/14 40/5/14
f 39/4/14 41/6/14 40/5/14
f 41/6/14 42/7/14 40/5/14
f 42/7/14 43/8/14 40/5/14
f 43/8/14 44/9/14 40/5/14
f 44/9/14 45/10/14 40/5/14
f 45/10/14 46/11/14 40/5/14
f 46/11/14 47/12/14 40/5/14
f 47/12/14 48/13/14 40/5/14
f 48/13/14 49/14/14 40/5/14
f 49/14/14 50/15/14 40/5/14
f 50/15/14 38/3/14 40/5/14
f 14/2/14 26/2/14 13/2/14
f 15/1/14 27/2/14 14/2/14
f 15/1/14 29/1/14 28/1/14
f 16/1/14 30/1/14 29/1/14
f 17/1/14 31/1/14 30/1/14
f 19/1/14 31/1/14 18/1/14
f 19/1/14 33/1/14 32/1/14
f 20/1/14 34/1/14 33/1/14
f 22/2/14 34/1/14 21/1/14
f 23/2/14 35/2/14 22/2/14
f 23/2/14 37/2/14 36/2/14
f 13/2/14 37/2/14 24/2/14
f 26/2/15 39/2/15 38/2/15
f 27/2/16 41/1/16 39/2/16
f 29/1/17 41/1/17 28/1/17
f 29/1/18 43/1/18 42/1/18
f 30/1/19 44/1/19 43/1/19
f 31/1/20 45/1/20 44/1/20
f 33/1/21 45/1/21 32/1/21
f 34/1/22 46/1/22 33/1/22
f 34/1/23 48/2/23 47/1/23
f 35/2/24 49/2/24 48/2/24
f 37/2/25 49/2/25 36/2/25
f 26/2/26 50/2/26 37/2/26
f 2/1/1 14/1/1 13/1/1
f 3/2/2 15/2/2 14/1/2
f 4/1/3 16/1/3 15/2/3
f 5/1/4 17/1/4 16/1/4
f 6/1/5 18/1/5 17/1/5
f 7/2/6 19/2/6 18/1/6
f 8/2/7 20/2/7 19/2/7
f 9/2/8 21/2/8 20/2/8
f 10/2/9 22/2/9 21/2/9
f 11/2/10 23/2/10 22/2/10
f 12/2/11 24/2/11 23/2/11
f 1/2/12 13/2/12 24/2/12
f 14/2/14 27/2/14 26/2/14
f 15/1/14 28/1/14 27/2/14
f 15/1/14 16/1/14 29/1/14
f 16/1/14 17/1/14 30/1/14
f 17/1/14 18/1/14 31/1/14
f 19/1/14 32/1/14 31/1/14
f 19/1/14 20/1/14 33/1/14
f 20/1/14 21/1/14 34/1/14
f 22/2/14 35/2/14 34/1/14
f 23/2/14 36/2/14 35/2/14
f 23/2/14 24/2/14 37/2/14
f 13/2/14 26/2/14 37/2/14
f 26/2/27 27/2/27 39/2/27
f 27/2/28 28/1/28 41/1/28
f 29/1/29 42/1/29 41/1/29
f 29/1/30 30/1/30 43/1/30
f 30/1/19 31/1/19 44/1/19
f 31/1/20 32/1/20 45/1/20
f 33/1/21 46/1/21 45/1/21
f 34/1/31 47/1/31 46/1/31
f 34/1/32 35/2/32 48/2/32
f 35/2/24 36/2/24 49/2/24
f 37/2/25 50/2/25 49/2/25
f 26/2/26 38/2/26 50/2/26
