o SurgeryTable.001
v -3.380938 -1.085520 1.082098
v -3.384573 -1.190552 1.252261
v -2.831268 -1.104543 1.082098
v -2.834903 -1.209574 1.252261
v -3.398006 -1.578696 0.777324
v -3.401641 -1.683728 0.947487
v -2.848335 -1.597719 0.777324
v -2.851970 -1.702750 0.947487
vn 0.0294 0.8503 0.5255
vn 0.9994 -0.0346 -0.0000
vn -0.0294 -0.8503 -0.5255
vn -0.9994 0.0346 -0.0000
vn 0.0182 0.5252 -0.8508
vn -0.0182 -0.5252 0.8508
vt 0.625000 0.000000
vt 0.375000 0.250000
vt 0.375000 0.000000
vt 0.625000 0.250000
vt 0.375000 0.500000
vt 0.625000 0.500000
vt 0.375000 0.750000
vt 0.625000 0.750000
vt 0.375000 1.000000
vt 0.125000 0.750000
vt 0.125000 0.500000
vt 0.875000 0.500000
vt 0.625000 1.000000
vt 0.875000 0.750000
s 0
usemtl Leather
f 2/1/1 3/2/1 1/3/1
f 4/4/2 7/5/2 3/2/2
f 8/6/3 5/7/3 7/5/3
f 6/8/4 1/9/4 5/7/4
f 7/5/5 1/10/5 3/11/5
f 4/12/6 6/8/6 8/6/6
f 2/1/1 4/4/1 3/2/1
f 4/4/2 8/6/2 7/5/2
f 8/6/3 6/8/3 5/7/3
f 6/8/4 2/13/4 1/9/4
f 7/5/5 5/7/5 1/10/5
f 4/12/6 2/14/6 6/8/6
